<?xml version="1.0" encoding="utf-8" standalone="no"?>
<!DOCTYPE svg PUBLIC "-//W3C//DTD SVG 1.1//EN"
  "http://www.w3.org/Graphics/SVG/1.1/DTD/svg11.dtd">
<svg xmlns:xlink="http://www.w3.org/1999/xlink" width="404.7175pt" height="265.87875pt" viewBox="0 0 404.7175 265.87875" xmlns="http://www.w3.org/2000/svg" version="1.1">
 <metadata>
  <rdf:RDF xmlns:dc="http://purl.org/dc/elements/1.1/" xmlns:cc="http://creativecommons.org/ns#" xmlns:rdf="http://www.w3.org/1999/02/22-rdf-syntax-ns#">
   <cc:Work>
    <dc:type rdf:resource="http://purl.org/dc/dcmitype/StillImage"/>
    <dc:date>2026-04-21T14:43:25.379239</dc:date>
    <dc:format>image/svg+xml</dc:format>
    <dc:creator>
     <cc:Agent>
      <dc:title>Matplotlib v3.10.8, https://matplotlib.org/</dc:title>
     </cc:Agent>
    </dc:creator>
   </cc:Work>
  </rdf:RDF>
 </metadata>
 <defs>
  <style type="text/css">*{stroke-linejoin: round; stroke-linecap: butt}</style>
 </defs>
 <g id="figure_1">
  <g id="patch_1">
   <path d="M 0 265.87875 
L 404.7175 265.87875 
L 404.7175 0 
L 0 0 
z
" style="fill: #ffffff"/>
  </g>
  <g id="axes_1">
   <g id="patch_2">
    <path d="M 62.7175 228.96 
L 397.5175 228.96 
L 397.5175 7.2 
L 62.7175 7.2 
z
" style="fill: #ffffff"/>
   </g>
   <g id="matplotlib.axis_1">
    <g id="xtick_1">
     <g id="line2d_1">
      <path d="M 190.898187 228.96 
L 190.898187 7.2 
" clip-path="url(#pd0f26e3d99)" style="fill: none; stroke: #e0e0e0; stroke-opacity: 0.7; stroke-width: 0.8; stroke-linecap: square"/>
     </g>
     <g id="line2d_2">
      <defs>
       <path id="m8fb734ddaa" d="M 0 0 
L 0 -4 
" style="stroke: #000000; stroke-width: 0.8"/>
      </defs>
      <g>
       <use xlink:href="#m8fb734ddaa" x="190.898187" y="228.96" style="stroke: #000000; stroke-width: 0.8"/>
      </g>
     </g>
     <g id="text_1">
      <!-- $\mathdefault{10^{-2}}$ -->
      <g transform="translate(181.148187 239.633437)">
       <text>
        <tspan x="0" y="-0.425" style="font-size: 10px; font-family: 'Helvetica'">1</tspan>
        <tspan x="5.561523" y="-0.425" style="font-size: 10px; font-family: 'Helvetica'">0</tspan>
        <tspan x="11.214648" y="-4.089063" style="font-size: 7px; font-family: 'Helvetica'">−</tspan>
        <tspan x="15.302539" y="-4.089063" style="font-size: 7px; font-family: 'Helvetica'">2</tspan>
       </text>
      </g>
     </g>
    </g>
    <g id="xtick_2">
     <g id="line2d_3">
      <path d="M 353.043305 228.96 
L 353.043305 7.2 
" clip-path="url(#pd0f26e3d99)" style="fill: none; stroke: #e0e0e0; stroke-opacity: 0.7; stroke-width: 0.8; stroke-linecap: square"/>
     </g>
     <g id="line2d_4">
      <g>
       <use xlink:href="#m8fb734ddaa" x="353.043305" y="228.96" style="stroke: #000000; stroke-width: 0.8"/>
      </g>
     </g>
     <g id="text_2">
      <!-- $\mathdefault{10^{-1}}$ -->
      <g transform="translate(343.293305 239.633437)">
       <text>
        <tspan x="0" y="-0.457813" style="font-size: 10px; font-family: 'Helvetica'">1</tspan>
        <tspan x="5.561523" y="-0.457813" style="font-size: 10px; font-family: 'Helvetica'">0</tspan>
        <tspan x="11.214648" y="-4.121875" style="font-size: 7px; font-family: 'Helvetica'">−</tspan>
        <tspan x="15.302539" y="-4.121875" style="font-size: 7px; font-family: 'Helvetica'">1</tspan>
       </text>
      </g>
     </g>
    </g>
    <g id="xtick_3">
     <g id="line2d_5">
      <defs>
       <path id="m18965a262b" d="M 0 0 
L 0 -2 
" style="stroke: #000000; stroke-width: 0.6"/>
      </defs>
      <g>
       <use xlink:href="#m18965a262b" x="77.563613" y="228.96" style="stroke: #000000; stroke-width: 0.6"/>
      </g>
     </g>
    </g>
    <g id="xtick_4">
     <g id="line2d_6">
      <g>
       <use xlink:href="#m18965a262b" x="106.115951" y="228.96" style="stroke: #000000; stroke-width: 0.6"/>
      </g>
     </g>
    </g>
    <g id="xtick_5">
     <g id="line2d_7">
      <g>
       <use xlink:href="#m18965a262b" x="126.374157" y="228.96" style="stroke: #000000; stroke-width: 0.6"/>
      </g>
     </g>
    </g>
    <g id="xtick_6">
     <g id="line2d_8">
      <g>
       <use xlink:href="#m18965a262b" x="142.087643" y="228.96" style="stroke: #000000; stroke-width: 0.6"/>
      </g>
     </g>
    </g>
    <g id="xtick_7">
     <g id="line2d_9">
      <g>
       <use xlink:href="#m18965a262b" x="154.926495" y="228.96" style="stroke: #000000; stroke-width: 0.6"/>
      </g>
     </g>
    </g>
    <g id="xtick_8">
     <g id="line2d_10">
      <g>
       <use xlink:href="#m18965a262b" x="165.78159" y="228.96" style="stroke: #000000; stroke-width: 0.6"/>
      </g>
     </g>
    </g>
    <g id="xtick_9">
     <g id="line2d_11">
      <g>
       <use xlink:href="#m18965a262b" x="175.184701" y="228.96" style="stroke: #000000; stroke-width: 0.6"/>
      </g>
     </g>
    </g>
    <g id="xtick_10">
     <g id="line2d_12">
      <g>
       <use xlink:href="#m18965a262b" x="183.478833" y="228.96" style="stroke: #000000; stroke-width: 0.6"/>
      </g>
     </g>
    </g>
    <g id="xtick_11">
     <g id="line2d_13">
      <g>
       <use xlink:href="#m18965a262b" x="239.708731" y="228.96" style="stroke: #000000; stroke-width: 0.6"/>
      </g>
     </g>
    </g>
    <g id="xtick_12">
     <g id="line2d_14">
      <g>
       <use xlink:href="#m18965a262b" x="268.261069" y="228.96" style="stroke: #000000; stroke-width: 0.6"/>
      </g>
     </g>
    </g>
    <g id="xtick_13">
     <g id="line2d_15">
      <g>
       <use xlink:href="#m18965a262b" x="288.519275" y="228.96" style="stroke: #000000; stroke-width: 0.6"/>
      </g>
     </g>
    </g>
    <g id="xtick_14">
     <g id="line2d_16">
      <g>
       <use xlink:href="#m18965a262b" x="304.232761" y="228.96" style="stroke: #000000; stroke-width: 0.6"/>
      </g>
     </g>
    </g>
    <g id="xtick_15">
     <g id="line2d_17">
      <g>
       <use xlink:href="#m18965a262b" x="317.071613" y="228.96" style="stroke: #000000; stroke-width: 0.6"/>
      </g>
     </g>
    </g>
    <g id="xtick_16">
     <g id="line2d_18">
      <g>
       <use xlink:href="#m18965a262b" x="327.926709" y="228.96" style="stroke: #000000; stroke-width: 0.6"/>
      </g>
     </g>
    </g>
    <g id="xtick_17">
     <g id="line2d_19">
      <g>
       <use xlink:href="#m18965a262b" x="337.32982" y="228.96" style="stroke: #000000; stroke-width: 0.6"/>
      </g>
     </g>
    </g>
    <g id="xtick_18">
     <g id="line2d_20">
      <g>
       <use xlink:href="#m18965a262b" x="345.623951" y="228.96" style="stroke: #000000; stroke-width: 0.6"/>
      </g>
     </g>
    </g>
    <g id="text_3">
     <text style="font-size: 14px; font-family: 'Helvetica', 'Arial', sans-serif; text-anchor: middle" x="230.1175" y="255.760625" transform="rotate(-0 230.1175 255.760625)">Fetal SNR</text>
    </g>
   </g>
   <g id="matplotlib.axis_2">
    <g id="ytick_1">
     <g id="line2d_21">
      <defs>
       <path id="md0f0501677" d="M 0 0 
L 2 0 
" style="stroke: #000000; stroke-width: 0.6"/>
      </defs>
      <g>
       <use xlink:href="#md0f0501677" x="62.7175" y="201.021138" style="stroke: #000000; stroke-width: 0.6"/>
      </g>
     </g>
     <g id="text_4">
      <!-- $\mathdefault{2\times10^{-1}}$ -->
      <g transform="translate(24.5175 204.607856)">
       <text>
        <tspan x="0" y="-0.457813" style="font-size: 10px; font-family: 'Helvetica'">2</tspan>
        <tspan x="7.509766" y="-0.457813" style="font-size: 10px; font-family: 'Helvetica'">×</tspan>
        <tspan x="15.297852" y="-0.457813" style="font-size: 10px; font-family: 'Helvetica'">1</tspan>
        <tspan x="20.859375" y="-0.457813" style="font-size: 10px; font-family: 'Helvetica'">0</tspan>
        <tspan x="26.5125" y="-4.121875" style="font-size: 7px; font-family: 'Helvetica'">−</tspan>
        <tspan x="30.600391" y="-4.121875" style="font-size: 7px; font-family: 'Helvetica'">1</tspan>
       </text>
      </g>
     </g>
    </g>
    <g id="ytick_2">
     <g id="line2d_22">
      <g>
       <use xlink:href="#md0f0501677" x="62.7175" y="140.463771" style="stroke: #000000; stroke-width: 0.6"/>
      </g>
     </g>
     <g id="text_5">
      <!-- $\mathdefault{3\times10^{-1}}$ -->
      <g transform="translate(24.5175 144.05049)">
       <text>
        <tspan x="0" y="-0.457813" style="font-size: 10px; font-family: 'Helvetica'">3</tspan>
        <tspan x="7.509766" y="-0.457813" style="font-size: 10px; font-family: 'Helvetica'">×</tspan>
        <tspan x="15.297852" y="-0.457813" style="font-size: 10px; font-family: 'Helvetica'">1</tspan>
        <tspan x="20.859375" y="-0.457813" style="font-size: 10px; font-family: 'Helvetica'">0</tspan>
        <tspan x="26.5125" y="-4.121875" style="font-size: 7px; font-family: 'Helvetica'">−</tspan>
        <tspan x="30.600391" y="-4.121875" style="font-size: 7px; font-family: 'Helvetica'">1</tspan>
       </text>
      </g>
     </g>
    </g>
    <g id="ytick_3">
     <g id="line2d_23">
      <g>
       <use xlink:href="#md0f0501677" x="62.7175" y="97.497635" style="stroke: #000000; stroke-width: 0.6"/>
      </g>
     </g>
     <g id="text_6">
      <!-- $\mathdefault{4\times10^{-1}}$ -->
      <g transform="translate(24.5175 101.084354)">
       <text>
        <tspan x="0" y="-0.457813" style="font-size: 10px; font-family: 'Helvetica'">4</tspan>
        <tspan x="7.509766" y="-0.457813" style="font-size: 10px; font-family: 'Helvetica'">×</tspan>
        <tspan x="15.297852" y="-0.457813" style="font-size: 10px; font-family: 'Helvetica'">1</tspan>
        <tspan x="20.859375" y="-0.457813" style="font-size: 10px; font-family: 'Helvetica'">0</tspan>
        <tspan x="26.5125" y="-4.121875" style="font-size: 7px; font-family: 'Helvetica'">−</tspan>
        <tspan x="30.600391" y="-4.121875" style="font-size: 7px; font-family: 'Helvetica'">1</tspan>
       </text>
      </g>
     </g>
    </g>
    <g id="ytick_4">
     <g id="line2d_24">
      <g>
       <use xlink:href="#md0f0501677" x="62.7175" y="64.170511" style="stroke: #000000; stroke-width: 0.6"/>
      </g>
     </g>
    </g>
    <g id="ytick_5">
     <g id="line2d_25">
      <g>
       <use xlink:href="#md0f0501677" x="62.7175" y="36.940268" style="stroke: #000000; stroke-width: 0.6"/>
      </g>
     </g>
     <g id="text_7">
      <!-- $\mathdefault{6\times10^{-1}}$ -->
      <g transform="translate(24.5175 40.526987)">
       <text>
        <tspan x="0" y="-0.457813" style="font-size: 10px; font-family: 'Helvetica'">6</tspan>
        <tspan x="7.509766" y="-0.457813" style="font-size: 10px; font-family: 'Helvetica'">×</tspan>
        <tspan x="15.297852" y="-0.457813" style="font-size: 10px; font-family: 'Helvetica'">1</tspan>
        <tspan x="20.859375" y="-0.457813" style="font-size: 10px; font-family: 'Helvetica'">0</tspan>
        <tspan x="26.5125" y="-4.121875" style="font-size: 7px; font-family: 'Helvetica'">−</tspan>
        <tspan x="30.600391" y="-4.121875" style="font-size: 7px; font-family: 'Helvetica'">1</tspan>
       </text>
      </g>
     </g>
    </g>
    <g id="ytick_6">
     <g id="line2d_26">
      <g>
       <use xlink:href="#md0f0501677" x="62.7175" y="13.917426" style="stroke: #000000; stroke-width: 0.6"/>
      </g>
     </g>
    </g>
    <g id="text_8">
     <text style="font-size: 14px; font-family: 'Helvetica', 'Arial', sans-serif; text-anchor: middle" x="17.51625" y="118.08" transform="rotate(-90 17.51625 118.08)">Selectivity</text>
    </g>
   </g>
   <g id="line2d_27">
    <path d="M 382.299318 39.899309 
L 273.55161 86.25601 
L 189.304981 165.791971 
L 77.935682 207.989696 
" clip-path="url(#pd0f26e3d99)" style="fill: none; stroke: #2d3047; stroke-width: 2; stroke-linecap: square"/>
    <defs>
     <path id="me5ced0f923" d="M -4 4 
L 4 4 
L 4 -4 
L -4 -4 
z
" style="stroke: #ffffff; stroke-width: 0.5; stroke-linejoin: miter"/>
    </defs>
    <g clip-path="url(#pd0f26e3d99)">
     <use xlink:href="#me5ced0f923" x="382.299318" y="39.899309" style="fill: #2d3047; stroke: #ffffff; stroke-width: 0.5; stroke-linejoin: miter"/>
     <use xlink:href="#me5ced0f923" x="273.55161" y="86.25601" style="fill: #2d3047; stroke: #ffffff; stroke-width: 0.5; stroke-linejoin: miter"/>
     <use xlink:href="#me5ced0f923" x="189.304981" y="165.791971" style="fill: #2d3047; stroke: #ffffff; stroke-width: 0.5; stroke-linejoin: miter"/>
     <use xlink:href="#me5ced0f923" x="77.935682" y="207.989696" style="fill: #2d3047; stroke: #ffffff; stroke-width: 0.5; stroke-linejoin: miter"/>
    </g>
   </g>
   <g id="line2d_28">
    <path d="M 370.501025 17.28 
L 276.637467 84.858228 
L 183.040698 157.156584 
L 93.00948 218.88 
" clip-path="url(#pd0f26e3d99)" style="fill: none; stroke-dasharray: 7.4,3.2; stroke-dashoffset: 0; stroke: #d1345b; stroke-width: 2"/>
    <defs>
     <path id="mb5532852f7" d="M 0 4 
C 1.060812 4 2.078319 3.578535 2.828427 2.828427 
C 3.578535 2.078319 4 1.060812 4 0 
C 4 -1.060812 3.578535 -2.078319 2.828427 -2.828427 
C 2.078319 -3.578535 1.060812 -4 0 -4 
C -1.060812 -4 -2.078319 -3.578535 -2.828427 -2.828427 
C -3.578535 -2.078319 -4 -1.060812 -4 0 
C -4 1.060812 -3.578535 2.078319 -2.828427 2.828427 
C -2.078319 3.578535 -1.060812 4 0 4 
z
" style="stroke: #ffffff; stroke-width: 0.5"/>
    </defs>
    <g clip-path="url(#pd0f26e3d99)">
     <use xlink:href="#mb5532852f7" x="370.501025" y="17.28" style="fill: #d1345b; stroke: #ffffff; stroke-width: 0.5"/>
     <use xlink:href="#mb5532852f7" x="276.637467" y="84.858228" style="fill: #d1345b; stroke: #ffffff; stroke-width: 0.5"/>
     <use xlink:href="#mb5532852f7" x="183.040698" y="157.156584" style="fill: #d1345b; stroke: #ffffff; stroke-width: 0.5"/>
     <use xlink:href="#mb5532852f7" x="93.00948" y="218.88" style="fill: #d1345b; stroke: #ffffff; stroke-width: 0.5"/>
    </g>
   </g>
   <g id="line2d_29">
    <path d="M 356.644354 19.890994 
L 270.674089 79.157826 
L 176.016939 134.148263 
L 87.922649 199.587458 
" clip-path="url(#pd0f26e3d99)" style="fill: none; stroke-dasharray: 2,3.3; stroke-dashoffset: 0; stroke: #ff9b71; stroke-width: 2"/>
    <defs>
     <path id="m41774c636b" d="M 0 -4 
L -4 4 
L 4 4 
z
" style="stroke: #ffffff; stroke-width: 0.5; stroke-linejoin: miter"/>
    </defs>
    <g clip-path="url(#pd0f26e3d99)">
     <use xlink:href="#m41774c636b" x="356.644354" y="19.890994" style="fill: #ff9b71; stroke: #ffffff; stroke-width: 0.5; stroke-linejoin: miter"/>
     <use xlink:href="#m41774c636b" x="270.674089" y="79.157826" style="fill: #ff9b71; stroke: #ffffff; stroke-width: 0.5; stroke-linejoin: miter"/>
     <use xlink:href="#m41774c636b" x="176.016939" y="134.148263" style="fill: #ff9b71; stroke: #ffffff; stroke-width: 0.5; stroke-linejoin: miter"/>
     <use xlink:href="#m41774c636b" x="87.922649" y="199.587458" style="fill: #ff9b71; stroke: #ffffff; stroke-width: 0.5; stroke-linejoin: miter"/>
    </g>
   </g>
   <g id="patch_3">
    <path d="M 62.7175 228.96 
L 62.7175 7.2 
" style="fill: none; stroke: #000000; stroke-width: 0.8; stroke-linejoin: miter; stroke-linecap: square"/>
   </g>
   <g id="patch_4">
    <path d="M 397.5175 228.96 
L 397.5175 7.2 
" style="fill: none; stroke: #000000; stroke-width: 0.8; stroke-linejoin: miter; stroke-linecap: square"/>
   </g>
   <g id="patch_5">
    <path d="M 62.7175 228.96 
L 397.5175 228.96 
" style="fill: none; stroke: #000000; stroke-width: 0.8; stroke-linejoin: miter; stroke-linecap: square"/>
   </g>
   <g id="patch_6">
    <path d="M 62.7175 7.2 
L 397.5175 7.2 
" style="fill: none; stroke: #000000; stroke-width: 0.8; stroke-linejoin: miter; stroke-linecap: square"/>
   </g>
   <g id="text_9">
    <g id="patch_7">
     <path d="M 366.293068 40.505559 
L 390.299318 40.505559 
Q 391.499318 40.505559 391.499318 39.305559 
L 391.499318 31.899309 
Q 391.499318 30.699309 390.299318 30.699309 
L 366.293068 30.699309 
Q 365.093068 30.699309 365.093068 31.899309 
L 365.093068 39.305559 
Q 365.093068 40.505559 366.293068 40.505559 
z
" style="fill: #ffffff; opacity: 0.5"/>
    </g>
    <text style="font-size: 8px; font-family: 'Helvetica', 'Arial', sans-serif; text-anchor: end" x="390.299318" y="37.638059" transform="rotate(-0 390.299318 37.638059)">0.8 cm</text>
   </g>
   <g id="text_10">
    <g id="patch_8">
     <path d="M 257.54536 86.86226 
L 281.55161 86.86226 
Q 282.75161 86.86226 282.75161 85.66226 
L 282.75161 78.25601 
Q 282.75161 77.05601 281.55161 77.05601 
L 257.54536 77.05601 
Q 256.34536 77.05601 256.34536 78.25601 
L 256.34536 85.66226 
Q 256.34536 86.86226 257.54536 86.86226 
z
" style="fill: #ffffff; opacity: 0.5"/>
    </g>
    <text style="font-size: 8px; font-family: 'Helvetica', 'Arial', sans-serif; text-anchor: end" x="281.55161" y="83.99476" transform="rotate(-0 281.55161 83.99476)">1.2 cm</text>
   </g>
   <g id="text_11">
    <g id="patch_9">
     <path d="M 173.298731 166.398221 
L 197.304981 166.398221 
Q 198.504981 166.398221 198.504981 165.198221 
L 198.504981 157.791971 
Q 198.504981 156.591971 197.304981 156.591971 
L 173.298731 156.591971 
Q 172.098731 156.591971 172.098731 157.791971 
L 172.098731 165.198221 
Q 172.098731 166.398221 173.298731 166.398221 
z
" style="fill: #ffffff; opacity: 0.5"/>
    </g>
    <text style="font-size: 8px; font-family: 'Helvetica', 'Arial', sans-serif; text-anchor: end" x="197.304981" y="163.530721" transform="rotate(-0 197.304981 163.530721)">1.6 cm</text>
   </g>
   <g id="text_12">
    <g id="patch_10">
     <path d="M 61.929432 208.595946 
L 85.935682 208.595946 
Q 87.135682 208.595946 87.135682 207.395946 
L 87.135682 199.989696 
Q 87.135682 198.789696 85.935682 198.789696 
L 61.929432 198.789696 
Q 60.729432 198.789696 60.729432 199.989696 
L 60.729432 207.395946 
Q 60.729432 208.595946 61.929432 208.595946 
z
" style="fill: #ffffff; opacity: 0.5"/>
    </g>
    <text style="font-size: 8px; font-family: 'Helvetica', 'Arial', sans-serif; text-anchor: end" x="85.935682" y="205.728446" transform="rotate(-0 85.935682 205.728446)">2.0 cm</text>
   </g>
   <g id="text_13">
    <g id="patch_11">
     <path d="M 354.494775 17.88625 
L 378.501025 17.88625 
Q 379.701025 17.88625 379.701025 16.68625 
L 379.701025 9.28 
Q 379.701025 8.08 378.501025 8.08 
L 354.494775 8.08 
Q 353.294775 8.08 353.294775 9.28 
L 353.294775 16.68625 
Q 353.294775 17.88625 354.494775 17.88625 
z
" style="fill: #ffffff; opacity: 0.5"/>
    </g>
    <text style="font-size: 8px; font-family: 'Helvetica', 'Arial', sans-serif; text-anchor: end" x="378.501025" y="15.01875" transform="rotate(-0 378.501025 15.01875)">0.8 cm</text>
   </g>
   <g id="text_14">
    <g id="patch_12">
     <path d="M 260.631217 85.464478 
L 284.637467 85.464478 
Q 285.837467 85.464478 285.837467 84.264478 
L 285.837467 76.858228 
Q 285.837467 75.658228 284.637467 75.658228 
L 260.631217 75.658228 
Q 259.431217 75.658228 259.431217 76.858228 
L 259.431217 84.264478 
Q 259.431217 85.464478 260.631217 85.464478 
z
" style="fill: #ffffff; opacity: 0.5"/>
    </g>
    <text style="font-size: 8px; font-family: 'Helvetica', 'Arial', sans-serif; text-anchor: end" x="284.637467" y="82.596978" transform="rotate(-0 284.637467 82.596978)">1.2 cm</text>
   </g>
   <g id="text_15">
    <g id="patch_13">
     <path d="M 167.034448 157.762834 
L 191.040698 157.762834 
Q 192.240698 157.762834 192.240698 156.562834 
L 192.240698 149.156584 
Q 192.240698 147.956584 191.040698 147.956584 
L 167.034448 147.956584 
Q 165.834448 147.956584 165.834448 149.156584 
L 165.834448 156.562834 
Q 165.834448 157.762834 167.034448 157.762834 
z
" style="fill: #ffffff; opacity: 0.5"/>
    </g>
    <text style="font-size: 8px; font-family: 'Helvetica', 'Arial', sans-serif; text-anchor: end" x="191.040698" y="154.895334" transform="rotate(-0 191.040698 154.895334)">1.6 cm</text>
   </g>
   <g id="text_16">
    <g id="patch_14">
     <path d="M 77.00323 219.48625 
L 101.00948 219.48625 
Q 102.20948 219.48625 102.20948 218.28625 
L 102.20948 210.88 
Q 102.20948 209.68 101.00948 209.68 
L 77.00323 209.68 
Q 75.80323 209.68 75.80323 210.88 
L 75.80323 218.28625 
Q 75.80323 219.48625 77.00323 219.48625 
z
" style="fill: #ffffff; opacity: 0.5"/>
    </g>
    <text style="font-size: 8px; font-family: 'Helvetica', 'Arial', sans-serif; text-anchor: end" x="101.00948" y="216.61875" transform="rotate(-0 101.00948 216.61875)">2.0 cm</text>
   </g>
   <g id="text_17">
    <g id="patch_15">
     <path d="M 340.638104 20.497244 
L 364.644354 20.497244 
Q 365.844354 20.497244 365.844354 19.297244 
L 365.844354 11.890994 
Q 365.844354 10.690994 364.644354 10.690994 
L 340.638104 10.690994 
Q 339.438104 10.690994 339.438104 11.890994 
L 339.438104 19.297244 
Q 339.438104 20.497244 340.638104 20.497244 
z
" style="fill: #ffffff; opacity: 0.5"/>
    </g>
    <text style="font-size: 8px; font-family: 'Helvetica', 'Arial', sans-serif; text-anchor: end" x="364.644354" y="17.629744" transform="rotate(-0 364.644354 17.629744)">0.8 cm</text>
   </g>
   <g id="text_18">
    <g id="patch_16">
     <path d="M 254.667839 79.764076 
L 278.674089 79.764076 
Q 279.874089 79.764076 279.874089 78.564076 
L 279.874089 71.157826 
Q 279.874089 69.957826 278.674089 69.957826 
L 254.667839 69.957826 
Q 253.467839 69.957826 253.467839 71.157826 
L 253.467839 78.564076 
Q 253.467839 79.764076 254.667839 79.764076 
z
" style="fill: #ffffff; opacity: 0.5"/>
    </g>
    <text style="font-size: 8px; font-family: 'Helvetica', 'Arial', sans-serif; text-anchor: end" x="278.674089" y="76.896576" transform="rotate(-0 278.674089 76.896576)">1.2 cm</text>
   </g>
   <g id="text_19">
    <g id="patch_17">
     <path d="M 160.010689 134.754513 
L 184.016939 134.754513 
Q 185.216939 134.754513 185.216939 133.554513 
L 185.216939 126.148263 
Q 185.216939 124.948263 184.016939 124.948263 
L 160.010689 124.948263 
Q 158.810689 124.948263 158.810689 126.148263 
L 158.810689 133.554513 
Q 158.810689 134.754513 160.010689 134.754513 
z
" style="fill: #ffffff; opacity: 0.5"/>
    </g>
    <text style="font-size: 8px; font-family: 'Helvetica', 'Arial', sans-serif; text-anchor: end" x="184.016939" y="131.887013" transform="rotate(-0 184.016939 131.887013)">1.6 cm</text>
   </g>
   <g id="text_20">
    <g id="patch_18">
     <path d="M 71.916399 200.193708 
L 95.922649 200.193708 
Q 97.122649 200.193708 97.122649 198.993708 
L 97.122649 191.587458 
Q 97.122649 190.387458 95.922649 190.387458 
L 71.916399 190.387458 
Q 70.716399 190.387458 70.716399 191.587458 
L 70.716399 198.993708 
Q 70.716399 200.193708 71.916399 200.193708 
z
" style="fill: #ffffff; opacity: 0.5"/>
    </g>
    <text style="font-size: 8px; font-family: 'Helvetica', 'Arial', sans-serif; text-anchor: end" x="95.922649" y="197.326208" transform="rotate(-0 95.922649 197.326208)">2.0 cm</text>
   </g>
   <g id="legend_1">
    <g id="patch_19">
     <path d="M 295.99875 223.96 
L 390.5175 223.96 
Q 392.5175 223.96 392.5175 221.96 
L 392.5175 180.186562 
Q 392.5175 178.186562 390.5175 178.186562 
L 295.99875 178.186562 
Q 293.99875 178.186562 293.99875 180.186562 
L 293.99875 221.96 
Q 293.99875 223.96 295.99875 223.96 
z
" style="fill: #ffffff; opacity: 0.8"/>
    </g>
    <g id="line2d_30">
     <path d="M 297.99875 185.86 
L 307.99875 185.86 
L 317.99875 185.86 
" style="fill: none; stroke: #2d3047; stroke-width: 2; stroke-linecap: square"/>
     <g>
      <use xlink:href="#me5ced0f923" x="307.99875" y="185.86" style="fill: #2d3047; stroke: #ffffff; stroke-width: 0.5; stroke-linejoin: miter"/>
     </g>
    </g>
    <g id="text_21">
     <text style="font-size: 10px; font-family: 'Helvetica', 'Arial', sans-serif; text-anchor: start" x="325.99875" y="189.36" transform="rotate(-0 325.99875 189.36)">SDD = 1.0 cm</text>
    </g>
    <g id="line2d_31">
     <path d="M 297.99875 200.117812 
L 307.99875 200.117812 
L 317.99875 200.117812 
" style="fill: none; stroke-dasharray: 7.4,3.2; stroke-dashoffset: 0; stroke: #d1345b; stroke-width: 2"/>
     <g>
      <use xlink:href="#mb5532852f7" x="307.99875" y="200.117812" style="fill: #d1345b; stroke: #ffffff; stroke-width: 0.5"/>
     </g>
    </g>
    <g id="text_22">
     <text style="font-size: 10px; font-family: 'Helvetica', 'Arial', sans-serif; text-anchor: start" x="325.99875" y="203.617812" transform="rotate(-0 325.99875 203.617812)">SDD = 1.5 cm</text>
    </g>
    <g id="line2d_32">
     <path d="M 297.99875 214.375625 
L 307.99875 214.375625 
L 317.99875 214.375625 
" style="fill: none; stroke-dasharray: 2,3.3; stroke-dashoffset: 0; stroke: #ff9b71; stroke-width: 2"/>
     <g>
      <use xlink:href="#m41774c636b" x="307.99875" y="214.375625" style="fill: #ff9b71; stroke: #ffffff; stroke-width: 0.5; stroke-linejoin: miter"/>
     </g>
    </g>
    <g id="text_23">
     <text style="font-size: 10px; font-family: 'Helvetica', 'Arial', sans-serif; text-anchor: start" x="325.99875" y="217.875625" transform="rotate(-0 325.99875 217.875625)">SDD = 2.0 cm</text>
    </g>
   </g>
  </g>
 </g>
 <defs>
  <clipPath id="pd0f26e3d99">
   <rect x="62.7175" y="7.2" width="334.8" height="221.76"/>
  </clipPath>
 </defs>
</svg>
