<?xml version="1.0" encoding="utf-8" standalone="no"?>
<!DOCTYPE svg PUBLIC "-//W3C//DTD SVG 1.1//EN"
  "http://www.w3.org/Graphics/SVG/1.1/DTD/svg11.dtd">
<svg xmlns:xlink="http://www.w3.org/1999/xlink" width="389.5175pt" height="265.87875pt" viewBox="0 0 389.5175 265.87875" xmlns="http://www.w3.org/2000/svg" version="1.1">
 <metadata>
  <rdf:RDF xmlns:dc="http://purl.org/dc/elements/1.1/" xmlns:cc="http://creativecommons.org/ns#" xmlns:rdf="http://www.w3.org/1999/02/22-rdf-syntax-ns#">
   <cc:Work>
    <dc:type rdf:resource="http://purl.org/dc/dcmitype/StillImage"/>
    <dc:date>2026-07-01T13:30:19.255086</dc:date>
    <dc:format>image/svg+xml</dc:format>
    <dc:creator>
     <cc:Agent>
      <dc:title>Matplotlib v3.10.8, https://matplotlib.org/</dc:title>
     </cc:Agent>
    </dc:creator>
   </cc:Work>
  </rdf:RDF>
 </metadata>
 <defs>
  <style type="text/css">*{stroke-linejoin: round; stroke-linecap: butt}</style>
 </defs>
 <g id="figure_1">
  <g id="patch_1">
   <path d="M 0 265.87875 
L 389.5175 265.87875 
L 389.5175 0 
L 0 0 
z
" style="fill: #ffffff"/>
  </g>
  <g id="axes_1">
   <g id="patch_2">
    <path d="M 47.5175 228.96 
L 382.3175 228.96 
L 382.3175 7.2 
L 47.5175 7.2 
z
" style="fill: #ffffff"/>
   </g>
   <g id="patch_3">
    <path d="M 171.655295 126.113213 
Q 170.218027 127.057505 168.780758 128.001797 
" clip-path="url(#p7e7bd53563)" style="fill: none; opacity: 0.55; stroke: #808080; stroke-width: 0.45; stroke-linecap: round"/>
   </g>
   <g id="patch_4">
    <path d="M 268.824433 96.260164 
Q 265.787827 98.641816 262.75122 101.023468 
" clip-path="url(#p7e7bd53563)" style="fill: none; opacity: 0.55; stroke: #808080; stroke-width: 0.45; stroke-linecap: round"/>
   </g>
   <g id="patch_5">
    <path d="M 329.697405 32.517259 
Q 329.004992 33.178199 328.312578 33.839139 
" clip-path="url(#p7e7bd53563)" style="fill: none; opacity: 0.55; stroke: #808080; stroke-width: 0.45; stroke-linecap: round"/>
   </g>
   <g id="patch_6">
    <path d="M 176.598944 140.452296 
Q 175.608934 141.168134 174.618923 141.883972 
" clip-path="url(#p7e7bd53563)" style="fill: none; opacity: 0.55; stroke: #808080; stroke-width: 0.45; stroke-linecap: round"/>
   </g>
   <g id="matplotlib.axis_1">
    <g id="xtick_1">
     <g id="line2d_1">
      <path d="M 94.164394 228.96 
L 94.164394 7.2 
" clip-path="url(#p7e7bd53563)" style="fill: none; stroke: #e0e0e0; stroke-opacity: 0.7; stroke-width: 0.8; stroke-linecap: square"/>
     </g>
     <g id="line2d_2">
      <defs>
       <path id="m3762e4f319" d="M 0 0 
L 0 -4 
" style="stroke: #000000; stroke-width: 0.8"/>
      </defs>
      <g>
       <use xlink:href="#m3762e4f319" x="94.164394" y="228.96" style="stroke: #000000; stroke-width: 0.8"/>
      </g>
     </g>
     <g id="text_1">
      <!-- $\mathdefault{10^{-1}}$ -->
      <g transform="translate(84.414394 239.633437)">
       <text>
        <tspan x="0" y="-0.457813" style="font-size: 10px; font-family: 'Helvetica'">1</tspan>
        <tspan x="5.561523" y="-0.457813" style="font-size: 10px; font-family: 'Helvetica'">0</tspan>
        <tspan x="11.214648" y="-4.121875" style="font-size: 7px; font-family: 'Helvetica'">−</tspan>
        <tspan x="15.302539" y="-4.121875" style="font-size: 7px; font-family: 'Helvetica'">1</tspan>
       </text>
      </g>
     </g>
    </g>
    <g id="xtick_2">
     <g id="line2d_3">
      <path d="M 250.380085 228.96 
L 250.380085 7.2 
" clip-path="url(#p7e7bd53563)" style="fill: none; stroke: #e0e0e0; stroke-opacity: 0.7; stroke-width: 0.8; stroke-linecap: square"/>
     </g>
     <g id="line2d_4">
      <g>
       <use xlink:href="#m3762e4f319" x="250.380085" y="228.96" style="stroke: #000000; stroke-width: 0.8"/>
      </g>
     </g>
     <g id="text_2">
      <!-- $\mathdefault{10^{0}}$ -->
      <g transform="translate(242.680085 239.633437)">
       <text>
        <tspan x="0" y="-0.435938" style="font-size: 10px; font-family: 'Helvetica'">1</tspan>
        <tspan x="5.561523" y="-0.435938" style="font-size: 10px; font-family: 'Helvetica'">0</tspan>
        <tspan x="11.214648" y="-4.1" style="font-size: 7px; font-family: 'Helvetica'">0</tspan>
       </text>
      </g>
     </g>
    </g>
    <g id="xtick_3">
     <g id="line2d_5">
      <defs>
       <path id="m597d53e3bc" d="M 0 0 
L 0 -2 
" style="stroke: #000000; stroke-width: 0.6"/>
      </defs>
      <g>
       <use xlink:href="#m597d53e3bc" x="59.508139" y="228.96" style="stroke: #000000; stroke-width: 0.6"/>
      </g>
     </g>
    </g>
    <g id="xtick_4">
     <g id="line2d_6">
      <g>
       <use xlink:href="#m597d53e3bc" x="69.966278" y="228.96" style="stroke: #000000; stroke-width: 0.6"/>
      </g>
     </g>
    </g>
    <g id="xtick_5">
     <g id="line2d_7">
      <g>
       <use xlink:href="#m597d53e3bc" x="79.02553" y="228.96" style="stroke: #000000; stroke-width: 0.6"/>
      </g>
     </g>
    </g>
    <g id="xtick_6">
     <g id="line2d_8">
      <g>
       <use xlink:href="#m597d53e3bc" x="87.016356" y="228.96" style="stroke: #000000; stroke-width: 0.6"/>
      </g>
     </g>
    </g>
    <g id="xtick_7">
     <g id="line2d_9">
      <g>
       <use xlink:href="#m597d53e3bc" x="141.190003" y="228.96" style="stroke: #000000; stroke-width: 0.6"/>
      </g>
     </g>
    </g>
    <g id="xtick_8">
     <g id="line2d_10">
      <g>
       <use xlink:href="#m597d53e3bc" x="168.698221" y="228.96" style="stroke: #000000; stroke-width: 0.6"/>
      </g>
     </g>
    </g>
    <g id="xtick_9">
     <g id="line2d_11">
      <g>
       <use xlink:href="#m597d53e3bc" x="188.215612" y="228.96" style="stroke: #000000; stroke-width: 0.6"/>
      </g>
     </g>
    </g>
    <g id="xtick_10">
     <g id="line2d_12">
      <g>
       <use xlink:href="#m597d53e3bc" x="203.354476" y="228.96" style="stroke: #000000; stroke-width: 0.6"/>
      </g>
     </g>
    </g>
    <g id="xtick_11">
     <g id="line2d_13">
      <g>
       <use xlink:href="#m597d53e3bc" x="215.723829" y="228.96" style="stroke: #000000; stroke-width: 0.6"/>
      </g>
     </g>
    </g>
    <g id="xtick_12">
     <g id="line2d_14">
      <g>
       <use xlink:href="#m597d53e3bc" x="226.181968" y="228.96" style="stroke: #000000; stroke-width: 0.6"/>
      </g>
     </g>
    </g>
    <g id="xtick_13">
     <g id="line2d_15">
      <g>
       <use xlink:href="#m597d53e3bc" x="235.24122" y="228.96" style="stroke: #000000; stroke-width: 0.6"/>
      </g>
     </g>
    </g>
    <g id="xtick_14">
     <g id="line2d_16">
      <g>
       <use xlink:href="#m597d53e3bc" x="243.232047" y="228.96" style="stroke: #000000; stroke-width: 0.6"/>
      </g>
     </g>
    </g>
    <g id="xtick_15">
     <g id="line2d_17">
      <g>
       <use xlink:href="#m597d53e3bc" x="297.405694" y="228.96" style="stroke: #000000; stroke-width: 0.6"/>
      </g>
     </g>
    </g>
    <g id="xtick_16">
     <g id="line2d_18">
      <g>
       <use xlink:href="#m597d53e3bc" x="324.913911" y="228.96" style="stroke: #000000; stroke-width: 0.6"/>
      </g>
     </g>
    </g>
    <g id="xtick_17">
     <g id="line2d_19">
      <g>
       <use xlink:href="#m597d53e3bc" x="344.431302" y="228.96" style="stroke: #000000; stroke-width: 0.6"/>
      </g>
     </g>
    </g>
    <g id="xtick_18">
     <g id="line2d_20">
      <g>
       <use xlink:href="#m597d53e3bc" x="359.570167" y="228.96" style="stroke: #000000; stroke-width: 0.6"/>
      </g>
     </g>
    </g>
    <g id="xtick_19">
     <g id="line2d_21">
      <g>
       <use xlink:href="#m597d53e3bc" x="371.93952" y="228.96" style="stroke: #000000; stroke-width: 0.6"/>
      </g>
     </g>
    </g>
    <g id="text_3">
     <text style="font-size: 14px; font-family: 'Helvetica', 'Arial', sans-serif; text-anchor: middle" x="214.9175" y="255.760625" transform="rotate(-0 214.9175 255.760625)">Fetal SNR</text>
    </g>
   </g>
   <g id="matplotlib.axis_2">
    <g id="ytick_1">
     <g id="line2d_22">
      <path d="M 47.5175 205.347117 
L 382.3175 205.347117 
" clip-path="url(#p7e7bd53563)" style="fill: none; stroke: #e0e0e0; stroke-opacity: 0.7; stroke-width: 0.8; stroke-linecap: square"/>
     </g>
     <g id="line2d_23">
      <defs>
       <path id="m23227f6acc" d="M 0 0 
L 4 0 
" style="stroke: #000000; stroke-width: 0.8"/>
      </defs>
      <g>
       <use xlink:href="#m23227f6acc" x="47.5175" y="205.347117" style="stroke: #000000; stroke-width: 0.8"/>
      </g>
     </g>
     <g id="text_4">
      <!-- $\mathdefault{10^{-1}}$ -->
      <g transform="translate(24.5175 208.933836)">
       <text>
        <tspan x="0" y="-0.457813" style="font-size: 10px; font-family: 'Helvetica'">1</tspan>
        <tspan x="5.561523" y="-0.457813" style="font-size: 10px; font-family: 'Helvetica'">0</tspan>
        <tspan x="11.214648" y="-4.121875" style="font-size: 7px; font-family: 'Helvetica'">−</tspan>
        <tspan x="15.302539" y="-4.121875" style="font-size: 7px; font-family: 'Helvetica'">1</tspan>
       </text>
      </g>
     </g>
    </g>
    <g id="ytick_2">
     <g id="line2d_24">
      <defs>
       <path id="m651946a843" d="M 0 0 
L 2 0 
" style="stroke: #000000; stroke-width: 0.6"/>
      </defs>
      <g>
       <use xlink:href="#m651946a843" x="47.5175" y="226.718224" style="stroke: #000000; stroke-width: 0.6"/>
      </g>
     </g>
    </g>
    <g id="ytick_3">
     <g id="line2d_25">
      <g>
       <use xlink:href="#m651946a843" x="47.5175" y="215.4378" style="stroke: #000000; stroke-width: 0.6"/>
      </g>
     </g>
    </g>
    <g id="ytick_4">
     <g id="line2d_26">
      <g>
       <use xlink:href="#m651946a843" x="47.5175" y="138.962394" style="stroke: #000000; stroke-width: 0.6"/>
      </g>
     </g>
    </g>
    <g id="ytick_5">
     <g id="line2d_27">
      <g>
       <use xlink:href="#m651946a843" x="47.5175" y="100.12982" style="stroke: #000000; stroke-width: 0.6"/>
      </g>
     </g>
    </g>
    <g id="ytick_6">
     <g id="line2d_28">
      <g>
       <use xlink:href="#m651946a843" x="47.5175" y="72.577671" style="stroke: #000000; stroke-width: 0.6"/>
      </g>
     </g>
    </g>
    <g id="ytick_7">
     <g id="line2d_29">
      <g>
       <use xlink:href="#m651946a843" x="47.5175" y="51.206563" style="stroke: #000000; stroke-width: 0.6"/>
      </g>
     </g>
    </g>
    <g id="ytick_8">
     <g id="line2d_30">
      <g>
       <use xlink:href="#m651946a843" x="47.5175" y="33.745097" style="stroke: #000000; stroke-width: 0.6"/>
      </g>
     </g>
    </g>
    <g id="ytick_9">
     <g id="line2d_31">
      <g>
       <use xlink:href="#m651946a843" x="47.5175" y="18.981638" style="stroke: #000000; stroke-width: 0.6"/>
      </g>
     </g>
    </g>
    <g id="text_5">
     <text style="font-size: 14px; font-family: 'Helvetica', 'Arial', sans-serif; text-anchor: middle" x="17.51625" y="118.08" transform="rotate(-90 17.51625 118.08)">Selectivity</text>
    </g>
   </g>
   <g id="line2d_32">
    <path d="M 349.9175 67.624846 
L 259.776069 105.927544 
L 166.300033 130.052919 
L 79.9175 179.114567 
" clip-path="url(#p7e7bd53563)" style="fill: none; stroke: #2d3047; stroke-width: 2; stroke-linecap: square"/>
    <defs>
     <path id="m7f63dfa02a" d="M -4 4 
L 4 4 
L 4 -4 
L -4 -4 
z
" style="stroke: #ffffff; stroke-width: 0.5; stroke-linejoin: miter"/>
    </defs>
    <g clip-path="url(#p7e7bd53563)">
     <use xlink:href="#m7f63dfa02a" x="349.9175" y="67.624846" style="fill: #2d3047; stroke: #ffffff; stroke-width: 0.5; stroke-linejoin: miter"/>
     <use xlink:href="#m7f63dfa02a" x="259.776069" y="105.927544" style="fill: #2d3047; stroke: #ffffff; stroke-width: 0.5; stroke-linejoin: miter"/>
     <use xlink:href="#m7f63dfa02a" x="166.300033" y="130.052919" style="fill: #2d3047; stroke: #ffffff; stroke-width: 0.5; stroke-linejoin: miter"/>
     <use xlink:href="#m7f63dfa02a" x="79.9175" y="179.114567" style="fill: #2d3047; stroke: #ffffff; stroke-width: 0.5; stroke-linejoin: miter"/>
    </g>
   </g>
   <g id="line2d_33">
    <path d="M 339.078758 40.7575 
L 260.236502 103.398447 
L 174.583496 149.073097 
L 87.907976 199.609412 
" clip-path="url(#p7e7bd53563)" style="fill: none; stroke-dasharray: 7.4,3.2; stroke-dashoffset: 0; stroke: #d1345b; stroke-width: 2"/>
    <defs>
     <path id="m3922d5feb2" d="M 0 4 
C 1.060812 4 2.078319 3.578535 2.828427 2.828427 
C 3.578535 2.078319 4 1.060812 4 0 
C 4 -1.060812 3.578535 -2.078319 2.828427 -2.828427 
C 2.078319 -3.578535 1.060812 -4 0 -4 
C -1.060812 -4 -2.078319 -3.578535 -2.828427 -2.828427 
C -3.578535 -2.078319 -4 -1.060812 -4 0 
C -4 1.060812 -3.578535 2.078319 -2.828427 2.828427 
C -2.078319 3.578535 -1.060812 4 0 4 
z
" style="stroke: #ffffff; stroke-width: 0.5"/>
    </defs>
    <g clip-path="url(#p7e7bd53563)">
     <use xlink:href="#m3922d5feb2" x="339.078758" y="40.7575" style="fill: #d1345b; stroke: #ffffff; stroke-width: 0.5"/>
     <use xlink:href="#m3922d5feb2" x="260.236502" y="103.398447" style="fill: #d1345b; stroke: #ffffff; stroke-width: 0.5"/>
     <use xlink:href="#m3922d5feb2" x="174.583496" y="149.073097" style="fill: #d1345b; stroke: #ffffff; stroke-width: 0.5"/>
     <use xlink:href="#m3922d5feb2" x="87.907976" y="199.609412" style="fill: #d1345b; stroke: #ffffff; stroke-width: 0.5"/>
    </g>
   </g>
   <g id="line2d_34">
    <path d="M 325.790035 36.550588 
L 249.16891 78.576817 
L 171.920722 144.387789 
L 81.499469 157.417552 
" clip-path="url(#p7e7bd53563)" style="fill: none; stroke-dasharray: 2,3.3; stroke-dashoffset: 0; stroke: #ff9b71; stroke-width: 2"/>
    <defs>
     <path id="m67283695a3" d="M 0 -4 
L -4 4 
L 4 4 
z
" style="stroke: #ffffff; stroke-width: 0.5; stroke-linejoin: miter"/>
    </defs>
    <g clip-path="url(#p7e7bd53563)">
     <use xlink:href="#m67283695a3" x="325.790035" y="36.550588" style="fill: #ff9b71; stroke: #ffffff; stroke-width: 0.5; stroke-linejoin: miter"/>
     <use xlink:href="#m67283695a3" x="249.16891" y="78.576817" style="fill: #ff9b71; stroke: #ffffff; stroke-width: 0.5; stroke-linejoin: miter"/>
     <use xlink:href="#m67283695a3" x="171.920722" y="144.387789" style="fill: #ff9b71; stroke: #ffffff; stroke-width: 0.5; stroke-linejoin: miter"/>
     <use xlink:href="#m67283695a3" x="81.499469" y="157.417552" style="fill: #ff9b71; stroke: #ffffff; stroke-width: 0.5; stroke-linejoin: miter"/>
    </g>
   </g>
   <g id="patch_7">
    <path d="M 47.5175 228.96 
L 47.5175 7.2 
" style="fill: none; stroke: #000000; stroke-width: 0.8; stroke-linejoin: miter; stroke-linecap: square"/>
   </g>
   <g id="patch_8">
    <path d="M 382.3175 228.96 
L 382.3175 7.2 
" style="fill: none; stroke: #000000; stroke-width: 0.8; stroke-linejoin: miter; stroke-linecap: square"/>
   </g>
   <g id="patch_9">
    <path d="M 47.5175 228.96 
L 382.3175 228.96 
" style="fill: none; stroke: #000000; stroke-width: 0.8; stroke-linejoin: miter; stroke-linecap: square"/>
   </g>
   <g id="patch_10">
    <path d="M 47.5175 7.2 
L 382.3175 7.2 
" style="fill: none; stroke: #000000; stroke-width: 0.8; stroke-linejoin: miter; stroke-linecap: square"/>
   </g>
   <g id="text_6">
    <g id="patch_11">
     <path d="M 351.723652 64.098513 
L 375.729902 64.098513 
Q 376.929902 64.098513 376.929902 62.898513 
L 376.929902 55.492263 
Q 376.929902 54.292263 375.729902 54.292263 
L 351.723652 54.292263 
Q 350.523652 54.292263 350.523652 55.492263 
L 350.523652 62.898513 
Q 350.523652 64.098513 351.723652 64.098513 
z
" clip-path="url(#p7e7bd53563)" style="fill: #ffffff; opacity: 0.5"/>
    </g>
    <g clip-path="url(#p7e7bd53563)">
     <text style="font-size: 8px; font-family: 'Helvetica', 'Arial', sans-serif; text-anchor: middle" x="363.726777" y="61.231013" transform="rotate(-0 363.726777 61.231013)">0.8 cm</text>
    </g>
   </g>
   <g id="text_7">
    <g id="patch_12">
     <path d="M 262.519721 103.407832 
L 286.525971 103.407832 
Q 287.725971 103.407832 287.725971 102.207832 
L 287.725971 94.801582 
Q 287.725971 93.601582 286.525971 93.601582 
L 262.519721 93.601582 
Q 261.319721 93.601582 261.319721 94.801582 
L 261.319721 102.207832 
Q 261.319721 103.407832 262.519721 103.407832 
z
" clip-path="url(#p7e7bd53563)" style="fill: #ffffff; opacity: 0.5"/>
    </g>
    <g clip-path="url(#p7e7bd53563)">
     <text style="font-size: 8px; font-family: 'Helvetica', 'Arial', sans-serif; text-anchor: middle" x="274.522846" y="100.540332" transform="rotate(-0 274.522846 100.540332)">1.2 cm</text>
    </g>
   </g>
   <g id="text_8">
    <g id="patch_13">
     <path d="M 168.043685 125.503072 
L 192.049935 125.503072 
Q 193.249935 125.503072 193.249935 124.303072 
L 193.249935 116.896822 
Q 193.249935 115.696822 192.049935 115.696822 
L 168.043685 115.696822 
Q 166.843685 115.696822 166.843685 116.896822 
L 166.843685 124.303072 
Q 166.843685 125.503072 168.043685 125.503072 
z
" clip-path="url(#p7e7bd53563)" style="fill: #ffffff; opacity: 0.5"/>
    </g>
    <g clip-path="url(#p7e7bd53563)">
     <text style="font-size: 8px; font-family: 'Helvetica', 'Arial', sans-serif; text-anchor: middle" x="180.04681" y="122.635572" transform="rotate(-0 180.04681 122.635572)">1.6 cm</text>
    </g>
   </g>
   <g id="text_9">
    <g id="patch_14">
     <path d="M 81.661152 184.56472 
L 105.667402 184.56472 
Q 106.867402 184.56472 106.867402 183.36472 
L 106.867402 175.95847 
Q 106.867402 174.75847 105.667402 174.75847 
L 81.661152 174.75847 
Q 80.461152 174.75847 80.461152 175.95847 
L 80.461152 183.36472 
Q 80.461152 184.56472 81.661152 184.56472 
z
" clip-path="url(#p7e7bd53563)" style="fill: #ffffff; opacity: 0.5"/>
    </g>
    <g clip-path="url(#p7e7bd53563)">
     <text style="font-size: 8px; font-family: 'Helvetica', 'Arial', sans-serif; text-anchor: middle" x="93.664277" y="181.69722" transform="rotate(-0 93.664277 181.69722)">2.0 cm</text>
    </g>
   </g>
   <g id="text_10">
    <g id="patch_15">
     <path d="M 343.018857 41.144974 
L 367.025107 41.144974 
Q 368.225107 41.144974 368.225107 39.944974 
L 368.225107 32.538724 
Q 368.225107 31.338724 367.025107 31.338724 
L 343.018857 31.338724 
Q 341.818857 31.338724 341.818857 32.538724 
L 341.818857 39.944974 
Q 341.818857 41.144974 343.018857 41.144974 
z
" clip-path="url(#p7e7bd53563)" style="fill: #ffffff; opacity: 0.5"/>
    </g>
    <g clip-path="url(#p7e7bd53563)">
     <text style="font-size: 8px; font-family: 'Helvetica', 'Arial', sans-serif; text-anchor: middle" x="355.021982" y="38.277474" transform="rotate(-0 355.021982 38.277474)">0.8 cm</text>
    </g>
   </g>
   <g id="text_11">
    <g id="patch_16">
     <path d="M 265.1141 94.659138 
L 289.12035 94.659138 
Q 290.32035 94.659138 290.32035 93.459138 
L 290.32035 86.052888 
Q 290.32035 84.852888 289.12035 84.852888 
L 265.1141 84.852888 
Q 263.9141 84.852888 263.9141 86.052888 
L 263.9141 93.459138 
Q 263.9141 94.659138 265.1141 94.659138 
z
" clip-path="url(#p7e7bd53563)" style="fill: #ffffff; opacity: 0.5"/>
    </g>
    <g clip-path="url(#p7e7bd53563)">
     <text style="font-size: 8px; font-family: 'Helvetica', 'Arial', sans-serif; text-anchor: middle" x="277.117225" y="91.791638" transform="rotate(-0 277.117225 91.791638)">1.2 cm</text>
    </g>
   </g>
   <g id="text_12">
    <g id="patch_17">
     <path d="M 177.461094 150.408403 
L 201.467344 150.408403 
Q 202.667344 150.408403 202.667344 149.208403 
L 202.667344 141.802153 
Q 202.667344 140.602153 201.467344 140.602153 
L 177.461094 140.602153 
Q 176.261094 140.602153 176.261094 141.802153 
L 176.261094 149.208403 
Q 176.261094 150.408403 177.461094 150.408403 
z
" clip-path="url(#p7e7bd53563)" style="fill: #ffffff; opacity: 0.5"/>
    </g>
    <g clip-path="url(#p7e7bd53563)">
     <text style="font-size: 8px; font-family: 'Helvetica', 'Arial', sans-serif; text-anchor: middle" x="189.464219" y="147.540903" transform="rotate(-0 189.464219 147.540903)">1.6 cm</text>
    </g>
   </g>
   <g id="text_13">
    <g id="patch_18">
     <path d="M 89.785574 195.798886 
L 113.791824 195.798886 
Q 114.991824 195.798886 114.991824 194.598886 
L 114.991824 187.192636 
Q 114.991824 185.992636 113.791824 185.992636 
L 89.785574 185.992636 
Q 88.585574 185.992636 88.585574 187.192636 
L 88.585574 194.598886 
Q 88.585574 195.798886 89.785574 195.798886 
z
" clip-path="url(#p7e7bd53563)" style="fill: #ffffff; opacity: 0.5"/>
    </g>
    <g clip-path="url(#p7e7bd53563)">
     <text style="font-size: 8px; font-family: 'Helvetica', 'Arial', sans-serif; text-anchor: middle" x="101.788699" y="192.931386" transform="rotate(-0 101.788699 192.931386)">2.0 cm</text>
    </g>
   </g>
   <g id="text_14">
    <g id="patch_19">
     <path d="M 325.863815 29.622192 
L 349.870065 29.622192 
Q 351.070065 29.622192 351.070065 28.422192 
L 351.070065 21.015942 
Q 351.070065 19.815942 349.870065 19.815942 
L 325.863815 19.815942 
Q 324.663815 19.815942 324.663815 21.015942 
L 324.663815 28.422192 
Q 324.663815 29.622192 325.863815 29.622192 
z
" clip-path="url(#p7e7bd53563)" style="fill: #ffffff; opacity: 0.5"/>
    </g>
    <g clip-path="url(#p7e7bd53563)">
     <text style="font-size: 8px; font-family: 'Helvetica', 'Arial', sans-serif; text-anchor: middle" x="337.86694" y="26.754692" transform="rotate(-0 337.86694 26.754692)">0.8 cm</text>
    </g>
   </g>
   <g id="text_15">
    <g id="patch_20">
     <path d="M 251.180191 74.48266 
L 275.186441 74.48266 
Q 276.386441 74.48266 276.386441 73.28266 
L 276.386441 65.87641 
Q 276.386441 64.67641 275.186441 64.67641 
L 251.180191 64.67641 
Q 249.980191 64.67641 249.980191 65.87641 
L 249.980191 73.28266 
Q 249.980191 74.48266 251.180191 74.48266 
z
" clip-path="url(#p7e7bd53563)" style="fill: #ffffff; opacity: 0.5"/>
    </g>
    <g clip-path="url(#p7e7bd53563)">
     <text style="font-size: 8px; font-family: 'Helvetica', 'Arial', sans-serif; text-anchor: middle" x="263.183316" y="71.61516" transform="rotate(-0 263.183316 71.61516)">1.2 cm</text>
    </g>
   </g>
   <g id="text_16">
    <g id="patch_21">
     <path d="M 172.932003 139.327853 
L 196.938253 139.327853 
Q 198.138253 139.327853 198.138253 138.127853 
L 198.138253 130.721603 
Q 198.138253 129.521603 196.938253 129.521603 
L 172.932003 129.521603 
Q 171.732003 129.521603 171.732003 130.721603 
L 171.732003 138.127853 
Q 171.732003 139.327853 172.932003 139.327853 
z
" clip-path="url(#p7e7bd53563)" style="fill: #ffffff; opacity: 0.5"/>
    </g>
    <g clip-path="url(#p7e7bd53563)">
     <text style="font-size: 8px; font-family: 'Helvetica', 'Arial', sans-serif; text-anchor: middle" x="184.935128" y="136.460353" transform="rotate(-0 184.935128 136.460353)">1.6 cm</text>
    </g>
   </g>
   <g id="text_17">
    <g id="patch_22">
     <path d="M 83.510749 153.323395 
L 107.516999 153.323395 
Q 108.716999 153.323395 108.716999 152.123395 
L 108.716999 144.717145 
Q 108.716999 143.517145 107.516999 143.517145 
L 83.510749 143.517145 
Q 82.310749 143.517145 82.310749 144.717145 
L 82.310749 152.123395 
Q 82.310749 153.323395 83.510749 153.323395 
z
" clip-path="url(#p7e7bd53563)" style="fill: #ffffff; opacity: 0.5"/>
    </g>
    <g clip-path="url(#p7e7bd53563)">
     <text style="font-size: 8px; font-family: 'Helvetica', 'Arial', sans-serif; text-anchor: middle" x="95.513874" y="150.455895" transform="rotate(-0 95.513874 150.455895)">2.0 cm</text>
    </g>
   </g>
   <g id="legend_1">
    <g id="patch_23">
     <path d="M 280.79875 223.96 
L 375.3175 223.96 
Q 377.3175 223.96 377.3175 221.96 
L 377.3175 180.186562 
Q 377.3175 178.186562 375.3175 178.186562 
L 280.79875 178.186562 
Q 278.79875 178.186562 278.79875 180.186562 
L 278.79875 221.96 
Q 278.79875 223.96 280.79875 223.96 
z
" style="fill: #ffffff; opacity: 0.8"/>
    </g>
    <g id="line2d_35">
     <path d="M 282.79875 185.86 
L 292.79875 185.86 
L 302.79875 185.86 
" style="fill: none; stroke: #2d3047; stroke-width: 2; stroke-linecap: square"/>
     <g>
      <use xlink:href="#m7f63dfa02a" x="292.79875" y="185.86" style="fill: #2d3047; stroke: #ffffff; stroke-width: 0.5; stroke-linejoin: miter"/>
     </g>
    </g>
    <g id="text_18">
     <text style="font-size: 10px; font-family: 'Helvetica', 'Arial', sans-serif; text-anchor: start" x="310.79875" y="189.36" transform="rotate(-0 310.79875 189.36)">SDD = 1.0 cm</text>
    </g>
    <g id="line2d_36">
     <path d="M 282.79875 200.117812 
L 292.79875 200.117812 
L 302.79875 200.117812 
" style="fill: none; stroke-dasharray: 7.4,3.2; stroke-dashoffset: 0; stroke: #d1345b; stroke-width: 2"/>
     <g>
      <use xlink:href="#m3922d5feb2" x="292.79875" y="200.117812" style="fill: #d1345b; stroke: #ffffff; stroke-width: 0.5"/>
     </g>
    </g>
    <g id="text_19">
     <text style="font-size: 10px; font-family: 'Helvetica', 'Arial', sans-serif; text-anchor: start" x="310.79875" y="203.617812" transform="rotate(-0 310.79875 203.617812)">SDD = 1.5 cm</text>
    </g>
    <g id="line2d_37">
     <path d="M 282.79875 214.375625 
L 292.79875 214.375625 
L 302.79875 214.375625 
" style="fill: none; stroke-dasharray: 2,3.3; stroke-dashoffset: 0; stroke: #ff9b71; stroke-width: 2"/>
     <g>
      <use xlink:href="#m67283695a3" x="292.79875" y="214.375625" style="fill: #ff9b71; stroke: #ffffff; stroke-width: 0.5; stroke-linejoin: miter"/>
     </g>
    </g>
    <g id="text_20">
     <text style="font-size: 10px; font-family: 'Helvetica', 'Arial', sans-serif; text-anchor: start" x="310.79875" y="217.875625" transform="rotate(-0 310.79875 217.875625)">SDD = 2.0 cm</text>
    </g>
   </g>
  </g>
 </g>
 <defs>
  <clipPath id="p7e7bd53563">
   <rect x="47.5175" y="7.2" width="334.8" height="221.76"/>
  </clipPath>
 </defs>
</svg>
