<?xml version="1.0" encoding="utf-8" standalone="no"?>
<!DOCTYPE svg PUBLIC "-//W3C//DTD SVG 1.1//EN"
  "http://www.w3.org/Graphics/SVG/1.1/DTD/svg11.dtd">
<svg xmlns:xlink="http://www.w3.org/1999/xlink" width="392.841875pt" height="268.95875pt" viewBox="0 0 392.841875 268.95875" xmlns="http://www.w3.org/2000/svg" version="1.1">
 <metadata>
  <rdf:RDF xmlns:dc="http://purl.org/dc/elements/1.1/" xmlns:cc="http://creativecommons.org/ns#" xmlns:rdf="http://www.w3.org/1999/02/22-rdf-syntax-ns#">
   <cc:Work>
    <dc:type rdf:resource="http://purl.org/dc/dcmitype/StillImage"/>
    <dc:date>2026-02-08T22:24:54.663524</dc:date>
    <dc:format>image/svg+xml</dc:format>
    <dc:creator>
     <cc:Agent>
      <dc:title>Matplotlib v3.9.2, https://matplotlib.org/</dc:title>
     </cc:Agent>
    </dc:creator>
   </cc:Work>
  </rdf:RDF>
 </metadata>
 <defs>
  <style type="text/css">*{stroke-linejoin: round; stroke-linecap: butt}</style>
 </defs>
 <g id="figure_1">
  <g id="patch_1">
   <path d="M 0 268.95875 
L 392.841875 268.95875 
L 392.841875 0 
L 0 0 
z
" style="fill: #ffffff"/>
  </g>
  <g id="axes_1">
   <g id="patch_2">
    <path d="M 50.841875 228.96 
L 385.641875 228.96 
L 385.641875 7.2 
L 50.841875 7.2 
z
" style="fill: #ffffff"/>
   </g>
   <g id="matplotlib.axis_1">
    <g id="xtick_1">
     <g id="line2d_1">
      <path d="M 66.060057 228.96 
L 66.060057 7.2 
" clip-path="url(#p43198b8e66)" style="fill: none; stroke: #b0b0b0; stroke-opacity: 0.3; stroke-width: 0.8; stroke-linecap: square"/>
     </g>
     <g id="line2d_2">
      <defs>
       <path id="m3e7214da34" d="M 0 0 
L 0 3.5 
" style="stroke: #000000; stroke-width: 0.8"/>
      </defs>
      <g>
       <use xlink:href="#m3e7214da34" x="66.060057" y="228.96" style="stroke: #000000; stroke-width: 0.8"/>
      </g>
     </g>
     <g id="text_1">
      <text style="font: 12px 'Times New Roman', 'Times', serif; text-anchor: middle" x="66.060057" y="244.2925" transform="rotate(-0 66.060057 244.2925)">5.0</text>
     </g>
    </g>
    <g id="xtick_2">
     <g id="line2d_3">
      <path d="M 104.105511 228.96 
L 104.105511 7.2 
" clip-path="url(#p43198b8e66)" style="fill: none; stroke: #b0b0b0; stroke-opacity: 0.3; stroke-width: 0.8; stroke-linecap: square"/>
     </g>
     <g id="line2d_4">
      <g>
       <use xlink:href="#m3e7214da34" x="104.105511" y="228.96" style="stroke: #000000; stroke-width: 0.8"/>
      </g>
     </g>
     <g id="text_2">
      <text style="font: 12px 'Times New Roman', 'Times', serif; text-anchor: middle" x="104.105511" y="244.2925" transform="rotate(-0 104.105511 244.2925)">7.5</text>
     </g>
    </g>
    <g id="xtick_3">
     <g id="line2d_5">
      <path d="M 142.150966 228.96 
L 142.150966 7.2 
" clip-path="url(#p43198b8e66)" style="fill: none; stroke: #b0b0b0; stroke-opacity: 0.3; stroke-width: 0.8; stroke-linecap: square"/>
     </g>
     <g id="line2d_6">
      <g>
       <use xlink:href="#m3e7214da34" x="142.150966" y="228.96" style="stroke: #000000; stroke-width: 0.8"/>
      </g>
     </g>
     <g id="text_3">
      <text style="font: 12px 'Times New Roman', 'Times', serif; text-anchor: middle" x="142.150966" y="244.2925" transform="rotate(-0 142.150966 244.2925)">10.0</text>
     </g>
    </g>
    <g id="xtick_4">
     <g id="line2d_7">
      <path d="M 180.19642 228.96 
L 180.19642 7.2 
" clip-path="url(#p43198b8e66)" style="fill: none; stroke: #b0b0b0; stroke-opacity: 0.3; stroke-width: 0.8; stroke-linecap: square"/>
     </g>
     <g id="line2d_8">
      <g>
       <use xlink:href="#m3e7214da34" x="180.19642" y="228.96" style="stroke: #000000; stroke-width: 0.8"/>
      </g>
     </g>
     <g id="text_4">
      <text style="font: 12px 'Times New Roman', 'Times', serif; text-anchor: middle" x="180.19642" y="244.2925" transform="rotate(-0 180.19642 244.2925)">12.5</text>
     </g>
    </g>
    <g id="xtick_5">
     <g id="line2d_9">
      <path d="M 218.241875 228.96 
L 218.241875 7.2 
" clip-path="url(#p43198b8e66)" style="fill: none; stroke: #b0b0b0; stroke-opacity: 0.3; stroke-width: 0.8; stroke-linecap: square"/>
     </g>
     <g id="line2d_10">
      <g>
       <use xlink:href="#m3e7214da34" x="218.241875" y="228.96" style="stroke: #000000; stroke-width: 0.8"/>
      </g>
     </g>
     <g id="text_5">
      <text style="font: 12px 'Times New Roman', 'Times', serif; text-anchor: middle" x="218.241875" y="244.2925" transform="rotate(-0 218.241875 244.2925)">15.0</text>
     </g>
    </g>
    <g id="xtick_6">
     <g id="line2d_11">
      <path d="M 256.28733 228.96 
L 256.28733 7.2 
" clip-path="url(#p43198b8e66)" style="fill: none; stroke: #b0b0b0; stroke-opacity: 0.3; stroke-width: 0.8; stroke-linecap: square"/>
     </g>
     <g id="line2d_12">
      <g>
       <use xlink:href="#m3e7214da34" x="256.28733" y="228.96" style="stroke: #000000; stroke-width: 0.8"/>
      </g>
     </g>
     <g id="text_6">
      <text style="font: 12px 'Times New Roman', 'Times', serif; text-anchor: middle" x="256.28733" y="244.2925" transform="rotate(-0 256.28733 244.2925)">17.5</text>
     </g>
    </g>
    <g id="xtick_7">
     <g id="line2d_13">
      <path d="M 294.332784 228.96 
L 294.332784 7.2 
" clip-path="url(#p43198b8e66)" style="fill: none; stroke: #b0b0b0; stroke-opacity: 0.3; stroke-width: 0.8; stroke-linecap: square"/>
     </g>
     <g id="line2d_14">
      <g>
       <use xlink:href="#m3e7214da34" x="294.332784" y="228.96" style="stroke: #000000; stroke-width: 0.8"/>
      </g>
     </g>
     <g id="text_7">
      <text style="font: 12px 'Times New Roman', 'Times', serif; text-anchor: middle" x="294.332784" y="244.2925" transform="rotate(-0 294.332784 244.2925)">20.0</text>
     </g>
    </g>
    <g id="xtick_8">
     <g id="line2d_15">
      <path d="M 332.378239 228.96 
L 332.378239 7.2 
" clip-path="url(#p43198b8e66)" style="fill: none; stroke: #b0b0b0; stroke-opacity: 0.3; stroke-width: 0.8; stroke-linecap: square"/>
     </g>
     <g id="line2d_16">
      <g>
       <use xlink:href="#m3e7214da34" x="332.378239" y="228.96" style="stroke: #000000; stroke-width: 0.8"/>
      </g>
     </g>
     <g id="text_8">
      <text style="font: 12px 'Times New Roman', 'Times', serif; text-anchor: middle" x="332.378239" y="244.2925" transform="rotate(-0 332.378239 244.2925)">22.5</text>
     </g>
    </g>
    <g id="xtick_9">
     <g id="line2d_17">
      <path d="M 370.423693 228.96 
L 370.423693 7.2 
" clip-path="url(#p43198b8e66)" style="fill: none; stroke: #b0b0b0; stroke-opacity: 0.3; stroke-width: 0.8; stroke-linecap: square"/>
     </g>
     <g id="line2d_18">
      <g>
       <use xlink:href="#m3e7214da34" x="370.423693" y="228.96" style="stroke: #000000; stroke-width: 0.8"/>
      </g>
     </g>
     <g id="text_9">
      <text style="font: 12px 'Times New Roman', 'Times', serif; text-anchor: middle" x="370.423693" y="244.2925" transform="rotate(-0 370.423693 244.2925)">25.0</text>
     </g>
    </g>
    <g id="text_10">
     <text style="font: 12px 'Times New Roman', 'Times', serif; text-anchor: middle" x="218.241875" y="259.191875" transform="rotate(-0 218.241875 259.191875)">Fetal Depth (mm)</text>
    </g>
   </g>
   <g id="matplotlib.axis_2">
    <g id="ytick_1">
     <g id="line2d_19">
      <path d="M 50.841875 178.619687 
L 385.641875 178.619687 
" clip-path="url(#p43198b8e66)" style="fill: none; stroke: #b0b0b0; stroke-opacity: 0.3; stroke-width: 0.8; stroke-linecap: square"/>
     </g>
     <g id="line2d_20">
      <defs>
       <path id="m954efdab7a" d="M 0 0 
L -3.5 0 
" style="stroke: #000000; stroke-width: 0.8"/>
      </defs>
      <g>
       <use xlink:href="#m954efdab7a" x="50.841875" y="178.619687" style="stroke: #000000; stroke-width: 0.8"/>
      </g>
     </g>
     <g id="text_11">
      <!-- $\mathdefault{10^{-1}}$ -->
      <g transform="translate(22.121875 183.93625)">
       <text>
        <tspan style="font: 12px 'Times New Roman'" x="0 6" y="-0.10993750000000091">10</tspan>
        <tspan style="font: 8.4px 'Times New Roman'" x="12.180338 16.917642" y="-7.3234375">−1</tspan>
       </text>
      </g>
     </g>
    </g>
    <g id="ytick_2">
     <g id="line2d_21">
      <path d="M 50.841875 113.55989 
L 385.641875 113.55989 
" clip-path="url(#p43198b8e66)" style="fill: none; stroke: #b0b0b0; stroke-opacity: 0.3; stroke-width: 0.8; stroke-linecap: square"/>
     </g>
     <g id="line2d_22">
      <g>
       <use xlink:href="#m954efdab7a" x="50.841875" y="113.55989" style="stroke: #000000; stroke-width: 0.8"/>
      </g>
     </g>
     <g id="text_12">
      <!-- $\mathdefault{10^{0}}$ -->
      <g transform="translate(26.921875 118.876452)">
       <text>
        <tspan style="font: 12px 'Times New Roman'" x="0 6" y="-0.10993750000000091">10</tspan>
        <tspan style="font: 8.4px 'Times New Roman'" x="12.180338" y="-7.3234375">0</tspan>
       </text>
      </g>
     </g>
    </g>
    <g id="ytick_3">
     <g id="line2d_23">
      <path d="M 50.841875 48.500092 
L 385.641875 48.500092 
" clip-path="url(#p43198b8e66)" style="fill: none; stroke: #b0b0b0; stroke-opacity: 0.3; stroke-width: 0.8; stroke-linecap: square"/>
     </g>
     <g id="line2d_24">
      <g>
       <use xlink:href="#m954efdab7a" x="50.841875" y="48.500092" style="stroke: #000000; stroke-width: 0.8"/>
      </g>
     </g>
     <g id="text_13">
      <!-- $\mathdefault{10^{1}}$ -->
      <g transform="translate(26.921875 53.816654)">
       <text>
        <tspan style="font: 12px 'Times New Roman'" x="0 6" y="-0.10993750000000091">10</tspan>
        <tspan style="font: 8.4px 'Times New Roman'" x="12.180338" y="-7.3234375">1</tspan>
       </text>
      </g>
     </g>
    </g>
    <g id="ytick_4">
     <g id="line2d_25">
      <defs>
       <path id="m629d525010" d="M 0 0 
L -2 0 
" style="stroke: #000000; stroke-width: 0.6"/>
      </defs>
      <g>
       <use xlink:href="#m629d525010" x="50.841875" y="224.094535" style="stroke: #000000; stroke-width: 0.6"/>
      </g>
     </g>
    </g>
    <g id="ytick_5">
     <g id="line2d_26">
      <g>
       <use xlink:href="#m629d525010" x="50.841875" y="212.638073" style="stroke: #000000; stroke-width: 0.6"/>
      </g>
     </g>
    </g>
    <g id="ytick_6">
     <g id="line2d_27">
      <g>
       <use xlink:href="#m629d525010" x="50.841875" y="204.509584" style="stroke: #000000; stroke-width: 0.6"/>
      </g>
     </g>
    </g>
    <g id="ytick_7">
     <g id="line2d_28">
      <g>
       <use xlink:href="#m629d525010" x="50.841875" y="198.204638" style="stroke: #000000; stroke-width: 0.6"/>
      </g>
     </g>
    </g>
    <g id="ytick_8">
     <g id="line2d_29">
      <g>
       <use xlink:href="#m629d525010" x="50.841875" y="193.053122" style="stroke: #000000; stroke-width: 0.6"/>
      </g>
     </g>
    </g>
    <g id="ytick_9">
     <g id="line2d_30">
      <g>
       <use xlink:href="#m629d525010" x="50.841875" y="188.697578" style="stroke: #000000; stroke-width: 0.6"/>
      </g>
     </g>
    </g>
    <g id="ytick_10">
     <g id="line2d_31">
      <g>
       <use xlink:href="#m629d525010" x="50.841875" y="184.924633" style="stroke: #000000; stroke-width: 0.6"/>
      </g>
     </g>
    </g>
    <g id="ytick_11">
     <g id="line2d_32">
      <g>
       <use xlink:href="#m629d525010" x="50.841875" y="181.596661" style="stroke: #000000; stroke-width: 0.6"/>
      </g>
     </g>
    </g>
    <g id="ytick_12">
     <g id="line2d_33">
      <g>
       <use xlink:href="#m629d525010" x="50.841875" y="159.034737" style="stroke: #000000; stroke-width: 0.6"/>
      </g>
     </g>
    </g>
    <g id="ytick_13">
     <g id="line2d_34">
      <g>
       <use xlink:href="#m629d525010" x="50.841875" y="147.578275" style="stroke: #000000; stroke-width: 0.6"/>
      </g>
     </g>
    </g>
    <g id="ytick_14">
     <g id="line2d_35">
      <g>
       <use xlink:href="#m629d525010" x="50.841875" y="139.449786" style="stroke: #000000; stroke-width: 0.6"/>
      </g>
     </g>
    </g>
    <g id="ytick_15">
     <g id="line2d_36">
      <g>
       <use xlink:href="#m629d525010" x="50.841875" y="133.14484" style="stroke: #000000; stroke-width: 0.6"/>
      </g>
     </g>
    </g>
    <g id="ytick_16">
     <g id="line2d_37">
      <g>
       <use xlink:href="#m629d525010" x="50.841875" y="127.993324" style="stroke: #000000; stroke-width: 0.6"/>
      </g>
     </g>
    </g>
    <g id="ytick_17">
     <g id="line2d_38">
      <g>
       <use xlink:href="#m629d525010" x="50.841875" y="123.63778" style="stroke: #000000; stroke-width: 0.6"/>
      </g>
     </g>
    </g>
    <g id="ytick_18">
     <g id="line2d_39">
      <g>
       <use xlink:href="#m629d525010" x="50.841875" y="119.864835" style="stroke: #000000; stroke-width: 0.6"/>
      </g>
     </g>
    </g>
    <g id="ytick_19">
     <g id="line2d_40">
      <g>
       <use xlink:href="#m629d525010" x="50.841875" y="116.536863" style="stroke: #000000; stroke-width: 0.6"/>
      </g>
     </g>
    </g>
    <g id="ytick_20">
     <g id="line2d_41">
      <g>
       <use xlink:href="#m629d525010" x="50.841875" y="93.974939" style="stroke: #000000; stroke-width: 0.6"/>
      </g>
     </g>
    </g>
    <g id="ytick_21">
     <g id="line2d_42">
      <g>
       <use xlink:href="#m629d525010" x="50.841875" y="82.518477" style="stroke: #000000; stroke-width: 0.6"/>
      </g>
     </g>
    </g>
    <g id="ytick_22">
     <g id="line2d_43">
      <g>
       <use xlink:href="#m629d525010" x="50.841875" y="74.389988" style="stroke: #000000; stroke-width: 0.6"/>
      </g>
     </g>
    </g>
    <g id="ytick_23">
     <g id="line2d_44">
      <g>
       <use xlink:href="#m629d525010" x="50.841875" y="68.085042" style="stroke: #000000; stroke-width: 0.6"/>
      </g>
     </g>
    </g>
    <g id="ytick_24">
     <g id="line2d_45">
      <g>
       <use xlink:href="#m629d525010" x="50.841875" y="62.933527" style="stroke: #000000; stroke-width: 0.6"/>
      </g>
     </g>
    </g>
    <g id="ytick_25">
     <g id="line2d_46">
      <g>
       <use xlink:href="#m629d525010" x="50.841875" y="58.577982" style="stroke: #000000; stroke-width: 0.6"/>
      </g>
     </g>
    </g>
    <g id="ytick_26">
     <g id="line2d_47">
      <g>
       <use xlink:href="#m629d525010" x="50.841875" y="54.805038" style="stroke: #000000; stroke-width: 0.6"/>
      </g>
     </g>
    </g>
    <g id="ytick_27">
     <g id="line2d_48">
      <g>
       <use xlink:href="#m629d525010" x="50.841875" y="51.477065" style="stroke: #000000; stroke-width: 0.6"/>
      </g>
     </g>
    </g>
    <g id="ytick_28">
     <g id="line2d_49">
      <g>
       <use xlink:href="#m629d525010" x="50.841875" y="28.915141" style="stroke: #000000; stroke-width: 0.6"/>
      </g>
     </g>
    </g>
    <g id="ytick_29">
     <g id="line2d_50">
      <g>
       <use xlink:href="#m629d525010" x="50.841875" y="17.458679" style="stroke: #000000; stroke-width: 0.6"/>
      </g>
     </g>
    </g>
    <g id="ytick_30">
     <g id="line2d_51">
      <g>
       <use xlink:href="#m629d525010" x="50.841875" y="9.330191" style="stroke: #000000; stroke-width: 0.6"/>
      </g>
     </g>
    </g>
    <g id="text_14">
     <text style="font: 12px 'Times New Roman', 'Times', serif; text-anchor: middle" x="15.5325" y="118.08" transform="rotate(-90 15.5325 118.08)">Figure of Merit</text>
    </g>
   </g>
   <g id="line2d_52">
    <path d="M 66.060057 17.685631 
L 142.150966 17.306388 
L 218.241875 17.310011 
L 294.332784 17.29391 
L 370.423693 17.28 
" clip-path="url(#p43198b8e66)" style="fill: none; stroke: #213c51; stroke-width: 2; stroke-linecap: square"/>
    <defs>
     <path id="mc473c3aea0" d="M 0 4 
C 1.060812 4 2.078319 3.578535 2.828427 2.828427 
C 3.578535 2.078319 4 1.060812 4 0 
C 4 -1.060812 3.578535 -2.078319 2.828427 -2.828427 
C 2.078319 -3.578535 1.060812 -4 0 -4 
C -1.060812 -4 -2.078319 -3.578535 -2.828427 -2.828427 
C -3.578535 -2.078319 -4 -1.060812 -4 0 
C -4 1.060812 -3.578535 2.078319 -2.828427 2.828427 
C -2.078319 3.578535 -1.060812 4 0 4 
z
" style="stroke: #213c51"/>
    </defs>
    <g clip-path="url(#p43198b8e66)">
     <use xlink:href="#mc473c3aea0" x="66.060057" y="17.685631" style="fill: #213c51; stroke: #213c51"/>
     <use xlink:href="#mc473c3aea0" x="142.150966" y="17.306388" style="fill: #213c51; stroke: #213c51"/>
     <use xlink:href="#mc473c3aea0" x="218.241875" y="17.310011" style="fill: #213c51; stroke: #213c51"/>
     <use xlink:href="#mc473c3aea0" x="294.332784" y="17.29391" style="fill: #213c51; stroke: #213c51"/>
     <use xlink:href="#mc473c3aea0" x="370.423693" y="17.28" style="fill: #213c51; stroke: #213c51"/>
    </g>
   </g>
   <g id="line2d_53">
    <path d="M 66.060057 128.356307 
L 142.150966 128.366581 
L 218.241875 126.89698 
L 294.332784 127.438511 
L 370.423693 126.244915 
" clip-path="url(#p43198b8e66)" style="fill: none; stroke: #6594b1; stroke-width: 2; stroke-linecap: square"/>
    <defs>
     <path id="mb9fc1ce191" d="M 0 4 
C 1.060812 4 2.078319 3.578535 2.828427 2.828427 
C 3.578535 2.078319 4 1.060812 4 0 
C 4 -1.060812 3.578535 -2.078319 2.828427 -2.828427 
C 2.078319 -3.578535 1.060812 -4 0 -4 
C -1.060812 -4 -2.078319 -3.578535 -2.828427 -2.828427 
C -3.578535 -2.078319 -4 -1.060812 -4 0 
C -4 1.060812 -3.578535 2.078319 -2.828427 2.828427 
C -2.078319 3.578535 -1.060812 4 0 4 
z
" style="stroke: #6594b1"/>
    </defs>
    <g clip-path="url(#p43198b8e66)">
     <use xlink:href="#mb9fc1ce191" x="66.060057" y="128.356307" style="fill: #6594b1; stroke: #6594b1"/>
     <use xlink:href="#mb9fc1ce191" x="142.150966" y="128.366581" style="fill: #6594b1; stroke: #6594b1"/>
     <use xlink:href="#mb9fc1ce191" x="218.241875" y="126.89698" style="fill: #6594b1; stroke: #6594b1"/>
     <use xlink:href="#mb9fc1ce191" x="294.332784" y="127.438511" style="fill: #6594b1; stroke: #6594b1"/>
     <use xlink:href="#mb9fc1ce191" x="370.423693" y="126.244915" style="fill: #6594b1; stroke: #6594b1"/>
    </g>
   </g>
   <g id="line2d_54">
    <path d="M 66.060057 172.927927 
L 142.150966 183.229361 
L 218.241875 183.13374 
L 294.332784 181.922422 
L 370.423693 184.22294 
" clip-path="url(#p43198b8e66)" style="fill: none; stroke: #ddaed3; stroke-width: 2; stroke-linecap: square"/>
    <defs>
     <path id="m916f54ccc5" d="M 0 4 
C 1.060812 4 2.078319 3.578535 2.828427 2.828427 
C 3.578535 2.078319 4 1.060812 4 0 
C 4 -1.060812 3.578535 -2.078319 2.828427 -2.828427 
C 2.078319 -3.578535 1.060812 -4 0 -4 
C -1.060812 -4 -2.078319 -3.578535 -2.828427 -2.828427 
C -3.578535 -2.078319 -4 -1.060812 -4 0 
C -4 1.060812 -3.578535 2.078319 -2.828427 2.828427 
C -2.078319 3.578535 -1.060812 4 0 4 
z
" style="stroke: #ddaed3"/>
    </defs>
    <g clip-path="url(#p43198b8e66)">
     <use xlink:href="#m916f54ccc5" x="66.060057" y="172.927927" style="fill: #ddaed3; stroke: #ddaed3"/>
     <use xlink:href="#m916f54ccc5" x="142.150966" y="183.229361" style="fill: #ddaed3; stroke: #ddaed3"/>
     <use xlink:href="#m916f54ccc5" x="218.241875" y="183.13374" style="fill: #ddaed3; stroke: #ddaed3"/>
     <use xlink:href="#m916f54ccc5" x="294.332784" y="181.922422" style="fill: #ddaed3; stroke: #ddaed3"/>
     <use xlink:href="#m916f54ccc5" x="370.423693" y="184.22294" style="fill: #ddaed3; stroke: #ddaed3"/>
    </g>
   </g>
   <g id="line2d_55">
    <path d="M 66.060057 190.053343 
L 142.150966 206.67915 
L 218.241875 218.872288 
L 294.332784 218.841947 
L 370.423693 218.88 
" clip-path="url(#p43198b8e66)" style="fill: none; stroke: #d02752; stroke-width: 2; stroke-linecap: square"/>
    <defs>
     <path id="m0444307abc" d="M 0 4 
C 1.060812 4 2.078319 3.578535 2.828427 2.828427 
C 3.578535 2.078319 4 1.060812 4 0 
C 4 -1.060812 3.578535 -2.078319 2.828427 -2.828427 
C 2.078319 -3.578535 1.060812 -4 0 -4 
C -1.060812 -4 -2.078319 -3.578535 -2.828427 -2.828427 
C -3.578535 -2.078319 -4 -1.060812 -4 0 
C -4 1.060812 -3.578535 2.078319 -2.828427 2.828427 
C -2.078319 3.578535 -1.060812 4 0 4 
z
" style="stroke: #d02752"/>
    </defs>
    <g clip-path="url(#p43198b8e66)">
     <use xlink:href="#m0444307abc" x="66.060057" y="190.053343" style="fill: #d02752; stroke: #d02752"/>
     <use xlink:href="#m0444307abc" x="142.150966" y="206.67915" style="fill: #d02752; stroke: #d02752"/>
     <use xlink:href="#m0444307abc" x="218.241875" y="218.872288" style="fill: #d02752; stroke: #d02752"/>
     <use xlink:href="#m0444307abc" x="294.332784" y="218.841947" style="fill: #d02752; stroke: #d02752"/>
     <use xlink:href="#m0444307abc" x="370.423693" y="218.88" style="fill: #d02752; stroke: #d02752"/>
    </g>
   </g>
   <g id="patch_3">
    <path d="M 50.841875 228.96 
L 50.841875 7.2 
" style="fill: none; stroke: #000000; stroke-width: 0.8; stroke-linejoin: miter; stroke-linecap: square"/>
   </g>
   <g id="patch_4">
    <path d="M 385.641875 228.96 
L 385.641875 7.2 
" style="fill: none; stroke: #000000; stroke-width: 0.8; stroke-linejoin: miter; stroke-linecap: square"/>
   </g>
   <g id="patch_5">
    <path d="M 50.841875 228.96 
L 385.641875 228.96 
" style="fill: none; stroke: #000000; stroke-width: 0.8; stroke-linejoin: miter; stroke-linecap: square"/>
   </g>
   <g id="patch_6">
    <path d="M 50.841875 7.2 
L 385.641875 7.2 
" style="fill: none; stroke: #000000; stroke-width: 0.8; stroke-linejoin: miter; stroke-linecap: square"/>
   </g>
   <g id="legend_1">
    <g id="patch_7">
     <path d="M 268.401875 84.6675 
L 377.241875 84.6675 
Q 379.641875 84.6675 379.641875 82.2675 
L 379.641875 15.6 
Q 379.641875 13.2 377.241875 13.2 
L 268.401875 13.2 
Q 266.001875 13.2 266.001875 15.6 
L 266.001875 82.2675 
Q 266.001875 84.6675 268.401875 84.6675 
z
" style="fill: #ffffff; opacity: 0.8; stroke: #cccccc; stroke-linejoin: miter"/>
    </g>
    <g id="line2d_56">
     <path d="M 270.801875 22.2 
L 282.801875 22.2 
L 294.801875 22.2 
" style="fill: none; stroke: #213c51; stroke-width: 2; stroke-linecap: square"/>
     <g>
      <use xlink:href="#mc473c3aea0" x="282.801875" y="22.2" style="fill: #213c51; stroke: #213c51"/>
     </g>
    </g>
    <g id="text_15">
     <text style="font: 12px 'Times New Roman', 'Times', serif; text-anchor: start" x="304.401875" y="26.4" transform="rotate(-0 304.401875 26.4)">SDD = 2 mm</text>
    </g>
    <g id="line2d_57">
     <path d="M 270.801875 39.166875 
L 282.801875 39.166875 
L 294.801875 39.166875 
" style="fill: none; stroke: #6594b1; stroke-width: 2; stroke-linecap: square"/>
     <g>
      <use xlink:href="#mb9fc1ce191" x="282.801875" y="39.166875" style="fill: #6594b1; stroke: #6594b1"/>
     </g>
    </g>
    <g id="text_16">
     <text style="font: 12px 'Times New Roman', 'Times', serif; text-anchor: start" x="304.401875" y="43.366875" transform="rotate(-0 304.401875 43.366875)">SDD = 13 mm</text>
    </g>
    <g id="line2d_58">
     <path d="M 270.801875 56.13375 
L 282.801875 56.13375 
L 294.801875 56.13375 
" style="fill: none; stroke: #ddaed3; stroke-width: 2; stroke-linecap: square"/>
     <g>
      <use xlink:href="#m916f54ccc5" x="282.801875" y="56.13375" style="fill: #ddaed3; stroke: #ddaed3"/>
     </g>
    </g>
    <g id="text_17">
     <text style="font: 12px 'Times New Roman', 'Times', serif; text-anchor: start" x="304.401875" y="60.33375" transform="rotate(-0 304.401875 60.33375)">SDD = 24 mm</text>
    </g>
    <g id="line2d_59">
     <path d="M 270.801875 73.100625 
L 282.801875 73.100625 
L 294.801875 73.100625 
" style="fill: none; stroke: #d02752; stroke-width: 2; stroke-linecap: square"/>
     <g>
      <use xlink:href="#m0444307abc" x="282.801875" y="73.100625" style="fill: #d02752; stroke: #d02752"/>
     </g>
    </g>
    <g id="text_18">
     <text style="font: 12px 'Times New Roman', 'Times', serif; text-anchor: start" x="304.401875" y="77.300625" transform="rotate(-0 304.401875 77.300625)">SDD = 35 mm</text>
    </g>
   </g>
  </g>
 </g>
 <defs>
  <clipPath id="p43198b8e66">
   <rect x="50.841875" y="7.2" width="334.8" height="221.76"/>
  </clipPath>
 </defs>
</svg>
