<?xml version="1.0" encoding="utf-8" standalone="no"?>
<!DOCTYPE svg PUBLIC "-//W3C//DTD SVG 1.1//EN"
  "http://www.w3.org/Graphics/SVG/1.1/DTD/svg11.dtd">
<svg xmlns:xlink="http://www.w3.org/1999/xlink" width="404.7175pt" height="265.87875pt" viewBox="0 0 404.7175 265.87875" xmlns="http://www.w3.org/2000/svg" version="1.1">
 <metadata>
  <rdf:RDF xmlns:dc="http://purl.org/dc/elements/1.1/" xmlns:cc="http://creativecommons.org/ns#" xmlns:rdf="http://www.w3.org/1999/02/22-rdf-syntax-ns#">
   <cc:Work>
    <dc:type rdf:resource="http://purl.org/dc/dcmitype/StillImage"/>
    <dc:date>2026-05-16T08:40:10.496228</dc:date>
    <dc:format>image/svg+xml</dc:format>
    <dc:creator>
     <cc:Agent>
      <dc:title>Matplotlib v3.10.8, https://matplotlib.org/</dc:title>
     </cc:Agent>
    </dc:creator>
   </cc:Work>
  </rdf:RDF>
 </metadata>
 <defs>
  <style type="text/css">*{stroke-linejoin: round; stroke-linecap: butt}</style>
 </defs>
 <g id="figure_1">
  <g id="patch_1">
   <path d="M 0 265.87875 
L 404.7175 265.87875 
L 404.7175 0 
L 0 0 
z
" style="fill: #ffffff"/>
  </g>
  <g id="axes_1">
   <g id="patch_2">
    <path d="M 62.7175 228.96 
L 397.5175 228.96 
L 397.5175 7.2 
L 62.7175 7.2 
z
" style="fill: #ffffff"/>
   </g>
   <g id="patch_3">
    <path d="M 369.944515 41.592645 
Q 368.943051 41.555389 367.941587 41.518132 
" clip-path="url(#p549610221d)" style="fill: none; opacity: 0.55; stroke: #808080; stroke-width: 0.45; stroke-linecap: round"/>
   </g>
   <g id="patch_4">
    <path d="M 188.999994 113.756773 
Q 184.201504 116.909404 179.403015 120.062035 
" clip-path="url(#p549610221d)" style="fill: none; opacity: 0.55; stroke: #808080; stroke-width: 0.45; stroke-linecap: round"/>
   </g>
   <g id="patch_5">
    <path d="M 112.078709 188.67298 
Q 104.916483 192.047891 97.754256 195.422803 
" clip-path="url(#p549610221d)" style="fill: none; opacity: 0.55; stroke: #808080; stroke-width: 0.45; stroke-linecap: round"/>
   </g>
   <g id="patch_6">
    <path d="M 376.774816 31.484439 
Q 370.021705 35.258237 363.268593 39.032035 
" clip-path="url(#p549610221d)" style="fill: none; opacity: 0.55; stroke: #808080; stroke-width: 0.45; stroke-linecap: round"/>
   </g>
   <g id="patch_7">
    <path d="M 277.261761 86.566302 
Q 277.144811 86.643497 277.027862 86.720691 
" clip-path="url(#p549610221d)" style="fill: none; opacity: 0.55; stroke: #808080; stroke-width: 0.45; stroke-linecap: round"/>
   </g>
   <g id="patch_8">
    <path d="M 348.247988 34.546195 
Q 348.147546 34.797301 348.047104 35.048406 
" clip-path="url(#p549610221d)" style="fill: none; opacity: 0.55; stroke: #808080; stroke-width: 0.45; stroke-linecap: round"/>
   </g>
   <g id="matplotlib.axis_1">
    <g id="xtick_1">
     <g id="line2d_1">
      <path d="M 124.002225 228.96 
L 124.002225 7.2 
" clip-path="url(#p549610221d)" style="fill: none; stroke: #e0e0e0; stroke-opacity: 0.7; stroke-width: 0.8; stroke-linecap: square"/>
     </g>
     <g id="line2d_2">
      <defs>
       <path id="m61e8529085" d="M 0 0 
L 0 -4 
" style="stroke: #000000; stroke-width: 0.8"/>
      </defs>
      <g>
       <use xlink:href="#m61e8529085" x="124.002225" y="228.96" style="stroke: #000000; stroke-width: 0.8"/>
      </g>
     </g>
     <g id="text_1">
      <!-- $\mathdefault{10^{-2}}$ -->
      <g transform="translate(114.252225 239.633437)">
       <text>
        <tspan x="0" y="-0.425" style="font-size: 10px; font-family: 'Helvetica'">1</tspan>
        <tspan x="5.561523" y="-0.425" style="font-size: 10px; font-family: 'Helvetica'">0</tspan>
        <tspan x="11.214648" y="-4.089063" style="font-size: 7px; font-family: 'Helvetica'">−</tspan>
        <tspan x="15.302539" y="-4.089063" style="font-size: 7px; font-family: 'Helvetica'">2</tspan>
       </text>
      </g>
     </g>
    </g>
    <g id="xtick_2">
     <g id="line2d_3">
      <path d="M 284.018867 228.96 
L 284.018867 7.2 
" clip-path="url(#p549610221d)" style="fill: none; stroke: #e0e0e0; stroke-opacity: 0.7; stroke-width: 0.8; stroke-linecap: square"/>
     </g>
     <g id="line2d_4">
      <g>
       <use xlink:href="#m61e8529085" x="284.018867" y="228.96" style="stroke: #000000; stroke-width: 0.8"/>
      </g>
     </g>
     <g id="text_2">
      <!-- $\mathdefault{10^{-1}}$ -->
      <g transform="translate(274.268867 239.633437)">
       <text>
        <tspan x="0" y="-0.457813" style="font-size: 10px; font-family: 'Helvetica'">1</tspan>
        <tspan x="5.561523" y="-0.457813" style="font-size: 10px; font-family: 'Helvetica'">0</tspan>
        <tspan x="11.214648" y="-4.121875" style="font-size: 7px; font-family: 'Helvetica'">−</tspan>
        <tspan x="15.302539" y="-4.121875" style="font-size: 7px; font-family: 'Helvetica'">1</tspan>
       </text>
      </g>
     </g>
    </g>
    <g id="xtick_3">
     <g id="line2d_5">
      <defs>
       <path id="mb335301791" d="M 0 0 
L 0 -2 
" style="stroke: #000000; stroke-width: 0.6"/>
      </defs>
      <g>
       <use xlink:href="#mb335301791" x="75.832416" y="228.96" style="stroke: #000000; stroke-width: 0.6"/>
      </g>
     </g>
    </g>
    <g id="xtick_4">
     <g id="line2d_6">
      <g>
       <use xlink:href="#mb335301791" x="88.502733" y="228.96" style="stroke: #000000; stroke-width: 0.6"/>
      </g>
     </g>
    </g>
    <g id="xtick_5">
     <g id="line2d_7">
      <g>
       <use xlink:href="#mb335301791" x="99.215334" y="228.96" style="stroke: #000000; stroke-width: 0.6"/>
      </g>
     </g>
    </g>
    <g id="xtick_6">
     <g id="line2d_8">
      <g>
       <use xlink:href="#mb335301791" x="108.49501" y="228.96" style="stroke: #000000; stroke-width: 0.6"/>
      </g>
     </g>
    </g>
    <g id="xtick_7">
     <g id="line2d_9">
      <g>
       <use xlink:href="#mb335301791" x="116.680265" y="228.96" style="stroke: #000000; stroke-width: 0.6"/>
      </g>
     </g>
    </g>
    <g id="xtick_8">
     <g id="line2d_10">
      <g>
       <use xlink:href="#mb335301791" x="172.172034" y="228.96" style="stroke: #000000; stroke-width: 0.6"/>
      </g>
     </g>
    </g>
    <g id="xtick_9">
     <g id="line2d_11">
      <g>
       <use xlink:href="#mb335301791" x="200.349566" y="228.96" style="stroke: #000000; stroke-width: 0.6"/>
      </g>
     </g>
    </g>
    <g id="xtick_10">
     <g id="line2d_12">
      <g>
       <use xlink:href="#mb335301791" x="220.341843" y="228.96" style="stroke: #000000; stroke-width: 0.6"/>
      </g>
     </g>
    </g>
    <g id="xtick_11">
     <g id="line2d_13">
      <g>
       <use xlink:href="#mb335301791" x="235.849058" y="228.96" style="stroke: #000000; stroke-width: 0.6"/>
      </g>
     </g>
    </g>
    <g id="xtick_12">
     <g id="line2d_14">
      <g>
       <use xlink:href="#mb335301791" x="248.519375" y="228.96" style="stroke: #000000; stroke-width: 0.6"/>
      </g>
     </g>
    </g>
    <g id="xtick_13">
     <g id="line2d_15">
      <g>
       <use xlink:href="#mb335301791" x="259.231976" y="228.96" style="stroke: #000000; stroke-width: 0.6"/>
      </g>
     </g>
    </g>
    <g id="xtick_14">
     <g id="line2d_16">
      <g>
       <use xlink:href="#mb335301791" x="268.511652" y="228.96" style="stroke: #000000; stroke-width: 0.6"/>
      </g>
     </g>
    </g>
    <g id="xtick_15">
     <g id="line2d_17">
      <g>
       <use xlink:href="#mb335301791" x="276.696907" y="228.96" style="stroke: #000000; stroke-width: 0.6"/>
      </g>
     </g>
    </g>
    <g id="xtick_16">
     <g id="line2d_18">
      <g>
       <use xlink:href="#mb335301791" x="332.188676" y="228.96" style="stroke: #000000; stroke-width: 0.6"/>
      </g>
     </g>
    </g>
    <g id="xtick_17">
     <g id="line2d_19">
      <g>
       <use xlink:href="#mb335301791" x="360.366208" y="228.96" style="stroke: #000000; stroke-width: 0.6"/>
      </g>
     </g>
    </g>
    <g id="xtick_18">
     <g id="line2d_20">
      <g>
       <use xlink:href="#mb335301791" x="380.358485" y="228.96" style="stroke: #000000; stroke-width: 0.6"/>
      </g>
     </g>
    </g>
    <g id="xtick_19">
     <g id="line2d_21">
      <g>
       <use xlink:href="#mb335301791" x="395.8657" y="228.96" style="stroke: #000000; stroke-width: 0.6"/>
      </g>
     </g>
    </g>
    <g id="text_3">
     <text style="font-size: 14px; font-family: 'Helvetica', 'Arial', sans-serif; text-anchor: middle" x="230.1175" y="255.760625" transform="rotate(-0 230.1175 255.760625)">Fetal SNR</text>
    </g>
   </g>
   <g id="matplotlib.axis_2">
    <g id="ytick_1">
     <g id="line2d_22">
      <path d="M 62.7175 226.981579 
L 397.5175 226.981579 
" clip-path="url(#p549610221d)" style="fill: none; stroke: #e0e0e0; stroke-opacity: 0.7; stroke-width: 0.8; stroke-linecap: square"/>
     </g>
     <g id="line2d_23">
      <defs>
       <path id="m4f5b89262d" d="M 0 0 
L 4 0 
" style="stroke: #000000; stroke-width: 0.8"/>
      </defs>
      <g>
       <use xlink:href="#m4f5b89262d" x="62.7175" y="226.981579" style="stroke: #000000; stroke-width: 0.8"/>
      </g>
     </g>
     <g id="text_4">
      <!-- $\mathdefault{10^{-1}}$ -->
      <g transform="translate(39.7175 230.568298)">
       <text>
        <tspan x="0" y="-0.457813" style="font-size: 10px; font-family: 'Helvetica'">1</tspan>
        <tspan x="5.561523" y="-0.457813" style="font-size: 10px; font-family: 'Helvetica'">0</tspan>
        <tspan x="11.214648" y="-4.121875" style="font-size: 7px; font-family: 'Helvetica'">−</tspan>
        <tspan x="15.302539" y="-4.121875" style="font-size: 7px; font-family: 'Helvetica'">1</tspan>
       </text>
      </g>
     </g>
    </g>
    <g id="ytick_2">
     <g id="line2d_24">
      <defs>
       <path id="m1b4b6fd278" d="M 0 0 
L 2 0 
" style="stroke: #000000; stroke-width: 0.6"/>
      </defs>
      <g>
       <use xlink:href="#m1b4b6fd278" x="62.7175" y="152.088371" style="stroke: #000000; stroke-width: 0.6"/>
      </g>
     </g>
     <g id="text_5">
      <!-- $\mathdefault{2\times10^{-1}}$ -->
      <g transform="translate(24.5175 155.67509)">
       <text>
        <tspan x="0" y="-0.457813" style="font-size: 10px; font-family: 'Helvetica'">2</tspan>
        <tspan x="7.509766" y="-0.457813" style="font-size: 10px; font-family: 'Helvetica'">×</tspan>
        <tspan x="15.297852" y="-0.457813" style="font-size: 10px; font-family: 'Helvetica'">1</tspan>
        <tspan x="20.859375" y="-0.457813" style="font-size: 10px; font-family: 'Helvetica'">0</tspan>
        <tspan x="26.5125" y="-4.121875" style="font-size: 7px; font-family: 'Helvetica'">−</tspan>
        <tspan x="30.600391" y="-4.121875" style="font-size: 7px; font-family: 'Helvetica'">1</tspan>
       </text>
      </g>
     </g>
    </g>
    <g id="ytick_3">
     <g id="line2d_25">
      <g>
       <use xlink:href="#m1b4b6fd278" x="62.7175" y="108.278652" style="stroke: #000000; stroke-width: 0.6"/>
      </g>
     </g>
     <g id="text_6">
      <!-- $\mathdefault{3\times10^{-1}}$ -->
      <g transform="translate(24.5175 111.865371)">
       <text>
        <tspan x="0" y="-0.457813" style="font-size: 10px; font-family: 'Helvetica'">3</tspan>
        <tspan x="7.509766" y="-0.457813" style="font-size: 10px; font-family: 'Helvetica'">×</tspan>
        <tspan x="15.297852" y="-0.457813" style="font-size: 10px; font-family: 'Helvetica'">1</tspan>
        <tspan x="20.859375" y="-0.457813" style="font-size: 10px; font-family: 'Helvetica'">0</tspan>
        <tspan x="26.5125" y="-4.121875" style="font-size: 7px; font-family: 'Helvetica'">−</tspan>
        <tspan x="30.600391" y="-4.121875" style="font-size: 7px; font-family: 'Helvetica'">1</tspan>
       </text>
      </g>
     </g>
    </g>
    <g id="ytick_4">
     <g id="line2d_26">
      <g>
       <use xlink:href="#m1b4b6fd278" x="62.7175" y="77.195162" style="stroke: #000000; stroke-width: 0.6"/>
      </g>
     </g>
     <g id="text_7">
      <!-- $\mathdefault{4\times10^{-1}}$ -->
      <g transform="translate(24.5175 80.781881)">
       <text>
        <tspan x="0" y="-0.457813" style="font-size: 10px; font-family: 'Helvetica'">4</tspan>
        <tspan x="7.509766" y="-0.457813" style="font-size: 10px; font-family: 'Helvetica'">×</tspan>
        <tspan x="15.297852" y="-0.457813" style="font-size: 10px; font-family: 'Helvetica'">1</tspan>
        <tspan x="20.859375" y="-0.457813" style="font-size: 10px; font-family: 'Helvetica'">0</tspan>
        <tspan x="26.5125" y="-4.121875" style="font-size: 7px; font-family: 'Helvetica'">−</tspan>
        <tspan x="30.600391" y="-4.121875" style="font-size: 7px; font-family: 'Helvetica'">1</tspan>
       </text>
      </g>
     </g>
    </g>
    <g id="ytick_5">
     <g id="line2d_27">
      <g>
       <use xlink:href="#m1b4b6fd278" x="62.7175" y="53.084934" style="stroke: #000000; stroke-width: 0.6"/>
      </g>
     </g>
    </g>
    <g id="ytick_6">
     <g id="line2d_28">
      <g>
       <use xlink:href="#m1b4b6fd278" x="62.7175" y="33.385444" style="stroke: #000000; stroke-width: 0.6"/>
      </g>
     </g>
     <g id="text_8">
      <!-- $\mathdefault{6\times10^{-1}}$ -->
      <g transform="translate(24.5175 36.972162)">
       <text>
        <tspan x="0" y="-0.457813" style="font-size: 10px; font-family: 'Helvetica'">6</tspan>
        <tspan x="7.509766" y="-0.457813" style="font-size: 10px; font-family: 'Helvetica'">×</tspan>
        <tspan x="15.297852" y="-0.457813" style="font-size: 10px; font-family: 'Helvetica'">1</tspan>
        <tspan x="20.859375" y="-0.457813" style="font-size: 10px; font-family: 'Helvetica'">0</tspan>
        <tspan x="26.5125" y="-4.121875" style="font-size: 7px; font-family: 'Helvetica'">−</tspan>
        <tspan x="30.600391" y="-4.121875" style="font-size: 7px; font-family: 'Helvetica'">1</tspan>
       </text>
      </g>
     </g>
    </g>
    <g id="ytick_7">
     <g id="line2d_29">
      <g>
       <use xlink:href="#m1b4b6fd278" x="62.7175" y="16.729762" style="stroke: #000000; stroke-width: 0.6"/>
      </g>
     </g>
    </g>
    <g id="text_9">
     <text style="font-size: 14px; font-family: 'Helvetica', 'Arial', sans-serif; text-anchor: middle" x="17.51625" y="118.08" transform="rotate(-90 17.51625 118.08)">Selectivity</text>
    </g>
   </g>
   <g id="line2d_30">
    <path d="M 365.1175 42.519024 
L 273.526465 90.332618 
L 176.904409 122.234109 
L 95.1175 197.349764 
" clip-path="url(#p549610221d)" style="fill: none; stroke: #2d3047; stroke-width: 2; stroke-linecap: square"/>
    <defs>
     <path id="ma914739cfd" d="M -4 4 
L 4 4 
L 4 -4 
L -4 -4 
z
" style="stroke: #ffffff; stroke-width: 0.5; stroke-linejoin: miter"/>
    </defs>
    <g clip-path="url(#p549610221d)">
     <use xlink:href="#ma914739cfd" x="365.1175" y="42.519024" style="fill: #2d3047; stroke: #ffffff; stroke-width: 0.5; stroke-linejoin: miter"/>
     <use xlink:href="#ma914739cfd" x="273.526465" y="90.332618" style="fill: #2d3047; stroke: #ffffff; stroke-width: 0.5; stroke-linejoin: miter"/>
     <use xlink:href="#ma914739cfd" x="176.904409" y="122.234109" style="fill: #2d3047; stroke: #ffffff; stroke-width: 0.5; stroke-linejoin: miter"/>
     <use xlink:href="#ma914739cfd" x="95.1175" y="197.349764" style="fill: #2d3047; stroke: #ffffff; stroke-width: 0.5; stroke-linejoin: miter"/>
    </g>
   </g>
   <g id="line2d_31">
    <path d="M 360.555957 41.296858 
L 274.394694 89.109876 
L 187.239894 141.990343 
L 98.984055 199.609412 
" clip-path="url(#p549610221d)" style="fill: none; stroke-dasharray: 7.4,3.2; stroke-dashoffset: 0; stroke: #d1345b; stroke-width: 2"/>
    <defs>
     <path id="m90be142b46" d="M 0 4 
C 1.060812 4 2.078319 3.578535 2.828427 2.828427 
C 3.578535 2.078319 4 1.060812 4 0 
C 4 -1.060812 3.578535 -2.078319 2.828427 -2.828427 
C 2.078319 -3.578535 1.060812 -4 0 -4 
C -1.060812 -4 -2.078319 -3.578535 -2.828427 -2.828427 
C -3.578535 -2.078319 -4 -1.060812 -4 0 
C -4 1.060812 -3.578535 2.078319 -2.828427 2.828427 
C -2.078319 3.578535 -1.060812 4 0 4 
z
" style="stroke: #ffffff; stroke-width: 0.5"/>
    </defs>
    <g clip-path="url(#p549610221d)">
     <use xlink:href="#m90be142b46" x="360.555957" y="41.296858" style="fill: #d1345b; stroke: #ffffff; stroke-width: 0.5"/>
     <use xlink:href="#m90be142b46" x="274.394694" y="89.109876" style="fill: #d1345b; stroke: #ffffff; stroke-width: 0.5"/>
     <use xlink:href="#m90be142b46" x="187.239894" y="141.990343" style="fill: #d1345b; stroke: #ffffff; stroke-width: 0.5"/>
     <use xlink:href="#m90be142b46" x="98.984055" y="199.609412" style="fill: #d1345b; stroke: #ffffff; stroke-width: 0.5"/>
    </g>
   </g>
   <g id="line2d_32">
    <path d="M 346.943996 36.550588 
L 261.654939 65.428037 
L 184.833806 138.250136 
L 96.709531 172.908744 
" clip-path="url(#p549610221d)" style="fill: none; stroke-dasharray: 2,3.3; stroke-dashoffset: 0; stroke: #ff9b71; stroke-width: 2"/>
    <defs>
     <path id="m9934d06570" d="M 0 -4 
L -4 4 
L 4 4 
z
" style="stroke: #ffffff; stroke-width: 0.5; stroke-linejoin: miter"/>
    </defs>
    <g clip-path="url(#p549610221d)">
     <use xlink:href="#m9934d06570" x="346.943996" y="36.550588" style="fill: #ff9b71; stroke: #ffffff; stroke-width: 0.5; stroke-linejoin: miter"/>
     <use xlink:href="#m9934d06570" x="261.654939" y="65.428037" style="fill: #ff9b71; stroke: #ffffff; stroke-width: 0.5; stroke-linejoin: miter"/>
     <use xlink:href="#m9934d06570" x="184.833806" y="138.250136" style="fill: #ff9b71; stroke: #ffffff; stroke-width: 0.5; stroke-linejoin: miter"/>
     <use xlink:href="#m9934d06570" x="96.709531" y="172.908744" style="fill: #ff9b71; stroke: #ffffff; stroke-width: 0.5; stroke-linejoin: miter"/>
    </g>
   </g>
   <g id="patch_9">
    <path d="M 62.7175 228.96 
L 62.7175 7.2 
" style="fill: none; stroke: #000000; stroke-width: 0.8; stroke-linejoin: miter; stroke-linecap: square"/>
   </g>
   <g id="patch_10">
    <path d="M 397.5175 228.96 
L 397.5175 7.2 
" style="fill: none; stroke: #000000; stroke-width: 0.8; stroke-linejoin: miter; stroke-linecap: square"/>
   </g>
   <g id="patch_11">
    <path d="M 62.7175 228.96 
L 397.5175 228.96 
" style="fill: none; stroke: #000000; stroke-width: 0.8; stroke-linejoin: miter; stroke-linecap: square"/>
   </g>
   <g id="patch_12">
    <path d="M 62.7175 7.2 
L 397.5175 7.2 
" style="fill: none; stroke: #000000; stroke-width: 0.8; stroke-linejoin: miter; stroke-linecap: square"/>
   </g>
   <g id="text_10">
    <g id="patch_13">
     <path d="M 371.943343 47.016668 
L 395.949593 47.016668 
Q 397.149593 47.016668 397.149593 45.816668 
L 397.149593 38.410418 
Q 397.149593 37.210418 395.949593 37.210418 
L 371.943343 37.210418 
Q 370.743343 37.210418 370.743343 38.410418 
L 370.743343 45.816668 
Q 370.743343 47.016668 371.943343 47.016668 
z
" clip-path="url(#p549610221d)" style="fill: #ffffff; opacity: 0.5"/>
    </g>
    <g clip-path="url(#p549610221d)">
     <text style="font-size: 8px; font-family: 'Helvetica', 'Arial', sans-serif; text-anchor: middle" x="383.946468" y="44.149168" transform="rotate(-0 383.946468 44.149168)">0.8 cm</text>
    </g>
   </g>
   <g id="text_11">
    <g id="patch_14">
     <path d="M 276.289809 88.660629 
L 300.296059 88.660629 
Q 301.496059 88.660629 301.496059 87.460629 
L 301.496059 80.054379 
Q 301.496059 78.854379 300.296059 78.854379 
L 276.289809 78.854379 
Q 275.089809 78.854379 275.089809 80.054379 
L 275.089809 87.460629 
Q 275.089809 88.660629 276.289809 88.660629 
z
" clip-path="url(#p549610221d)" style="fill: #ffffff; opacity: 0.5"/>
    </g>
    <g clip-path="url(#p549610221d)">
     <text style="font-size: 8px; font-family: 'Helvetica', 'Arial', sans-serif; text-anchor: middle" x="288.292934" y="85.793129" transform="rotate(-0 288.292934 85.793129)">1.2 cm</text>
    </g>
   </g>
   <g id="text_12">
    <g id="patch_15">
     <path d="M 178.667752 117.56212 
L 202.674002 117.56212 
Q 203.874002 117.56212 203.874002 116.36212 
L 203.874002 108.95587 
Q 203.874002 107.75587 202.674002 107.75587 
L 178.667752 107.75587 
Q 177.467752 107.75587 177.467752 108.95587 
L 177.467752 116.36212 
Q 177.467752 117.56212 178.667752 117.56212 
z
" clip-path="url(#p549610221d)" style="fill: #ffffff; opacity: 0.5"/>
    </g>
    <g clip-path="url(#p549610221d)">
     <text style="font-size: 8px; font-family: 'Helvetica', 'Arial', sans-serif; text-anchor: middle" x="190.670877" y="114.69462" transform="rotate(-0 190.670877 114.69462)">1.6 cm</text>
    </g>
   </g>
   <g id="text_13">
    <g id="patch_16">
     <path d="M 101.884603 192.723678 
L 125.890853 192.723678 
Q 127.090853 192.723678 127.090853 191.523678 
L 127.090853 184.117428 
Q 127.090853 182.917428 125.890853 182.917428 
L 101.884603 182.917428 
Q 100.684603 182.917428 100.684603 184.117428 
L 100.684603 191.523678 
Q 100.684603 192.723678 101.884603 192.723678 
z
" clip-path="url(#p549610221d)" style="fill: #ffffff; opacity: 0.5"/>
    </g>
    <g clip-path="url(#p549610221d)">
     <text style="font-size: 8px; font-family: 'Helvetica', 'Arial', sans-serif; text-anchor: middle" x="113.887728" y="189.856178" transform="rotate(-0 113.887728 189.856178)">2.0 cm</text>
    </g>
   </g>
   <g id="text_14">
    <g id="patch_17">
     <path d="M 366.519006 35.411124 
L 390.525256 35.411124 
Q 391.725256 35.411124 391.725256 34.211124 
L 391.725256 26.804874 
Q 391.725256 25.604874 390.525256 25.604874 
L 366.519006 25.604874 
Q 365.319006 25.604874 365.319006 26.804874 
L 365.319006 34.211124 
Q 365.319006 35.411124 366.519006 35.411124 
z
" clip-path="url(#p549610221d)" style="fill: #ffffff; opacity: 0.5"/>
    </g>
    <g clip-path="url(#p549610221d)">
     <text style="font-size: 8px; font-family: 'Helvetica', 'Arial', sans-serif; text-anchor: middle" x="378.522131" y="32.543624" transform="rotate(-0 378.522131 32.543624)">0.8 cm</text>
    </g>
   </g>
   <g id="text_15">
    <g id="patch_18">
     <path d="M 282.295242 80.224142 
L 306.301492 80.224142 
Q 307.501492 80.224142 307.501492 79.024142 
L 307.501492 71.617892 
Q 307.501492 70.417892 306.301492 70.417892 
L 282.295242 70.417892 
Q 281.095242 70.417892 281.095242 71.617892 
L 281.095242 79.024142 
Q 281.095242 80.224142 282.295242 80.224142 
z
" clip-path="url(#p549610221d)" style="fill: #ffffff; opacity: 0.5"/>
    </g>
    <g clip-path="url(#p549610221d)">
     <text style="font-size: 8px; font-family: 'Helvetica', 'Arial', sans-serif; text-anchor: middle" x="294.298367" y="77.356642" transform="rotate(-0 294.298367 77.356642)">1.2 cm</text>
    </g>
   </g>
   <g id="text_16">
    <g id="patch_19">
     <path d="M 192.140442 143.639385 
L 216.146692 143.639385 
Q 217.346692 143.639385 217.346692 142.439385 
L 217.346692 135.033135 
Q 217.346692 133.833135 216.146692 133.833135 
L 192.140442 133.833135 
Q 190.940442 133.833135 190.940442 135.033135 
L 190.940442 142.439385 
Q 190.940442 143.639385 192.140442 143.639385 
z
" clip-path="url(#p549610221d)" style="fill: #ffffff; opacity: 0.5"/>
    </g>
    <g clip-path="url(#p549610221d)">
     <text style="font-size: 8px; font-family: 'Helvetica', 'Arial', sans-serif; text-anchor: middle" x="204.143567" y="140.771885" transform="rotate(-0 204.143567 140.771885)">1.6 cm</text>
    </g>
   </g>
   <g id="text_17">
    <g id="patch_20">
     <path d="M 100.880843 206.677775 
L 124.887093 206.677775 
Q 126.087093 206.677775 126.087093 205.477775 
L 126.087093 198.071525 
Q 126.087093 196.871525 124.887093 196.871525 
L 100.880843 196.871525 
Q 99.680843 196.871525 99.680843 198.071525 
L 99.680843 205.477775 
Q 99.680843 206.677775 100.880843 206.677775 
z
" clip-path="url(#p549610221d)" style="fill: #ffffff; opacity: 0.5"/>
    </g>
    <g clip-path="url(#p549610221d)">
     <text style="font-size: 8px; font-family: 'Helvetica', 'Arial', sans-serif; text-anchor: middle" x="112.883968" y="203.810275" transform="rotate(-0 112.883968 203.810275)">2.0 cm</text>
    </g>
   </g>
   <g id="text_18">
    <g id="patch_21">
     <path d="M 341.043979 27.451531 
L 365.050229 27.451531 
Q 366.250229 27.451531 366.250229 26.251531 
L 366.250229 18.845281 
Q 366.250229 17.645281 365.050229 17.645281 
L 341.043979 17.645281 
Q 339.843979 17.645281 339.843979 18.845281 
L 339.843979 26.251531 
Q 339.843979 27.451531 341.043979 27.451531 
z
" clip-path="url(#p549610221d)" style="fill: #ffffff; opacity: 0.5"/>
    </g>
    <g clip-path="url(#p549610221d)">
     <text style="font-size: 8px; font-family: 'Helvetica', 'Arial', sans-serif; text-anchor: middle" x="353.047104" y="24.584031" transform="rotate(-0 353.047104 24.584031)">0.8 cm</text>
    </g>
   </g>
   <g id="text_19">
    <g id="patch_22">
     <path d="M 263.692422 61.077889 
L 287.698672 61.077889 
Q 288.898672 61.077889 288.898672 59.877889 
L 288.898672 52.471639 
Q 288.898672 51.271639 287.698672 51.271639 
L 263.692422 51.271639 
Q 262.492422 51.271639 262.492422 52.471639 
L 262.492422 59.877889 
Q 262.492422 61.077889 263.692422 61.077889 
z
" clip-path="url(#p549610221d)" style="fill: #ffffff; opacity: 0.5"/>
    </g>
    <g clip-path="url(#p549610221d)">
     <text style="font-size: 8px; font-family: 'Helvetica', 'Arial', sans-serif; text-anchor: middle" x="275.695547" y="58.210389" transform="rotate(-0 275.695547 58.210389)">1.2 cm</text>
    </g>
   </g>
   <g id="text_20">
    <g id="patch_23">
     <path d="M 183.871289 133.35343 
L 207.877539 133.35343 
Q 209.077539 133.35343 209.077539 132.15343 
L 209.077539 124.74718 
Q 209.077539 123.54718 207.877539 123.54718 
L 183.871289 123.54718 
Q 182.671289 123.54718 182.671289 124.74718 
L 182.671289 132.15343 
Q 182.671289 133.35343 183.871289 133.35343 
z
" clip-path="url(#p549610221d)" style="fill: #ffffff; opacity: 0.5"/>
    </g>
    <g clip-path="url(#p549610221d)">
     <text style="font-size: 8px; font-family: 'Helvetica', 'Arial', sans-serif; text-anchor: middle" x="195.874414" y="130.48593" transform="rotate(-0 195.874414 130.48593)">1.6 cm</text>
    </g>
   </g>
   <g id="text_21">
    <g id="patch_24">
     <path d="M 98.747014 168.558596 
L 122.753264 168.558596 
Q 123.953264 168.558596 123.953264 167.358596 
L 123.953264 159.952346 
Q 123.953264 158.752346 122.753264 158.752346 
L 98.747014 158.752346 
Q 97.547014 158.752346 97.547014 159.952346 
L 97.547014 167.358596 
Q 97.547014 168.558596 98.747014 168.558596 
z
" clip-path="url(#p549610221d)" style="fill: #ffffff; opacity: 0.5"/>
    </g>
    <g clip-path="url(#p549610221d)">
     <text style="font-size: 8px; font-family: 'Helvetica', 'Arial', sans-serif; text-anchor: middle" x="110.750139" y="165.691096" transform="rotate(-0 110.750139 165.691096)">2.0 cm</text>
    </g>
   </g>
   <g id="legend_1">
    <g id="patch_25">
     <path d="M 295.99875 223.96 
L 390.5175 223.96 
Q 392.5175 223.96 392.5175 221.96 
L 392.5175 180.186562 
Q 392.5175 178.186562 390.5175 178.186562 
L 295.99875 178.186562 
Q 293.99875 178.186562 293.99875 180.186562 
L 293.99875 221.96 
Q 293.99875 223.96 295.99875 223.96 
z
" style="fill: #ffffff; opacity: 0.8"/>
    </g>
    <g id="line2d_33">
     <path d="M 297.99875 185.86 
L 307.99875 185.86 
L 317.99875 185.86 
" style="fill: none; stroke: #2d3047; stroke-width: 2; stroke-linecap: square"/>
     <g>
      <use xlink:href="#ma914739cfd" x="307.99875" y="185.86" style="fill: #2d3047; stroke: #ffffff; stroke-width: 0.5; stroke-linejoin: miter"/>
     </g>
    </g>
    <g id="text_22">
     <text style="font-size: 10px; font-family: 'Helvetica', 'Arial', sans-serif; text-anchor: start" x="325.99875" y="189.36" transform="rotate(-0 325.99875 189.36)">SDD = 1.0 cm</text>
    </g>
    <g id="line2d_34">
     <path d="M 297.99875 200.117812 
L 307.99875 200.117812 
L 317.99875 200.117812 
" style="fill: none; stroke-dasharray: 7.4,3.2; stroke-dashoffset: 0; stroke: #d1345b; stroke-width: 2"/>
     <g>
      <use xlink:href="#m90be142b46" x="307.99875" y="200.117812" style="fill: #d1345b; stroke: #ffffff; stroke-width: 0.5"/>
     </g>
    </g>
    <g id="text_23">
     <text style="font-size: 10px; font-family: 'Helvetica', 'Arial', sans-serif; text-anchor: start" x="325.99875" y="203.617812" transform="rotate(-0 325.99875 203.617812)">SDD = 1.5 cm</text>
    </g>
    <g id="line2d_35">
     <path d="M 297.99875 214.375625 
L 307.99875 214.375625 
L 317.99875 214.375625 
" style="fill: none; stroke-dasharray: 2,3.3; stroke-dashoffset: 0; stroke: #ff9b71; stroke-width: 2"/>
     <g>
      <use xlink:href="#m9934d06570" x="307.99875" y="214.375625" style="fill: #ff9b71; stroke: #ffffff; stroke-width: 0.5; stroke-linejoin: miter"/>
     </g>
    </g>
    <g id="text_24">
     <text style="font-size: 10px; font-family: 'Helvetica', 'Arial', sans-serif; text-anchor: start" x="325.99875" y="217.875625" transform="rotate(-0 325.99875 217.875625)">SDD = 2.0 cm</text>
    </g>
   </g>
  </g>
 </g>
 <defs>
  <clipPath id="p549610221d">
   <rect x="62.7175" y="7.2" width="334.8" height="221.76"/>
  </clipPath>
 </defs>
</svg>
