<?xml version="1.0" encoding="utf-8" standalone="no"?>
<!DOCTYPE svg PUBLIC "-//W3C//DTD SVG 1.1//EN"
  "http://www.w3.org/Graphics/SVG/1.1/DTD/svg11.dtd">
<svg xmlns:xlink="http://www.w3.org/1999/xlink" width="397.041875pt" height="268.95875pt" viewBox="0 0 397.041875 268.95875" xmlns="http://www.w3.org/2000/svg" version="1.1">
 <metadata>
  <rdf:RDF xmlns:dc="http://purl.org/dc/elements/1.1/" xmlns:cc="http://creativecommons.org/ns#" xmlns:rdf="http://www.w3.org/1999/02/22-rdf-syntax-ns#">
   <cc:Work>
    <dc:type rdf:resource="http://purl.org/dc/dcmitype/StillImage"/>
    <dc:date>2026-02-10T07:29:50.980682</dc:date>
    <dc:format>image/svg+xml</dc:format>
    <dc:creator>
     <cc:Agent>
      <dc:title>Matplotlib v3.9.2, https://matplotlib.org/</dc:title>
     </cc:Agent>
    </dc:creator>
   </cc:Work>
  </rdf:RDF>
 </metadata>
 <defs>
  <style type="text/css">*{stroke-linejoin: round; stroke-linecap: butt}</style>
 </defs>
 <g id="figure_1">
  <g id="patch_1">
   <path d="M 0 268.95875 
L 397.041875 268.95875 
L 397.041875 0 
L 0 0 
z
" style="fill: #ffffff"/>
  </g>
  <g id="axes_1">
   <g id="patch_2">
    <path d="M 55.041875 228.96 
L 389.841875 228.96 
L 389.841875 7.2 
L 55.041875 7.2 
z
" style="fill: #ffffff"/>
   </g>
   <g id="matplotlib.axis_1">
    <g id="xtick_1">
     <g id="line2d_1">
      <path d="M 70.260057 228.96 
L 70.260057 7.2 
" clip-path="url(#p0773083df7)" style="fill: none; stroke: #b0b0b0; stroke-opacity: 0.3; stroke-width: 0.8; stroke-linecap: square"/>
     </g>
     <g id="line2d_2">
      <defs>
       <path id="me003f77acf" d="M 0 0 
L 0 3.5 
" style="stroke: #000000; stroke-width: 0.8"/>
      </defs>
      <g>
       <use xlink:href="#me003f77acf" x="70.260057" y="228.96" style="stroke: #000000; stroke-width: 0.8"/>
      </g>
     </g>
     <g id="text_1">
      <text style="font: 12px 'Times New Roman', 'Times', serif; text-anchor: middle" x="70.260057" y="244.2925" transform="rotate(-0 70.260057 244.2925)">6</text>
     </g>
    </g>
    <g id="xtick_2">
     <g id="line2d_3">
      <path d="M 113.740576 228.96 
L 113.740576 7.2 
" clip-path="url(#p0773083df7)" style="fill: none; stroke: #b0b0b0; stroke-opacity: 0.3; stroke-width: 0.8; stroke-linecap: square"/>
     </g>
     <g id="line2d_4">
      <g>
       <use xlink:href="#me003f77acf" x="113.740576" y="228.96" style="stroke: #000000; stroke-width: 0.8"/>
      </g>
     </g>
     <g id="text_2">
      <text style="font: 12px 'Times New Roman', 'Times', serif; text-anchor: middle" x="113.740576" y="244.2925" transform="rotate(-0 113.740576 244.2925)">8</text>
     </g>
    </g>
    <g id="xtick_3">
     <g id="line2d_5">
      <path d="M 157.221096 228.96 
L 157.221096 7.2 
" clip-path="url(#p0773083df7)" style="fill: none; stroke: #b0b0b0; stroke-opacity: 0.3; stroke-width: 0.8; stroke-linecap: square"/>
     </g>
     <g id="line2d_6">
      <g>
       <use xlink:href="#me003f77acf" x="157.221096" y="228.96" style="stroke: #000000; stroke-width: 0.8"/>
      </g>
     </g>
     <g id="text_3">
      <text style="font: 12px 'Times New Roman', 'Times', serif; text-anchor: middle" x="157.221096" y="244.2925" transform="rotate(-0 157.221096 244.2925)">10</text>
     </g>
    </g>
    <g id="xtick_4">
     <g id="line2d_7">
      <path d="M 200.701615 228.96 
L 200.701615 7.2 
" clip-path="url(#p0773083df7)" style="fill: none; stroke: #b0b0b0; stroke-opacity: 0.3; stroke-width: 0.8; stroke-linecap: square"/>
     </g>
     <g id="line2d_8">
      <g>
       <use xlink:href="#me003f77acf" x="200.701615" y="228.96" style="stroke: #000000; stroke-width: 0.8"/>
      </g>
     </g>
     <g id="text_4">
      <text style="font: 12px 'Times New Roman', 'Times', serif; text-anchor: middle" x="200.701615" y="244.2925" transform="rotate(-0 200.701615 244.2925)">12</text>
     </g>
    </g>
    <g id="xtick_5">
     <g id="line2d_9">
      <path d="M 244.182135 228.96 
L 244.182135 7.2 
" clip-path="url(#p0773083df7)" style="fill: none; stroke: #b0b0b0; stroke-opacity: 0.3; stroke-width: 0.8; stroke-linecap: square"/>
     </g>
     <g id="line2d_10">
      <g>
       <use xlink:href="#me003f77acf" x="244.182135" y="228.96" style="stroke: #000000; stroke-width: 0.8"/>
      </g>
     </g>
     <g id="text_5">
      <text style="font: 12px 'Times New Roman', 'Times', serif; text-anchor: middle" x="244.182135" y="244.2925" transform="rotate(-0 244.182135 244.2925)">14</text>
     </g>
    </g>
    <g id="xtick_6">
     <g id="line2d_11">
      <path d="M 287.662654 228.96 
L 287.662654 7.2 
" clip-path="url(#p0773083df7)" style="fill: none; stroke: #b0b0b0; stroke-opacity: 0.3; stroke-width: 0.8; stroke-linecap: square"/>
     </g>
     <g id="line2d_12">
      <g>
       <use xlink:href="#me003f77acf" x="287.662654" y="228.96" style="stroke: #000000; stroke-width: 0.8"/>
      </g>
     </g>
     <g id="text_6">
      <text style="font: 12px 'Times New Roman', 'Times', serif; text-anchor: middle" x="287.662654" y="244.2925" transform="rotate(-0 287.662654 244.2925)">16</text>
     </g>
    </g>
    <g id="xtick_7">
     <g id="line2d_13">
      <path d="M 331.143174 228.96 
L 331.143174 7.2 
" clip-path="url(#p0773083df7)" style="fill: none; stroke: #b0b0b0; stroke-opacity: 0.3; stroke-width: 0.8; stroke-linecap: square"/>
     </g>
     <g id="line2d_14">
      <g>
       <use xlink:href="#me003f77acf" x="331.143174" y="228.96" style="stroke: #000000; stroke-width: 0.8"/>
      </g>
     </g>
     <g id="text_7">
      <text style="font: 12px 'Times New Roman', 'Times', serif; text-anchor: middle" x="331.143174" y="244.2925" transform="rotate(-0 331.143174 244.2925)">18</text>
     </g>
    </g>
    <g id="xtick_8">
     <g id="line2d_15">
      <path d="M 374.623693 228.96 
L 374.623693 7.2 
" clip-path="url(#p0773083df7)" style="fill: none; stroke: #b0b0b0; stroke-opacity: 0.3; stroke-width: 0.8; stroke-linecap: square"/>
     </g>
     <g id="line2d_16">
      <g>
       <use xlink:href="#me003f77acf" x="374.623693" y="228.96" style="stroke: #000000; stroke-width: 0.8"/>
      </g>
     </g>
     <g id="text_8">
      <text style="font: 12px 'Times New Roman', 'Times', serif; text-anchor: middle" x="374.623693" y="244.2925" transform="rotate(-0 374.623693 244.2925)">20</text>
     </g>
    </g>
    <g id="text_9">
     <text style="font: 12px 'Times New Roman', 'Times', serif; text-anchor: middle" x="222.441875" y="259.191875" transform="rotate(-0 222.441875 259.191875)">Fetal Depth (mm)</text>
    </g>
   </g>
   <g id="matplotlib.axis_2">
    <g id="ytick_1">
     <g id="line2d_17">
      <path d="M 55.041875 194.568421 
L 389.841875 194.568421 
" clip-path="url(#p0773083df7)" style="fill: none; stroke: #b0b0b0; stroke-opacity: 0.3; stroke-width: 0.8; stroke-linecap: square"/>
     </g>
     <g id="line2d_18">
      <defs>
       <path id="m77d9f03a28" d="M 0 0 
L -3.5 0 
" style="stroke: #000000; stroke-width: 0.8"/>
      </defs>
      <g>
       <use xlink:href="#m77d9f03a28" x="55.041875" y="194.568421" style="stroke: #000000; stroke-width: 0.8"/>
      </g>
     </g>
     <g id="text_10">
      <!-- $\mathdefault{10^{-11}}$ -->
      <g transform="translate(22.121875 199.884984)">
       <text>
        <tspan style="font: 12px 'Times New Roman'" x="0 6" y="-0.10993750000000091">10</tspan>
        <tspan style="font: 8.4px 'Times New Roman'" x="12.180338 16.917642 21.117642" y="-7.3234375">−11</tspan>
       </text>
      </g>
     </g>
    </g>
    <g id="ytick_2">
     <g id="line2d_19">
      <path d="M 55.041875 158.700344 
L 389.841875 158.700344 
" clip-path="url(#p0773083df7)" style="fill: none; stroke: #b0b0b0; stroke-opacity: 0.3; stroke-width: 0.8; stroke-linecap: square"/>
     </g>
     <g id="line2d_20">
      <g>
       <use xlink:href="#m77d9f03a28" x="55.041875" y="158.700344" style="stroke: #000000; stroke-width: 0.8"/>
      </g>
     </g>
     <g id="text_11">
      <!-- $\mathdefault{10^{-9}}$ -->
      <g transform="translate(26.321875 164.016907)">
       <text>
        <tspan style="font: 12px 'Times New Roman'" x="0 6" y="-0.10993750000000091">10</tspan>
        <tspan style="font: 8.4px 'Times New Roman'" x="12.180338 16.917642" y="-7.3234375">−9</tspan>
       </text>
      </g>
     </g>
    </g>
    <g id="ytick_3">
     <g id="line2d_21">
      <path d="M 55.041875 122.832267 
L 389.841875 122.832267 
" clip-path="url(#p0773083df7)" style="fill: none; stroke: #b0b0b0; stroke-opacity: 0.3; stroke-width: 0.8; stroke-linecap: square"/>
     </g>
     <g id="line2d_22">
      <g>
       <use xlink:href="#m77d9f03a28" x="55.041875" y="122.832267" style="stroke: #000000; stroke-width: 0.8"/>
      </g>
     </g>
     <g id="text_12">
      <!-- $\mathdefault{10^{-7}}$ -->
      <g transform="translate(26.321875 128.08883)">
       <text>
        <tspan style="font: 12px 'Times New Roman'" x="0 6" y="-0.2193125000000009">10</tspan>
        <tspan style="font: 8.4px 'Times New Roman'" x="12.180338 16.917642" y="-7.4328125">−7</tspan>
       </text>
      </g>
     </g>
    </g>
    <g id="ytick_4">
     <g id="line2d_23">
      <path d="M 55.041875 86.96419 
L 389.841875 86.96419 
" clip-path="url(#p0773083df7)" style="fill: none; stroke: #b0b0b0; stroke-opacity: 0.3; stroke-width: 0.8; stroke-linecap: square"/>
     </g>
     <g id="line2d_24">
      <g>
       <use xlink:href="#m77d9f03a28" x="55.041875" y="86.96419" style="stroke: #000000; stroke-width: 0.8"/>
      </g>
     </g>
     <g id="text_13">
      <!-- $\mathdefault{10^{-5}}$ -->
      <g transform="translate(26.321875 92.220753)">
       <text>
        <tspan style="font: 12px 'Times New Roman'" x="0 6" y="-0.2193125000000009">10</tspan>
        <tspan style="font: 8.4px 'Times New Roman'" x="12.180338 16.917642" y="-7.4328125">−5</tspan>
       </text>
      </g>
     </g>
    </g>
    <g id="ytick_5">
     <g id="line2d_25">
      <path d="M 55.041875 51.096113 
L 389.841875 51.096113 
" clip-path="url(#p0773083df7)" style="fill: none; stroke: #b0b0b0; stroke-opacity: 0.3; stroke-width: 0.8; stroke-linecap: square"/>
     </g>
     <g id="line2d_26">
      <g>
       <use xlink:href="#m77d9f03a28" x="55.041875" y="51.096113" style="stroke: #000000; stroke-width: 0.8"/>
      </g>
     </g>
     <g id="text_14">
      <!-- $\mathdefault{10^{-3}}$ -->
      <g transform="translate(26.321875 56.412676)">
       <text>
        <tspan style="font: 12px 'Times New Roman'" x="0 6" y="-0.10993750000000091">10</tspan>
        <tspan style="font: 8.4px 'Times New Roman'" x="12.180338 16.917642" y="-7.3234375">−3</tspan>
       </text>
      </g>
     </g>
    </g>
    <g id="ytick_6">
     <g id="line2d_27">
      <path d="M 55.041875 15.228036 
L 389.841875 15.228036 
" clip-path="url(#p0773083df7)" style="fill: none; stroke: #b0b0b0; stroke-opacity: 0.3; stroke-width: 0.8; stroke-linecap: square"/>
     </g>
     <g id="line2d_28">
      <g>
       <use xlink:href="#m77d9f03a28" x="55.041875" y="15.228036" style="stroke: #000000; stroke-width: 0.8"/>
      </g>
     </g>
     <g id="text_15">
      <!-- $\mathdefault{10^{-1}}$ -->
      <g transform="translate(26.321875 20.544599)">
       <text>
        <tspan style="font: 12px 'Times New Roman'" x="0 6" y="-0.10993750000000091">10</tspan>
        <tspan style="font: 8.4px 'Times New Roman'" x="12.180338 16.917642" y="-7.3234375">−1</tspan>
       </text>
      </g>
     </g>
    </g>
    <g id="text_16">
     <text style="font: 12px 'Times New Roman', 'Times', serif; text-anchor: middle" x="15.5325" y="118.08" transform="rotate(-90 15.5325 118.08)">Figure of Merit</text>
    </g>
   </g>
   <g id="line2d_29">
    <path clip-path="url(#p0773083df7)" style="fill: none; stroke: #213c51; stroke-width: 2; stroke-linecap: square"/>
    <defs>
     <path id="m1e74caa728" d="M 0 4 
C 1.060812 4 2.078319 3.578535 2.828427 2.828427 
C 3.578535 2.078319 4 1.060812 4 0 
C 4 -1.060812 3.578535 -2.078319 2.828427 -2.828427 
C 2.078319 -3.578535 1.060812 -4 0 -4 
C -1.060812 -4 -2.078319 -3.578535 -2.828427 -2.828427 
C -3.578535 -2.078319 -4 -1.060812 -4 0 
C -4 1.060812 -3.578535 2.078319 -2.828427 2.828427 
C -2.078319 3.578535 -1.060812 4 0 4 
z
" style="stroke: #213c51"/>
    </defs>
    <g clip-path="url(#p0773083df7)">
     <use xlink:href="#m1e74caa728" x="70.260057" y="17931.332468" style="fill: #213c51; stroke: #213c51"/>
     <use xlink:href="#m1e74caa728" x="113.740576" y="17931.332468" style="fill: #213c51; stroke: #213c51"/>
     <use xlink:href="#m1e74caa728" x="157.221096" y="17931.332468" style="fill: #213c51; stroke: #213c51"/>
     <use xlink:href="#m1e74caa728" x="200.701615" y="17931.332468" style="fill: #213c51; stroke: #213c51"/>
     <use xlink:href="#m1e74caa728" x="244.182135" y="17931.332468" style="fill: #213c51; stroke: #213c51"/>
     <use xlink:href="#m1e74caa728" x="287.662654" y="17931.332468" style="fill: #213c51; stroke: #213c51"/>
     <use xlink:href="#m1e74caa728" x="331.143174" y="17931.332468" style="fill: #213c51; stroke: #213c51"/>
     <use xlink:href="#m1e74caa728" x="374.623693" y="17931.332468" style="fill: #213c51; stroke: #213c51"/>
    </g>
   </g>
   <g id="line2d_30">
    <path d="M 70.260057 22.782755 
L 113.740576 27.943782 
L 157.221096 38.786022 
L 200.701615 49.640596 
L 244.182135 175.066697 
L 287.662654 186.867137 
L 331.143174 205.457713 
L 374.623693 218.88 
" clip-path="url(#p0773083df7)" style="fill: none; stroke: #6594b1; stroke-width: 2; stroke-linecap: square"/>
    <defs>
     <path id="m9726dbff05" d="M 0 4 
C 1.060812 4 2.078319 3.578535 2.828427 2.828427 
C 3.578535 2.078319 4 1.060812 4 0 
C 4 -1.060812 3.578535 -2.078319 2.828427 -2.828427 
C 2.078319 -3.578535 1.060812 -4 0 -4 
C -1.060812 -4 -2.078319 -3.578535 -2.828427 -2.828427 
C -3.578535 -2.078319 -4 -1.060812 -4 0 
C -4 1.060812 -3.578535 2.078319 -2.828427 2.828427 
C -2.078319 3.578535 -1.060812 4 0 4 
z
" style="stroke: #6594b1"/>
    </defs>
    <g clip-path="url(#p0773083df7)">
     <use xlink:href="#m9726dbff05" x="70.260057" y="22.782755" style="fill: #6594b1; stroke: #6594b1"/>
     <use xlink:href="#m9726dbff05" x="113.740576" y="27.943782" style="fill: #6594b1; stroke: #6594b1"/>
     <use xlink:href="#m9726dbff05" x="157.221096" y="38.786022" style="fill: #6594b1; stroke: #6594b1"/>
     <use xlink:href="#m9726dbff05" x="200.701615" y="49.640596" style="fill: #6594b1; stroke: #6594b1"/>
     <use xlink:href="#m9726dbff05" x="244.182135" y="175.066697" style="fill: #6594b1; stroke: #6594b1"/>
     <use xlink:href="#m9726dbff05" x="287.662654" y="186.867137" style="fill: #6594b1; stroke: #6594b1"/>
     <use xlink:href="#m9726dbff05" x="331.143174" y="205.457713" style="fill: #6594b1; stroke: #6594b1"/>
     <use xlink:href="#m9726dbff05" x="374.623693" y="218.88" style="fill: #6594b1; stroke: #6594b1"/>
    </g>
   </g>
   <g id="line2d_31">
    <path d="M 70.260057 26.219846 
L 113.740576 30.287588 
L 157.221096 34.28332 
L 200.701615 44.770687 
L 244.182135 46.498026 
L 287.662654 56.931116 
L 331.143174 60.084571 
L 374.623693 166.82709 
" clip-path="url(#p0773083df7)" style="fill: none; stroke: #ddaed3; stroke-width: 2; stroke-linecap: square"/>
    <defs>
     <path id="m40eff2fe26" d="M 0 4 
C 1.060812 4 2.078319 3.578535 2.828427 2.828427 
C 3.578535 2.078319 4 1.060812 4 0 
C 4 -1.060812 3.578535 -2.078319 2.828427 -2.828427 
C 2.078319 -3.578535 1.060812 -4 0 -4 
C -1.060812 -4 -2.078319 -3.578535 -2.828427 -2.828427 
C -3.578535 -2.078319 -4 -1.060812 -4 0 
C -4 1.060812 -3.578535 2.078319 -2.828427 2.828427 
C -2.078319 3.578535 -1.060812 4 0 4 
z
" style="stroke: #ddaed3"/>
    </defs>
    <g clip-path="url(#p0773083df7)">
     <use xlink:href="#m40eff2fe26" x="70.260057" y="26.219846" style="fill: #ddaed3; stroke: #ddaed3"/>
     <use xlink:href="#m40eff2fe26" x="113.740576" y="30.287588" style="fill: #ddaed3; stroke: #ddaed3"/>
     <use xlink:href="#m40eff2fe26" x="157.221096" y="34.28332" style="fill: #ddaed3; stroke: #ddaed3"/>
     <use xlink:href="#m40eff2fe26" x="200.701615" y="44.770687" style="fill: #ddaed3; stroke: #ddaed3"/>
     <use xlink:href="#m40eff2fe26" x="244.182135" y="46.498026" style="fill: #ddaed3; stroke: #ddaed3"/>
     <use xlink:href="#m40eff2fe26" x="287.662654" y="56.931116" style="fill: #ddaed3; stroke: #ddaed3"/>
     <use xlink:href="#m40eff2fe26" x="331.143174" y="60.084571" style="fill: #ddaed3; stroke: #ddaed3"/>
     <use xlink:href="#m40eff2fe26" x="374.623693" y="166.82709" style="fill: #ddaed3; stroke: #ddaed3"/>
    </g>
   </g>
   <g id="line2d_32">
    <path d="M 70.260057 17.28 
L 113.740576 27.327136 
L 157.221096 33.559311 
L 200.701615 40.072718 
L 244.182135 32.739389 
L 287.662654 36.763665 
L 331.143174 52.036034 
L 374.623693 49.417794 
" clip-path="url(#p0773083df7)" style="fill: none; stroke: #d02752; stroke-width: 2; stroke-linecap: square"/>
    <defs>
     <path id="m9983369e05" d="M 0 4 
C 1.060812 4 2.078319 3.578535 2.828427 2.828427 
C 3.578535 2.078319 4 1.060812 4 0 
C 4 -1.060812 3.578535 -2.078319 2.828427 -2.828427 
C 2.078319 -3.578535 1.060812 -4 0 -4 
C -1.060812 -4 -2.078319 -3.578535 -2.828427 -2.828427 
C -3.578535 -2.078319 -4 -1.060812 -4 0 
C -4 1.060812 -3.578535 2.078319 -2.828427 2.828427 
C -2.078319 3.578535 -1.060812 4 0 4 
z
" style="stroke: #d02752"/>
    </defs>
    <g clip-path="url(#p0773083df7)">
     <use xlink:href="#m9983369e05" x="70.260057" y="17.28" style="fill: #d02752; stroke: #d02752"/>
     <use xlink:href="#m9983369e05" x="113.740576" y="27.327136" style="fill: #d02752; stroke: #d02752"/>
     <use xlink:href="#m9983369e05" x="157.221096" y="33.559311" style="fill: #d02752; stroke: #d02752"/>
     <use xlink:href="#m9983369e05" x="200.701615" y="40.072718" style="fill: #d02752; stroke: #d02752"/>
     <use xlink:href="#m9983369e05" x="244.182135" y="32.739389" style="fill: #d02752; stroke: #d02752"/>
     <use xlink:href="#m9983369e05" x="287.662654" y="36.763665" style="fill: #d02752; stroke: #d02752"/>
     <use xlink:href="#m9983369e05" x="331.143174" y="52.036034" style="fill: #d02752; stroke: #d02752"/>
     <use xlink:href="#m9983369e05" x="374.623693" y="49.417794" style="fill: #d02752; stroke: #d02752"/>
    </g>
   </g>
   <g id="line2d_33">
    <path d="M 70.260057 31.215894 
L 113.740576 33.936357 
L 157.221096 31.687458 
L 200.701615 38.922888 
L 244.182135 39.424226 
L 287.662654 42.727418 
L 331.143174 47.033009 
L 374.623693 65.555333 
" clip-path="url(#p0773083df7)" style="fill: none; stroke: #213c51; stroke-width: 2; stroke-linecap: square"/>
    <g clip-path="url(#p0773083df7)">
     <use xlink:href="#m1e74caa728" x="70.260057" y="31.215894" style="fill: #213c51; stroke: #213c51"/>
     <use xlink:href="#m1e74caa728" x="113.740576" y="33.936357" style="fill: #213c51; stroke: #213c51"/>
     <use xlink:href="#m1e74caa728" x="157.221096" y="31.687458" style="fill: #213c51; stroke: #213c51"/>
     <use xlink:href="#m1e74caa728" x="200.701615" y="38.922888" style="fill: #213c51; stroke: #213c51"/>
     <use xlink:href="#m1e74caa728" x="244.182135" y="39.424226" style="fill: #213c51; stroke: #213c51"/>
     <use xlink:href="#m1e74caa728" x="287.662654" y="42.727418" style="fill: #213c51; stroke: #213c51"/>
     <use xlink:href="#m1e74caa728" x="331.143174" y="47.033009" style="fill: #213c51; stroke: #213c51"/>
     <use xlink:href="#m1e74caa728" x="374.623693" y="65.555333" style="fill: #213c51; stroke: #213c51"/>
    </g>
   </g>
   <g id="line2d_34">
    <path d="M 70.260057 27.132212 
L 113.740576 38.946674 
L 157.221096 39.991065 
L 200.701615 44.473554 
L 244.182135 55.529367 
L 287.662654 49.653644 
L 331.143174 51.506003 
L 374.623693 52.761491 
" clip-path="url(#p0773083df7)" style="fill: none; stroke: #6594b1; stroke-width: 2; stroke-linecap: square"/>
    <g clip-path="url(#p0773083df7)">
     <use xlink:href="#m9726dbff05" x="70.260057" y="27.132212" style="fill: #6594b1; stroke: #6594b1"/>
     <use xlink:href="#m9726dbff05" x="113.740576" y="38.946674" style="fill: #6594b1; stroke: #6594b1"/>
     <use xlink:href="#m9726dbff05" x="157.221096" y="39.991065" style="fill: #6594b1; stroke: #6594b1"/>
     <use xlink:href="#m9726dbff05" x="200.701615" y="44.473554" style="fill: #6594b1; stroke: #6594b1"/>
     <use xlink:href="#m9726dbff05" x="244.182135" y="55.529367" style="fill: #6594b1; stroke: #6594b1"/>
     <use xlink:href="#m9726dbff05" x="287.662654" y="49.653644" style="fill: #6594b1; stroke: #6594b1"/>
     <use xlink:href="#m9726dbff05" x="331.143174" y="51.506003" style="fill: #6594b1; stroke: #6594b1"/>
     <use xlink:href="#m9726dbff05" x="374.623693" y="52.761491" style="fill: #6594b1; stroke: #6594b1"/>
    </g>
   </g>
   <g id="line2d_35">
    <path d="M 70.260057 45.730004 
L 113.740576 29.649934 
L 157.221096 60.156824 
L 200.701615 45.750452 
L 244.182135 79.559824 
L 287.662654 71.181449 
M 374.623693 79.887066 
" clip-path="url(#p0773083df7)" style="fill: none; stroke: #ddaed3; stroke-width: 2; stroke-linecap: square"/>
    <g clip-path="url(#p0773083df7)">
     <use xlink:href="#m40eff2fe26" x="70.260057" y="45.730004" style="fill: #ddaed3; stroke: #ddaed3"/>
     <use xlink:href="#m40eff2fe26" x="113.740576" y="29.649934" style="fill: #ddaed3; stroke: #ddaed3"/>
     <use xlink:href="#m40eff2fe26" x="157.221096" y="60.156824" style="fill: #ddaed3; stroke: #ddaed3"/>
     <use xlink:href="#m40eff2fe26" x="200.701615" y="45.750452" style="fill: #ddaed3; stroke: #ddaed3"/>
     <use xlink:href="#m40eff2fe26" x="244.182135" y="79.559824" style="fill: #ddaed3; stroke: #ddaed3"/>
     <use xlink:href="#m40eff2fe26" x="287.662654" y="71.181449" style="fill: #ddaed3; stroke: #ddaed3"/>
     <use xlink:href="#m40eff2fe26" x="374.623693" y="79.887066" style="fill: #ddaed3; stroke: #ddaed3"/>
    </g>
   </g>
   <g id="patch_3">
    <path d="M 55.041875 228.96 
L 55.041875 7.2 
" style="fill: none; stroke: #000000; stroke-width: 0.8; stroke-linejoin: miter; stroke-linecap: square"/>
   </g>
   <g id="patch_4">
    <path d="M 389.841875 228.96 
L 389.841875 7.2 
" style="fill: none; stroke: #000000; stroke-width: 0.8; stroke-linejoin: miter; stroke-linecap: square"/>
   </g>
   <g id="patch_5">
    <path d="M 55.041875 228.96 
L 389.841875 228.96 
" style="fill: none; stroke: #000000; stroke-width: 0.8; stroke-linejoin: miter; stroke-linecap: square"/>
   </g>
   <g id="patch_6">
    <path d="M 55.041875 7.2 
L 389.841875 7.2 
" style="fill: none; stroke: #000000; stroke-width: 0.8; stroke-linejoin: miter; stroke-linecap: square"/>
   </g>
   <g id="legend_1">
    <g id="patch_7">
     <path d="M 272.601875 135.568125 
L 381.441875 135.568125 
Q 383.841875 135.568125 383.841875 133.168125 
L 383.841875 15.6 
Q 383.841875 13.2 381.441875 13.2 
L 272.601875 13.2 
Q 270.201875 13.2 270.201875 15.6 
L 270.201875 133.168125 
Q 270.201875 135.568125 272.601875 135.568125 
z
" style="fill: #ffffff; opacity: 0.8; stroke: #cccccc; stroke-linejoin: miter"/>
    </g>
    <g id="line2d_36">
     <path d="M 275.001875 22.2 
L 287.001875 22.2 
L 299.001875 22.2 
" style="fill: none; stroke: #213c51; stroke-width: 2; stroke-linecap: square"/>
     <g>
      <use xlink:href="#m1e74caa728" x="287.001875" y="22.2" style="fill: #213c51; stroke: #213c51"/>
     </g>
    </g>
    <g id="text_17">
     <text style="font: 12px 'Times New Roman', 'Times', serif; text-anchor: start" x="308.601875" y="26.4" transform="rotate(-0 308.601875 26.4)">SDD = 2 mm</text>
    </g>
    <g id="line2d_37">
     <path d="M 275.001875 39.166875 
L 287.001875 39.166875 
L 299.001875 39.166875 
" style="fill: none; stroke: #6594b1; stroke-width: 2; stroke-linecap: square"/>
     <g>
      <use xlink:href="#m9726dbff05" x="287.001875" y="39.166875" style="fill: #6594b1; stroke: #6594b1"/>
     </g>
    </g>
    <g id="text_18">
     <text style="font: 12px 'Times New Roman', 'Times', serif; text-anchor: start" x="308.601875" y="43.366875" transform="rotate(-0 308.601875 43.366875)">SDD = 13 mm</text>
    </g>
    <g id="line2d_38">
     <path d="M 275.001875 56.13375 
L 287.001875 56.13375 
L 299.001875 56.13375 
" style="fill: none; stroke: #ddaed3; stroke-width: 2; stroke-linecap: square"/>
     <g>
      <use xlink:href="#m40eff2fe26" x="287.001875" y="56.13375" style="fill: #ddaed3; stroke: #ddaed3"/>
     </g>
    </g>
    <g id="text_19">
     <text style="font: 12px 'Times New Roman', 'Times', serif; text-anchor: start" x="308.601875" y="60.33375" transform="rotate(-0 308.601875 60.33375)">SDD = 24 mm</text>
    </g>
    <g id="line2d_39">
     <path d="M 275.001875 73.100625 
L 287.001875 73.100625 
L 299.001875 73.100625 
" style="fill: none; stroke: #d02752; stroke-width: 2; stroke-linecap: square"/>
     <g>
      <use xlink:href="#m9983369e05" x="287.001875" y="73.100625" style="fill: #d02752; stroke: #d02752"/>
     </g>
    </g>
    <g id="text_20">
     <text style="font: 12px 'Times New Roman', 'Times', serif; text-anchor: start" x="308.601875" y="77.300625" transform="rotate(-0 308.601875 77.300625)">SDD = 35 mm</text>
    </g>
    <g id="line2d_40">
     <path d="M 275.001875 90.0675 
L 287.001875 90.0675 
L 299.001875 90.0675 
" style="fill: none; stroke: #213c51; stroke-width: 2; stroke-linecap: square"/>
     <g>
      <use xlink:href="#m1e74caa728" x="287.001875" y="90.0675" style="fill: #213c51; stroke: #213c51"/>
     </g>
    </g>
    <g id="text_21">
     <text style="font: 12px 'Times New Roman', 'Times', serif; text-anchor: start" x="308.601875" y="94.2675" transform="rotate(-0 308.601875 94.2675)">SDD = 46 mm</text>
    </g>
    <g id="line2d_41">
     <path d="M 275.001875 107.034375 
L 287.001875 107.034375 
L 299.001875 107.034375 
" style="fill: none; stroke: #6594b1; stroke-width: 2; stroke-linecap: square"/>
     <g>
      <use xlink:href="#m9726dbff05" x="287.001875" y="107.034375" style="fill: #6594b1; stroke: #6594b1"/>
     </g>
    </g>
    <g id="text_22">
     <text style="font: 12px 'Times New Roman', 'Times', serif; text-anchor: start" x="308.601875" y="111.234375" transform="rotate(-0 308.601875 111.234375)">SDD = 56 mm</text>
    </g>
    <g id="line2d_42">
     <path d="M 275.001875 124.00125 
L 287.001875 124.00125 
L 299.001875 124.00125 
" style="fill: none; stroke: #ddaed3; stroke-width: 2; stroke-linecap: square"/>
     <g>
      <use xlink:href="#m40eff2fe26" x="287.001875" y="124.00125" style="fill: #ddaed3; stroke: #ddaed3"/>
     </g>
    </g>
    <g id="text_23">
     <text style="font: 12px 'Times New Roman', 'Times', serif; text-anchor: start" x="308.601875" y="128.20125" transform="rotate(-0 308.601875 128.20125)">SDD = 67 mm</text>
    </g>
   </g>
  </g>
 </g>
 <defs>
  <clipPath id="p0773083df7">
   <rect x="55.041875" y="7.2" width="334.8" height="221.76"/>
  </clipPath>
 </defs>
</svg>
