<?xml version="1.0" encoding="utf-8" standalone="no"?>
<!DOCTYPE svg PUBLIC "-//W3C//DTD SVG 1.1//EN"
  "http://www.w3.org/Graphics/SVG/1.1/DTD/svg11.dtd">
<svg xmlns:xlink="http://www.w3.org/1999/xlink" width="404.7175pt" height="265.87875pt" viewBox="0 0 404.7175 265.87875" xmlns="http://www.w3.org/2000/svg" version="1.1">
 <metadata>
  <rdf:RDF xmlns:dc="http://purl.org/dc/elements/1.1/" xmlns:cc="http://creativecommons.org/ns#" xmlns:rdf="http://www.w3.org/1999/02/22-rdf-syntax-ns#">
   <cc:Work>
    <dc:type rdf:resource="http://purl.org/dc/dcmitype/StillImage"/>
    <dc:date>2026-05-13T11:15:05.078330</dc:date>
    <dc:format>image/svg+xml</dc:format>
    <dc:creator>
     <cc:Agent>
      <dc:title>Matplotlib v3.10.8, https://matplotlib.org/</dc:title>
     </cc:Agent>
    </dc:creator>
   </cc:Work>
  </rdf:RDF>
 </metadata>
 <defs>
  <style type="text/css">*{stroke-linejoin: round; stroke-linecap: butt}</style>
 </defs>
 <g id="figure_1">
  <g id="patch_1">
   <path d="M 0 265.87875 
L 404.7175 265.87875 
L 404.7175 0 
L 0 0 
z
" style="fill: #ffffff"/>
  </g>
  <g id="axes_1">
   <g id="patch_2">
    <path d="M 62.7175 228.96 
L 397.5175 228.96 
L 397.5175 7.2 
L 62.7175 7.2 
z
" style="fill: #ffffff"/>
   </g>
   <g id="matplotlib.axis_1">
    <g id="xtick_1">
     <g id="line2d_1">
      <path d="M 189.773234 228.96 
L 189.773234 7.2 
" clip-path="url(#p712f41bd47)" style="fill: none; stroke: #e0e0e0; stroke-opacity: 0.7; stroke-width: 0.8; stroke-linecap: square"/>
     </g>
     <g id="line2d_2">
      <defs>
       <path id="m0b0c4369b4" d="M 0 0 
L 0 -4 
" style="stroke: #000000; stroke-width: 0.8"/>
      </defs>
      <g>
       <use xlink:href="#m0b0c4369b4" x="189.773234" y="228.96" style="stroke: #000000; stroke-width: 0.8"/>
      </g>
     </g>
     <g id="text_1">
      <!-- $\mathdefault{10^{-2}}$ -->
      <g transform="translate(180.023234 239.633438)">
       <text>
        <tspan x="0" y="-0.425" style="font-size: 10px; font-family: 'Helvetica'">1</tspan>
        <tspan x="5.561523" y="-0.425" style="font-size: 10px; font-family: 'Helvetica'">0</tspan>
        <tspan x="11.214648" y="-4.089063" style="font-size: 7px; font-family: 'Helvetica'">−</tspan>
        <tspan x="15.302539" y="-4.089063" style="font-size: 7px; font-family: 'Helvetica'">2</tspan>
       </text>
      </g>
     </g>
    </g>
    <g id="xtick_2">
     <g id="line2d_3">
      <path d="M 347.267392 228.96 
L 347.267392 7.2 
" clip-path="url(#p712f41bd47)" style="fill: none; stroke: #e0e0e0; stroke-opacity: 0.7; stroke-width: 0.8; stroke-linecap: square"/>
     </g>
     <g id="line2d_4">
      <g>
       <use xlink:href="#m0b0c4369b4" x="347.267392" y="228.96" style="stroke: #000000; stroke-width: 0.8"/>
      </g>
     </g>
     <g id="text_2">
      <!-- $\mathdefault{10^{-1}}$ -->
      <g transform="translate(337.517392 239.633438)">
       <text>
        <tspan x="0" y="-0.457813" style="font-size: 10px; font-family: 'Helvetica'">1</tspan>
        <tspan x="5.561523" y="-0.457813" style="font-size: 10px; font-family: 'Helvetica'">0</tspan>
        <tspan x="11.214648" y="-4.121875" style="font-size: 7px; font-family: 'Helvetica'">−</tspan>
        <tspan x="15.302539" y="-4.121875" style="font-size: 7px; font-family: 'Helvetica'">1</tspan>
       </text>
      </g>
     </g>
    </g>
    <g id="xtick_3">
     <g id="line2d_5">
      <defs>
       <path id="m7e0452f9a5" d="M 0 0 
L 0 -2 
" style="stroke: #000000; stroke-width: 0.6"/>
      </defs>
      <g>
       <use xlink:href="#m7e0452f9a5" x="79.689542" y="228.96" style="stroke: #000000; stroke-width: 0.6"/>
      </g>
     </g>
    </g>
    <g id="xtick_4">
     <g id="line2d_6">
      <g>
       <use xlink:href="#m7e0452f9a5" x="107.422887" y="228.96" style="stroke: #000000; stroke-width: 0.6"/>
      </g>
     </g>
    </g>
    <g id="xtick_5">
     <g id="line2d_7">
      <g>
       <use xlink:href="#m7e0452f9a5" x="127.100008" y="228.96" style="stroke: #000000; stroke-width: 0.6"/>
      </g>
     </g>
    </g>
    <g id="xtick_6">
     <g id="line2d_8">
      <g>
       <use xlink:href="#m7e0452f9a5" x="142.362769" y="228.96" style="stroke: #000000; stroke-width: 0.6"/>
      </g>
     </g>
    </g>
    <g id="xtick_7">
     <g id="line2d_9">
      <g>
       <use xlink:href="#m7e0452f9a5" x="154.833353" y="228.96" style="stroke: #000000; stroke-width: 0.6"/>
      </g>
     </g>
    </g>
    <g id="xtick_8">
     <g id="line2d_10">
      <g>
       <use xlink:href="#m7e0452f9a5" x="165.377081" y="228.96" style="stroke: #000000; stroke-width: 0.6"/>
      </g>
     </g>
    </g>
    <g id="xtick_9">
     <g id="line2d_11">
      <g>
       <use xlink:href="#m7e0452f9a5" x="174.510474" y="228.96" style="stroke: #000000; stroke-width: 0.6"/>
      </g>
     </g>
    </g>
    <g id="xtick_10">
     <g id="line2d_12">
      <g>
       <use xlink:href="#m7e0452f9a5" x="182.566697" y="228.96" style="stroke: #000000; stroke-width: 0.6"/>
      </g>
     </g>
    </g>
    <g id="xtick_11">
     <g id="line2d_13">
      <g>
       <use xlink:href="#m7e0452f9a5" x="237.1837" y="228.96" style="stroke: #000000; stroke-width: 0.6"/>
      </g>
     </g>
    </g>
    <g id="xtick_12">
     <g id="line2d_14">
      <g>
       <use xlink:href="#m7e0452f9a5" x="264.917045" y="228.96" style="stroke: #000000; stroke-width: 0.6"/>
      </g>
     </g>
    </g>
    <g id="xtick_13">
     <g id="line2d_15">
      <g>
       <use xlink:href="#m7e0452f9a5" x="284.594166" y="228.96" style="stroke: #000000; stroke-width: 0.6"/>
      </g>
     </g>
    </g>
    <g id="xtick_14">
     <g id="line2d_16">
      <g>
       <use xlink:href="#m7e0452f9a5" x="299.856927" y="228.96" style="stroke: #000000; stroke-width: 0.6"/>
      </g>
     </g>
    </g>
    <g id="xtick_15">
     <g id="line2d_17">
      <g>
       <use xlink:href="#m7e0452f9a5" x="312.32751" y="228.96" style="stroke: #000000; stroke-width: 0.6"/>
      </g>
     </g>
    </g>
    <g id="xtick_16">
     <g id="line2d_18">
      <g>
       <use xlink:href="#m7e0452f9a5" x="322.871239" y="228.96" style="stroke: #000000; stroke-width: 0.6"/>
      </g>
     </g>
    </g>
    <g id="xtick_17">
     <g id="line2d_19">
      <g>
       <use xlink:href="#m7e0452f9a5" x="332.004631" y="228.96" style="stroke: #000000; stroke-width: 0.6"/>
      </g>
     </g>
    </g>
    <g id="xtick_18">
     <g id="line2d_20">
      <g>
       <use xlink:href="#m7e0452f9a5" x="340.060855" y="228.96" style="stroke: #000000; stroke-width: 0.6"/>
      </g>
     </g>
    </g>
    <g id="xtick_19">
     <g id="line2d_21">
      <g>
       <use xlink:href="#m7e0452f9a5" x="394.677858" y="228.96" style="stroke: #000000; stroke-width: 0.6"/>
      </g>
     </g>
    </g>
    <g id="text_3">
     <text style="font-size: 14px; font-family: 'Helvetica', 'Arial', sans-serif; text-anchor: middle" x="230.1175" y="255.760625" transform="rotate(-0 230.1175 255.760625)">Fetal SNR</text>
    </g>
   </g>
   <g id="matplotlib.axis_2">
    <g id="ytick_1">
     <g id="line2d_22">
      <defs>
       <path id="m46ca07997a" d="M 0 0 
L 2 0 
" style="stroke: #000000; stroke-width: 0.6"/>
      </defs>
      <g>
       <use xlink:href="#m46ca07997a" x="62.7175" y="218.780905" style="stroke: #000000; stroke-width: 0.6"/>
      </g>
     </g>
     <g id="text_4">
      <!-- $\mathdefault{2\times10^{-1}}$ -->
      <g transform="translate(24.5175 222.367623)">
       <text>
        <tspan x="0" y="-0.457813" style="font-size: 10px; font-family: 'Helvetica'">2</tspan>
        <tspan x="7.509766" y="-0.457813" style="font-size: 10px; font-family: 'Helvetica'">×</tspan>
        <tspan x="15.297852" y="-0.457813" style="font-size: 10px; font-family: 'Helvetica'">1</tspan>
        <tspan x="20.859375" y="-0.457813" style="font-size: 10px; font-family: 'Helvetica'">0</tspan>
        <tspan x="26.5125" y="-4.121875" style="font-size: 7px; font-family: 'Helvetica'">−</tspan>
        <tspan x="30.600391" y="-4.121875" style="font-size: 7px; font-family: 'Helvetica'">1</tspan>
       </text>
      </g>
     </g>
    </g>
    <g id="ytick_2">
     <g id="line2d_23">
      <g>
       <use xlink:href="#m46ca07997a" x="62.7175" y="153.673999" style="stroke: #000000; stroke-width: 0.6"/>
      </g>
     </g>
     <g id="text_5">
      <!-- $\mathdefault{3\times10^{-1}}$ -->
      <g transform="translate(24.5175 157.260718)">
       <text>
        <tspan x="0" y="-0.457813" style="font-size: 10px; font-family: 'Helvetica'">3</tspan>
        <tspan x="7.509766" y="-0.457813" style="font-size: 10px; font-family: 'Helvetica'">×</tspan>
        <tspan x="15.297852" y="-0.457813" style="font-size: 10px; font-family: 'Helvetica'">1</tspan>
        <tspan x="20.859375" y="-0.457813" style="font-size: 10px; font-family: 'Helvetica'">0</tspan>
        <tspan x="26.5125" y="-4.121875" style="font-size: 7px; font-family: 'Helvetica'">−</tspan>
        <tspan x="30.600391" y="-4.121875" style="font-size: 7px; font-family: 'Helvetica'">1</tspan>
       </text>
      </g>
     </g>
    </g>
    <g id="ytick_3">
     <g id="line2d_24">
      <g>
       <use xlink:href="#m46ca07997a" x="62.7175" y="107.479915" style="stroke: #000000; stroke-width: 0.6"/>
      </g>
     </g>
     <g id="text_6">
      <!-- $\mathdefault{4\times10^{-1}}$ -->
      <g transform="translate(24.5175 111.066634)">
       <text>
        <tspan x="0" y="-0.457813" style="font-size: 10px; font-family: 'Helvetica'">4</tspan>
        <tspan x="7.509766" y="-0.457813" style="font-size: 10px; font-family: 'Helvetica'">×</tspan>
        <tspan x="15.297852" y="-0.457813" style="font-size: 10px; font-family: 'Helvetica'">1</tspan>
        <tspan x="20.859375" y="-0.457813" style="font-size: 10px; font-family: 'Helvetica'">0</tspan>
        <tspan x="26.5125" y="-4.121875" style="font-size: 7px; font-family: 'Helvetica'">−</tspan>
        <tspan x="30.600391" y="-4.121875" style="font-size: 7px; font-family: 'Helvetica'">1</tspan>
       </text>
      </g>
     </g>
    </g>
    <g id="ytick_4">
     <g id="line2d_25">
      <g>
       <use xlink:href="#m46ca07997a" x="62.7175" y="71.649" style="stroke: #000000; stroke-width: 0.6"/>
      </g>
     </g>
    </g>
    <g id="ytick_5">
     <g id="line2d_26">
      <g>
       <use xlink:href="#m46ca07997a" x="62.7175" y="42.37301" style="stroke: #000000; stroke-width: 0.6"/>
      </g>
     </g>
     <g id="text_7">
      <!-- $\mathdefault{6\times10^{-1}}$ -->
      <g transform="translate(24.5175 45.959729)">
       <text>
        <tspan x="0" y="-0.457813" style="font-size: 10px; font-family: 'Helvetica'">6</tspan>
        <tspan x="7.509766" y="-0.457813" style="font-size: 10px; font-family: 'Helvetica'">×</tspan>
        <tspan x="15.297852" y="-0.457813" style="font-size: 10px; font-family: 'Helvetica'">1</tspan>
        <tspan x="20.859375" y="-0.457813" style="font-size: 10px; font-family: 'Helvetica'">0</tspan>
        <tspan x="26.5125" y="-4.121875" style="font-size: 7px; font-family: 'Helvetica'">−</tspan>
        <tspan x="30.600391" y="-4.121875" style="font-size: 7px; font-family: 'Helvetica'">1</tspan>
       </text>
      </g>
     </g>
    </g>
    <g id="ytick_6">
     <g id="line2d_27">
      <g>
       <use xlink:href="#m46ca07997a" x="62.7175" y="17.620514" style="stroke: #000000; stroke-width: 0.6"/>
      </g>
     </g>
    </g>
    <g id="text_8">
     <text style="font-size: 14px; font-family: 'Helvetica', 'Arial', sans-serif; text-anchor: middle" x="17.51625" y="118.08" transform="rotate(-90 17.51625 118.08)">Selectivity</text>
    </g>
   </g>
   <g id="line2d_28">
    <path d="M 382.299318 48.225443 
L 277.741522 105.382727 
L 191.209055 179.835789 
L 77.935682 197.154378 
" clip-path="url(#p712f41bd47)" style="fill: none; stroke: #2d3047; stroke-width: 2; stroke-linecap: square"/>
    <defs>
     <path id="m9067cea6b7" d="M -4 4 
L 4 4 
L 4 -4 
L -4 -4 
z
" style="stroke: #ffffff; stroke-width: 0.5; stroke-linejoin: miter"/>
    </defs>
    <g clip-path="url(#p712f41bd47)">
     <use xlink:href="#m9067cea6b7" x="382.299318" y="48.225443" style="fill: #2d3047; stroke: #ffffff; stroke-width: 0.5; stroke-linejoin: miter"/>
     <use xlink:href="#m9067cea6b7" x="277.741522" y="105.382727" style="fill: #2d3047; stroke: #ffffff; stroke-width: 0.5; stroke-linejoin: miter"/>
     <use xlink:href="#m9067cea6b7" x="191.209055" y="179.835789" style="fill: #2d3047; stroke: #ffffff; stroke-width: 0.5; stroke-linejoin: miter"/>
     <use xlink:href="#m9067cea6b7" x="77.935682" y="197.154378" style="fill: #2d3047; stroke: #ffffff; stroke-width: 0.5; stroke-linejoin: miter"/>
    </g>
   </g>
   <g id="line2d_29">
    <path d="M 368.740118 17.28 
L 280.276574 101.351469 
L 185.484996 158.542303 
L 94.593352 218.88 
" clip-path="url(#p712f41bd47)" style="fill: none; stroke-dasharray: 7.4,3.2; stroke-dashoffset: 0; stroke: #d1345b; stroke-width: 2"/>
    <defs>
     <path id="m4ccf028401" d="M 0 4 
C 1.060812 4 2.078319 3.578535 2.828427 2.828427 
C 3.578535 2.078319 4 1.060812 4 0 
C 4 -1.060812 3.578535 -2.078319 2.828427 -2.828427 
C 2.078319 -3.578535 1.060812 -4 0 -4 
C -1.060812 -4 -2.078319 -3.578535 -2.828427 -2.828427 
C -3.578535 -2.078319 -4 -1.060812 -4 0 
C -4 1.060812 -3.578535 2.078319 -2.828427 2.828427 
C -2.078319 3.578535 -1.060812 4 0 4 
z
" style="stroke: #ffffff; stroke-width: 0.5"/>
    </defs>
    <g clip-path="url(#p712f41bd47)">
     <use xlink:href="#m4ccf028401" x="368.740118" y="17.28" style="fill: #d1345b; stroke: #ffffff; stroke-width: 0.5"/>
     <use xlink:href="#m4ccf028401" x="280.276574" y="101.351469" style="fill: #d1345b; stroke: #ffffff; stroke-width: 0.5"/>
     <use xlink:href="#m4ccf028401" x="185.484996" y="158.542303" style="fill: #d1345b; stroke: #ffffff; stroke-width: 0.5"/>
     <use xlink:href="#m4ccf028401" x="94.593352" y="218.88" style="fill: #d1345b; stroke: #ffffff; stroke-width: 0.5"/>
    </g>
   </g>
   <g id="line2d_30">
    <path d="M 355.382537 20.752306 
L 274.719305 95.062034 
L 182.836971 161.829352 
L 93.896308 215.691164 
" clip-path="url(#p712f41bd47)" style="fill: none; stroke-dasharray: 2,3.3; stroke-dashoffset: 0; stroke: #ff9b71; stroke-width: 2"/>
    <defs>
     <path id="mb9e367d133" d="M 0 -4 
L -4 4 
L 4 4 
z
" style="stroke: #ffffff; stroke-width: 0.5; stroke-linejoin: miter"/>
    </defs>
    <g clip-path="url(#p712f41bd47)">
     <use xlink:href="#mb9e367d133" x="355.382537" y="20.752306" style="fill: #ff9b71; stroke: #ffffff; stroke-width: 0.5; stroke-linejoin: miter"/>
     <use xlink:href="#mb9e367d133" x="274.719305" y="95.062034" style="fill: #ff9b71; stroke: #ffffff; stroke-width: 0.5; stroke-linejoin: miter"/>
     <use xlink:href="#mb9e367d133" x="182.836971" y="161.829352" style="fill: #ff9b71; stroke: #ffffff; stroke-width: 0.5; stroke-linejoin: miter"/>
     <use xlink:href="#mb9e367d133" x="93.896308" y="215.691164" style="fill: #ff9b71; stroke: #ffffff; stroke-width: 0.5; stroke-linejoin: miter"/>
    </g>
   </g>
   <g id="patch_3">
    <path d="M 62.7175 228.96 
L 62.7175 7.2 
" style="fill: none; stroke: #000000; stroke-width: 0.8; stroke-linejoin: miter; stroke-linecap: square"/>
   </g>
   <g id="patch_4">
    <path d="M 397.5175 228.96 
L 397.5175 7.2 
" style="fill: none; stroke: #000000; stroke-width: 0.8; stroke-linejoin: miter; stroke-linecap: square"/>
   </g>
   <g id="patch_5">
    <path d="M 62.7175 228.96 
L 397.5175 228.96 
" style="fill: none; stroke: #000000; stroke-width: 0.8; stroke-linejoin: miter; stroke-linecap: square"/>
   </g>
   <g id="patch_6">
    <path d="M 62.7175 7.2 
L 397.5175 7.2 
" style="fill: none; stroke: #000000; stroke-width: 0.8; stroke-linejoin: miter; stroke-linecap: square"/>
   </g>
   <g id="text_9">
    <g id="patch_7">
     <path d="M 366.293068 48.831693 
L 390.299318 48.831693 
Q 391.499318 48.831693 391.499318 47.631693 
L 391.499318 40.225443 
Q 391.499318 39.025443 390.299318 39.025443 
L 366.293068 39.025443 
Q 365.093068 39.025443 365.093068 40.225443 
L 365.093068 47.631693 
Q 365.093068 48.831693 366.293068 48.831693 
z
" style="fill: #ffffff; opacity: 0.5"/>
    </g>
    <text style="font-size: 8px; font-family: 'Helvetica', 'Arial', sans-serif; text-anchor: end" x="390.299318" y="45.964193" transform="rotate(-0 390.299318 45.964193)">0.8 cm</text>
   </g>
   <g id="text_10">
    <g id="patch_8">
     <path d="M 261.735272 105.988977 
L 285.741522 105.988977 
Q 286.941522 105.988977 286.941522 104.788977 
L 286.941522 97.382727 
Q 286.941522 96.182727 285.741522 96.182727 
L 261.735272 96.182727 
Q 260.535272 96.182727 260.535272 97.382727 
L 260.535272 104.788977 
Q 260.535272 105.988977 261.735272 105.988977 
z
" style="fill: #ffffff; opacity: 0.5"/>
    </g>
    <text style="font-size: 8px; font-family: 'Helvetica', 'Arial', sans-serif; text-anchor: end" x="285.741522" y="103.121477" transform="rotate(-0 285.741522 103.121477)">1.2 cm</text>
   </g>
   <g id="text_11">
    <g id="patch_9">
     <path d="M 175.202805 180.442039 
L 199.209055 180.442039 
Q 200.409055 180.442039 200.409055 179.242039 
L 200.409055 171.835789 
Q 200.409055 170.635789 199.209055 170.635789 
L 175.202805 170.635789 
Q 174.002805 170.635789 174.002805 171.835789 
L 174.002805 179.242039 
Q 174.002805 180.442039 175.202805 180.442039 
z
" style="fill: #ffffff; opacity: 0.5"/>
    </g>
    <text style="font-size: 8px; font-family: 'Helvetica', 'Arial', sans-serif; text-anchor: end" x="199.209055" y="177.574539" transform="rotate(-0 199.209055 177.574539)">1.6 cm</text>
   </g>
   <g id="text_12">
    <g id="patch_10">
     <path d="M 61.929432 197.760628 
L 85.935682 197.760628 
Q 87.135682 197.760628 87.135682 196.560628 
L 87.135682 189.154378 
Q 87.135682 187.954378 85.935682 187.954378 
L 61.929432 187.954378 
Q 60.729432 187.954378 60.729432 189.154378 
L 60.729432 196.560628 
Q 60.729432 197.760628 61.929432 197.760628 
z
" style="fill: #ffffff; opacity: 0.5"/>
    </g>
    <text style="font-size: 8px; font-family: 'Helvetica', 'Arial', sans-serif; text-anchor: end" x="85.935682" y="194.893128" transform="rotate(-0 85.935682 194.893128)">2.0 cm</text>
   </g>
   <g id="text_13">
    <g id="patch_11">
     <path d="M 352.733868 17.88625 
L 376.740118 17.88625 
Q 377.940118 17.88625 377.940118 16.68625 
L 377.940118 9.28 
Q 377.940118 8.08 376.740118 8.08 
L 352.733868 8.08 
Q 351.533868 8.08 351.533868 9.28 
L 351.533868 16.68625 
Q 351.533868 17.88625 352.733868 17.88625 
z
" style="fill: #ffffff; opacity: 0.5"/>
    </g>
    <text style="font-size: 8px; font-family: 'Helvetica', 'Arial', sans-serif; text-anchor: end" x="376.740118" y="15.01875" transform="rotate(-0 376.740118 15.01875)">0.8 cm</text>
   </g>
   <g id="text_14">
    <g id="patch_12">
     <path d="M 264.270324 101.957719 
L 288.276574 101.957719 
Q 289.476574 101.957719 289.476574 100.757719 
L 289.476574 93.351469 
Q 289.476574 92.151469 288.276574 92.151469 
L 264.270324 92.151469 
Q 263.070324 92.151469 263.070324 93.351469 
L 263.070324 100.757719 
Q 263.070324 101.957719 264.270324 101.957719 
z
" style="fill: #ffffff; opacity: 0.5"/>
    </g>
    <text style="font-size: 8px; font-family: 'Helvetica', 'Arial', sans-serif; text-anchor: end" x="288.276574" y="99.090219" transform="rotate(-0 288.276574 99.090219)">1.2 cm</text>
   </g>
   <g id="text_15">
    <g id="patch_13">
     <path d="M 169.478746 159.148553 
L 193.484996 159.148553 
Q 194.684996 159.148553 194.684996 157.948553 
L 194.684996 150.542303 
Q 194.684996 149.342303 193.484996 149.342303 
L 169.478746 149.342303 
Q 168.278746 149.342303 168.278746 150.542303 
L 168.278746 157.948553 
Q 168.278746 159.148553 169.478746 159.148553 
z
" style="fill: #ffffff; opacity: 0.5"/>
    </g>
    <text style="font-size: 8px; font-family: 'Helvetica', 'Arial', sans-serif; text-anchor: end" x="193.484996" y="156.281053" transform="rotate(-0 193.484996 156.281053)">1.6 cm</text>
   </g>
   <g id="text_16">
    <g id="patch_14">
     <path d="M 78.587102 219.48625 
L 102.593352 219.48625 
Q 103.793352 219.48625 103.793352 218.28625 
L 103.793352 210.88 
Q 103.793352 209.68 102.593352 209.68 
L 78.587102 209.68 
Q 77.387102 209.68 77.387102 210.88 
L 77.387102 218.28625 
Q 77.387102 219.48625 78.587102 219.48625 
z
" style="fill: #ffffff; opacity: 0.5"/>
    </g>
    <text style="font-size: 8px; font-family: 'Helvetica', 'Arial', sans-serif; text-anchor: end" x="102.593352" y="216.61875" transform="rotate(-0 102.593352 216.61875)">2.0 cm</text>
   </g>
   <g id="text_17">
    <g id="patch_15">
     <path d="M 339.376287 21.358556 
L 363.382537 21.358556 
Q 364.582537 21.358556 364.582537 20.158556 
L 364.582537 12.752306 
Q 364.582537 11.552306 363.382537 11.552306 
L 339.376287 11.552306 
Q 338.176287 11.552306 338.176287 12.752306 
L 338.176287 20.158556 
Q 338.176287 21.358556 339.376287 21.358556 
z
" style="fill: #ffffff; opacity: 0.5"/>
    </g>
    <text style="font-size: 8px; font-family: 'Helvetica', 'Arial', sans-serif; text-anchor: end" x="363.382537" y="18.491056" transform="rotate(-0 363.382537 18.491056)">0.8 cm</text>
   </g>
   <g id="text_18">
    <g id="patch_16">
     <path d="M 258.713055 95.668284 
L 282.719305 95.668284 
Q 283.919305 95.668284 283.919305 94.468284 
L 283.919305 87.062034 
Q 283.919305 85.862034 282.719305 85.862034 
L 258.713055 85.862034 
Q 257.513055 85.862034 257.513055 87.062034 
L 257.513055 94.468284 
Q 257.513055 95.668284 258.713055 95.668284 
z
" style="fill: #ffffff; opacity: 0.5"/>
    </g>
    <text style="font-size: 8px; font-family: 'Helvetica', 'Arial', sans-serif; text-anchor: end" x="282.719305" y="92.800784" transform="rotate(-0 282.719305 92.800784)">1.2 cm</text>
   </g>
   <g id="text_19">
    <g id="patch_17">
     <path d="M 166.830721 162.435602 
L 190.836971 162.435602 
Q 192.036971 162.435602 192.036971 161.235602 
L 192.036971 153.829352 
Q 192.036971 152.629352 190.836971 152.629352 
L 166.830721 152.629352 
Q 165.630721 152.629352 165.630721 153.829352 
L 165.630721 161.235602 
Q 165.630721 162.435602 166.830721 162.435602 
z
" style="fill: #ffffff; opacity: 0.5"/>
    </g>
    <text style="font-size: 8px; font-family: 'Helvetica', 'Arial', sans-serif; text-anchor: end" x="190.836971" y="159.568102" transform="rotate(-0 190.836971 159.568102)">1.6 cm</text>
   </g>
   <g id="text_20">
    <g id="patch_18">
     <path d="M 77.890058 216.297414 
L 101.896308 216.297414 
Q 103.096308 216.297414 103.096308 215.097414 
L 103.096308 207.691164 
Q 103.096308 206.491164 101.896308 206.491164 
L 77.890058 206.491164 
Q 76.690058 206.491164 76.690058 207.691164 
L 76.690058 215.097414 
Q 76.690058 216.297414 77.890058 216.297414 
z
" style="fill: #ffffff; opacity: 0.5"/>
    </g>
    <text style="font-size: 8px; font-family: 'Helvetica', 'Arial', sans-serif; text-anchor: end" x="101.896308" y="213.429914" transform="rotate(-0 101.896308 213.429914)">2.0 cm</text>
   </g>
   <g id="legend_1">
    <g id="patch_19">
     <path d="M 295.99875 223.96 
L 390.5175 223.96 
Q 392.5175 223.96 392.5175 221.96 
L 392.5175 180.186563 
Q 392.5175 178.186563 390.5175 178.186563 
L 295.99875 178.186563 
Q 293.99875 178.186563 293.99875 180.186563 
L 293.99875 221.96 
Q 293.99875 223.96 295.99875 223.96 
z
" style="fill: #ffffff; opacity: 0.8"/>
    </g>
    <g id="line2d_31">
     <path d="M 297.99875 185.86 
L 307.99875 185.86 
L 317.99875 185.86 
" style="fill: none; stroke: #2d3047; stroke-width: 2; stroke-linecap: square"/>
     <g>
      <use xlink:href="#m9067cea6b7" x="307.99875" y="185.86" style="fill: #2d3047; stroke: #ffffff; stroke-width: 0.5; stroke-linejoin: miter"/>
     </g>
    </g>
    <g id="text_21">
     <text style="font-size: 10px; font-family: 'Helvetica', 'Arial', sans-serif; text-anchor: start" x="325.99875" y="189.36" transform="rotate(-0 325.99875 189.36)">SDD = 1.0 cm</text>
    </g>
    <g id="line2d_32">
     <path d="M 297.99875 200.117813 
L 307.99875 200.117813 
L 317.99875 200.117813 
" style="fill: none; stroke-dasharray: 7.4,3.2; stroke-dashoffset: 0; stroke: #d1345b; stroke-width: 2"/>
     <g>
      <use xlink:href="#m4ccf028401" x="307.99875" y="200.117813" style="fill: #d1345b; stroke: #ffffff; stroke-width: 0.5"/>
     </g>
    </g>
    <g id="text_22">
     <text style="font-size: 10px; font-family: 'Helvetica', 'Arial', sans-serif; text-anchor: start" x="325.99875" y="203.617813" transform="rotate(-0 325.99875 203.617813)">SDD = 1.5 cm</text>
    </g>
    <g id="line2d_33">
     <path d="M 297.99875 214.375625 
L 307.99875 214.375625 
L 317.99875 214.375625 
" style="fill: none; stroke-dasharray: 2,3.3; stroke-dashoffset: 0; stroke: #ff9b71; stroke-width: 2"/>
     <g>
      <use xlink:href="#mb9e367d133" x="307.99875" y="214.375625" style="fill: #ff9b71; stroke: #ffffff; stroke-width: 0.5; stroke-linejoin: miter"/>
     </g>
    </g>
    <g id="text_23">
     <text style="font-size: 10px; font-family: 'Helvetica', 'Arial', sans-serif; text-anchor: start" x="325.99875" y="217.875625" transform="rotate(-0 325.99875 217.875625)">SDD = 2.0 cm</text>
    </g>
   </g>
  </g>
 </g>
 <defs>
  <clipPath id="p712f41bd47">
   <rect x="62.7175" y="7.2" width="334.8" height="221.76"/>
  </clipPath>
 </defs>
</svg>
