<?xml version="1.0" encoding="utf-8" standalone="no"?>
<!DOCTYPE svg PUBLIC "-//W3C//DTD SVG 1.1//EN"
  "http://www.w3.org/Graphics/SVG/1.1/DTD/svg11.dtd">
<svg xmlns:xlink="http://www.w3.org/1999/xlink" width="386.121875pt" height="268.95875pt" viewBox="0 0 386.121875 268.95875" xmlns="http://www.w3.org/2000/svg" version="1.1">
 <metadata>
  <rdf:RDF xmlns:dc="http://purl.org/dc/elements/1.1/" xmlns:cc="http://creativecommons.org/ns#" xmlns:rdf="http://www.w3.org/1999/02/22-rdf-syntax-ns#">
   <cc:Work>
    <dc:type rdf:resource="http://purl.org/dc/dcmitype/StillImage"/>
    <dc:date>2026-01-12T04:09:37.034744</dc:date>
    <dc:format>image/svg+xml</dc:format>
    <dc:creator>
     <cc:Agent>
      <dc:title>Matplotlib v3.5.1, https://matplotlib.org/</dc:title>
     </cc:Agent>
    </dc:creator>
   </cc:Work>
  </rdf:RDF>
 </metadata>
 <defs>
  <style type="text/css">*{stroke-linejoin: round; stroke-linecap: butt}</style>
 </defs>
 <g id="figure_1">
  <g id="patch_1">
   <path d="M 0 268.95875 
L 386.121875 268.95875 
L 386.121875 0 
L 0 0 
z
" style="fill: #ffffff"/>
  </g>
  <g id="axes_1">
   <g id="patch_2">
    <path d="M 44.121875 228.96 
L 378.921875 228.96 
L 378.921875 7.2 
L 44.121875 7.2 
z
" style="fill: #ffffff"/>
   </g>
   <g id="matplotlib.axis_1">
    <g id="xtick_1">
     <g id="line2d_1">
      <path d="M 59.340057 228.96 
L 59.340057 7.2 
" clip-path="url(#paf7c20d5fa)" style="fill: none; stroke: #b0b0b0; stroke-opacity: 0.3; stroke-width: 0.8; stroke-linecap: square"/>
     </g>
     <g id="line2d_2">
      <defs>
       <path id="m51c63b26bb" d="M 0 0 
L 0 3.5 
" style="stroke: #000000; stroke-width: 0.8"/>
      </defs>
      <g>
       <use xlink:href="#m51c63b26bb" x="59.340057" y="228.96" style="stroke: #000000; stroke-width: 0.8"/>
      </g>
     </g>
     <g id="text_1">
      <text style="font: 12px 'serif'; text-anchor: middle" x="59.340057" y="244.2925" transform="rotate(-0, 59.340057, 244.2925)">5.0</text>
     </g>
    </g>
    <g id="xtick_2">
     <g id="line2d_3">
      <path d="M 97.385511 228.96 
L 97.385511 7.2 
" clip-path="url(#paf7c20d5fa)" style="fill: none; stroke: #b0b0b0; stroke-opacity: 0.3; stroke-width: 0.8; stroke-linecap: square"/>
     </g>
     <g id="line2d_4">
      <g>
       <use xlink:href="#m51c63b26bb" x="97.385511" y="228.96" style="stroke: #000000; stroke-width: 0.8"/>
      </g>
     </g>
     <g id="text_2">
      <text style="font: 12px 'serif'; text-anchor: middle" x="97.385511" y="244.2925" transform="rotate(-0, 97.385511, 244.2925)">7.5</text>
     </g>
    </g>
    <g id="xtick_3">
     <g id="line2d_5">
      <path d="M 135.430966 228.96 
L 135.430966 7.2 
" clip-path="url(#paf7c20d5fa)" style="fill: none; stroke: #b0b0b0; stroke-opacity: 0.3; stroke-width: 0.8; stroke-linecap: square"/>
     </g>
     <g id="line2d_6">
      <g>
       <use xlink:href="#m51c63b26bb" x="135.430966" y="228.96" style="stroke: #000000; stroke-width: 0.8"/>
      </g>
     </g>
     <g id="text_3">
      <text style="font: 12px 'serif'; text-anchor: middle" x="135.430966" y="244.2925" transform="rotate(-0, 135.430966, 244.2925)">10.0</text>
     </g>
    </g>
    <g id="xtick_4">
     <g id="line2d_7">
      <path d="M 173.47642 228.96 
L 173.47642 7.2 
" clip-path="url(#paf7c20d5fa)" style="fill: none; stroke: #b0b0b0; stroke-opacity: 0.3; stroke-width: 0.8; stroke-linecap: square"/>
     </g>
     <g id="line2d_8">
      <g>
       <use xlink:href="#m51c63b26bb" x="173.47642" y="228.96" style="stroke: #000000; stroke-width: 0.8"/>
      </g>
     </g>
     <g id="text_4">
      <text style="font: 12px 'serif'; text-anchor: middle" x="173.47642" y="244.2925" transform="rotate(-0, 173.47642, 244.2925)">12.5</text>
     </g>
    </g>
    <g id="xtick_5">
     <g id="line2d_9">
      <path d="M 211.521875 228.96 
L 211.521875 7.2 
" clip-path="url(#paf7c20d5fa)" style="fill: none; stroke: #b0b0b0; stroke-opacity: 0.3; stroke-width: 0.8; stroke-linecap: square"/>
     </g>
     <g id="line2d_10">
      <g>
       <use xlink:href="#m51c63b26bb" x="211.521875" y="228.96" style="stroke: #000000; stroke-width: 0.8"/>
      </g>
     </g>
     <g id="text_5">
      <text style="font: 12px 'serif'; text-anchor: middle" x="211.521875" y="244.2925" transform="rotate(-0, 211.521875, 244.2925)">15.0</text>
     </g>
    </g>
    <g id="xtick_6">
     <g id="line2d_11">
      <path d="M 249.56733 228.96 
L 249.56733 7.2 
" clip-path="url(#paf7c20d5fa)" style="fill: none; stroke: #b0b0b0; stroke-opacity: 0.3; stroke-width: 0.8; stroke-linecap: square"/>
     </g>
     <g id="line2d_12">
      <g>
       <use xlink:href="#m51c63b26bb" x="249.56733" y="228.96" style="stroke: #000000; stroke-width: 0.8"/>
      </g>
     </g>
     <g id="text_6">
      <text style="font: 12px 'serif'; text-anchor: middle" x="249.56733" y="244.2925" transform="rotate(-0, 249.56733, 244.2925)">17.5</text>
     </g>
    </g>
    <g id="xtick_7">
     <g id="line2d_13">
      <path d="M 287.612784 228.96 
L 287.612784 7.2 
" clip-path="url(#paf7c20d5fa)" style="fill: none; stroke: #b0b0b0; stroke-opacity: 0.3; stroke-width: 0.8; stroke-linecap: square"/>
     </g>
     <g id="line2d_14">
      <g>
       <use xlink:href="#m51c63b26bb" x="287.612784" y="228.96" style="stroke: #000000; stroke-width: 0.8"/>
      </g>
     </g>
     <g id="text_7">
      <text style="font: 12px 'serif'; text-anchor: middle" x="287.612784" y="244.2925" transform="rotate(-0, 287.612784, 244.2925)">20.0</text>
     </g>
    </g>
    <g id="xtick_8">
     <g id="line2d_15">
      <path d="M 325.658239 228.96 
L 325.658239 7.2 
" clip-path="url(#paf7c20d5fa)" style="fill: none; stroke: #b0b0b0; stroke-opacity: 0.3; stroke-width: 0.8; stroke-linecap: square"/>
     </g>
     <g id="line2d_16">
      <g>
       <use xlink:href="#m51c63b26bb" x="325.658239" y="228.96" style="stroke: #000000; stroke-width: 0.8"/>
      </g>
     </g>
     <g id="text_8">
      <text style="font: 12px 'serif'; text-anchor: middle" x="325.658239" y="244.2925" transform="rotate(-0, 325.658239, 244.2925)">22.5</text>
     </g>
    </g>
    <g id="xtick_9">
     <g id="line2d_17">
      <path d="M 363.703693 228.96 
L 363.703693 7.2 
" clip-path="url(#paf7c20d5fa)" style="fill: none; stroke: #b0b0b0; stroke-opacity: 0.3; stroke-width: 0.8; stroke-linecap: square"/>
     </g>
     <g id="line2d_18">
      <g>
       <use xlink:href="#m51c63b26bb" x="363.703693" y="228.96" style="stroke: #000000; stroke-width: 0.8"/>
      </g>
     </g>
     <g id="text_9">
      <text style="font: 12px 'serif'; text-anchor: middle" x="363.703693" y="244.2925" transform="rotate(-0, 363.703693, 244.2925)">25.0</text>
     </g>
    </g>
    <g id="text_10">
     <text style="font: 12px 'serif'; text-anchor: middle" x="211.521875" y="259.191875" transform="rotate(-0, 211.521875, 259.191875)">Fetal Depth (mm)</text>
    </g>
   </g>
   <g id="matplotlib.axis_2">
    <g id="ytick_1">
     <g id="line2d_19">
      <path d="M 44.121875 222.935309 
L 378.921875 222.935309 
" clip-path="url(#paf7c20d5fa)" style="fill: none; stroke: #b0b0b0; stroke-opacity: 0.3; stroke-width: 0.8; stroke-linecap: square"/>
     </g>
     <g id="line2d_20">
      <defs>
       <path id="m4bba565cca" d="M 0 0 
L -3.5 0 
" style="stroke: #000000; stroke-width: 0.8"/>
      </defs>
      <g>
       <use xlink:href="#m4bba565cca" x="44.121875" y="222.935309" style="stroke: #000000; stroke-width: 0.8"/>
      </g>
     </g>
     <g id="text_11">
      <text style="font: 12px 'serif'; text-anchor: end" x="37.121875" y="227.101559" transform="rotate(-0, 37.121875, 227.101559)">0.4</text>
     </g>
    </g>
    <g id="ytick_2">
     <g id="line2d_21">
      <path d="M 44.121875 174.99413 
L 378.921875 174.99413 
" clip-path="url(#paf7c20d5fa)" style="fill: none; stroke: #b0b0b0; stroke-opacity: 0.3; stroke-width: 0.8; stroke-linecap: square"/>
     </g>
     <g id="line2d_22">
      <g>
       <use xlink:href="#m4bba565cca" x="44.121875" y="174.99413" style="stroke: #000000; stroke-width: 0.8"/>
      </g>
     </g>
     <g id="text_12">
      <text style="font: 12px 'serif'; text-anchor: end" x="37.121875" y="179.16038" transform="rotate(-0, 37.121875, 179.16038)">0.6</text>
     </g>
    </g>
    <g id="ytick_3">
     <g id="line2d_23">
      <path d="M 44.121875 127.05295 
L 378.921875 127.05295 
" clip-path="url(#paf7c20d5fa)" style="fill: none; stroke: #b0b0b0; stroke-opacity: 0.3; stroke-width: 0.8; stroke-linecap: square"/>
     </g>
     <g id="line2d_24">
      <g>
       <use xlink:href="#m4bba565cca" x="44.121875" y="127.05295" style="stroke: #000000; stroke-width: 0.8"/>
      </g>
     </g>
     <g id="text_13">
      <text style="font: 12px 'serif'; text-anchor: end" x="37.121875" y="131.2192" transform="rotate(-0, 37.121875, 131.2192)">0.8</text>
     </g>
    </g>
    <g id="ytick_4">
     <g id="line2d_25">
      <path d="M 44.121875 79.11177 
L 378.921875 79.11177 
" clip-path="url(#paf7c20d5fa)" style="fill: none; stroke: #b0b0b0; stroke-opacity: 0.3; stroke-width: 0.8; stroke-linecap: square"/>
     </g>
     <g id="line2d_26">
      <g>
       <use xlink:href="#m4bba565cca" x="44.121875" y="79.11177" style="stroke: #000000; stroke-width: 0.8"/>
      </g>
     </g>
     <g id="text_14">
      <text style="font: 12px 'serif'; text-anchor: end" x="37.121875" y="83.27802" transform="rotate(-0, 37.121875, 83.27802)">1.0</text>
     </g>
    </g>
    <g id="ytick_5">
     <g id="line2d_27">
      <path d="M 44.121875 31.17059 
L 378.921875 31.17059 
" clip-path="url(#paf7c20d5fa)" style="fill: none; stroke: #b0b0b0; stroke-opacity: 0.3; stroke-width: 0.8; stroke-linecap: square"/>
     </g>
     <g id="line2d_28">
      <g>
       <use xlink:href="#m4bba565cca" x="44.121875" y="31.17059" style="stroke: #000000; stroke-width: 0.8"/>
      </g>
     </g>
     <g id="text_15">
      <text style="font: 12px 'serif'; text-anchor: end" x="37.121875" y="35.33684" transform="rotate(-0, 37.121875, 35.33684)">1.2</text>
     </g>
    </g>
    <g id="text_16">
     <text style="font: 12px 'serif'; text-anchor: middle" x="15.5325" y="118.08" transform="rotate(-90, 15.5325, 118.08)">SNR x Selectivity</text>
    </g>
   </g>
   <g id="line2d_29">
    <path d="M 59.340057 104.388695 
L 135.430966 98.505472 
L 211.521875 98.666498 
L 287.612784 98.360637 
L 363.703693 98.12878 
" clip-path="url(#paf7c20d5fa)" style="fill: none; stroke: #7fc97f; stroke-width: 2; stroke-linecap: square"/>
    <defs>
     <path id="m8a3cb04c07" d="M 0 4 
C 1.060812 4 2.078319 3.578535 2.828427 2.828427 
C 3.578535 2.078319 4 1.060812 4 0 
C 4 -1.060812 3.578535 -2.078319 2.828427 -2.828427 
C 2.078319 -3.578535 1.060812 -4 0 -4 
C -1.060812 -4 -2.078319 -3.578535 -2.828427 -2.828427 
C -3.578535 -2.078319 -4 -1.060812 -4 0 
C -4 1.060812 -3.578535 2.078319 -2.828427 2.828427 
C -2.078319 3.578535 -1.060812 4 0 4 
z
" style="stroke: #7fc97f"/>
    </defs>
    <g clip-path="url(#paf7c20d5fa)">
     <use xlink:href="#m8a3cb04c07" x="59.340057" y="104.388695" style="fill: #7fc97f; stroke: #7fc97f"/>
     <use xlink:href="#m8a3cb04c07" x="135.430966" y="98.505472" style="fill: #7fc97f; stroke: #7fc97f"/>
     <use xlink:href="#m8a3cb04c07" x="211.521875" y="98.666498" style="fill: #7fc97f; stroke: #7fc97f"/>
     <use xlink:href="#m8a3cb04c07" x="287.612784" y="98.360637" style="fill: #7fc97f; stroke: #7fc97f"/>
     <use xlink:href="#m8a3cb04c07" x="363.703693" y="98.12878" style="fill: #7fc97f; stroke: #7fc97f"/>
    </g>
   </g>
   <g id="line2d_30">
    <path d="M 59.340057 208.537002 
L 135.430966 206.533134 
L 211.521875 195.078947 
L 287.612784 200.812993 
L 363.703693 189.788191 
" clip-path="url(#paf7c20d5fa)" style="fill: none; stroke: #beaed4; stroke-width: 2; stroke-linecap: square"/>
    <defs>
     <path id="mef260198a5" d="M 0 4 
C 1.060812 4 2.078319 3.578535 2.828427 2.828427 
C 3.578535 2.078319 4 1.060812 4 0 
C 4 -1.060812 3.578535 -2.078319 2.828427 -2.828427 
C 2.078319 -3.578535 1.060812 -4 0 -4 
C -1.060812 -4 -2.078319 -3.578535 -2.828427 -2.828427 
C -3.578535 -2.078319 -4 -1.060812 -4 0 
C -4 1.060812 -3.578535 2.078319 -2.828427 2.828427 
C -2.078319 3.578535 -1.060812 4 0 4 
z
" style="stroke: #beaed4"/>
    </defs>
    <g clip-path="url(#paf7c20d5fa)">
     <use xlink:href="#mef260198a5" x="59.340057" y="208.537002" style="fill: #beaed4; stroke: #beaed4"/>
     <use xlink:href="#mef260198a5" x="135.430966" y="206.533134" style="fill: #beaed4; stroke: #beaed4"/>
     <use xlink:href="#mef260198a5" x="211.521875" y="195.078947" style="fill: #beaed4; stroke: #beaed4"/>
     <use xlink:href="#mef260198a5" x="287.612784" y="200.812993" style="fill: #beaed4; stroke: #beaed4"/>
     <use xlink:href="#mef260198a5" x="363.703693" y="189.788191" style="fill: #beaed4; stroke: #beaed4"/>
    </g>
   </g>
   <g id="line2d_31">
    <path d="M 59.340057 204.719725 
L 135.430966 220.289816 
L 211.521875 209.326271 
L 287.612784 196.083078 
L 363.703693 219.355714 
" clip-path="url(#paf7c20d5fa)" style="fill: none; stroke: #fdc086; stroke-width: 2; stroke-linecap: square"/>
    <defs>
     <path id="m736902f740" d="M 0 4 
C 1.060812 4 2.078319 3.578535 2.828427 2.828427 
C 3.578535 2.078319 4 1.060812 4 0 
C 4 -1.060812 3.578535 -2.078319 2.828427 -2.828427 
C 2.078319 -3.578535 1.060812 -4 0 -4 
C -1.060812 -4 -2.078319 -3.578535 -2.828427 -2.828427 
C -3.578535 -2.078319 -4 -1.060812 -4 0 
C -4 1.060812 -3.578535 2.078319 -2.828427 2.828427 
C -2.078319 3.578535 -1.060812 4 0 4 
z
" style="stroke: #fdc086"/>
    </defs>
    <g clip-path="url(#paf7c20d5fa)">
     <use xlink:href="#m736902f740" x="59.340057" y="204.719725" style="fill: #fdc086; stroke: #fdc086"/>
     <use xlink:href="#m736902f740" x="135.430966" y="220.289816" style="fill: #fdc086; stroke: #fdc086"/>
     <use xlink:href="#m736902f740" x="211.521875" y="209.326271" style="fill: #fdc086; stroke: #fdc086"/>
     <use xlink:href="#m736902f740" x="287.612784" y="196.083078" style="fill: #fdc086; stroke: #fdc086"/>
     <use xlink:href="#m736902f740" x="363.703693" y="219.355714" style="fill: #fdc086; stroke: #fdc086"/>
    </g>
   </g>
   <g id="line2d_32">
    <path d="M 59.340057 110.148143 
L 135.430966 46.886138 
L 211.521875 140.197325 
L 287.612784 141.972572 
L 363.703693 143.517968 
" clip-path="url(#paf7c20d5fa)" style="fill: none; stroke: #386cb0; stroke-width: 2; stroke-linecap: square"/>
    <defs>
     <path id="m8cd9da70ed" d="M 0 4 
C 1.060812 4 2.078319 3.578535 2.828427 2.828427 
C 3.578535 2.078319 4 1.060812 4 0 
C 4 -1.060812 3.578535 -2.078319 2.828427 -2.828427 
C 2.078319 -3.578535 1.060812 -4 0 -4 
C -1.060812 -4 -2.078319 -3.578535 -2.828427 -2.828427 
C -3.578535 -2.078319 -4 -1.060812 -4 0 
C -4 1.060812 -3.578535 2.078319 -2.828427 2.828427 
C -2.078319 3.578535 -1.060812 4 0 4 
z
" style="stroke: #386cb0"/>
    </defs>
    <g clip-path="url(#paf7c20d5fa)">
     <use xlink:href="#m8cd9da70ed" x="59.340057" y="110.148143" style="fill: #386cb0; stroke: #386cb0"/>
     <use xlink:href="#m8cd9da70ed" x="135.430966" y="46.886138" style="fill: #386cb0; stroke: #386cb0"/>
     <use xlink:href="#m8cd9da70ed" x="211.521875" y="140.197325" style="fill: #386cb0; stroke: #386cb0"/>
     <use xlink:href="#m8cd9da70ed" x="287.612784" y="141.972572" style="fill: #386cb0; stroke: #386cb0"/>
     <use xlink:href="#m8cd9da70ed" x="363.703693" y="143.517968" style="fill: #386cb0; stroke: #386cb0"/>
    </g>
   </g>
   <g id="patch_3">
    <path d="M 44.121875 228.96 
L 44.121875 7.2 
" style="fill: none; stroke: #000000; stroke-width: 0.8; stroke-linejoin: miter; stroke-linecap: square"/>
   </g>
   <g id="patch_4">
    <path d="M 378.921875 228.96 
L 378.921875 7.2 
" style="fill: none; stroke: #000000; stroke-width: 0.8; stroke-linejoin: miter; stroke-linecap: square"/>
   </g>
   <g id="patch_5">
    <path d="M 44.121875 228.96 
L 378.921875 228.96 
" style="fill: none; stroke: #000000; stroke-width: 0.8; stroke-linejoin: miter; stroke-linecap: square"/>
   </g>
   <g id="patch_6">
    <path d="M 44.121875 7.2 
L 378.921875 7.2 
" style="fill: none; stroke: #000000; stroke-width: 0.8; stroke-linejoin: miter; stroke-linecap: square"/>
   </g>
   <g id="legend_1">
    <g id="patch_7">
     <path d="M 261.681875 84.6675 
L 370.521875 84.6675 
Q 372.921875 84.6675 372.921875 82.2675 
L 372.921875 15.6 
Q 372.921875 13.2 370.521875 13.2 
L 261.681875 13.2 
Q 259.281875 13.2 259.281875 15.6 
L 259.281875 82.2675 
Q 259.281875 84.6675 261.681875 84.6675 
z
" style="fill: #ffffff; opacity: 0.8; stroke: #cccccc; stroke-linejoin: miter"/>
    </g>
    <g id="line2d_33">
     <path d="M 264.081875 22.2 
L 276.081875 22.2 
L 288.081875 22.2 
" style="fill: none; stroke: #7fc97f; stroke-width: 2; stroke-linecap: square"/>
     <g>
      <use xlink:href="#m8a3cb04c07" x="276.081875" y="22.2" style="fill: #7fc97f; stroke: #7fc97f"/>
     </g>
    </g>
    <g id="text_17">
     <text style="font: 12px 'serif'; text-anchor: start" x="297.681875" y="26.4" transform="rotate(-0, 297.681875, 26.4)">SDD = 2 mm</text>
    </g>
    <g id="line2d_34">
     <path d="M 264.081875 39.166875 
L 276.081875 39.166875 
L 288.081875 39.166875 
" style="fill: none; stroke: #beaed4; stroke-width: 2; stroke-linecap: square"/>
     <g>
      <use xlink:href="#mef260198a5" x="276.081875" y="39.166875" style="fill: #beaed4; stroke: #beaed4"/>
     </g>
    </g>
    <g id="text_18">
     <text style="font: 12px 'serif'; text-anchor: start" x="297.681875" y="43.366875" transform="rotate(-0, 297.681875, 43.366875)">SDD = 13 mm</text>
    </g>
    <g id="line2d_35">
     <path d="M 264.081875 56.13375 
L 276.081875 56.13375 
L 288.081875 56.13375 
" style="fill: none; stroke: #fdc086; stroke-width: 2; stroke-linecap: square"/>
     <g>
      <use xlink:href="#m736902f740" x="276.081875" y="56.13375" style="fill: #fdc086; stroke: #fdc086"/>
     </g>
    </g>
    <g id="text_19">
     <text style="font: 12px 'serif'; text-anchor: start" x="297.681875" y="60.33375" transform="rotate(-0, 297.681875, 60.33375)">SDD = 24 mm</text>
    </g>
    <g id="line2d_36">
     <path d="M 264.081875 73.100625 
L 276.081875 73.100625 
L 288.081875 73.100625 
" style="fill: none; stroke: #386cb0; stroke-width: 2; stroke-linecap: square"/>
     <g>
      <use xlink:href="#m8cd9da70ed" x="276.081875" y="73.100625" style="fill: #386cb0; stroke: #386cb0"/>
     </g>
    </g>
    <g id="text_20">
     <text style="font: 12px 'serif'; text-anchor: start" x="297.681875" y="77.300625" transform="rotate(-0, 297.681875, 77.300625)">SDD = 35 mm</text>
    </g>
   </g>
  </g>
 </g>
 <defs>
  <clipPath id="paf7c20d5fa">
   <rect x="44.121875" y="7.2" width="334.8" height="221.76"/>
  </clipPath>
 </defs>
</svg>
