<?xml version="1.0" encoding="utf-8" standalone="no"?>
<!DOCTYPE svg PUBLIC "-//W3C//DTD SVG 1.1//EN"
  "http://www.w3.org/Graphics/SVG/1.1/DTD/svg11.dtd">
<svg xmlns:xlink="http://www.w3.org/1999/xlink" width="392.121875pt" height="270.367678pt" viewBox="0 0 392.121875 270.367678" xmlns="http://www.w3.org/2000/svg" version="1.1">
 <metadata>
  <rdf:RDF xmlns:dc="http://purl.org/dc/elements/1.1/" xmlns:cc="http://creativecommons.org/ns#" xmlns:rdf="http://www.w3.org/1999/02/22-rdf-syntax-ns#">
   <cc:Work>
    <dc:type rdf:resource="http://purl.org/dc/dcmitype/StillImage"/>
    <dc:date>2026-02-01T15:10:40.511905</dc:date>
    <dc:format>image/svg+xml</dc:format>
    <dc:creator>
     <cc:Agent>
      <dc:title>Matplotlib v3.9.2, https://matplotlib.org/</dc:title>
     </cc:Agent>
    </dc:creator>
   </cc:Work>
  </rdf:RDF>
 </metadata>
 <defs>
  <style type="text/css">*{stroke-linejoin: round; stroke-linecap: butt}</style>
 </defs>
 <g id="figure_1">
  <g id="patch_1">
   <path d="M -0 270.367678 
L 392.121875 270.367678 
L 392.121875 0 
L -0 0 
z
" style="fill: #ffffff"/>
  </g>
  <g id="axes_1">
   <g id="patch_2">
    <path d="M 50.121875 230.368928 
L 384.921875 230.368928 
L 384.921875 8.608928 
L 50.121875 8.608928 
z
" style="fill: #ffffff"/>
   </g>
   <g id="matplotlib.axis_1">
    <g id="xtick_1">
     <g id="line2d_1">
      <path d="M 65.340057 230.368928 
L 65.340057 8.608928 
" clip-path="url(#p097384471d)" style="fill: none; stroke: #b0b0b0; stroke-opacity: 0.3; stroke-width: 0.8; stroke-linecap: square"/>
     </g>
     <g id="line2d_2">
      <defs>
       <path id="m82642c56e2" d="M 0 0 
L 0 3.5 
" style="stroke: #000000; stroke-width: 0.8"/>
      </defs>
      <g>
       <use xlink:href="#m82642c56e2" x="65.340057" y="230.368928" style="stroke: #000000; stroke-width: 0.8"/>
      </g>
     </g>
     <g id="text_1">
      <text style="font: 12px 'Times New Roman', 'Times', serif; text-anchor: middle" x="65.340057" y="245.701428" transform="rotate(-0 65.340057 245.701428)">5.0</text>
     </g>
    </g>
    <g id="xtick_2">
     <g id="line2d_3">
      <path d="M 103.385511 230.368928 
L 103.385511 8.608928 
" clip-path="url(#p097384471d)" style="fill: none; stroke: #b0b0b0; stroke-opacity: 0.3; stroke-width: 0.8; stroke-linecap: square"/>
     </g>
     <g id="line2d_4">
      <g>
       <use xlink:href="#m82642c56e2" x="103.385511" y="230.368928" style="stroke: #000000; stroke-width: 0.8"/>
      </g>
     </g>
     <g id="text_2">
      <text style="font: 12px 'Times New Roman', 'Times', serif; text-anchor: middle" x="103.385511" y="245.701428" transform="rotate(-0 103.385511 245.701428)">7.5</text>
     </g>
    </g>
    <g id="xtick_3">
     <g id="line2d_5">
      <path d="M 141.430966 230.368928 
L 141.430966 8.608928 
" clip-path="url(#p097384471d)" style="fill: none; stroke: #b0b0b0; stroke-opacity: 0.3; stroke-width: 0.8; stroke-linecap: square"/>
     </g>
     <g id="line2d_6">
      <g>
       <use xlink:href="#m82642c56e2" x="141.430966" y="230.368928" style="stroke: #000000; stroke-width: 0.8"/>
      </g>
     </g>
     <g id="text_3">
      <text style="font: 12px 'Times New Roman', 'Times', serif; text-anchor: middle" x="141.430966" y="245.701428" transform="rotate(-0 141.430966 245.701428)">10.0</text>
     </g>
    </g>
    <g id="xtick_4">
     <g id="line2d_7">
      <path d="M 179.47642 230.368928 
L 179.47642 8.608928 
" clip-path="url(#p097384471d)" style="fill: none; stroke: #b0b0b0; stroke-opacity: 0.3; stroke-width: 0.8; stroke-linecap: square"/>
     </g>
     <g id="line2d_8">
      <g>
       <use xlink:href="#m82642c56e2" x="179.47642" y="230.368928" style="stroke: #000000; stroke-width: 0.8"/>
      </g>
     </g>
     <g id="text_4">
      <text style="font: 12px 'Times New Roman', 'Times', serif; text-anchor: middle" x="179.47642" y="245.701428" transform="rotate(-0 179.47642 245.701428)">12.5</text>
     </g>
    </g>
    <g id="xtick_5">
     <g id="line2d_9">
      <path d="M 217.521875 230.368928 
L 217.521875 8.608928 
" clip-path="url(#p097384471d)" style="fill: none; stroke: #b0b0b0; stroke-opacity: 0.3; stroke-width: 0.8; stroke-linecap: square"/>
     </g>
     <g id="line2d_10">
      <g>
       <use xlink:href="#m82642c56e2" x="217.521875" y="230.368928" style="stroke: #000000; stroke-width: 0.8"/>
      </g>
     </g>
     <g id="text_5">
      <text style="font: 12px 'Times New Roman', 'Times', serif; text-anchor: middle" x="217.521875" y="245.701428" transform="rotate(-0 217.521875 245.701428)">15.0</text>
     </g>
    </g>
    <g id="xtick_6">
     <g id="line2d_11">
      <path d="M 255.56733 230.368928 
L 255.56733 8.608928 
" clip-path="url(#p097384471d)" style="fill: none; stroke: #b0b0b0; stroke-opacity: 0.3; stroke-width: 0.8; stroke-linecap: square"/>
     </g>
     <g id="line2d_12">
      <g>
       <use xlink:href="#m82642c56e2" x="255.56733" y="230.368928" style="stroke: #000000; stroke-width: 0.8"/>
      </g>
     </g>
     <g id="text_6">
      <text style="font: 12px 'Times New Roman', 'Times', serif; text-anchor: middle" x="255.56733" y="245.701428" transform="rotate(-0 255.56733 245.701428)">17.5</text>
     </g>
    </g>
    <g id="xtick_7">
     <g id="line2d_13">
      <path d="M 293.612784 230.368928 
L 293.612784 8.608928 
" clip-path="url(#p097384471d)" style="fill: none; stroke: #b0b0b0; stroke-opacity: 0.3; stroke-width: 0.8; stroke-linecap: square"/>
     </g>
     <g id="line2d_14">
      <g>
       <use xlink:href="#m82642c56e2" x="293.612784" y="230.368928" style="stroke: #000000; stroke-width: 0.8"/>
      </g>
     </g>
     <g id="text_7">
      <text style="font: 12px 'Times New Roman', 'Times', serif; text-anchor: middle" x="293.612784" y="245.701428" transform="rotate(-0 293.612784 245.701428)">20.0</text>
     </g>
    </g>
    <g id="xtick_8">
     <g id="line2d_15">
      <path d="M 331.658239 230.368928 
L 331.658239 8.608928 
" clip-path="url(#p097384471d)" style="fill: none; stroke: #b0b0b0; stroke-opacity: 0.3; stroke-width: 0.8; stroke-linecap: square"/>
     </g>
     <g id="line2d_16">
      <g>
       <use xlink:href="#m82642c56e2" x="331.658239" y="230.368928" style="stroke: #000000; stroke-width: 0.8"/>
      </g>
     </g>
     <g id="text_8">
      <text style="font: 12px 'Times New Roman', 'Times', serif; text-anchor: middle" x="331.658239" y="245.701428" transform="rotate(-0 331.658239 245.701428)">22.5</text>
     </g>
    </g>
    <g id="xtick_9">
     <g id="line2d_17">
      <path d="M 369.703693 230.368928 
L 369.703693 8.608928 
" clip-path="url(#p097384471d)" style="fill: none; stroke: #b0b0b0; stroke-opacity: 0.3; stroke-width: 0.8; stroke-linecap: square"/>
     </g>
     <g id="line2d_18">
      <g>
       <use xlink:href="#m82642c56e2" x="369.703693" y="230.368928" style="stroke: #000000; stroke-width: 0.8"/>
      </g>
     </g>
     <g id="text_9">
      <text style="font: 12px 'Times New Roman', 'Times', serif; text-anchor: middle" x="369.703693" y="245.701428" transform="rotate(-0 369.703693 245.701428)">25.0</text>
     </g>
    </g>
    <g id="text_10">
     <text style="font: 12px 'Times New Roman', 'Times', serif; text-anchor: middle" x="217.521875" y="260.600803" transform="rotate(-0 217.521875 260.600803)">Fetal Depth (mm)</text>
    </g>
   </g>
   <g id="matplotlib.axis_2">
    <g id="ytick_1">
     <g id="line2d_19">
      <path d="M 50.121875 226.642733 
L 384.921875 226.642733 
" clip-path="url(#p097384471d)" style="fill: none; stroke: #b0b0b0; stroke-opacity: 0.3; stroke-width: 0.8; stroke-linecap: square"/>
     </g>
     <g id="line2d_20">
      <defs>
       <path id="meb2e655e33" d="M 0 0 
L -3.5 0 
" style="stroke: #000000; stroke-width: 0.8"/>
      </defs>
      <g>
       <use xlink:href="#meb2e655e33" x="50.121875" y="226.642733" style="stroke: #000000; stroke-width: 0.8"/>
      </g>
     </g>
     <g id="text_11">
      <text style="font: 12px 'Times New Roman', 'Times', serif; text-anchor: end" x="43.121875" y="230.808983" transform="rotate(-0 43.121875 230.808983)">0.59</text>
     </g>
    </g>
    <g id="ytick_2">
     <g id="line2d_21">
      <path d="M 50.121875 183.587437 
L 384.921875 183.587437 
" clip-path="url(#p097384471d)" style="fill: none; stroke: #b0b0b0; stroke-opacity: 0.3; stroke-width: 0.8; stroke-linecap: square"/>
     </g>
     <g id="line2d_22">
      <g>
       <use xlink:href="#meb2e655e33" x="50.121875" y="183.587437" style="stroke: #000000; stroke-width: 0.8"/>
      </g>
     </g>
     <g id="text_12">
      <text style="font: 12px 'Times New Roman', 'Times', serif; text-anchor: end" x="43.121875" y="187.753687" transform="rotate(-0 43.121875 187.753687)">0.60</text>
     </g>
    </g>
    <g id="ytick_3">
     <g id="line2d_23">
      <path d="M 50.121875 140.53214 
L 384.921875 140.53214 
" clip-path="url(#p097384471d)" style="fill: none; stroke: #b0b0b0; stroke-opacity: 0.3; stroke-width: 0.8; stroke-linecap: square"/>
     </g>
     <g id="line2d_24">
      <g>
       <use xlink:href="#meb2e655e33" x="50.121875" y="140.53214" style="stroke: #000000; stroke-width: 0.8"/>
      </g>
     </g>
     <g id="text_13">
      <text style="font: 12px 'Times New Roman', 'Times', serif; text-anchor: end" x="43.121875" y="144.69839" transform="rotate(-0 43.121875 144.69839)">0.61</text>
     </g>
    </g>
    <g id="ytick_4">
     <g id="line2d_25">
      <path d="M 50.121875 97.476843 
L 384.921875 97.476843 
" clip-path="url(#p097384471d)" style="fill: none; stroke: #b0b0b0; stroke-opacity: 0.3; stroke-width: 0.8; stroke-linecap: square"/>
     </g>
     <g id="line2d_26">
      <g>
       <use xlink:href="#meb2e655e33" x="50.121875" y="97.476843" style="stroke: #000000; stroke-width: 0.8"/>
      </g>
     </g>
     <g id="text_14">
      <text style="font: 12px 'Times New Roman', 'Times', serif; text-anchor: end" x="43.121875" y="101.643093" transform="rotate(-0 43.121875 101.643093)">0.62</text>
     </g>
    </g>
    <g id="ytick_5">
     <g id="line2d_27">
      <path d="M 50.121875 54.421547 
L 384.921875 54.421547 
" clip-path="url(#p097384471d)" style="fill: none; stroke: #b0b0b0; stroke-opacity: 0.3; stroke-width: 0.8; stroke-linecap: square"/>
     </g>
     <g id="line2d_28">
      <g>
       <use xlink:href="#meb2e655e33" x="50.121875" y="54.421547" style="stroke: #000000; stroke-width: 0.8"/>
      </g>
     </g>
     <g id="text_15">
      <text style="font: 12px 'Times New Roman', 'Times', serif; text-anchor: end" x="43.121875" y="58.587797" transform="rotate(-0 43.121875 58.587797)">0.63</text>
     </g>
    </g>
    <g id="ytick_6">
     <g id="line2d_29">
      <path d="M 50.121875 11.36625 
L 384.921875 11.36625 
" clip-path="url(#p097384471d)" style="fill: none; stroke: #b0b0b0; stroke-opacity: 0.3; stroke-width: 0.8; stroke-linecap: square"/>
     </g>
     <g id="line2d_30">
      <g>
       <use xlink:href="#meb2e655e33" x="50.121875" y="11.36625" style="stroke: #000000; stroke-width: 0.8"/>
      </g>
     </g>
     <g id="text_16">
      <text style="font: 12px 'Times New Roman', 'Times', serif; text-anchor: end" x="43.121875" y="15.5325" transform="rotate(-0 43.121875 15.5325)">0.64</text>
     </g>
    </g>
    <g id="text_17">
     <text style="font: 12px 'Times New Roman', 'Times', serif; text-anchor: middle" x="15.5325" y="119.488928" transform="rotate(-90 15.5325 119.488928)">SNR x Selectivity</text>
    </g>
   </g>
   <g id="line2d_31">
    <path d="M 65.340057 216.71655 
L 141.430966 210.145323 
L 217.521875 77.260404 
L 293.612784 132.254336 
L 369.703693 18.715321 
" clip-path="url(#p097384471d)" style="fill: none; stroke: #213c51; stroke-width: 2; stroke-linecap: square"/>
    <defs>
     <path id="m5d61606f3f" d="M 0 4 
C 1.060812 4 2.078319 3.578535 2.828427 2.828427 
C 3.578535 2.078319 4 1.060812 4 0 
C 4 -1.060812 3.578535 -2.078319 2.828427 -2.828427 
C 2.078319 -3.578535 1.060812 -4 0 -4 
C -1.060812 -4 -2.078319 -3.578535 -2.828427 -2.828427 
C -3.578535 -2.078319 -4 -1.060812 -4 0 
C -4 1.060812 -3.578535 2.078319 -2.828427 2.828427 
C -2.078319 3.578535 -1.060812 4 0 4 
z
" style="stroke: #213c51"/>
    </defs>
    <g clip-path="url(#p097384471d)">
     <use xlink:href="#m5d61606f3f" x="65.340057" y="216.71655" style="fill: #213c51; stroke: #213c51"/>
     <use xlink:href="#m5d61606f3f" x="141.430966" y="210.145323" style="fill: #213c51; stroke: #213c51"/>
     <use xlink:href="#m5d61606f3f" x="217.521875" y="77.260404" style="fill: #213c51; stroke: #213c51"/>
     <use xlink:href="#m5d61606f3f" x="293.612784" y="132.254336" style="fill: #213c51; stroke: #213c51"/>
     <use xlink:href="#m5d61606f3f" x="369.703693" y="18.715321" style="fill: #213c51; stroke: #213c51"/>
    </g>
   </g>
   <g id="line2d_32">
    <path d="M 65.340057 219.241557 
L 141.430966 204.613647 
L 217.521875 77.305407 
L 293.612784 132.304528 
L 369.703693 18.734616 
" clip-path="url(#p097384471d)" style="fill: none; stroke: #6594b1; stroke-width: 2; stroke-linecap: square"/>
    <defs>
     <path id="m8011084c8f" d="M 0 4 
C 1.060812 4 2.078319 3.578535 2.828427 2.828427 
C 3.578535 2.078319 4 1.060812 4 0 
C 4 -1.060812 3.578535 -2.078319 2.828427 -2.828427 
C 2.078319 -3.578535 1.060812 -4 0 -4 
C -1.060812 -4 -2.078319 -3.578535 -2.828427 -2.828427 
C -3.578535 -2.078319 -4 -1.060812 -4 0 
C -4 1.060812 -3.578535 2.078319 -2.828427 2.828427 
C -2.078319 3.578535 -1.060812 4 0 4 
z
" style="stroke: #6594b1"/>
    </defs>
    <g clip-path="url(#p097384471d)">
     <use xlink:href="#m8011084c8f" x="65.340057" y="219.241557" style="fill: #6594b1; stroke: #6594b1"/>
     <use xlink:href="#m8011084c8f" x="141.430966" y="204.613647" style="fill: #6594b1; stroke: #6594b1"/>
     <use xlink:href="#m8011084c8f" x="217.521875" y="77.305407" style="fill: #6594b1; stroke: #6594b1"/>
     <use xlink:href="#m8011084c8f" x="293.612784" y="132.304528" style="fill: #6594b1; stroke: #6594b1"/>
     <use xlink:href="#m8011084c8f" x="369.703693" y="18.734616" style="fill: #6594b1; stroke: #6594b1"/>
    </g>
   </g>
   <g id="line2d_33">
    <path d="M 65.340057 210.25243 
L 141.430966 206.445245 
L 217.521875 77.286886 
L 293.612784 132.25542 
L 369.703693 18.722117 
" clip-path="url(#p097384471d)" style="fill: none; stroke: #ddaed3; stroke-width: 2; stroke-linecap: square"/>
    <defs>
     <path id="m4364d83694" d="M 0 4 
C 1.060812 4 2.078319 3.578535 2.828427 2.828427 
C 3.578535 2.078319 4 1.060812 4 0 
C 4 -1.060812 3.578535 -2.078319 2.828427 -2.828427 
C 2.078319 -3.578535 1.060812 -4 0 -4 
C -1.060812 -4 -2.078319 -3.578535 -2.828427 -2.828427 
C -3.578535 -2.078319 -4 -1.060812 -4 0 
C -4 1.060812 -3.578535 2.078319 -2.828427 2.828427 
C -2.078319 3.578535 -1.060812 4 0 4 
z
" style="stroke: #ddaed3"/>
    </defs>
    <g clip-path="url(#p097384471d)">
     <use xlink:href="#m4364d83694" x="65.340057" y="210.25243" style="fill: #ddaed3; stroke: #ddaed3"/>
     <use xlink:href="#m4364d83694" x="141.430966" y="206.445245" style="fill: #ddaed3; stroke: #ddaed3"/>
     <use xlink:href="#m4364d83694" x="217.521875" y="77.286886" style="fill: #ddaed3; stroke: #ddaed3"/>
     <use xlink:href="#m4364d83694" x="293.612784" y="132.25542" style="fill: #ddaed3; stroke: #ddaed3"/>
     <use xlink:href="#m4364d83694" x="369.703693" y="18.722117" style="fill: #ddaed3; stroke: #ddaed3"/>
    </g>
   </g>
   <g id="line2d_34">
    <path d="M 65.340057 216.023602 
L 141.430966 210.318693 
L 217.521875 78.447322 
L 293.612784 132.7817 
L 369.703693 18.688928 
" clip-path="url(#p097384471d)" style="fill: none; stroke: #d02752; stroke-width: 2; stroke-linecap: square"/>
    <defs>
     <path id="m8e2fb69475" d="M 0 4 
C 1.060812 4 2.078319 3.578535 2.828427 2.828427 
C 3.578535 2.078319 4 1.060812 4 0 
C 4 -1.060812 3.578535 -2.078319 2.828427 -2.828427 
C 2.078319 -3.578535 1.060812 -4 0 -4 
C -1.060812 -4 -2.078319 -3.578535 -2.828427 -2.828427 
C -3.578535 -2.078319 -4 -1.060812 -4 0 
C -4 1.060812 -3.578535 2.078319 -2.828427 2.828427 
C -2.078319 3.578535 -1.060812 4 0 4 
z
" style="stroke: #d02752"/>
    </defs>
    <g clip-path="url(#p097384471d)">
     <use xlink:href="#m8e2fb69475" x="65.340057" y="216.023602" style="fill: #d02752; stroke: #d02752"/>
     <use xlink:href="#m8e2fb69475" x="141.430966" y="210.318693" style="fill: #d02752; stroke: #d02752"/>
     <use xlink:href="#m8e2fb69475" x="217.521875" y="78.447322" style="fill: #d02752; stroke: #d02752"/>
     <use xlink:href="#m8e2fb69475" x="293.612784" y="132.7817" style="fill: #d02752; stroke: #d02752"/>
     <use xlink:href="#m8e2fb69475" x="369.703693" y="18.688928" style="fill: #d02752; stroke: #d02752"/>
    </g>
   </g>
   <g id="line2d_35">
    <path d="M 65.340057 220.288928 
L 141.430966 210.38313 
L 217.521875 78.4735 
L 293.612784 132.331729 
L 369.703693 18.697552 
" clip-path="url(#p097384471d)" style="fill: none; stroke: #213c51; stroke-width: 2; stroke-linecap: square"/>
    <g clip-path="url(#p097384471d)">
     <use xlink:href="#m5d61606f3f" x="65.340057" y="220.288928" style="fill: #213c51; stroke: #213c51"/>
     <use xlink:href="#m5d61606f3f" x="141.430966" y="210.38313" style="fill: #213c51; stroke: #213c51"/>
     <use xlink:href="#m5d61606f3f" x="217.521875" y="78.4735" style="fill: #213c51; stroke: #213c51"/>
     <use xlink:href="#m5d61606f3f" x="293.612784" y="132.331729" style="fill: #213c51; stroke: #213c51"/>
     <use xlink:href="#m5d61606f3f" x="369.703693" y="18.697552" style="fill: #213c51; stroke: #213c51"/>
    </g>
   </g>
   <g id="patch_3">
    <path d="M 50.121875 230.368928 
L 50.121875 8.608928 
" style="fill: none; stroke: #000000; stroke-width: 0.8; stroke-linejoin: miter; stroke-linecap: square"/>
   </g>
   <g id="patch_4">
    <path d="M 384.921875 230.368928 
L 384.921875 8.608928 
" style="fill: none; stroke: #000000; stroke-width: 0.8; stroke-linejoin: miter; stroke-linecap: square"/>
   </g>
   <g id="patch_5">
    <path d="M 50.121875 230.368928 
L 384.921875 230.368928 
" style="fill: none; stroke: #000000; stroke-width: 0.8; stroke-linejoin: miter; stroke-linecap: square"/>
   </g>
   <g id="patch_6">
    <path d="M 50.121875 8.608928 
L 384.921875 8.608928 
" style="fill: none; stroke: #000000; stroke-width: 0.8; stroke-linejoin: miter; stroke-linecap: square"/>
   </g>
   <g id="legend_1">
    <g id="patch_7">
     <path d="M 58.521875 103.043303 
L 147.23375 103.043303 
Q 149.63375 103.043303 149.63375 100.643303 
L 149.63375 17.008928 
Q 149.63375 14.608928 147.23375 14.608928 
L 58.521875 14.608928 
Q 56.121875 14.608928 56.121875 17.008928 
L 56.121875 100.643303 
Q 56.121875 103.043303 58.521875 103.043303 
z
" style="fill: #ffffff; opacity: 0.8; stroke: #cccccc; stroke-linejoin: miter"/>
    </g>
    <g id="line2d_36">
     <path d="M 60.921875 23.608928 
L 72.921875 23.608928 
L 84.921875 23.608928 
" style="fill: none; stroke: #213c51; stroke-width: 2; stroke-linecap: square"/>
     <g>
      <use xlink:href="#m5d61606f3f" x="72.921875" y="23.608928" style="fill: #213c51; stroke: #213c51"/>
     </g>
    </g>
    <g id="text_18">
     <text style="font: 12px 'Times New Roman', 'Times', serif; text-anchor: start" x="94.521875" y="27.808928" transform="rotate(-0 94.521875 27.808928)">10% Error</text>
    </g>
    <g id="line2d_37">
     <path d="M 60.921875 40.575803 
L 72.921875 40.575803 
L 84.921875 40.575803 
" style="fill: none; stroke: #6594b1; stroke-width: 2; stroke-linecap: square"/>
     <g>
      <use xlink:href="#m8011084c8f" x="72.921875" y="40.575803" style="fill: #6594b1; stroke: #6594b1"/>
     </g>
    </g>
    <g id="text_19">
     <text style="font: 12px 'Times New Roman', 'Times', serif; text-anchor: start" x="94.521875" y="44.775803" transform="rotate(-0 94.521875 44.775803)">20% Error</text>
    </g>
    <g id="line2d_38">
     <path d="M 60.921875 57.542678 
L 72.921875 57.542678 
L 84.921875 57.542678 
" style="fill: none; stroke: #ddaed3; stroke-width: 2; stroke-linecap: square"/>
     <g>
      <use xlink:href="#m4364d83694" x="72.921875" y="57.542678" style="fill: #ddaed3; stroke: #ddaed3"/>
     </g>
    </g>
    <g id="text_20">
     <text style="font: 12px 'Times New Roman', 'Times', serif; text-anchor: start" x="94.521875" y="61.742678" transform="rotate(-0 94.521875 61.742678)">30% Error</text>
    </g>
    <g id="line2d_39">
     <path d="M 60.921875 74.509553 
L 72.921875 74.509553 
L 84.921875 74.509553 
" style="fill: none; stroke: #d02752; stroke-width: 2; stroke-linecap: square"/>
     <g>
      <use xlink:href="#m8e2fb69475" x="72.921875" y="74.509553" style="fill: #d02752; stroke: #d02752"/>
     </g>
    </g>
    <g id="text_21">
     <text style="font: 12px 'Times New Roman', 'Times', serif; text-anchor: start" x="94.521875" y="78.709553" transform="rotate(-0 94.521875 78.709553)">40% Error</text>
    </g>
    <g id="line2d_40">
     <path d="M 60.921875 91.476428 
L 72.921875 91.476428 
L 84.921875 91.476428 
" style="fill: none; stroke: #213c51; stroke-width: 2; stroke-linecap: square"/>
     <g>
      <use xlink:href="#m5d61606f3f" x="72.921875" y="91.476428" style="fill: #213c51; stroke: #213c51"/>
     </g>
    </g>
    <g id="text_22">
     <text style="font: 12px 'Times New Roman', 'Times', serif; text-anchor: start" x="94.521875" y="95.676428" transform="rotate(-0 94.521875 95.676428)">50% Error</text>
    </g>
   </g>
  </g>
 </g>
 <defs>
  <clipPath id="p097384471d">
   <rect x="50.121875" y="8.608928" width="334.8" height="221.76"/>
  </clipPath>
 </defs>
</svg>
