<?xml version="1.0" encoding="utf-8" standalone="no"?>
<!DOCTYPE svg PUBLIC "-//W3C//DTD SVG 1.1//EN"
  "http://www.w3.org/Graphics/SVG/1.1/DTD/svg11.dtd">
<svg xmlns:xlink="http://www.w3.org/1999/xlink" width="392.121875pt" height="268.95875pt" viewBox="0 0 392.121875 268.95875" xmlns="http://www.w3.org/2000/svg" version="1.1">
 <metadata>
  <rdf:RDF xmlns:dc="http://purl.org/dc/elements/1.1/" xmlns:cc="http://creativecommons.org/ns#" xmlns:rdf="http://www.w3.org/1999/02/22-rdf-syntax-ns#">
   <cc:Work>
    <dc:type rdf:resource="http://purl.org/dc/dcmitype/StillImage"/>
    <dc:date>2026-02-03T15:21:44.799375</dc:date>
    <dc:format>image/svg+xml</dc:format>
    <dc:creator>
     <cc:Agent>
      <dc:title>Matplotlib v3.9.2, https://matplotlib.org/</dc:title>
     </cc:Agent>
    </dc:creator>
   </cc:Work>
  </rdf:RDF>
 </metadata>
 <defs>
  <style type="text/css">*{stroke-linejoin: round; stroke-linecap: butt}</style>
 </defs>
 <g id="figure_1">
  <g id="patch_1">
   <path d="M -0 268.95875 
L 392.121875 268.95875 
L 392.121875 0 
L -0 0 
z
" style="fill: #ffffff"/>
  </g>
  <g id="axes_1">
   <g id="patch_2">
    <path d="M 50.121875 228.96 
L 384.921875 228.96 
L 384.921875 7.2 
L 50.121875 7.2 
z
" style="fill: #ffffff"/>
   </g>
   <g id="matplotlib.axis_1">
    <g id="xtick_1">
     <g id="line2d_1">
      <path d="M 65.340057 228.96 
L 65.340057 7.2 
" clip-path="url(#pf2116b9f69)" style="fill: none; stroke: #b0b0b0; stroke-opacity: 0.3; stroke-width: 0.8; stroke-linecap: square"/>
     </g>
     <g id="line2d_2">
      <defs>
       <path id="mc60bb01296" d="M 0 0 
L 0 3.5 
" style="stroke: #000000; stroke-width: 0.8"/>
      </defs>
      <g>
       <use xlink:href="#mc60bb01296" x="65.340057" y="228.96" style="stroke: #000000; stroke-width: 0.8"/>
      </g>
     </g>
     <g id="text_1">
      <text style="font: 12px 'Times New Roman', 'Times', serif; text-anchor: middle" x="65.340057" y="244.2925" transform="rotate(-0 65.340057 244.2925)">5.0</text>
     </g>
    </g>
    <g id="xtick_2">
     <g id="line2d_3">
      <path d="M 103.385511 228.96 
L 103.385511 7.2 
" clip-path="url(#pf2116b9f69)" style="fill: none; stroke: #b0b0b0; stroke-opacity: 0.3; stroke-width: 0.8; stroke-linecap: square"/>
     </g>
     <g id="line2d_4">
      <g>
       <use xlink:href="#mc60bb01296" x="103.385511" y="228.96" style="stroke: #000000; stroke-width: 0.8"/>
      </g>
     </g>
     <g id="text_2">
      <text style="font: 12px 'Times New Roman', 'Times', serif; text-anchor: middle" x="103.385511" y="244.2925" transform="rotate(-0 103.385511 244.2925)">7.5</text>
     </g>
    </g>
    <g id="xtick_3">
     <g id="line2d_5">
      <path d="M 141.430966 228.96 
L 141.430966 7.2 
" clip-path="url(#pf2116b9f69)" style="fill: none; stroke: #b0b0b0; stroke-opacity: 0.3; stroke-width: 0.8; stroke-linecap: square"/>
     </g>
     <g id="line2d_6">
      <g>
       <use xlink:href="#mc60bb01296" x="141.430966" y="228.96" style="stroke: #000000; stroke-width: 0.8"/>
      </g>
     </g>
     <g id="text_3">
      <text style="font: 12px 'Times New Roman', 'Times', serif; text-anchor: middle" x="141.430966" y="244.2925" transform="rotate(-0 141.430966 244.2925)">10.0</text>
     </g>
    </g>
    <g id="xtick_4">
     <g id="line2d_7">
      <path d="M 179.47642 228.96 
L 179.47642 7.2 
" clip-path="url(#pf2116b9f69)" style="fill: none; stroke: #b0b0b0; stroke-opacity: 0.3; stroke-width: 0.8; stroke-linecap: square"/>
     </g>
     <g id="line2d_8">
      <g>
       <use xlink:href="#mc60bb01296" x="179.47642" y="228.96" style="stroke: #000000; stroke-width: 0.8"/>
      </g>
     </g>
     <g id="text_4">
      <text style="font: 12px 'Times New Roman', 'Times', serif; text-anchor: middle" x="179.47642" y="244.2925" transform="rotate(-0 179.47642 244.2925)">12.5</text>
     </g>
    </g>
    <g id="xtick_5">
     <g id="line2d_9">
      <path d="M 217.521875 228.96 
L 217.521875 7.2 
" clip-path="url(#pf2116b9f69)" style="fill: none; stroke: #b0b0b0; stroke-opacity: 0.3; stroke-width: 0.8; stroke-linecap: square"/>
     </g>
     <g id="line2d_10">
      <g>
       <use xlink:href="#mc60bb01296" x="217.521875" y="228.96" style="stroke: #000000; stroke-width: 0.8"/>
      </g>
     </g>
     <g id="text_5">
      <text style="font: 12px 'Times New Roman', 'Times', serif; text-anchor: middle" x="217.521875" y="244.2925" transform="rotate(-0 217.521875 244.2925)">15.0</text>
     </g>
    </g>
    <g id="xtick_6">
     <g id="line2d_11">
      <path d="M 255.56733 228.96 
L 255.56733 7.2 
" clip-path="url(#pf2116b9f69)" style="fill: none; stroke: #b0b0b0; stroke-opacity: 0.3; stroke-width: 0.8; stroke-linecap: square"/>
     </g>
     <g id="line2d_12">
      <g>
       <use xlink:href="#mc60bb01296" x="255.56733" y="228.96" style="stroke: #000000; stroke-width: 0.8"/>
      </g>
     </g>
     <g id="text_6">
      <text style="font: 12px 'Times New Roman', 'Times', serif; text-anchor: middle" x="255.56733" y="244.2925" transform="rotate(-0 255.56733 244.2925)">17.5</text>
     </g>
    </g>
    <g id="xtick_7">
     <g id="line2d_13">
      <path d="M 293.612784 228.96 
L 293.612784 7.2 
" clip-path="url(#pf2116b9f69)" style="fill: none; stroke: #b0b0b0; stroke-opacity: 0.3; stroke-width: 0.8; stroke-linecap: square"/>
     </g>
     <g id="line2d_14">
      <g>
       <use xlink:href="#mc60bb01296" x="293.612784" y="228.96" style="stroke: #000000; stroke-width: 0.8"/>
      </g>
     </g>
     <g id="text_7">
      <text style="font: 12px 'Times New Roman', 'Times', serif; text-anchor: middle" x="293.612784" y="244.2925" transform="rotate(-0 293.612784 244.2925)">20.0</text>
     </g>
    </g>
    <g id="xtick_8">
     <g id="line2d_15">
      <path d="M 331.658239 228.96 
L 331.658239 7.2 
" clip-path="url(#pf2116b9f69)" style="fill: none; stroke: #b0b0b0; stroke-opacity: 0.3; stroke-width: 0.8; stroke-linecap: square"/>
     </g>
     <g id="line2d_16">
      <g>
       <use xlink:href="#mc60bb01296" x="331.658239" y="228.96" style="stroke: #000000; stroke-width: 0.8"/>
      </g>
     </g>
     <g id="text_8">
      <text style="font: 12px 'Times New Roman', 'Times', serif; text-anchor: middle" x="331.658239" y="244.2925" transform="rotate(-0 331.658239 244.2925)">22.5</text>
     </g>
    </g>
    <g id="xtick_9">
     <g id="line2d_17">
      <path d="M 369.703693 228.96 
L 369.703693 7.2 
" clip-path="url(#pf2116b9f69)" style="fill: none; stroke: #b0b0b0; stroke-opacity: 0.3; stroke-width: 0.8; stroke-linecap: square"/>
     </g>
     <g id="line2d_18">
      <g>
       <use xlink:href="#mc60bb01296" x="369.703693" y="228.96" style="stroke: #000000; stroke-width: 0.8"/>
      </g>
     </g>
     <g id="text_9">
      <text style="font: 12px 'Times New Roman', 'Times', serif; text-anchor: middle" x="369.703693" y="244.2925" transform="rotate(-0 369.703693 244.2925)">25.0</text>
     </g>
    </g>
    <g id="text_10">
     <text style="font: 12px 'Times New Roman', 'Times', serif; text-anchor: middle" x="217.521875" y="259.191875" transform="rotate(-0 217.521875 259.191875)">Fetal Depth (mm)</text>
    </g>
   </g>
   <g id="matplotlib.axis_2">
    <g id="ytick_1">
     <g id="line2d_19">
      <path d="M 50.121875 225.044245 
L 384.921875 225.044245 
" clip-path="url(#pf2116b9f69)" style="fill: none; stroke: #b0b0b0; stroke-opacity: 0.3; stroke-width: 0.8; stroke-linecap: square"/>
     </g>
     <g id="line2d_20">
      <defs>
       <path id="m6b9d59a606" d="M 0 0 
L -3.5 0 
" style="stroke: #000000; stroke-width: 0.8"/>
      </defs>
      <g>
       <use xlink:href="#m6b9d59a606" x="50.121875" y="225.044245" style="stroke: #000000; stroke-width: 0.8"/>
      </g>
     </g>
     <g id="text_11">
      <text style="font: 12px 'Times New Roman', 'Times', serif; text-anchor: end" x="43.121875" y="229.210495" transform="rotate(-0 43.121875 229.210495)">0.59</text>
     </g>
    </g>
    <g id="ytick_2">
     <g id="line2d_21">
      <path d="M 50.121875 183.469054 
L 384.921875 183.469054 
" clip-path="url(#pf2116b9f69)" style="fill: none; stroke: #b0b0b0; stroke-opacity: 0.3; stroke-width: 0.8; stroke-linecap: square"/>
     </g>
     <g id="line2d_22">
      <g>
       <use xlink:href="#m6b9d59a606" x="50.121875" y="183.469054" style="stroke: #000000; stroke-width: 0.8"/>
      </g>
     </g>
     <g id="text_12">
      <text style="font: 12px 'Times New Roman', 'Times', serif; text-anchor: end" x="43.121875" y="187.635304" transform="rotate(-0 43.121875 187.635304)">0.60</text>
     </g>
    </g>
    <g id="ytick_3">
     <g id="line2d_23">
      <path d="M 50.121875 141.893864 
L 384.921875 141.893864 
" clip-path="url(#pf2116b9f69)" style="fill: none; stroke: #b0b0b0; stroke-opacity: 0.3; stroke-width: 0.8; stroke-linecap: square"/>
     </g>
     <g id="line2d_24">
      <g>
       <use xlink:href="#m6b9d59a606" x="50.121875" y="141.893864" style="stroke: #000000; stroke-width: 0.8"/>
      </g>
     </g>
     <g id="text_13">
      <text style="font: 12px 'Times New Roman', 'Times', serif; text-anchor: end" x="43.121875" y="146.060114" transform="rotate(-0 43.121875 146.060114)">0.61</text>
     </g>
    </g>
    <g id="ytick_4">
     <g id="line2d_25">
      <path d="M 50.121875 100.318673 
L 384.921875 100.318673 
" clip-path="url(#pf2116b9f69)" style="fill: none; stroke: #b0b0b0; stroke-opacity: 0.3; stroke-width: 0.8; stroke-linecap: square"/>
     </g>
     <g id="line2d_26">
      <g>
       <use xlink:href="#m6b9d59a606" x="50.121875" y="100.318673" style="stroke: #000000; stroke-width: 0.8"/>
      </g>
     </g>
     <g id="text_14">
      <text style="font: 12px 'Times New Roman', 'Times', serif; text-anchor: end" x="43.121875" y="104.484923" transform="rotate(-0 43.121875 104.484923)">0.62</text>
     </g>
    </g>
    <g id="ytick_5">
     <g id="line2d_27">
      <path d="M 50.121875 58.743483 
L 384.921875 58.743483 
" clip-path="url(#pf2116b9f69)" style="fill: none; stroke: #b0b0b0; stroke-opacity: 0.3; stroke-width: 0.8; stroke-linecap: square"/>
     </g>
     <g id="line2d_28">
      <g>
       <use xlink:href="#m6b9d59a606" x="50.121875" y="58.743483" style="stroke: #000000; stroke-width: 0.8"/>
      </g>
     </g>
     <g id="text_15">
      <text style="font: 12px 'Times New Roman', 'Times', serif; text-anchor: end" x="43.121875" y="62.909733" transform="rotate(-0 43.121875 62.909733)">0.63</text>
     </g>
    </g>
    <g id="ytick_6">
     <g id="line2d_29">
      <path d="M 50.121875 17.168292 
L 384.921875 17.168292 
" clip-path="url(#pf2116b9f69)" style="fill: none; stroke: #b0b0b0; stroke-opacity: 0.3; stroke-width: 0.8; stroke-linecap: square"/>
     </g>
     <g id="line2d_30">
      <g>
       <use xlink:href="#m6b9d59a606" x="50.121875" y="17.168292" style="stroke: #000000; stroke-width: 0.8"/>
      </g>
     </g>
     <g id="text_16">
      <text style="font: 12px 'Times New Roman', 'Times', serif; text-anchor: end" x="43.121875" y="21.334542" transform="rotate(-0 43.121875 21.334542)">0.64</text>
     </g>
    </g>
    <g id="text_17">
     <text style="font: 12px 'Times New Roman', 'Times', serif; text-anchor: middle" x="15.5325" y="118.08" transform="rotate(-90 15.5325 118.08)">Figure of Merit</text>
    </g>
   </g>
   <g id="line2d_31">
    <path d="M 65.340057 214.843251 
L 141.430966 209.659465 
L 217.521875 80.086527 
L 293.612784 133.409886 
L 369.703693 23.629051 
" clip-path="url(#pf2116b9f69)" style="fill: none; stroke: #213c51; stroke-width: 2; stroke-linecap: square"/>
    <defs>
     <path id="m5be9d1b79f" d="M 0 4 
C 1.060812 4 2.078319 3.578535 2.828427 2.828427 
C 3.578535 2.078319 4 1.060812 4 0 
C 4 -1.060812 3.578535 -2.078319 2.828427 -2.828427 
C 2.078319 -3.578535 1.060812 -4 0 -4 
C -1.060812 -4 -2.078319 -3.578535 -2.828427 -2.828427 
C -3.578535 -2.078319 -4 -1.060812 -4 0 
C -4 1.060812 -3.578535 2.078319 -2.828427 2.828427 
C -2.078319 3.578535 -1.060812 4 0 4 
z
" style="stroke: #213c51"/>
    </defs>
    <g clip-path="url(#pf2116b9f69)">
     <use xlink:href="#m5be9d1b79f" x="65.340057" y="214.843251" style="fill: #213c51; stroke: #213c51"/>
     <use xlink:href="#m5be9d1b79f" x="141.430966" y="209.659465" style="fill: #213c51; stroke: #213c51"/>
     <use xlink:href="#m5be9d1b79f" x="217.521875" y="80.086527" style="fill: #213c51; stroke: #213c51"/>
     <use xlink:href="#m5be9d1b79f" x="293.612784" y="133.409886" style="fill: #213c51; stroke: #213c51"/>
     <use xlink:href="#m5be9d1b79f" x="369.703693" y="23.629051" style="fill: #213c51; stroke: #213c51"/>
    </g>
   </g>
   <g id="line2d_32">
    <path d="M 65.340057 218.88 
L 141.430966 202.754869 
L 217.521875 83.97023 
L 293.612784 139.421491 
L 369.703693 23.581324 
" clip-path="url(#pf2116b9f69)" style="fill: none; stroke: #6594b1; stroke-width: 2; stroke-linecap: square"/>
    <defs>
     <path id="m63c3156f22" d="M 0 4 
C 1.060812 4 2.078319 3.578535 2.828427 2.828427 
C 3.578535 2.078319 4 1.060812 4 0 
C 4 -1.060812 3.578535 -2.078319 2.828427 -2.828427 
C 2.078319 -3.578535 1.060812 -4 0 -4 
C -1.060812 -4 -2.078319 -3.578535 -2.828427 -2.828427 
C -3.578535 -2.078319 -4 -1.060812 -4 0 
C -4 1.060812 -3.578535 2.078319 -2.828427 2.828427 
C -2.078319 3.578535 -1.060812 4 0 4 
z
" style="stroke: #6594b1"/>
    </defs>
    <g clip-path="url(#pf2116b9f69)">
     <use xlink:href="#m63c3156f22" x="65.340057" y="218.88" style="fill: #6594b1; stroke: #6594b1"/>
     <use xlink:href="#m63c3156f22" x="141.430966" y="202.754869" style="fill: #6594b1; stroke: #6594b1"/>
     <use xlink:href="#m63c3156f22" x="217.521875" y="83.97023" style="fill: #6594b1; stroke: #6594b1"/>
     <use xlink:href="#m63c3156f22" x="293.612784" y="139.421491" style="fill: #6594b1; stroke: #6594b1"/>
     <use xlink:href="#m63c3156f22" x="369.703693" y="23.581324" style="fill: #6594b1; stroke: #6594b1"/>
    </g>
   </g>
   <g id="line2d_33">
    <path d="M 65.340057 211.531315 
L 141.430966 206.895166 
L 217.521875 83.96495 
L 293.612784 139.410881 
L 369.703693 23.564719 
" clip-path="url(#pf2116b9f69)" style="fill: none; stroke: #ddaed3; stroke-width: 2; stroke-linecap: square"/>
    <defs>
     <path id="mfc30967bf3" d="M 0 4 
C 1.060812 4 2.078319 3.578535 2.828427 2.828427 
C 3.578535 2.078319 4 1.060812 4 0 
C 4 -1.060812 3.578535 -2.078319 2.828427 -2.828427 
C 2.078319 -3.578535 1.060812 -4 0 -4 
C -1.060812 -4 -2.078319 -3.578535 -2.828427 -2.828427 
C -3.578535 -2.078319 -4 -1.060812 -4 0 
C -4 1.060812 -3.578535 2.078319 -2.828427 2.828427 
C -2.078319 3.578535 -1.060812 4 0 4 
z
" style="stroke: #ddaed3"/>
    </defs>
    <g clip-path="url(#pf2116b9f69)">
     <use xlink:href="#mfc30967bf3" x="65.340057" y="211.531315" style="fill: #ddaed3; stroke: #ddaed3"/>
     <use xlink:href="#mfc30967bf3" x="141.430966" y="206.895166" style="fill: #ddaed3; stroke: #ddaed3"/>
     <use xlink:href="#mfc30967bf3" x="217.521875" y="83.96495" style="fill: #ddaed3; stroke: #ddaed3"/>
     <use xlink:href="#mfc30967bf3" x="293.612784" y="139.410881" style="fill: #ddaed3; stroke: #ddaed3"/>
     <use xlink:href="#mfc30967bf3" x="369.703693" y="23.564719" style="fill: #ddaed3; stroke: #ddaed3"/>
    </g>
   </g>
   <g id="line2d_34">
    <path d="M 65.340057 206.02739 
L 141.430966 209.129957 
L 217.521875 83.935331 
L 293.612784 139.368565 
L 369.703693 18.649482 
" clip-path="url(#pf2116b9f69)" style="fill: none; stroke: #d02752; stroke-width: 2; stroke-linecap: square"/>
    <defs>
     <path id="m1823bd1cd8" d="M 0 4 
C 1.060812 4 2.078319 3.578535 2.828427 2.828427 
C 3.578535 2.078319 4 1.060812 4 0 
C 4 -1.060812 3.578535 -2.078319 2.828427 -2.828427 
C 2.078319 -3.578535 1.060812 -4 0 -4 
C -1.060812 -4 -2.078319 -3.578535 -2.828427 -2.828427 
C -3.578535 -2.078319 -4 -1.060812 -4 0 
C -4 1.060812 -3.578535 2.078319 -2.828427 2.828427 
C -2.078319 3.578535 -1.060812 4 0 4 
z
" style="stroke: #d02752"/>
    </defs>
    <g clip-path="url(#pf2116b9f69)">
     <use xlink:href="#m1823bd1cd8" x="65.340057" y="206.02739" style="fill: #d02752; stroke: #d02752"/>
     <use xlink:href="#m1823bd1cd8" x="141.430966" y="209.129957" style="fill: #d02752; stroke: #d02752"/>
     <use xlink:href="#m1823bd1cd8" x="217.521875" y="83.935331" style="fill: #d02752; stroke: #d02752"/>
     <use xlink:href="#m1823bd1cd8" x="293.612784" y="139.368565" style="fill: #d02752; stroke: #d02752"/>
     <use xlink:href="#m1823bd1cd8" x="369.703693" y="18.649482" style="fill: #d02752; stroke: #d02752"/>
    </g>
   </g>
   <g id="line2d_35">
    <path d="M 65.340057 209.735035 
L 141.430966 209.169068 
L 217.521875 83.948057 
L 293.612784 139.384969 
L 369.703693 17.28 
" clip-path="url(#pf2116b9f69)" style="fill: none; stroke: #213c51; stroke-width: 2; stroke-linecap: square"/>
    <g clip-path="url(#pf2116b9f69)">
     <use xlink:href="#m5be9d1b79f" x="65.340057" y="209.735035" style="fill: #213c51; stroke: #213c51"/>
     <use xlink:href="#m5be9d1b79f" x="141.430966" y="209.169068" style="fill: #213c51; stroke: #213c51"/>
     <use xlink:href="#m5be9d1b79f" x="217.521875" y="83.948057" style="fill: #213c51; stroke: #213c51"/>
     <use xlink:href="#m5be9d1b79f" x="293.612784" y="139.384969" style="fill: #213c51; stroke: #213c51"/>
     <use xlink:href="#m5be9d1b79f" x="369.703693" y="17.28" style="fill: #213c51; stroke: #213c51"/>
    </g>
   </g>
   <g id="patch_3">
    <path d="M 50.121875 228.96 
L 50.121875 7.2 
" style="fill: none; stroke: #000000; stroke-width: 0.8; stroke-linejoin: miter; stroke-linecap: square"/>
   </g>
   <g id="patch_4">
    <path d="M 384.921875 228.96 
L 384.921875 7.2 
" style="fill: none; stroke: #000000; stroke-width: 0.8; stroke-linejoin: miter; stroke-linecap: square"/>
   </g>
   <g id="patch_5">
    <path d="M 50.121875 228.96 
L 384.921875 228.96 
" style="fill: none; stroke: #000000; stroke-width: 0.8; stroke-linejoin: miter; stroke-linecap: square"/>
   </g>
   <g id="patch_6">
    <path d="M 50.121875 7.2 
L 384.921875 7.2 
" style="fill: none; stroke: #000000; stroke-width: 0.8; stroke-linejoin: miter; stroke-linecap: square"/>
   </g>
   <g id="legend_1">
    <g id="patch_7">
     <path d="M 58.521875 101.634375 
L 147.23375 101.634375 
Q 149.63375 101.634375 149.63375 99.234375 
L 149.63375 15.6 
Q 149.63375 13.2 147.23375 13.2 
L 58.521875 13.2 
Q 56.121875 13.2 56.121875 15.6 
L 56.121875 99.234375 
Q 56.121875 101.634375 58.521875 101.634375 
z
" style="fill: #ffffff; opacity: 0.8; stroke: #cccccc; stroke-linejoin: miter"/>
    </g>
    <g id="line2d_36">
     <path d="M 60.921875 22.2 
L 72.921875 22.2 
L 84.921875 22.2 
" style="fill: none; stroke: #213c51; stroke-width: 2; stroke-linecap: square"/>
     <g>
      <use xlink:href="#m5be9d1b79f" x="72.921875" y="22.2" style="fill: #213c51; stroke: #213c51"/>
     </g>
    </g>
    <g id="text_18">
     <text style="font: 12px 'Times New Roman', 'Times', serif; text-anchor: start" x="94.521875" y="26.4" transform="rotate(-0 94.521875 26.4)">10% Error</text>
    </g>
    <g id="line2d_37">
     <path d="M 60.921875 39.166875 
L 72.921875 39.166875 
L 84.921875 39.166875 
" style="fill: none; stroke: #6594b1; stroke-width: 2; stroke-linecap: square"/>
     <g>
      <use xlink:href="#m63c3156f22" x="72.921875" y="39.166875" style="fill: #6594b1; stroke: #6594b1"/>
     </g>
    </g>
    <g id="text_19">
     <text style="font: 12px 'Times New Roman', 'Times', serif; text-anchor: start" x="94.521875" y="43.366875" transform="rotate(-0 94.521875 43.366875)">20% Error</text>
    </g>
    <g id="line2d_38">
     <path d="M 60.921875 56.13375 
L 72.921875 56.13375 
L 84.921875 56.13375 
" style="fill: none; stroke: #ddaed3; stroke-width: 2; stroke-linecap: square"/>
     <g>
      <use xlink:href="#mfc30967bf3" x="72.921875" y="56.13375" style="fill: #ddaed3; stroke: #ddaed3"/>
     </g>
    </g>
    <g id="text_20">
     <text style="font: 12px 'Times New Roman', 'Times', serif; text-anchor: start" x="94.521875" y="60.33375" transform="rotate(-0 94.521875 60.33375)">30% Error</text>
    </g>
    <g id="line2d_39">
     <path d="M 60.921875 73.100625 
L 72.921875 73.100625 
L 84.921875 73.100625 
" style="fill: none; stroke: #d02752; stroke-width: 2; stroke-linecap: square"/>
     <g>
      <use xlink:href="#m1823bd1cd8" x="72.921875" y="73.100625" style="fill: #d02752; stroke: #d02752"/>
     </g>
    </g>
    <g id="text_21">
     <text style="font: 12px 'Times New Roman', 'Times', serif; text-anchor: start" x="94.521875" y="77.300625" transform="rotate(-0 94.521875 77.300625)">40% Error</text>
    </g>
    <g id="line2d_40">
     <path d="M 60.921875 90.0675 
L 72.921875 90.0675 
L 84.921875 90.0675 
" style="fill: none; stroke: #213c51; stroke-width: 2; stroke-linecap: square"/>
     <g>
      <use xlink:href="#m5be9d1b79f" x="72.921875" y="90.0675" style="fill: #213c51; stroke: #213c51"/>
     </g>
    </g>
    <g id="text_22">
     <text style="font: 12px 'Times New Roman', 'Times', serif; text-anchor: start" x="94.521875" y="94.2675" transform="rotate(-0 94.521875 94.2675)">50% Error</text>
    </g>
   </g>
  </g>
 </g>
 <defs>
  <clipPath id="pf2116b9f69">
   <rect x="50.121875" y="7.2" width="334.8" height="221.76"/>
  </clipPath>
 </defs>
</svg>
