<?xml version="1.0" encoding="utf-8" standalone="no"?>
<!DOCTYPE svg PUBLIC "-//W3C//DTD SVG 1.1//EN"
  "http://www.w3.org/Graphics/SVG/1.1/DTD/svg11.dtd">
<svg xmlns:xlink="http://www.w3.org/1999/xlink" width="410.121875pt" height="269.15066pt" viewBox="0 0 410.121875 269.15066" xmlns="http://www.w3.org/2000/svg" version="1.1">
 <metadata>
  <rdf:RDF xmlns:dc="http://purl.org/dc/elements/1.1/" xmlns:cc="http://creativecommons.org/ns#" xmlns:rdf="http://www.w3.org/1999/02/22-rdf-syntax-ns#">
   <cc:Work>
    <dc:type rdf:resource="http://purl.org/dc/dcmitype/StillImage"/>
    <dc:date>2026-02-09T20:23:39.006109</dc:date>
    <dc:format>image/svg+xml</dc:format>
    <dc:creator>
     <cc:Agent>
      <dc:title>Matplotlib v3.9.2, https://matplotlib.org/</dc:title>
     </cc:Agent>
    </dc:creator>
   </cc:Work>
  </rdf:RDF>
 </metadata>
 <defs>
  <style type="text/css">*{stroke-linejoin: round; stroke-linecap: butt}</style>
 </defs>
 <g id="figure_1">
  <g id="patch_1">
   <path d="M 0 269.15066 
L 410.121875 269.15066 
L 410.121875 0 
L 0 0 
z
" style="fill: #ffffff"/>
  </g>
  <g id="axes_1">
   <g id="patch_2">
    <path d="M 68.121875 229.12941 
L 402.921875 229.12941 
L 402.921875 7.36941 
L 68.121875 7.36941 
z
" style="fill: #ffffff"/>
   </g>
   <g id="matplotlib.axis_1">
    <g id="xtick_1">
     <g id="line2d_1">
      <path d="M 83.340057 229.12941 
L 83.340057 7.36941 
" clip-path="url(#pa037d99732)" style="fill: none; stroke: #b0b0b0; stroke-opacity: 0.3; stroke-width: 0.8; stroke-linecap: square"/>
     </g>
     <g id="line2d_2">
      <defs>
       <path id="m71a8a50cd8" d="M 0 0 
L 0 3.5 
" style="stroke: #000000; stroke-width: 0.8"/>
      </defs>
      <g>
       <use xlink:href="#m71a8a50cd8" x="83.340057" y="229.12941" style="stroke: #000000; stroke-width: 0.8"/>
      </g>
     </g>
     <g id="text_1">
      <text style="font: 12px 'Times New Roman', 'Times', serif; text-anchor: middle" x="83.340057" y="244.46191" transform="rotate(-0 83.340057 244.46191)">5%</text>
     </g>
    </g>
    <g id="xtick_2">
     <g id="line2d_3">
      <path d="M 134.06733 229.12941 
L 134.06733 7.36941 
" clip-path="url(#pa037d99732)" style="fill: none; stroke: #b0b0b0; stroke-opacity: 0.3; stroke-width: 0.8; stroke-linecap: square"/>
     </g>
     <g id="line2d_4">
      <g>
       <use xlink:href="#m71a8a50cd8" x="134.06733" y="229.12941" style="stroke: #000000; stroke-width: 0.8"/>
      </g>
     </g>
     <g id="text_2">
      <text style="font: 12px 'Times New Roman', 'Times', serif; text-anchor: middle" x="134.06733" y="244.46191" transform="rotate(-0 134.06733 244.46191)">10%</text>
     </g>
    </g>
    <g id="xtick_3">
     <g id="line2d_5">
      <path d="M 184.794602 229.12941 
L 184.794602 7.36941 
" clip-path="url(#pa037d99732)" style="fill: none; stroke: #b0b0b0; stroke-opacity: 0.3; stroke-width: 0.8; stroke-linecap: square"/>
     </g>
     <g id="line2d_6">
      <g>
       <use xlink:href="#m71a8a50cd8" x="184.794602" y="229.12941" style="stroke: #000000; stroke-width: 0.8"/>
      </g>
     </g>
     <g id="text_3">
      <text style="font: 12px 'Times New Roman', 'Times', serif; text-anchor: middle" x="184.794602" y="244.46191" transform="rotate(-0 184.794602 244.46191)">15%</text>
     </g>
    </g>
    <g id="xtick_4">
     <g id="line2d_7">
      <path d="M 235.521875 229.12941 
L 235.521875 7.36941 
" clip-path="url(#pa037d99732)" style="fill: none; stroke: #b0b0b0; stroke-opacity: 0.3; stroke-width: 0.8; stroke-linecap: square"/>
     </g>
     <g id="line2d_8">
      <g>
       <use xlink:href="#m71a8a50cd8" x="235.521875" y="229.12941" style="stroke: #000000; stroke-width: 0.8"/>
      </g>
     </g>
     <g id="text_4">
      <text style="font: 12px 'Times New Roman', 'Times', serif; text-anchor: middle" x="235.521875" y="244.46191" transform="rotate(-0 235.521875 244.46191)">20%</text>
     </g>
    </g>
    <g id="xtick_5">
     <g id="line2d_9">
      <path d="M 286.249148 229.12941 
L 286.249148 7.36941 
" clip-path="url(#pa037d99732)" style="fill: none; stroke: #b0b0b0; stroke-opacity: 0.3; stroke-width: 0.8; stroke-linecap: square"/>
     </g>
     <g id="line2d_10">
      <g>
       <use xlink:href="#m71a8a50cd8" x="286.249148" y="229.12941" style="stroke: #000000; stroke-width: 0.8"/>
      </g>
     </g>
     <g id="text_5">
      <text style="font: 12px 'Times New Roman', 'Times', serif; text-anchor: middle" x="286.249148" y="244.46191" transform="rotate(-0 286.249148 244.46191)">25%</text>
     </g>
    </g>
    <g id="xtick_6">
     <g id="line2d_11">
      <path d="M 336.97642 229.12941 
L 336.97642 7.36941 
" clip-path="url(#pa037d99732)" style="fill: none; stroke: #b0b0b0; stroke-opacity: 0.3; stroke-width: 0.8; stroke-linecap: square"/>
     </g>
     <g id="line2d_12">
      <g>
       <use xlink:href="#m71a8a50cd8" x="336.97642" y="229.12941" style="stroke: #000000; stroke-width: 0.8"/>
      </g>
     </g>
     <g id="text_6">
      <text style="font: 12px 'Times New Roman', 'Times', serif; text-anchor: middle" x="336.97642" y="244.46191" transform="rotate(-0 336.97642 244.46191)">30%</text>
     </g>
    </g>
    <g id="xtick_7">
     <g id="line2d_13">
      <path d="M 387.703693 229.12941 
L 387.703693 7.36941 
" clip-path="url(#pa037d99732)" style="fill: none; stroke: #b0b0b0; stroke-opacity: 0.3; stroke-width: 0.8; stroke-linecap: square"/>
     </g>
     <g id="line2d_14">
      <g>
       <use xlink:href="#m71a8a50cd8" x="387.703693" y="229.12941" style="stroke: #000000; stroke-width: 0.8"/>
      </g>
     </g>
     <g id="text_7">
      <text style="font: 12px 'Times New Roman', 'Times', serif; text-anchor: middle" x="387.703693" y="244.46191" transform="rotate(-0 387.703693 244.46191)">35%</text>
     </g>
    </g>
    <g id="text_8">
     <text style="font: 12px 'Times New Roman', 'Times', serif; text-anchor: middle" x="235.521875" y="259.361285" transform="rotate(-0 235.521875 259.361285)">Error Percentage (%)</text>
    </g>
   </g>
   <g id="matplotlib.axis_2">
    <g id="ytick_1">
     <g id="line2d_15">
      <path d="M 68.121875 222.779361 
L 402.921875 222.779361 
" clip-path="url(#pa037d99732)" style="fill: none; stroke: #b0b0b0; stroke-opacity: 0.3; stroke-width: 0.8; stroke-linecap: square"/>
     </g>
     <g id="line2d_16">
      <defs>
       <path id="ma3cd65017e" d="M 0 0 
L -3.5 0 
" style="stroke: #000000; stroke-width: 0.8"/>
      </defs>
      <g>
       <use xlink:href="#ma3cd65017e" x="68.121875" y="222.779361" style="stroke: #000000; stroke-width: 0.8"/>
      </g>
     </g>
     <g id="text_9">
      <text style="font: 12px 'Times New Roman', 'Times', serif; text-anchor: end" x="61.121875" y="226.945611" transform="rotate(-0 61.121875 226.945611)">0.00000</text>
     </g>
    </g>
    <g id="ytick_2">
     <g id="line2d_17">
      <path d="M 68.121875 196.352722 
L 402.921875 196.352722 
" clip-path="url(#pa037d99732)" style="fill: none; stroke: #b0b0b0; stroke-opacity: 0.3; stroke-width: 0.8; stroke-linecap: square"/>
     </g>
     <g id="line2d_18">
      <g>
       <use xlink:href="#ma3cd65017e" x="68.121875" y="196.352722" style="stroke: #000000; stroke-width: 0.8"/>
      </g>
     </g>
     <g id="text_10">
      <text style="font: 12px 'Times New Roman', 'Times', serif; text-anchor: end" x="61.121875" y="200.518972" transform="rotate(-0 61.121875 200.518972)">0.00025</text>
     </g>
    </g>
    <g id="ytick_3">
     <g id="line2d_19">
      <path d="M 68.121875 169.926083 
L 402.921875 169.926083 
" clip-path="url(#pa037d99732)" style="fill: none; stroke: #b0b0b0; stroke-opacity: 0.3; stroke-width: 0.8; stroke-linecap: square"/>
     </g>
     <g id="line2d_20">
      <g>
       <use xlink:href="#ma3cd65017e" x="68.121875" y="169.926083" style="stroke: #000000; stroke-width: 0.8"/>
      </g>
     </g>
     <g id="text_11">
      <text style="font: 12px 'Times New Roman', 'Times', serif; text-anchor: end" x="61.121875" y="174.092333" transform="rotate(-0 61.121875 174.092333)">0.00050</text>
     </g>
    </g>
    <g id="ytick_4">
     <g id="line2d_21">
      <path d="M 68.121875 143.499444 
L 402.921875 143.499444 
" clip-path="url(#pa037d99732)" style="fill: none; stroke: #b0b0b0; stroke-opacity: 0.3; stroke-width: 0.8; stroke-linecap: square"/>
     </g>
     <g id="line2d_22">
      <g>
       <use xlink:href="#ma3cd65017e" x="68.121875" y="143.499444" style="stroke: #000000; stroke-width: 0.8"/>
      </g>
     </g>
     <g id="text_12">
      <text style="font: 12px 'Times New Roman', 'Times', serif; text-anchor: end" x="61.121875" y="147.665694" transform="rotate(-0 61.121875 147.665694)">0.00075</text>
     </g>
    </g>
    <g id="ytick_5">
     <g id="line2d_23">
      <path d="M 68.121875 117.072805 
L 402.921875 117.072805 
" clip-path="url(#pa037d99732)" style="fill: none; stroke: #b0b0b0; stroke-opacity: 0.3; stroke-width: 0.8; stroke-linecap: square"/>
     </g>
     <g id="line2d_24">
      <g>
       <use xlink:href="#ma3cd65017e" x="68.121875" y="117.072805" style="stroke: #000000; stroke-width: 0.8"/>
      </g>
     </g>
     <g id="text_13">
      <text style="font: 12px 'Times New Roman', 'Times', serif; text-anchor: end" x="61.121875" y="121.239055" transform="rotate(-0 61.121875 121.239055)">0.00100</text>
     </g>
    </g>
    <g id="ytick_6">
     <g id="line2d_25">
      <path d="M 68.121875 90.646167 
L 402.921875 90.646167 
" clip-path="url(#pa037d99732)" style="fill: none; stroke: #b0b0b0; stroke-opacity: 0.3; stroke-width: 0.8; stroke-linecap: square"/>
     </g>
     <g id="line2d_26">
      <g>
       <use xlink:href="#ma3cd65017e" x="68.121875" y="90.646167" style="stroke: #000000; stroke-width: 0.8"/>
      </g>
     </g>
     <g id="text_14">
      <text style="font: 12px 'Times New Roman', 'Times', serif; text-anchor: end" x="61.121875" y="94.812417" transform="rotate(-0 61.121875 94.812417)">0.00125</text>
     </g>
    </g>
    <g id="ytick_7">
     <g id="line2d_27">
      <path d="M 68.121875 64.219528 
L 402.921875 64.219528 
" clip-path="url(#pa037d99732)" style="fill: none; stroke: #b0b0b0; stroke-opacity: 0.3; stroke-width: 0.8; stroke-linecap: square"/>
     </g>
     <g id="line2d_28">
      <g>
       <use xlink:href="#ma3cd65017e" x="68.121875" y="64.219528" style="stroke: #000000; stroke-width: 0.8"/>
      </g>
     </g>
     <g id="text_15">
      <text style="font: 12px 'Times New Roman', 'Times', serif; text-anchor: end" x="61.121875" y="68.385778" transform="rotate(-0 61.121875 68.385778)">0.00150</text>
     </g>
    </g>
    <g id="ytick_8">
     <g id="line2d_29">
      <path d="M 68.121875 37.792889 
L 402.921875 37.792889 
" clip-path="url(#pa037d99732)" style="fill: none; stroke: #b0b0b0; stroke-opacity: 0.3; stroke-width: 0.8; stroke-linecap: square"/>
     </g>
     <g id="line2d_30">
      <g>
       <use xlink:href="#ma3cd65017e" x="68.121875" y="37.792889" style="stroke: #000000; stroke-width: 0.8"/>
      </g>
     </g>
     <g id="text_16">
      <text style="font: 12px 'Times New Roman', 'Times', serif; text-anchor: end" x="61.121875" y="41.959139" transform="rotate(-0 61.121875 41.959139)">0.00175</text>
     </g>
    </g>
    <g id="ytick_9">
     <g id="line2d_31">
      <path d="M 68.121875 11.36625 
L 402.921875 11.36625 
" clip-path="url(#pa037d99732)" style="fill: none; stroke: #b0b0b0; stroke-opacity: 0.3; stroke-width: 0.8; stroke-linecap: square"/>
     </g>
     <g id="line2d_32">
      <g>
       <use xlink:href="#ma3cd65017e" x="68.121875" y="11.36625" style="stroke: #000000; stroke-width: 0.8"/>
      </g>
     </g>
     <g id="text_17">
      <text style="font: 12px 'Times New Roman', 'Times', serif; text-anchor: end" x="61.121875" y="15.5325" transform="rotate(-0 61.121875 15.5325)">0.00200</text>
     </g>
    </g>
    <g id="text_18">
     <text style="font: 12px 'Times New Roman', 'Times', serif; text-anchor: middle" x="15.5325" y="118.24941" transform="rotate(-90 15.5325 118.24941)">Figure of Merit</text>
    </g>
   </g>
   <g id="line2d_33">
    <path d="M 83.340057 18.362756 
L 134.06733 17.44941 
L 184.794602 17.700073 
L 235.521875 18.401783 
L 286.249148 18.680796 
L 336.97642 18.509572 
L 387.703693 18.203743 
" clip-path="url(#pa037d99732)" style="fill: none; stroke: #213c51; stroke-width: 2; stroke-linecap: square"/>
    <defs>
     <path id="m75ebec4435" d="M 0 3 
C 0.795609 3 1.55874 2.683901 2.12132 2.12132 
C 2.683901 1.55874 3 0.795609 3 0 
C 3 -0.795609 2.683901 -1.55874 2.12132 -2.12132 
C 1.55874 -2.683901 0.795609 -3 0 -3 
C -0.795609 -3 -1.55874 -2.683901 -2.12132 -2.12132 
C -2.683901 -1.55874 -3 -0.795609 -3 0 
C -3 0.795609 -2.683901 1.55874 -2.12132 2.12132 
C -1.55874 2.683901 -0.795609 3 0 3 
z
" style="stroke: #213c51"/>
    </defs>
    <g clip-path="url(#pa037d99732)">
     <use xlink:href="#m75ebec4435" x="83.340057" y="18.362756" style="fill: #213c51; stroke: #213c51"/>
     <use xlink:href="#m75ebec4435" x="134.06733" y="17.44941" style="fill: #213c51; stroke: #213c51"/>
     <use xlink:href="#m75ebec4435" x="184.794602" y="17.700073" style="fill: #213c51; stroke: #213c51"/>
     <use xlink:href="#m75ebec4435" x="235.521875" y="18.401783" style="fill: #213c51; stroke: #213c51"/>
     <use xlink:href="#m75ebec4435" x="286.249148" y="18.680796" style="fill: #213c51; stroke: #213c51"/>
     <use xlink:href="#m75ebec4435" x="336.97642" y="18.509572" style="fill: #213c51; stroke: #213c51"/>
     <use xlink:href="#m75ebec4435" x="387.703693" y="18.203743" style="fill: #213c51; stroke: #213c51"/>
    </g>
   </g>
   <g id="line2d_34">
    <path d="M 83.340057 20.690483 
L 134.06733 20.690483 
L 184.794602 19.352808 
L 235.521875 19.352808 
L 286.249148 19.352808 
L 336.97642 217.597038 
L 387.703693 217.597038 
" clip-path="url(#pa037d99732)" style="fill: none; stroke: #6594b1; stroke-width: 2; stroke-linecap: square"/>
    <defs>
     <path id="mf27c28dde5" d="M 0 3 
C 0.795609 3 1.55874 2.683901 2.12132 2.12132 
C 2.683901 1.55874 3 0.795609 3 0 
C 3 -0.795609 2.683901 -1.55874 2.12132 -2.12132 
C 1.55874 -2.683901 0.795609 -3 0 -3 
C -0.795609 -3 -1.55874 -2.683901 -2.12132 -2.12132 
C -2.683901 -1.55874 -3 -0.795609 -3 0 
C -3 0.795609 -2.683901 1.55874 -2.12132 2.12132 
C -1.55874 2.683901 -0.795609 3 0 3 
z
" style="stroke: #6594b1"/>
    </defs>
    <g clip-path="url(#pa037d99732)">
     <use xlink:href="#mf27c28dde5" x="83.340057" y="20.690483" style="fill: #6594b1; stroke: #6594b1"/>
     <use xlink:href="#mf27c28dde5" x="134.06733" y="20.690483" style="fill: #6594b1; stroke: #6594b1"/>
     <use xlink:href="#mf27c28dde5" x="184.794602" y="19.352808" style="fill: #6594b1; stroke: #6594b1"/>
     <use xlink:href="#mf27c28dde5" x="235.521875" y="19.352808" style="fill: #6594b1; stroke: #6594b1"/>
     <use xlink:href="#mf27c28dde5" x="286.249148" y="19.352808" style="fill: #6594b1; stroke: #6594b1"/>
     <use xlink:href="#mf27c28dde5" x="336.97642" y="217.597038" style="fill: #6594b1; stroke: #6594b1"/>
     <use xlink:href="#mf27c28dde5" x="387.703693" y="217.597038" style="fill: #6594b1; stroke: #6594b1"/>
    </g>
   </g>
   <g id="line2d_35">
    <path d="M 83.340057 117.176919 
L 134.06733 117.176919 
L 184.794602 205.126747 
L 235.521875 205.126747 
L 286.249148 205.126747 
L 336.97642 205.126747 
L 387.703693 205.126747 
" clip-path="url(#pa037d99732)" style="fill: none; stroke: #ddaed3; stroke-width: 2; stroke-linecap: square"/>
    <defs>
     <path id="m026fc3eb7f" d="M 0 3 
C 0.795609 3 1.55874 2.683901 2.12132 2.12132 
C 2.683901 1.55874 3 0.795609 3 0 
C 3 -0.795609 2.683901 -1.55874 2.12132 -2.12132 
C 1.55874 -2.683901 0.795609 -3 0 -3 
C -0.795609 -3 -1.55874 -2.683901 -2.12132 -2.12132 
C -2.683901 -1.55874 -3 -0.795609 -3 0 
C -3 0.795609 -2.683901 1.55874 -2.12132 2.12132 
C -1.55874 2.683901 -0.795609 3 0 3 
z
" style="stroke: #ddaed3"/>
    </defs>
    <g clip-path="url(#pa037d99732)">
     <use xlink:href="#m026fc3eb7f" x="83.340057" y="117.176919" style="fill: #ddaed3; stroke: #ddaed3"/>
     <use xlink:href="#m026fc3eb7f" x="134.06733" y="117.176919" style="fill: #ddaed3; stroke: #ddaed3"/>
     <use xlink:href="#m026fc3eb7f" x="184.794602" y="205.126747" style="fill: #ddaed3; stroke: #ddaed3"/>
     <use xlink:href="#m026fc3eb7f" x="235.521875" y="205.126747" style="fill: #ddaed3; stroke: #ddaed3"/>
     <use xlink:href="#m026fc3eb7f" x="286.249148" y="205.126747" style="fill: #ddaed3; stroke: #ddaed3"/>
     <use xlink:href="#m026fc3eb7f" x="336.97642" y="205.126747" style="fill: #ddaed3; stroke: #ddaed3"/>
     <use xlink:href="#m026fc3eb7f" x="387.703693" y="205.126747" style="fill: #ddaed3; stroke: #ddaed3"/>
    </g>
   </g>
   <g id="line2d_36">
    <path d="M 83.340057 219.04941 
L 134.06733 219.04941 
L 184.794602 219.04941 
L 235.521875 219.04941 
L 286.249148 219.04941 
L 336.97642 219.04941 
L 387.703693 219.04941 
" clip-path="url(#pa037d99732)" style="fill: none; stroke: #d02752; stroke-width: 2; stroke-linecap: square"/>
    <defs>
     <path id="m7aa481840b" d="M 0 3 
C 0.795609 3 1.55874 2.683901 2.12132 2.12132 
C 2.683901 1.55874 3 0.795609 3 0 
C 3 -0.795609 2.683901 -1.55874 2.12132 -2.12132 
C 1.55874 -2.683901 0.795609 -3 0 -3 
C -0.795609 -3 -1.55874 -2.683901 -2.12132 -2.12132 
C -2.683901 -1.55874 -3 -0.795609 -3 0 
C -3 0.795609 -2.683901 1.55874 -2.12132 2.12132 
C -1.55874 2.683901 -0.795609 3 0 3 
z
" style="stroke: #d02752"/>
    </defs>
    <g clip-path="url(#pa037d99732)">
     <use xlink:href="#m7aa481840b" x="83.340057" y="219.04941" style="fill: #d02752; stroke: #d02752"/>
     <use xlink:href="#m7aa481840b" x="134.06733" y="219.04941" style="fill: #d02752; stroke: #d02752"/>
     <use xlink:href="#m7aa481840b" x="184.794602" y="219.04941" style="fill: #d02752; stroke: #d02752"/>
     <use xlink:href="#m7aa481840b" x="235.521875" y="219.04941" style="fill: #d02752; stroke: #d02752"/>
     <use xlink:href="#m7aa481840b" x="286.249148" y="219.04941" style="fill: #d02752; stroke: #d02752"/>
     <use xlink:href="#m7aa481840b" x="336.97642" y="219.04941" style="fill: #d02752; stroke: #d02752"/>
     <use xlink:href="#m7aa481840b" x="387.703693" y="219.04941" style="fill: #d02752; stroke: #d02752"/>
    </g>
   </g>
   <g id="patch_3">
    <path d="M 68.121875 229.12941 
L 68.121875 7.36941 
" style="fill: none; stroke: #000000; stroke-width: 0.8; stroke-linejoin: miter; stroke-linecap: square"/>
   </g>
   <g id="patch_4">
    <path d="M 402.921875 229.12941 
L 402.921875 7.36941 
" style="fill: none; stroke: #000000; stroke-width: 0.8; stroke-linejoin: miter; stroke-linecap: square"/>
   </g>
   <g id="patch_5">
    <path d="M 68.121875 229.12941 
L 402.921875 229.12941 
" style="fill: none; stroke: #000000; stroke-width: 0.8; stroke-linejoin: miter; stroke-linecap: square"/>
   </g>
   <g id="patch_6">
    <path d="M 68.121875 7.36941 
L 402.921875 7.36941 
" style="fill: none; stroke: #000000; stroke-width: 0.8; stroke-linejoin: miter; stroke-linecap: square"/>
   </g>
   <g id="legend_1">
    <g id="patch_7">
     <path d="M 221.7875 153.98316 
L 394.521875 153.98316 
Q 396.921875 153.98316 396.921875 151.58316 
L 396.921875 84.91566 
Q 396.921875 82.51566 394.521875 82.51566 
L 221.7875 82.51566 
Q 219.3875 82.51566 219.3875 84.91566 
L 219.3875 151.58316 
Q 219.3875 153.98316 221.7875 153.98316 
z
" style="fill: #ffffff; opacity: 0.8; stroke: #cccccc; stroke-linejoin: miter"/>
    </g>
    <g id="line2d_37">
     <path d="M 224.1875 91.51566 
L 236.1875 91.51566 
L 248.1875 91.51566 
" style="fill: none; stroke: #213c51; stroke-width: 2; stroke-linecap: square"/>
     <g>
      <use xlink:href="#m75ebec4435" x="236.1875" y="91.51566" style="fill: #213c51; stroke: #213c51"/>
     </g>
    </g>
    <g id="text_19">
     <text style="font: 12px 'Times New Roman', 'Times', serif; text-anchor: start" x="257.7875" y="95.71566" transform="rotate(-0 257.7875 95.71566)">DIGSS w Comb Separator</text>
    </g>
    <g id="line2d_38">
     <path d="M 224.1875 108.482535 
L 236.1875 108.482535 
L 248.1875 108.482535 
" style="fill: none; stroke: #6594b1; stroke-width: 2; stroke-linecap: square"/>
     <g>
      <use xlink:href="#mf27c28dde5" x="236.1875" y="108.482535" style="fill: #6594b1; stroke: #6594b1"/>
     </g>
    </g>
    <g id="text_20">
     <text style="font: 12px 'Times New Roman', 'Times', serif; text-anchor: start" x="257.7875" y="112.682535" transform="rotate(-0 257.7875 112.682535)">DIGSS w PSAFE Separator</text>
    </g>
    <g id="line2d_39">
     <path d="M 224.1875 125.44941 
L 236.1875 125.44941 
L 248.1875 125.44941 
" style="fill: none; stroke: #ddaed3; stroke-width: 2; stroke-linecap: square"/>
     <g>
      <use xlink:href="#m026fc3eb7f" x="236.1875" y="125.44941" style="fill: #ddaed3; stroke: #ddaed3"/>
     </g>
    </g>
    <g id="text_21">
     <text style="font: 12px 'Times New Roman', 'Times', serif; text-anchor: start" x="257.7875" y="129.64941" transform="rotate(-0 257.7875 129.64941)">Liu Optimizer</text>
    </g>
    <g id="line2d_40">
     <path d="M 224.1875 142.416285 
L 236.1875 142.416285 
L 248.1875 142.416285 
" style="fill: none; stroke: #d02752; stroke-width: 2; stroke-linecap: square"/>
     <g>
      <use xlink:href="#m7aa481840b" x="236.1875" y="142.416285" style="fill: #d02752; stroke: #d02752"/>
     </g>
    </g>
    <g id="text_22">
     <text style="font: 12px 'Times New Roman', 'Times', serif; text-anchor: start" x="257.7875" y="146.616285" transform="rotate(-0 257.7875 146.616285)">CW</text>
    </g>
   </g>
  </g>
 </g>
 <defs>
  <clipPath id="pa037d99732">
   <rect x="68.121875" y="7.36941" width="334.8" height="221.76"/>
  </clipPath>
 </defs>
</svg>
