<?xml version="1.0" encoding="utf-8" standalone="no"?>
<!DOCTYPE svg PUBLIC "-//W3C//DTD SVG 1.1//EN"
  "http://www.w3.org/Graphics/SVG/1.1/DTD/svg11.dtd">
<svg xmlns:xlink="http://www.w3.org/1999/xlink" width="392.121875pt" height="268.98125pt" viewBox="0 0 392.121875 268.98125" xmlns="http://www.w3.org/2000/svg" version="1.1">
 <metadata>
  <rdf:RDF xmlns:dc="http://purl.org/dc/elements/1.1/" xmlns:cc="http://creativecommons.org/ns#" xmlns:rdf="http://www.w3.org/1999/02/22-rdf-syntax-ns#">
   <cc:Work>
    <dc:type rdf:resource="http://purl.org/dc/dcmitype/StillImage"/>
    <dc:date>2026-02-10T07:29:51.587782</dc:date>
    <dc:format>image/svg+xml</dc:format>
    <dc:creator>
     <cc:Agent>
      <dc:title>Matplotlib v3.9.2, https://matplotlib.org/</dc:title>
     </cc:Agent>
    </dc:creator>
   </cc:Work>
  </rdf:RDF>
 </metadata>
 <defs>
  <style type="text/css">*{stroke-linejoin: round; stroke-linecap: butt}</style>
 </defs>
 <g id="figure_1">
  <g id="patch_1">
   <path d="M -0 268.98125 
L 392.121875 268.98125 
L 392.121875 0 
L -0 0 
z
" style="fill: #ffffff"/>
  </g>
  <g id="axes_1">
   <g id="patch_2">
    <path d="M 50.121875 228.96 
L 384.921875 228.96 
L 384.921875 7.2 
L 50.121875 7.2 
z
" style="fill: #ffffff"/>
   </g>
   <g id="matplotlib.axis_1">
    <g id="xtick_1">
     <g id="line2d_1">
      <path d="M 65.340057 228.96 
L 65.340057 7.2 
" clip-path="url(#pddcca4e4fe)" style="fill: none; stroke: #b0b0b0; stroke-opacity: 0.3; stroke-width: 0.8; stroke-linecap: square"/>
     </g>
     <g id="line2d_2">
      <defs>
       <path id="m4eecd5d74f" d="M 0 0 
L 0 3.5 
" style="stroke: #000000; stroke-width: 0.8"/>
      </defs>
      <g>
       <use xlink:href="#m4eecd5d74f" x="65.340057" y="228.96" style="stroke: #000000; stroke-width: 0.8"/>
      </g>
     </g>
     <g id="text_1">
      <text style="font: 12px 'Times New Roman', 'Times', serif; text-anchor: middle" x="65.340057" y="244.2925" transform="rotate(-0 65.340057 244.2925)">5%</text>
     </g>
    </g>
    <g id="xtick_2">
     <g id="line2d_3">
      <path d="M 116.06733 228.96 
L 116.06733 7.2 
" clip-path="url(#pddcca4e4fe)" style="fill: none; stroke: #b0b0b0; stroke-opacity: 0.3; stroke-width: 0.8; stroke-linecap: square"/>
     </g>
     <g id="line2d_4">
      <g>
       <use xlink:href="#m4eecd5d74f" x="116.06733" y="228.96" style="stroke: #000000; stroke-width: 0.8"/>
      </g>
     </g>
     <g id="text_2">
      <text style="font: 12px 'Times New Roman', 'Times', serif; text-anchor: middle" x="116.06733" y="244.2925" transform="rotate(-0 116.06733 244.2925)">10%</text>
     </g>
    </g>
    <g id="xtick_3">
     <g id="line2d_5">
      <path d="M 166.794602 228.96 
L 166.794602 7.2 
" clip-path="url(#pddcca4e4fe)" style="fill: none; stroke: #b0b0b0; stroke-opacity: 0.3; stroke-width: 0.8; stroke-linecap: square"/>
     </g>
     <g id="line2d_6">
      <g>
       <use xlink:href="#m4eecd5d74f" x="166.794602" y="228.96" style="stroke: #000000; stroke-width: 0.8"/>
      </g>
     </g>
     <g id="text_3">
      <text style="font: 12px 'Times New Roman', 'Times', serif; text-anchor: middle" x="166.794602" y="244.2925" transform="rotate(-0 166.794602 244.2925)">15%</text>
     </g>
    </g>
    <g id="xtick_4">
     <g id="line2d_7">
      <path d="M 217.521875 228.96 
L 217.521875 7.2 
" clip-path="url(#pddcca4e4fe)" style="fill: none; stroke: #b0b0b0; stroke-opacity: 0.3; stroke-width: 0.8; stroke-linecap: square"/>
     </g>
     <g id="line2d_8">
      <g>
       <use xlink:href="#m4eecd5d74f" x="217.521875" y="228.96" style="stroke: #000000; stroke-width: 0.8"/>
      </g>
     </g>
     <g id="text_4">
      <text style="font: 12px 'Times New Roman', 'Times', serif; text-anchor: middle" x="217.521875" y="244.2925" transform="rotate(-0 217.521875 244.2925)">20%</text>
     </g>
    </g>
    <g id="xtick_5">
     <g id="line2d_9">
      <path d="M 268.249148 228.96 
L 268.249148 7.2 
" clip-path="url(#pddcca4e4fe)" style="fill: none; stroke: #b0b0b0; stroke-opacity: 0.3; stroke-width: 0.8; stroke-linecap: square"/>
     </g>
     <g id="line2d_10">
      <g>
       <use xlink:href="#m4eecd5d74f" x="268.249148" y="228.96" style="stroke: #000000; stroke-width: 0.8"/>
      </g>
     </g>
     <g id="text_5">
      <text style="font: 12px 'Times New Roman', 'Times', serif; text-anchor: middle" x="268.249148" y="244.2925" transform="rotate(-0 268.249148 244.2925)">25%</text>
     </g>
    </g>
    <g id="xtick_6">
     <g id="line2d_11">
      <path d="M 318.97642 228.96 
L 318.97642 7.2 
" clip-path="url(#pddcca4e4fe)" style="fill: none; stroke: #b0b0b0; stroke-opacity: 0.3; stroke-width: 0.8; stroke-linecap: square"/>
     </g>
     <g id="line2d_12">
      <g>
       <use xlink:href="#m4eecd5d74f" x="318.97642" y="228.96" style="stroke: #000000; stroke-width: 0.8"/>
      </g>
     </g>
     <g id="text_6">
      <text style="font: 12px 'Times New Roman', 'Times', serif; text-anchor: middle" x="318.97642" y="244.2925" transform="rotate(-0 318.97642 244.2925)">30%</text>
     </g>
    </g>
    <g id="xtick_7">
     <g id="line2d_13">
      <path d="M 369.703693 228.96 
L 369.703693 7.2 
" clip-path="url(#pddcca4e4fe)" style="fill: none; stroke: #b0b0b0; stroke-opacity: 0.3; stroke-width: 0.8; stroke-linecap: square"/>
     </g>
     <g id="line2d_14">
      <g>
       <use xlink:href="#m4eecd5d74f" x="369.703693" y="228.96" style="stroke: #000000; stroke-width: 0.8"/>
      </g>
     </g>
     <g id="text_7">
      <text style="font: 12px 'Times New Roman', 'Times', serif; text-anchor: middle" x="369.703693" y="244.2925" transform="rotate(-0 369.703693 244.2925)">35%</text>
     </g>
    </g>
    <g id="text_8">
     <text style="font: 12px 'Times New Roman', 'Times', serif; text-anchor: middle" x="217.521875" y="259.191875" transform="rotate(-0 217.521875 259.191875)">Error Percentage (%)</text>
    </g>
   </g>
   <g id="matplotlib.axis_2">
    <g id="ytick_1">
     <g id="line2d_15">
      <path d="M 50.121875 203.23735 
L 384.921875 203.23735 
" clip-path="url(#pddcca4e4fe)" style="fill: none; stroke: #b0b0b0; stroke-opacity: 0.3; stroke-width: 0.8; stroke-linecap: square"/>
     </g>
     <g id="line2d_16">
      <defs>
       <path id="md0aa8ac0ca" d="M 0 0 
L -3.5 0 
" style="stroke: #000000; stroke-width: 0.8"/>
      </defs>
      <g>
       <use xlink:href="#md0aa8ac0ca" x="50.121875" y="203.23735" style="stroke: #000000; stroke-width: 0.8"/>
      </g>
     </g>
     <g id="text_9">
      <text style="font: 12px 'Times New Roman', 'Times', serif; text-anchor: end" x="43.121875" y="207.4036" transform="rotate(-0 43.121875 207.4036)">0.02</text>
     </g>
    </g>
    <g id="ytick_2">
     <g id="line2d_17">
      <path d="M 50.121875 176.121779 
L 384.921875 176.121779 
" clip-path="url(#pddcca4e4fe)" style="fill: none; stroke: #b0b0b0; stroke-opacity: 0.3; stroke-width: 0.8; stroke-linecap: square"/>
     </g>
     <g id="line2d_18">
      <g>
       <use xlink:href="#md0aa8ac0ca" x="50.121875" y="176.121779" style="stroke: #000000; stroke-width: 0.8"/>
      </g>
     </g>
     <g id="text_10">
      <text style="font: 12px 'Times New Roman', 'Times', serif; text-anchor: end" x="43.121875" y="180.288029" transform="rotate(-0 43.121875 180.288029)">0.04</text>
     </g>
    </g>
    <g id="ytick_3">
     <g id="line2d_19">
      <path d="M 50.121875 149.006207 
L 384.921875 149.006207 
" clip-path="url(#pddcca4e4fe)" style="fill: none; stroke: #b0b0b0; stroke-opacity: 0.3; stroke-width: 0.8; stroke-linecap: square"/>
     </g>
     <g id="line2d_20">
      <g>
       <use xlink:href="#md0aa8ac0ca" x="50.121875" y="149.006207" style="stroke: #000000; stroke-width: 0.8"/>
      </g>
     </g>
     <g id="text_11">
      <text style="font: 12px 'Times New Roman', 'Times', serif; text-anchor: end" x="43.121875" y="153.172457" transform="rotate(-0 43.121875 153.172457)">0.06</text>
     </g>
    </g>
    <g id="ytick_4">
     <g id="line2d_21">
      <path d="M 50.121875 121.890635 
L 384.921875 121.890635 
" clip-path="url(#pddcca4e4fe)" style="fill: none; stroke: #b0b0b0; stroke-opacity: 0.3; stroke-width: 0.8; stroke-linecap: square"/>
     </g>
     <g id="line2d_22">
      <g>
       <use xlink:href="#md0aa8ac0ca" x="50.121875" y="121.890635" style="stroke: #000000; stroke-width: 0.8"/>
      </g>
     </g>
     <g id="text_12">
      <text style="font: 12px 'Times New Roman', 'Times', serif; text-anchor: end" x="43.121875" y="126.056885" transform="rotate(-0 43.121875 126.056885)">0.08</text>
     </g>
    </g>
    <g id="ytick_5">
     <g id="line2d_23">
      <path d="M 50.121875 94.775063 
L 384.921875 94.775063 
" clip-path="url(#pddcca4e4fe)" style="fill: none; stroke: #b0b0b0; stroke-opacity: 0.3; stroke-width: 0.8; stroke-linecap: square"/>
     </g>
     <g id="line2d_24">
      <g>
       <use xlink:href="#md0aa8ac0ca" x="50.121875" y="94.775063" style="stroke: #000000; stroke-width: 0.8"/>
      </g>
     </g>
     <g id="text_13">
      <text style="font: 12px 'Times New Roman', 'Times', serif; text-anchor: end" x="43.121875" y="98.941313" transform="rotate(-0 43.121875 98.941313)">0.10</text>
     </g>
    </g>
    <g id="ytick_6">
     <g id="line2d_25">
      <path d="M 50.121875 67.659491 
L 384.921875 67.659491 
" clip-path="url(#pddcca4e4fe)" style="fill: none; stroke: #b0b0b0; stroke-opacity: 0.3; stroke-width: 0.8; stroke-linecap: square"/>
     </g>
     <g id="line2d_26">
      <g>
       <use xlink:href="#md0aa8ac0ca" x="50.121875" y="67.659491" style="stroke: #000000; stroke-width: 0.8"/>
      </g>
     </g>
     <g id="text_14">
      <text style="font: 12px 'Times New Roman', 'Times', serif; text-anchor: end" x="43.121875" y="71.825741" transform="rotate(-0 43.121875 71.825741)">0.12</text>
     </g>
    </g>
    <g id="ytick_7">
     <g id="line2d_27">
      <path d="M 50.121875 40.54392 
L 384.921875 40.54392 
" clip-path="url(#pddcca4e4fe)" style="fill: none; stroke: #b0b0b0; stroke-opacity: 0.3; stroke-width: 0.8; stroke-linecap: square"/>
     </g>
     <g id="line2d_28">
      <g>
       <use xlink:href="#md0aa8ac0ca" x="50.121875" y="40.54392" style="stroke: #000000; stroke-width: 0.8"/>
      </g>
     </g>
     <g id="text_15">
      <text style="font: 12px 'Times New Roman', 'Times', serif; text-anchor: end" x="43.121875" y="44.71017" transform="rotate(-0 43.121875 44.71017)">0.14</text>
     </g>
    </g>
    <g id="ytick_8">
     <g id="line2d_29">
      <path d="M 50.121875 13.428348 
L 384.921875 13.428348 
" clip-path="url(#pddcca4e4fe)" style="fill: none; stroke: #b0b0b0; stroke-opacity: 0.3; stroke-width: 0.8; stroke-linecap: square"/>
     </g>
     <g id="line2d_30">
      <g>
       <use xlink:href="#md0aa8ac0ca" x="50.121875" y="13.428348" style="stroke: #000000; stroke-width: 0.8"/>
      </g>
     </g>
     <g id="text_16">
      <text style="font: 12px 'Times New Roman', 'Times', serif; text-anchor: end" x="43.121875" y="17.594598" transform="rotate(-0 43.121875 17.594598)">0.16</text>
     </g>
    </g>
    <g id="text_17">
     <text style="font: 12px 'Times New Roman', 'Times', serif; text-anchor: middle" x="15.5325" y="118.08" transform="rotate(-90 15.5325 118.08)">Figure of Merit</text>
    </g>
   </g>
   <g id="line2d_31">
    <path d="M 65.340057 17.28 
L 116.06733 22.570165 
L 166.794602 20.549365 
L 217.521875 20.69543 
L 268.249148 23.147909 
L 318.97642 26.437645 
L 369.703693 28.221835 
" clip-path="url(#pddcca4e4fe)" style="fill: none; stroke: #213c51; stroke-width: 2; stroke-linecap: square"/>
    <defs>
     <path id="mf011db60d0" d="M 0 3 
C 0.795609 3 1.55874 2.683901 2.12132 2.12132 
C 2.683901 1.55874 3 0.795609 3 0 
C 3 -0.795609 2.683901 -1.55874 2.12132 -2.12132 
C 1.55874 -2.683901 0.795609 -3 0 -3 
C -0.795609 -3 -1.55874 -2.683901 -2.12132 -2.12132 
C -2.683901 -1.55874 -3 -0.795609 -3 0 
C -3 0.795609 -2.683901 1.55874 -2.12132 2.12132 
C -1.55874 2.683901 -0.795609 3 0 3 
z
" style="stroke: #213c51"/>
    </defs>
    <g clip-path="url(#pddcca4e4fe)">
     <use xlink:href="#mf011db60d0" x="65.340057" y="17.28" style="fill: #213c51; stroke: #213c51"/>
     <use xlink:href="#mf011db60d0" x="116.06733" y="22.570165" style="fill: #213c51; stroke: #213c51"/>
     <use xlink:href="#mf011db60d0" x="166.794602" y="20.549365" style="fill: #213c51; stroke: #213c51"/>
     <use xlink:href="#mf011db60d0" x="217.521875" y="20.69543" style="fill: #213c51; stroke: #213c51"/>
     <use xlink:href="#mf011db60d0" x="268.249148" y="23.147909" style="fill: #213c51; stroke: #213c51"/>
     <use xlink:href="#mf011db60d0" x="318.97642" y="26.437645" style="fill: #213c51; stroke: #213c51"/>
     <use xlink:href="#mf011db60d0" x="369.703693" y="28.221835" style="fill: #213c51; stroke: #213c51"/>
    </g>
   </g>
   <g id="line2d_32">
    <path d="M 65.340057 154.960012 
L 116.06733 154.960012 
L 166.794602 27.062143 
L 217.521875 27.062143 
L 268.249148 27.062143 
L 318.97642 157.757511 
L 369.703693 157.757511 
" clip-path="url(#pddcca4e4fe)" style="fill: none; stroke: #6594b1; stroke-width: 2; stroke-linecap: square"/>
    <defs>
     <path id="m8ef4799682" d="M 0 3 
C 0.795609 3 1.55874 2.683901 2.12132 2.12132 
C 2.683901 1.55874 3 0.795609 3 0 
C 3 -0.795609 2.683901 -1.55874 2.12132 -2.12132 
C 1.55874 -2.683901 0.795609 -3 0 -3 
C -0.795609 -3 -1.55874 -2.683901 -2.12132 -2.12132 
C -2.683901 -1.55874 -3 -0.795609 -3 0 
C -3 0.795609 -2.683901 1.55874 -2.12132 2.12132 
C -1.55874 2.683901 -0.795609 3 0 3 
z
" style="stroke: #6594b1"/>
    </defs>
    <g clip-path="url(#pddcca4e4fe)">
     <use xlink:href="#m8ef4799682" x="65.340057" y="154.960012" style="fill: #6594b1; stroke: #6594b1"/>
     <use xlink:href="#m8ef4799682" x="116.06733" y="154.960012" style="fill: #6594b1; stroke: #6594b1"/>
     <use xlink:href="#m8ef4799682" x="166.794602" y="27.062143" style="fill: #6594b1; stroke: #6594b1"/>
     <use xlink:href="#m8ef4799682" x="217.521875" y="27.062143" style="fill: #6594b1; stroke: #6594b1"/>
     <use xlink:href="#m8ef4799682" x="268.249148" y="27.062143" style="fill: #6594b1; stroke: #6594b1"/>
     <use xlink:href="#m8ef4799682" x="318.97642" y="157.757511" style="fill: #6594b1; stroke: #6594b1"/>
     <use xlink:href="#m8ef4799682" x="369.703693" y="157.757511" style="fill: #6594b1; stroke: #6594b1"/>
    </g>
   </g>
   <g id="line2d_33">
    <path d="M 65.340057 66.566549 
L 116.06733 66.566549 
L 166.794602 66.566549 
L 217.521875 66.566549 
L 268.249148 66.566549 
L 318.97642 66.566549 
L 369.703693 66.566549 
" clip-path="url(#pddcca4e4fe)" style="fill: none; stroke: #ddaed3; stroke-width: 2; stroke-linecap: square"/>
    <defs>
     <path id="mf65d002e34" d="M 0 3 
C 0.795609 3 1.55874 2.683901 2.12132 2.12132 
C 2.683901 1.55874 3 0.795609 3 0 
C 3 -0.795609 2.683901 -1.55874 2.12132 -2.12132 
C 1.55874 -2.683901 0.795609 -3 0 -3 
C -0.795609 -3 -1.55874 -2.683901 -2.12132 -2.12132 
C -2.683901 -1.55874 -3 -0.795609 -3 0 
C -3 0.795609 -2.683901 1.55874 -2.12132 2.12132 
C -1.55874 2.683901 -0.795609 3 0 3 
z
" style="stroke: #ddaed3"/>
    </defs>
    <g clip-path="url(#pddcca4e4fe)">
     <use xlink:href="#mf65d002e34" x="65.340057" y="66.566549" style="fill: #ddaed3; stroke: #ddaed3"/>
     <use xlink:href="#mf65d002e34" x="116.06733" y="66.566549" style="fill: #ddaed3; stroke: #ddaed3"/>
     <use xlink:href="#mf65d002e34" x="166.794602" y="66.566549" style="fill: #ddaed3; stroke: #ddaed3"/>
     <use xlink:href="#mf65d002e34" x="217.521875" y="66.566549" style="fill: #ddaed3; stroke: #ddaed3"/>
     <use xlink:href="#mf65d002e34" x="268.249148" y="66.566549" style="fill: #ddaed3; stroke: #ddaed3"/>
     <use xlink:href="#mf65d002e34" x="318.97642" y="66.566549" style="fill: #ddaed3; stroke: #ddaed3"/>
     <use xlink:href="#mf65d002e34" x="369.703693" y="66.566549" style="fill: #ddaed3; stroke: #ddaed3"/>
    </g>
   </g>
   <g id="line2d_34">
    <path d="M 65.340057 218.88 
L 116.06733 218.88 
L 166.794602 218.88 
L 217.521875 218.88 
L 268.249148 218.88 
L 318.97642 218.88 
L 369.703693 218.88 
" clip-path="url(#pddcca4e4fe)" style="fill: none; stroke: #d02752; stroke-width: 2; stroke-linecap: square"/>
    <defs>
     <path id="m20af0655e4" d="M 0 3 
C 0.795609 3 1.55874 2.683901 2.12132 2.12132 
C 2.683901 1.55874 3 0.795609 3 0 
C 3 -0.795609 2.683901 -1.55874 2.12132 -2.12132 
C 1.55874 -2.683901 0.795609 -3 0 -3 
C -0.795609 -3 -1.55874 -2.683901 -2.12132 -2.12132 
C -2.683901 -1.55874 -3 -0.795609 -3 0 
C -3 0.795609 -2.683901 1.55874 -2.12132 2.12132 
C -1.55874 2.683901 -0.795609 3 0 3 
z
" style="stroke: #d02752"/>
    </defs>
    <g clip-path="url(#pddcca4e4fe)">
     <use xlink:href="#m20af0655e4" x="65.340057" y="218.88" style="fill: #d02752; stroke: #d02752"/>
     <use xlink:href="#m20af0655e4" x="116.06733" y="218.88" style="fill: #d02752; stroke: #d02752"/>
     <use xlink:href="#m20af0655e4" x="166.794602" y="218.88" style="fill: #d02752; stroke: #d02752"/>
     <use xlink:href="#m20af0655e4" x="217.521875" y="218.88" style="fill: #d02752; stroke: #d02752"/>
     <use xlink:href="#m20af0655e4" x="268.249148" y="218.88" style="fill: #d02752; stroke: #d02752"/>
     <use xlink:href="#m20af0655e4" x="318.97642" y="218.88" style="fill: #d02752; stroke: #d02752"/>
     <use xlink:href="#m20af0655e4" x="369.703693" y="218.88" style="fill: #d02752; stroke: #d02752"/>
    </g>
   </g>
   <g id="patch_3">
    <path d="M 50.121875 228.96 
L 50.121875 7.2 
" style="fill: none; stroke: #000000; stroke-width: 0.8; stroke-linejoin: miter; stroke-linecap: square"/>
   </g>
   <g id="patch_4">
    <path d="M 384.921875 228.96 
L 384.921875 7.2 
" style="fill: none; stroke: #000000; stroke-width: 0.8; stroke-linejoin: miter; stroke-linecap: square"/>
   </g>
   <g id="patch_5">
    <path d="M 50.121875 228.96 
L 384.921875 228.96 
" style="fill: none; stroke: #000000; stroke-width: 0.8; stroke-linejoin: miter; stroke-linecap: square"/>
   </g>
   <g id="patch_6">
    <path d="M 50.121875 7.2 
L 384.921875 7.2 
" style="fill: none; stroke: #000000; stroke-width: 0.8; stroke-linejoin: miter; stroke-linecap: square"/>
   </g>
   <g id="legend_1">
    <g id="patch_7">
     <path d="M 203.7875 153.81375 
L 376.521875 153.81375 
Q 378.921875 153.81375 378.921875 151.41375 
L 378.921875 84.74625 
Q 378.921875 82.34625 376.521875 82.34625 
L 203.7875 82.34625 
Q 201.3875 82.34625 201.3875 84.74625 
L 201.3875 151.41375 
Q 201.3875 153.81375 203.7875 153.81375 
z
" style="fill: #ffffff; opacity: 0.8; stroke: #cccccc; stroke-linejoin: miter"/>
    </g>
    <g id="line2d_35">
     <path d="M 206.1875 91.34625 
L 218.1875 91.34625 
L 230.1875 91.34625 
" style="fill: none; stroke: #213c51; stroke-width: 2; stroke-linecap: square"/>
     <g>
      <use xlink:href="#mf011db60d0" x="218.1875" y="91.34625" style="fill: #213c51; stroke: #213c51"/>
     </g>
    </g>
    <g id="text_18">
     <text style="font: 12px 'Times New Roman', 'Times', serif; text-anchor: start" x="239.7875" y="95.54625" transform="rotate(-0 239.7875 95.54625)">DIGSS w Comb Separator</text>
    </g>
    <g id="line2d_36">
     <path d="M 206.1875 108.313125 
L 218.1875 108.313125 
L 230.1875 108.313125 
" style="fill: none; stroke: #6594b1; stroke-width: 2; stroke-linecap: square"/>
     <g>
      <use xlink:href="#m8ef4799682" x="218.1875" y="108.313125" style="fill: #6594b1; stroke: #6594b1"/>
     </g>
    </g>
    <g id="text_19">
     <text style="font: 12px 'Times New Roman', 'Times', serif; text-anchor: start" x="239.7875" y="112.513125" transform="rotate(-0 239.7875 112.513125)">DIGSS w PSAFE Separator</text>
    </g>
    <g id="line2d_37">
     <path d="M 206.1875 125.28 
L 218.1875 125.28 
L 230.1875 125.28 
" style="fill: none; stroke: #ddaed3; stroke-width: 2; stroke-linecap: square"/>
     <g>
      <use xlink:href="#mf65d002e34" x="218.1875" y="125.28" style="fill: #ddaed3; stroke: #ddaed3"/>
     </g>
    </g>
    <g id="text_20">
     <text style="font: 12px 'Times New Roman', 'Times', serif; text-anchor: start" x="239.7875" y="129.48" transform="rotate(-0 239.7875 129.48)">Liu Optimizer</text>
    </g>
    <g id="line2d_38">
     <path d="M 206.1875 142.246875 
L 218.1875 142.246875 
L 230.1875 142.246875 
" style="fill: none; stroke: #d02752; stroke-width: 2; stroke-linecap: square"/>
     <g>
      <use xlink:href="#m20af0655e4" x="218.1875" y="142.246875" style="fill: #d02752; stroke: #d02752"/>
     </g>
    </g>
    <g id="text_21">
     <text style="font: 12px 'Times New Roman', 'Times', serif; text-anchor: start" x="239.7875" y="146.446875" transform="rotate(-0 239.7875 146.446875)">CW</text>
    </g>
   </g>
  </g>
 </g>
 <defs>
  <clipPath id="pddcca4e4fe">
   <rect x="50.121875" y="7.2" width="334.8" height="221.76"/>
  </clipPath>
 </defs>
</svg>
