<?xml version="1.0" encoding="utf-8" standalone="no"?>
<!DOCTYPE svg PUBLIC "-//W3C//DTD SVG 1.1//EN"
  "http://www.w3.org/Graphics/SVG/1.1/DTD/svg11.dtd">
<svg xmlns:xlink="http://www.w3.org/1999/xlink" width="392.121875pt" height="268.95875pt" viewBox="0 0 392.121875 268.95875" xmlns="http://www.w3.org/2000/svg" version="1.1">
 <metadata>
  <rdf:RDF xmlns:dc="http://purl.org/dc/elements/1.1/" xmlns:cc="http://creativecommons.org/ns#" xmlns:rdf="http://www.w3.org/1999/02/22-rdf-syntax-ns#">
   <cc:Work>
    <dc:type rdf:resource="http://purl.org/dc/dcmitype/StillImage"/>
    <dc:date>2026-02-01T15:28:03.876787</dc:date>
    <dc:format>image/svg+xml</dc:format>
    <dc:creator>
     <cc:Agent>
      <dc:title>Matplotlib v3.9.2, https://matplotlib.org/</dc:title>
     </cc:Agent>
    </dc:creator>
   </cc:Work>
  </rdf:RDF>
 </metadata>
 <defs>
  <style type="text/css">*{stroke-linejoin: round; stroke-linecap: butt}</style>
 </defs>
 <g id="figure_1">
  <g id="patch_1">
   <path d="M -0 268.95875 
L 392.121875 268.95875 
L 392.121875 0 
L -0 0 
z
" style="fill: #ffffff"/>
  </g>
  <g id="axes_1">
   <g id="patch_2">
    <path d="M 50.121875 228.96 
L 384.921875 228.96 
L 384.921875 7.2 
L 50.121875 7.2 
z
" style="fill: #ffffff"/>
   </g>
   <g id="matplotlib.axis_1">
    <g id="xtick_1">
     <g id="line2d_1">
      <path d="M 65.340057 228.96 
L 65.340057 7.2 
" clip-path="url(#pb234b37d59)" style="fill: none; stroke: #b0b0b0; stroke-opacity: 0.3; stroke-width: 0.8; stroke-linecap: square"/>
     </g>
     <g id="line2d_2">
      <defs>
       <path id="ma17bf5e8e3" d="M 0 0 
L 0 3.5 
" style="stroke: #000000; stroke-width: 0.8"/>
      </defs>
      <g>
       <use xlink:href="#ma17bf5e8e3" x="65.340057" y="228.96" style="stroke: #000000; stroke-width: 0.8"/>
      </g>
     </g>
     <g id="text_1">
      <text style="font: 12px 'Times New Roman', 'Times', serif; text-anchor: middle" x="65.340057" y="244.2925" transform="rotate(-0 65.340057 244.2925)">5.0</text>
     </g>
    </g>
    <g id="xtick_2">
     <g id="line2d_3">
      <path d="M 103.385511 228.96 
L 103.385511 7.2 
" clip-path="url(#pb234b37d59)" style="fill: none; stroke: #b0b0b0; stroke-opacity: 0.3; stroke-width: 0.8; stroke-linecap: square"/>
     </g>
     <g id="line2d_4">
      <g>
       <use xlink:href="#ma17bf5e8e3" x="103.385511" y="228.96" style="stroke: #000000; stroke-width: 0.8"/>
      </g>
     </g>
     <g id="text_2">
      <text style="font: 12px 'Times New Roman', 'Times', serif; text-anchor: middle" x="103.385511" y="244.2925" transform="rotate(-0 103.385511 244.2925)">7.5</text>
     </g>
    </g>
    <g id="xtick_3">
     <g id="line2d_5">
      <path d="M 141.430966 228.96 
L 141.430966 7.2 
" clip-path="url(#pb234b37d59)" style="fill: none; stroke: #b0b0b0; stroke-opacity: 0.3; stroke-width: 0.8; stroke-linecap: square"/>
     </g>
     <g id="line2d_6">
      <g>
       <use xlink:href="#ma17bf5e8e3" x="141.430966" y="228.96" style="stroke: #000000; stroke-width: 0.8"/>
      </g>
     </g>
     <g id="text_3">
      <text style="font: 12px 'Times New Roman', 'Times', serif; text-anchor: middle" x="141.430966" y="244.2925" transform="rotate(-0 141.430966 244.2925)">10.0</text>
     </g>
    </g>
    <g id="xtick_4">
     <g id="line2d_7">
      <path d="M 179.47642 228.96 
L 179.47642 7.2 
" clip-path="url(#pb234b37d59)" style="fill: none; stroke: #b0b0b0; stroke-opacity: 0.3; stroke-width: 0.8; stroke-linecap: square"/>
     </g>
     <g id="line2d_8">
      <g>
       <use xlink:href="#ma17bf5e8e3" x="179.47642" y="228.96" style="stroke: #000000; stroke-width: 0.8"/>
      </g>
     </g>
     <g id="text_4">
      <text style="font: 12px 'Times New Roman', 'Times', serif; text-anchor: middle" x="179.47642" y="244.2925" transform="rotate(-0 179.47642 244.2925)">12.5</text>
     </g>
    </g>
    <g id="xtick_5">
     <g id="line2d_9">
      <path d="M 217.521875 228.96 
L 217.521875 7.2 
" clip-path="url(#pb234b37d59)" style="fill: none; stroke: #b0b0b0; stroke-opacity: 0.3; stroke-width: 0.8; stroke-linecap: square"/>
     </g>
     <g id="line2d_10">
      <g>
       <use xlink:href="#ma17bf5e8e3" x="217.521875" y="228.96" style="stroke: #000000; stroke-width: 0.8"/>
      </g>
     </g>
     <g id="text_5">
      <text style="font: 12px 'Times New Roman', 'Times', serif; text-anchor: middle" x="217.521875" y="244.2925" transform="rotate(-0 217.521875 244.2925)">15.0</text>
     </g>
    </g>
    <g id="xtick_6">
     <g id="line2d_11">
      <path d="M 255.56733 228.96 
L 255.56733 7.2 
" clip-path="url(#pb234b37d59)" style="fill: none; stroke: #b0b0b0; stroke-opacity: 0.3; stroke-width: 0.8; stroke-linecap: square"/>
     </g>
     <g id="line2d_12">
      <g>
       <use xlink:href="#ma17bf5e8e3" x="255.56733" y="228.96" style="stroke: #000000; stroke-width: 0.8"/>
      </g>
     </g>
     <g id="text_6">
      <text style="font: 12px 'Times New Roman', 'Times', serif; text-anchor: middle" x="255.56733" y="244.2925" transform="rotate(-0 255.56733 244.2925)">17.5</text>
     </g>
    </g>
    <g id="xtick_7">
     <g id="line2d_13">
      <path d="M 293.612784 228.96 
L 293.612784 7.2 
" clip-path="url(#pb234b37d59)" style="fill: none; stroke: #b0b0b0; stroke-opacity: 0.3; stroke-width: 0.8; stroke-linecap: square"/>
     </g>
     <g id="line2d_14">
      <g>
       <use xlink:href="#ma17bf5e8e3" x="293.612784" y="228.96" style="stroke: #000000; stroke-width: 0.8"/>
      </g>
     </g>
     <g id="text_7">
      <text style="font: 12px 'Times New Roman', 'Times', serif; text-anchor: middle" x="293.612784" y="244.2925" transform="rotate(-0 293.612784 244.2925)">20.0</text>
     </g>
    </g>
    <g id="xtick_8">
     <g id="line2d_15">
      <path d="M 331.658239 228.96 
L 331.658239 7.2 
" clip-path="url(#pb234b37d59)" style="fill: none; stroke: #b0b0b0; stroke-opacity: 0.3; stroke-width: 0.8; stroke-linecap: square"/>
     </g>
     <g id="line2d_16">
      <g>
       <use xlink:href="#ma17bf5e8e3" x="331.658239" y="228.96" style="stroke: #000000; stroke-width: 0.8"/>
      </g>
     </g>
     <g id="text_8">
      <text style="font: 12px 'Times New Roman', 'Times', serif; text-anchor: middle" x="331.658239" y="244.2925" transform="rotate(-0 331.658239 244.2925)">22.5</text>
     </g>
    </g>
    <g id="xtick_9">
     <g id="line2d_17">
      <path d="M 369.703693 228.96 
L 369.703693 7.2 
" clip-path="url(#pb234b37d59)" style="fill: none; stroke: #b0b0b0; stroke-opacity: 0.3; stroke-width: 0.8; stroke-linecap: square"/>
     </g>
     <g id="line2d_18">
      <g>
       <use xlink:href="#ma17bf5e8e3" x="369.703693" y="228.96" style="stroke: #000000; stroke-width: 0.8"/>
      </g>
     </g>
     <g id="text_9">
      <text style="font: 12px 'Times New Roman', 'Times', serif; text-anchor: middle" x="369.703693" y="244.2925" transform="rotate(-0 369.703693 244.2925)">25.0</text>
     </g>
    </g>
    <g id="text_10">
     <text style="font: 12px 'Times New Roman', 'Times', serif; text-anchor: middle" x="217.521875" y="259.191875" transform="rotate(-0 217.521875 259.191875)">Fetal Depth (mm)</text>
    </g>
   </g>
   <g id="matplotlib.axis_2">
    <g id="ytick_1">
     <g id="line2d_19">
      <path d="M 50.121875 221.593677 
L 384.921875 221.593677 
" clip-path="url(#pb234b37d59)" style="fill: none; stroke: #b0b0b0; stroke-opacity: 0.3; stroke-width: 0.8; stroke-linecap: square"/>
     </g>
     <g id="line2d_20">
      <defs>
       <path id="m752e24b710" d="M 0 0 
L -3.5 0 
" style="stroke: #000000; stroke-width: 0.8"/>
      </defs>
      <g>
       <use xlink:href="#m752e24b710" x="50.121875" y="221.593677" style="stroke: #000000; stroke-width: 0.8"/>
      </g>
     </g>
     <g id="text_11">
      <text style="font: 12px 'Times New Roman', 'Times', serif; text-anchor: end" x="43.121875" y="225.759927" transform="rotate(-0 43.121875 225.759927)">0.59</text>
     </g>
    </g>
    <g id="ytick_2">
     <g id="line2d_21">
      <path d="M 50.121875 180.345075 
L 384.921875 180.345075 
" clip-path="url(#pb234b37d59)" style="fill: none; stroke: #b0b0b0; stroke-opacity: 0.3; stroke-width: 0.8; stroke-linecap: square"/>
     </g>
     <g id="line2d_22">
      <g>
       <use xlink:href="#m752e24b710" x="50.121875" y="180.345075" style="stroke: #000000; stroke-width: 0.8"/>
      </g>
     </g>
     <g id="text_12">
      <text style="font: 12px 'Times New Roman', 'Times', serif; text-anchor: end" x="43.121875" y="184.511325" transform="rotate(-0 43.121875 184.511325)">0.60</text>
     </g>
    </g>
    <g id="ytick_3">
     <g id="line2d_23">
      <path d="M 50.121875 139.096473 
L 384.921875 139.096473 
" clip-path="url(#pb234b37d59)" style="fill: none; stroke: #b0b0b0; stroke-opacity: 0.3; stroke-width: 0.8; stroke-linecap: square"/>
     </g>
     <g id="line2d_24">
      <g>
       <use xlink:href="#m752e24b710" x="50.121875" y="139.096473" style="stroke: #000000; stroke-width: 0.8"/>
      </g>
     </g>
     <g id="text_13">
      <text style="font: 12px 'Times New Roman', 'Times', serif; text-anchor: end" x="43.121875" y="143.262723" transform="rotate(-0 43.121875 143.262723)">0.61</text>
     </g>
    </g>
    <g id="ytick_4">
     <g id="line2d_25">
      <path d="M 50.121875 97.847871 
L 384.921875 97.847871 
" clip-path="url(#pb234b37d59)" style="fill: none; stroke: #b0b0b0; stroke-opacity: 0.3; stroke-width: 0.8; stroke-linecap: square"/>
     </g>
     <g id="line2d_26">
      <g>
       <use xlink:href="#m752e24b710" x="50.121875" y="97.847871" style="stroke: #000000; stroke-width: 0.8"/>
      </g>
     </g>
     <g id="text_14">
      <text style="font: 12px 'Times New Roman', 'Times', serif; text-anchor: end" x="43.121875" y="102.014121" transform="rotate(-0 43.121875 102.014121)">0.62</text>
     </g>
    </g>
    <g id="ytick_5">
     <g id="line2d_27">
      <path d="M 50.121875 56.59927 
L 384.921875 56.59927 
" clip-path="url(#pb234b37d59)" style="fill: none; stroke: #b0b0b0; stroke-opacity: 0.3; stroke-width: 0.8; stroke-linecap: square"/>
     </g>
     <g id="line2d_28">
      <g>
       <use xlink:href="#m752e24b710" x="50.121875" y="56.59927" style="stroke: #000000; stroke-width: 0.8"/>
      </g>
     </g>
     <g id="text_15">
      <text style="font: 12px 'Times New Roman', 'Times', serif; text-anchor: end" x="43.121875" y="60.76552" transform="rotate(-0 43.121875 60.76552)">0.63</text>
     </g>
    </g>
    <g id="ytick_6">
     <g id="line2d_29">
      <path d="M 50.121875 15.350668 
L 384.921875 15.350668 
" clip-path="url(#pb234b37d59)" style="fill: none; stroke: #b0b0b0; stroke-opacity: 0.3; stroke-width: 0.8; stroke-linecap: square"/>
     </g>
     <g id="line2d_30">
      <g>
       <use xlink:href="#m752e24b710" x="50.121875" y="15.350668" style="stroke: #000000; stroke-width: 0.8"/>
      </g>
     </g>
     <g id="text_16">
      <text style="font: 12px 'Times New Roman', 'Times', serif; text-anchor: end" x="43.121875" y="19.516918" transform="rotate(-0 43.121875 19.516918)">0.64</text>
     </g>
    </g>
    <g id="text_17">
     <text style="font: 12px 'Times New Roman', 'Times', serif; text-anchor: middle" x="15.5325" y="118.08" transform="rotate(-90 15.5325 118.08)">Figure of Merit</text>
    </g>
   </g>
   <g id="line2d_31">
    <path d="M 65.340057 218.88 
L 141.430966 205.940604 
L 217.521875 78.48888 
L 293.612784 131.174255 
L 369.703693 22.363401 
" clip-path="url(#pb234b37d59)" style="fill: none; stroke: #213c51; stroke-width: 2; stroke-linecap: square"/>
    <defs>
     <path id="m1ba593787f" d="M 0 4 
C 1.060812 4 2.078319 3.578535 2.828427 2.828427 
C 3.578535 2.078319 4 1.060812 4 0 
C 4 -1.060812 3.578535 -2.078319 2.828427 -2.828427 
C 2.078319 -3.578535 1.060812 -4 0 -4 
C -1.060812 -4 -2.078319 -3.578535 -2.828427 -2.828427 
C -3.578535 -2.078319 -4 -1.060812 -4 0 
C -4 1.060812 -3.578535 2.078319 -2.828427 2.828427 
C -2.078319 3.578535 -1.060812 4 0 4 
z
" style="stroke: #213c51"/>
    </defs>
    <g clip-path="url(#pb234b37d59)">
     <use xlink:href="#m1ba593787f" x="65.340057" y="218.88" style="fill: #213c51; stroke: #213c51"/>
     <use xlink:href="#m1ba593787f" x="141.430966" y="205.940604" style="fill: #213c51; stroke: #213c51"/>
     <use xlink:href="#m1ba593787f" x="217.521875" y="78.48888" style="fill: #213c51; stroke: #213c51"/>
     <use xlink:href="#m1ba593787f" x="293.612784" y="131.174255" style="fill: #213c51; stroke: #213c51"/>
     <use xlink:href="#m1ba593787f" x="369.703693" y="22.363401" style="fill: #213c51; stroke: #213c51"/>
    </g>
   </g>
   <g id="line2d_32">
    <path d="M 65.340057 212.914581 
L 141.430966 199.242576 
L 217.521875 79.01222 
L 293.612784 131.273473 
L 369.703693 23.128833 
" clip-path="url(#pb234b37d59)" style="fill: none; stroke: #6594b1; stroke-width: 2; stroke-linecap: square"/>
    <defs>
     <path id="md94a1002e2" d="M 0 4 
C 1.060812 4 2.078319 3.578535 2.828427 2.828427 
C 3.578535 2.078319 4 1.060812 4 0 
C 4 -1.060812 3.578535 -2.078319 2.828427 -2.828427 
C 2.078319 -3.578535 1.060812 -4 0 -4 
C -1.060812 -4 -2.078319 -3.578535 -2.828427 -2.828427 
C -3.578535 -2.078319 -4 -1.060812 -4 0 
C -4 1.060812 -3.578535 2.078319 -2.828427 2.828427 
C -2.078319 3.578535 -1.060812 4 0 4 
z
" style="stroke: #6594b1"/>
    </defs>
    <g clip-path="url(#pb234b37d59)">
     <use xlink:href="#md94a1002e2" x="65.340057" y="212.914581" style="fill: #6594b1; stroke: #6594b1"/>
     <use xlink:href="#md94a1002e2" x="141.430966" y="199.242576" style="fill: #6594b1; stroke: #6594b1"/>
     <use xlink:href="#md94a1002e2" x="217.521875" y="79.01222" style="fill: #6594b1; stroke: #6594b1"/>
     <use xlink:href="#md94a1002e2" x="293.612784" y="131.273473" style="fill: #6594b1; stroke: #6594b1"/>
     <use xlink:href="#md94a1002e2" x="369.703693" y="23.128833" style="fill: #6594b1; stroke: #6594b1"/>
    </g>
   </g>
   <g id="line2d_33">
    <path d="M 65.340057 207.397896 
L 141.430966 202.385383 
L 217.521875 82.516655 
L 293.612784 131.242139 
L 369.703693 23.857132 
" clip-path="url(#pb234b37d59)" style="fill: none; stroke: #ddaed3; stroke-width: 2; stroke-linecap: square"/>
    <defs>
     <path id="m6515cfec55" d="M 0 4 
C 1.060812 4 2.078319 3.578535 2.828427 2.828427 
C 3.578535 2.078319 4 1.060812 4 0 
C 4 -1.060812 3.578535 -2.078319 2.828427 -2.828427 
C 2.078319 -3.578535 1.060812 -4 0 -4 
C -1.060812 -4 -2.078319 -3.578535 -2.828427 -2.828427 
C -3.578535 -2.078319 -4 -1.060812 -4 0 
C -4 1.060812 -3.578535 2.078319 -2.828427 2.828427 
C -2.078319 3.578535 -1.060812 4 0 4 
z
" style="stroke: #ddaed3"/>
    </defs>
    <g clip-path="url(#pb234b37d59)">
     <use xlink:href="#m6515cfec55" x="65.340057" y="207.397896" style="fill: #ddaed3; stroke: #ddaed3"/>
     <use xlink:href="#m6515cfec55" x="141.430966" y="202.385383" style="fill: #ddaed3; stroke: #ddaed3"/>
     <use xlink:href="#m6515cfec55" x="217.521875" y="82.516655" style="fill: #ddaed3; stroke: #ddaed3"/>
     <use xlink:href="#m6515cfec55" x="293.612784" y="131.242139" style="fill: #ddaed3; stroke: #ddaed3"/>
     <use xlink:href="#m6515cfec55" x="369.703693" y="23.857132" style="fill: #ddaed3; stroke: #ddaed3"/>
    </g>
   </g>
   <g id="line2d_34">
    <path d="M 65.340057 203.094047 
L 141.430966 205.923743 
L 217.521875 82.448564 
L 293.612784 131.296721 
L 369.703693 17.28 
" clip-path="url(#pb234b37d59)" style="fill: none; stroke: #d02752; stroke-width: 2; stroke-linecap: square"/>
    <defs>
     <path id="mde601b239e" d="M 0 4 
C 1.060812 4 2.078319 3.578535 2.828427 2.828427 
C 3.578535 2.078319 4 1.060812 4 0 
C 4 -1.060812 3.578535 -2.078319 2.828427 -2.828427 
C 2.078319 -3.578535 1.060812 -4 0 -4 
C -1.060812 -4 -2.078319 -3.578535 -2.828427 -2.828427 
C -3.578535 -2.078319 -4 -1.060812 -4 0 
C -4 1.060812 -3.578535 2.078319 -2.828427 2.828427 
C -2.078319 3.578535 -1.060812 4 0 4 
z
" style="stroke: #d02752"/>
    </defs>
    <g clip-path="url(#pb234b37d59)">
     <use xlink:href="#mde601b239e" x="65.340057" y="203.094047" style="fill: #d02752; stroke: #d02752"/>
     <use xlink:href="#mde601b239e" x="141.430966" y="205.923743" style="fill: #d02752; stroke: #d02752"/>
     <use xlink:href="#mde601b239e" x="217.521875" y="82.448564" style="fill: #d02752; stroke: #d02752"/>
     <use xlink:href="#mde601b239e" x="293.612784" y="131.296721" style="fill: #d02752; stroke: #d02752"/>
     <use xlink:href="#mde601b239e" x="369.703693" y="17.28" style="fill: #d02752; stroke: #d02752"/>
    </g>
   </g>
   <g id="line2d_35">
    <path d="M 65.340057 207.229879 
L 141.430966 206.178968 
L 217.521875 82.473661 
L 293.612784 131.327233 
L 369.703693 17.290839 
" clip-path="url(#pb234b37d59)" style="fill: none; stroke: #213c51; stroke-width: 2; stroke-linecap: square"/>
    <g clip-path="url(#pb234b37d59)">
     <use xlink:href="#m1ba593787f" x="65.340057" y="207.229879" style="fill: #213c51; stroke: #213c51"/>
     <use xlink:href="#m1ba593787f" x="141.430966" y="206.178968" style="fill: #213c51; stroke: #213c51"/>
     <use xlink:href="#m1ba593787f" x="217.521875" y="82.473661" style="fill: #213c51; stroke: #213c51"/>
     <use xlink:href="#m1ba593787f" x="293.612784" y="131.327233" style="fill: #213c51; stroke: #213c51"/>
     <use xlink:href="#m1ba593787f" x="369.703693" y="17.290839" style="fill: #213c51; stroke: #213c51"/>
    </g>
   </g>
   <g id="patch_3">
    <path d="M 50.121875 228.96 
L 50.121875 7.2 
" style="fill: none; stroke: #000000; stroke-width: 0.8; stroke-linejoin: miter; stroke-linecap: square"/>
   </g>
   <g id="patch_4">
    <path d="M 384.921875 228.96 
L 384.921875 7.2 
" style="fill: none; stroke: #000000; stroke-width: 0.8; stroke-linejoin: miter; stroke-linecap: square"/>
   </g>
   <g id="patch_5">
    <path d="M 50.121875 228.96 
L 384.921875 228.96 
" style="fill: none; stroke: #000000; stroke-width: 0.8; stroke-linejoin: miter; stroke-linecap: square"/>
   </g>
   <g id="patch_6">
    <path d="M 50.121875 7.2 
L 384.921875 7.2 
" style="fill: none; stroke: #000000; stroke-width: 0.8; stroke-linejoin: miter; stroke-linecap: square"/>
   </g>
   <g id="legend_1">
    <g id="patch_7">
     <path d="M 58.521875 101.634375 
L 147.23375 101.634375 
Q 149.63375 101.634375 149.63375 99.234375 
L 149.63375 15.6 
Q 149.63375 13.2 147.23375 13.2 
L 58.521875 13.2 
Q 56.121875 13.2 56.121875 15.6 
L 56.121875 99.234375 
Q 56.121875 101.634375 58.521875 101.634375 
z
" style="fill: #ffffff; opacity: 0.8; stroke: #cccccc; stroke-linejoin: miter"/>
    </g>
    <g id="line2d_36">
     <path d="M 60.921875 22.2 
L 72.921875 22.2 
L 84.921875 22.2 
" style="fill: none; stroke: #213c51; stroke-width: 2; stroke-linecap: square"/>
     <g>
      <use xlink:href="#m1ba593787f" x="72.921875" y="22.2" style="fill: #213c51; stroke: #213c51"/>
     </g>
    </g>
    <g id="text_18">
     <text style="font: 12px 'Times New Roman', 'Times', serif; text-anchor: start" x="94.521875" y="26.4" transform="rotate(-0 94.521875 26.4)">10% Error</text>
    </g>
    <g id="line2d_37">
     <path d="M 60.921875 39.166875 
L 72.921875 39.166875 
L 84.921875 39.166875 
" style="fill: none; stroke: #6594b1; stroke-width: 2; stroke-linecap: square"/>
     <g>
      <use xlink:href="#md94a1002e2" x="72.921875" y="39.166875" style="fill: #6594b1; stroke: #6594b1"/>
     </g>
    </g>
    <g id="text_19">
     <text style="font: 12px 'Times New Roman', 'Times', serif; text-anchor: start" x="94.521875" y="43.366875" transform="rotate(-0 94.521875 43.366875)">20% Error</text>
    </g>
    <g id="line2d_38">
     <path d="M 60.921875 56.13375 
L 72.921875 56.13375 
L 84.921875 56.13375 
" style="fill: none; stroke: #ddaed3; stroke-width: 2; stroke-linecap: square"/>
     <g>
      <use xlink:href="#m6515cfec55" x="72.921875" y="56.13375" style="fill: #ddaed3; stroke: #ddaed3"/>
     </g>
    </g>
    <g id="text_20">
     <text style="font: 12px 'Times New Roman', 'Times', serif; text-anchor: start" x="94.521875" y="60.33375" transform="rotate(-0 94.521875 60.33375)">30% Error</text>
    </g>
    <g id="line2d_39">
     <path d="M 60.921875 73.100625 
L 72.921875 73.100625 
L 84.921875 73.100625 
" style="fill: none; stroke: #d02752; stroke-width: 2; stroke-linecap: square"/>
     <g>
      <use xlink:href="#mde601b239e" x="72.921875" y="73.100625" style="fill: #d02752; stroke: #d02752"/>
     </g>
    </g>
    <g id="text_21">
     <text style="font: 12px 'Times New Roman', 'Times', serif; text-anchor: start" x="94.521875" y="77.300625" transform="rotate(-0 94.521875 77.300625)">40% Error</text>
    </g>
    <g id="line2d_40">
     <path d="M 60.921875 90.0675 
L 72.921875 90.0675 
L 84.921875 90.0675 
" style="fill: none; stroke: #213c51; stroke-width: 2; stroke-linecap: square"/>
     <g>
      <use xlink:href="#m1ba593787f" x="72.921875" y="90.0675" style="fill: #213c51; stroke: #213c51"/>
     </g>
    </g>
    <g id="text_22">
     <text style="font: 12px 'Times New Roman', 'Times', serif; text-anchor: start" x="94.521875" y="94.2675" transform="rotate(-0 94.521875 94.2675)">50% Error</text>
    </g>
   </g>
  </g>
 </g>
 <defs>
  <clipPath id="pb234b37d59">
   <rect x="50.121875" y="7.2" width="334.8" height="221.76"/>
  </clipPath>
 </defs>
</svg>
