<?xml version="1.0" encoding="utf-8" standalone="no"?>
<!DOCTYPE svg PUBLIC "-//W3C//DTD SVG 1.1//EN"
  "http://www.w3.org/Graphics/SVG/1.1/DTD/svg11.dtd">
<svg xmlns:xlink="http://www.w3.org/1999/xlink" width="414.170625pt" height="132.226562pt" viewBox="0 0 414.170625 132.226562" xmlns="http://www.w3.org/2000/svg" version="1.1">
 <metadata>
  <rdf:RDF xmlns:dc="http://purl.org/dc/elements/1.1/" xmlns:cc="http://creativecommons.org/ns#" xmlns:rdf="http://www.w3.org/1999/02/22-rdf-syntax-ns#">
   <cc:Work>
    <dc:type rdf:resource="http://purl.org/dc/dcmitype/StillImage"/>
    <dc:date>2026-07-16T15:43:11.041771</dc:date>
    <dc:format>image/svg+xml</dc:format>
    <dc:creator>
     <cc:Agent>
      <dc:title>Matplotlib v3.10.8, https://matplotlib.org/</dc:title>
     </cc:Agent>
    </dc:creator>
   </cc:Work>
  </rdf:RDF>
 </metadata>
 <defs>
  <style type="text/css">*{stroke-linejoin: round; stroke-linecap: butt}</style>
 </defs>
 <g id="figure_1">
  <g id="patch_1">
   <path d="M 0 132.226562 
L 414.170625 132.226562 
L 414.170625 0 
L 0 0 
z
" style="fill: #ffffff"/>
  </g>
  <g id="axes_1">
   <g id="patch_2">
    <path d="M 56.977125 95.095625 
L 406.970625 95.095625 
L 406.970625 23.275625 
L 56.977125 23.275625 
z
" style="fill: #ffffff"/>
   </g>
   <g id="matplotlib.axis_1">
    <g id="xtick_1">
     <g id="line2d_1">
      <path d="M 96.82392 95.095625 
L 96.82392 23.275625 
" clip-path="url(#p6362db6e51)" style="fill: none; stroke: #e0e0e0; stroke-opacity: 0.7; stroke-width: 0.8; stroke-linecap: square"/>
     </g>
     <g id="line2d_2">
      <defs>
       <path id="m98949910a1" d="M 0 0 
L 0 -4 
" style="stroke: #000000; stroke-width: 0.8"/>
      </defs>
      <g>
       <use xlink:href="#m98949910a1" x="96.82392" y="95.095625" style="stroke: #000000; stroke-width: 0.8"/>
      </g>
     </g>
     <g id="text_1">
      <text style="font-size: 10px; font-family: 'Helvetica', 'Arial', sans-serif; text-anchor: middle" x="96.82392" y="105.769062" transform="rotate(-0 96.82392 105.769062)">0.5</text>
     </g>
    </g>
    <g id="xtick_2">
     <g id="line2d_3">
      <path d="M 146.694752 95.095625 
L 146.694752 23.275625 
" clip-path="url(#p6362db6e51)" style="fill: none; stroke: #e0e0e0; stroke-opacity: 0.7; stroke-width: 0.8; stroke-linecap: square"/>
     </g>
     <g id="line2d_4">
      <g>
       <use xlink:href="#m98949910a1" x="146.694752" y="95.095625" style="stroke: #000000; stroke-width: 0.8"/>
      </g>
     </g>
     <g id="text_2">
      <text style="font-size: 10px; font-family: 'Helvetica', 'Arial', sans-serif; text-anchor: middle" x="146.694752" y="105.769062" transform="rotate(-0 146.694752 105.769062)">1.0</text>
     </g>
    </g>
    <g id="xtick_3">
     <g id="line2d_5">
      <path d="M 196.565583 95.095625 
L 196.565583 23.275625 
" clip-path="url(#p6362db6e51)" style="fill: none; stroke: #e0e0e0; stroke-opacity: 0.7; stroke-width: 0.8; stroke-linecap: square"/>
     </g>
     <g id="line2d_6">
      <g>
       <use xlink:href="#m98949910a1" x="196.565583" y="95.095625" style="stroke: #000000; stroke-width: 0.8"/>
      </g>
     </g>
     <g id="text_3">
      <text style="font-size: 10px; font-family: 'Helvetica', 'Arial', sans-serif; text-anchor: middle" x="196.565583" y="105.769062" transform="rotate(-0 196.565583 105.769062)">1.5</text>
     </g>
    </g>
    <g id="xtick_4">
     <g id="line2d_7">
      <path d="M 246.436414 95.095625 
L 246.436414 23.275625 
" clip-path="url(#p6362db6e51)" style="fill: none; stroke: #e0e0e0; stroke-opacity: 0.7; stroke-width: 0.8; stroke-linecap: square"/>
     </g>
     <g id="line2d_8">
      <g>
       <use xlink:href="#m98949910a1" x="246.436414" y="95.095625" style="stroke: #000000; stroke-width: 0.8"/>
      </g>
     </g>
     <g id="text_4">
      <text style="font-size: 10px; font-family: 'Helvetica', 'Arial', sans-serif; text-anchor: middle" x="246.436414" y="105.769062" transform="rotate(-0 246.436414 105.769062)">2.0</text>
     </g>
    </g>
    <g id="xtick_5">
     <g id="line2d_9">
      <path d="M 296.307245 95.095625 
L 296.307245 23.275625 
" clip-path="url(#p6362db6e51)" style="fill: none; stroke: #e0e0e0; stroke-opacity: 0.7; stroke-width: 0.8; stroke-linecap: square"/>
     </g>
     <g id="line2d_10">
      <g>
       <use xlink:href="#m98949910a1" x="296.307245" y="95.095625" style="stroke: #000000; stroke-width: 0.8"/>
      </g>
     </g>
     <g id="text_5">
      <text style="font-size: 10px; font-family: 'Helvetica', 'Arial', sans-serif; text-anchor: middle" x="296.307245" y="105.769062" transform="rotate(-0 296.307245 105.769062)">2.5</text>
     </g>
    </g>
    <g id="xtick_6">
     <g id="line2d_11">
      <path d="M 346.178077 95.095625 
L 346.178077 23.275625 
" clip-path="url(#p6362db6e51)" style="fill: none; stroke: #e0e0e0; stroke-opacity: 0.7; stroke-width: 0.8; stroke-linecap: square"/>
     </g>
     <g id="line2d_12">
      <g>
       <use xlink:href="#m98949910a1" x="346.178077" y="95.095625" style="stroke: #000000; stroke-width: 0.8"/>
      </g>
     </g>
     <g id="text_6">
      <text style="font-size: 10px; font-family: 'Helvetica', 'Arial', sans-serif; text-anchor: middle" x="346.178077" y="105.769062" transform="rotate(-0 346.178077 105.769062)">3.0</text>
     </g>
    </g>
    <g id="xtick_7">
     <g id="line2d_13">
      <path d="M 396.048908 95.095625 
L 396.048908 23.275625 
" clip-path="url(#p6362db6e51)" style="fill: none; stroke: #e0e0e0; stroke-opacity: 0.7; stroke-width: 0.8; stroke-linecap: square"/>
     </g>
     <g id="line2d_14">
      <g>
       <use xlink:href="#m98949910a1" x="396.048908" y="95.095625" style="stroke: #000000; stroke-width: 0.8"/>
      </g>
     </g>
     <g id="text_7">
      <text style="font-size: 10px; font-family: 'Helvetica', 'Arial', sans-serif; text-anchor: middle" x="396.048908" y="105.769062" transform="rotate(-0 396.048908 105.769062)">3.5</text>
     </g>
    </g>
    <g id="text_8">
     <text style="font-size: 14px; font-family: 'Helvetica', 'Arial', sans-serif; text-anchor: middle" x="231.973875" y="122.108437" transform="rotate(-0 231.973875 122.108437)">Bin Center (ns)</text>
    </g>
   </g>
   <g id="matplotlib.axis_2">
    <g id="ytick_1">
     <g id="line2d_15">
      <path d="M 56.977125 91.83108 
L 406.970625 91.83108 
" clip-path="url(#p6362db6e51)" style="fill: none; stroke: #e0e0e0; stroke-opacity: 0.7; stroke-width: 0.8; stroke-linecap: square"/>
     </g>
     <g id="line2d_16">
      <defs>
       <path id="mbc5a38fbdd" d="M 0 0 
L 4 0 
" style="stroke: #000000; stroke-width: 0.8"/>
      </defs>
      <g>
       <use xlink:href="#mbc5a38fbdd" x="56.977125" y="91.83108" style="stroke: #000000; stroke-width: 0.8"/>
      </g>
     </g>
     <g id="text_9">
      <text style="font-size: 10px; font-family: 'Helvetica', 'Arial', sans-serif; text-anchor: end" x="53.477125" y="95.417798" transform="rotate(-0 53.477125 95.417798)">0.0</text>
     </g>
    </g>
    <g id="ytick_2">
     <g id="line2d_17">
      <path d="M 56.977125 59.185625 
L 406.970625 59.185625 
" clip-path="url(#p6362db6e51)" style="fill: none; stroke: #e0e0e0; stroke-opacity: 0.7; stroke-width: 0.8; stroke-linecap: square"/>
     </g>
     <g id="line2d_18">
      <g>
       <use xlink:href="#mbc5a38fbdd" x="56.977125" y="59.185625" style="stroke: #000000; stroke-width: 0.8"/>
      </g>
     </g>
     <g id="text_10">
      <text style="font-size: 10px; font-family: 'Helvetica', 'Arial', sans-serif; text-anchor: end" x="53.477125" y="62.772344" transform="rotate(-0 53.477125 62.772344)">0.5</text>
     </g>
    </g>
    <g id="ytick_3">
     <g id="line2d_19">
      <path d="M 56.977125 26.54017 
L 406.970625 26.54017 
" clip-path="url(#p6362db6e51)" style="fill: none; stroke: #e0e0e0; stroke-opacity: 0.7; stroke-width: 0.8; stroke-linecap: square"/>
     </g>
     <g id="line2d_20">
      <g>
       <use xlink:href="#mbc5a38fbdd" x="56.977125" y="26.54017" style="stroke: #000000; stroke-width: 0.8"/>
      </g>
     </g>
     <g id="text_11">
      <text style="font-size: 10px; font-family: 'Helvetica', 'Arial', sans-serif; text-anchor: end" x="53.477125" y="30.126889" transform="rotate(-0 53.477125 30.126889)">1.0</text>
     </g>
    </g>
    <g id="text_12">
     <text style="font-size: 14px; font-family: 'Helvetica', 'Arial', sans-serif" transform="translate(17.275625 93.032812) rotate(-90)">Bin Weight</text>
     <!-- ($W_b$) -->
     <g transform="translate(32.637125 74.095625) rotate(-90)">
      <text>
       <tspan x="0" y="-0.796875" style="font-size: 14px; font-family: 'Helvetica'">(</tspan>
       <tspan x="25.108398" y="-0.796875" style="font-size: 14px; font-family: 'Helvetica'">)</tspan>
       <tspan x="4.662109" y="-0.796875" style="font-style: oblique; font-size: 14px; font-family: 'DejaVu Sans'">W</tspan>
       <tspan x="18.504883" y="1.5" style="font-style: oblique; font-size: 9.8px; font-family: 'DejaVu Sans'">b</tspan>
      </text>
     </g>
    </g>
   </g>
   <g id="line2d_21">
    <path d="M 72.88592 91.83108 
L 82.860089 91.83108 
L 94.829086 91.83108 
L 104.803252 26.54017 
L 116.772252 26.54017 
L 126.74642 91.331978 
L 138.71542 91.173777 
L 148.689583 91.83108 
L 160.658583 91.83108 
L 170.632752 91.83108 
L 182.601752 91.83108 
L 192.57592 91.83108 
L 204.54492 91.83108 
L 214.519077 91.83108 
L 226.488077 91.83108 
L 236.462246 91.83108 
L 247.43383 91.83108 
L 258.405402 91.83108 
L 269.376998 91.83108 
L 280.348571 91.83108 
L 292.317583 91.83108 
L 302.291739 91.83108 
L 314.260751 91.83108 
L 324.234908 91.83108 
L 336.20392 91.83108 
L 346.178077 91.83108 
L 358.147065 91.83108 
L 368.121245 91.83108 
L 380.090233 91.83108 
L 391.06183 91.83108 
" clip-path="url(#p6362db6e51)" style="fill: none; stroke: #2d3047; stroke-width: 1.6; stroke-linecap: square"/>
    <defs>
     <path id="mc7b5ccae3e" d="M 0 3 
C 0.795609 3 1.55874 2.683901 2.12132 2.12132 
C 2.683901 1.55874 3 0.795609 3 0 
C 3 -0.795609 2.683901 -1.55874 2.12132 -2.12132 
C 1.55874 -2.683901 0.795609 -3 0 -3 
C -0.795609 -3 -1.55874 -2.683901 -2.12132 -2.12132 
C -2.683901 -1.55874 -3 -0.795609 -3 0 
C -3 0.795609 -2.683901 1.55874 -2.12132 2.12132 
C -1.55874 2.683901 -0.795609 3 0 3 
z
" style="stroke: #ffffff; stroke-width: 0.5"/>
    </defs>
    <g clip-path="url(#p6362db6e51)">
     <use xlink:href="#mc7b5ccae3e" x="72.88592" y="91.83108" style="fill: #2d3047; stroke: #ffffff; stroke-width: 0.5"/>
     <use xlink:href="#mc7b5ccae3e" x="82.860089" y="91.83108" style="fill: #2d3047; stroke: #ffffff; stroke-width: 0.5"/>
     <use xlink:href="#mc7b5ccae3e" x="94.829086" y="91.83108" style="fill: #2d3047; stroke: #ffffff; stroke-width: 0.5"/>
     <use xlink:href="#mc7b5ccae3e" x="104.803252" y="26.54017" style="fill: #2d3047; stroke: #ffffff; stroke-width: 0.5"/>
     <use xlink:href="#mc7b5ccae3e" x="116.772252" y="26.54017" style="fill: #2d3047; stroke: #ffffff; stroke-width: 0.5"/>
     <use xlink:href="#mc7b5ccae3e" x="126.74642" y="91.331978" style="fill: #2d3047; stroke: #ffffff; stroke-width: 0.5"/>
     <use xlink:href="#mc7b5ccae3e" x="138.71542" y="91.173777" style="fill: #2d3047; stroke: #ffffff; stroke-width: 0.5"/>
     <use xlink:href="#mc7b5ccae3e" x="148.689583" y="91.83108" style="fill: #2d3047; stroke: #ffffff; stroke-width: 0.5"/>
     <use xlink:href="#mc7b5ccae3e" x="160.658583" y="91.83108" style="fill: #2d3047; stroke: #ffffff; stroke-width: 0.5"/>
     <use xlink:href="#mc7b5ccae3e" x="170.632752" y="91.83108" style="fill: #2d3047; stroke: #ffffff; stroke-width: 0.5"/>
     <use xlink:href="#mc7b5ccae3e" x="182.601752" y="91.83108" style="fill: #2d3047; stroke: #ffffff; stroke-width: 0.5"/>
     <use xlink:href="#mc7b5ccae3e" x="192.57592" y="91.83108" style="fill: #2d3047; stroke: #ffffff; stroke-width: 0.5"/>
     <use xlink:href="#mc7b5ccae3e" x="204.54492" y="91.83108" style="fill: #2d3047; stroke: #ffffff; stroke-width: 0.5"/>
     <use xlink:href="#mc7b5ccae3e" x="214.519077" y="91.83108" style="fill: #2d3047; stroke: #ffffff; stroke-width: 0.5"/>
     <use xlink:href="#mc7b5ccae3e" x="226.488077" y="91.83108" style="fill: #2d3047; stroke: #ffffff; stroke-width: 0.5"/>
     <use xlink:href="#mc7b5ccae3e" x="236.462246" y="91.83108" style="fill: #2d3047; stroke: #ffffff; stroke-width: 0.5"/>
     <use xlink:href="#mc7b5ccae3e" x="247.43383" y="91.83108" style="fill: #2d3047; stroke: #ffffff; stroke-width: 0.5"/>
     <use xlink:href="#mc7b5ccae3e" x="258.405402" y="91.83108" style="fill: #2d3047; stroke: #ffffff; stroke-width: 0.5"/>
     <use xlink:href="#mc7b5ccae3e" x="269.376998" y="91.83108" style="fill: #2d3047; stroke: #ffffff; stroke-width: 0.5"/>
     <use xlink:href="#mc7b5ccae3e" x="280.348571" y="91.83108" style="fill: #2d3047; stroke: #ffffff; stroke-width: 0.5"/>
     <use xlink:href="#mc7b5ccae3e" x="292.317583" y="91.83108" style="fill: #2d3047; stroke: #ffffff; stroke-width: 0.5"/>
     <use xlink:href="#mc7b5ccae3e" x="302.291739" y="91.83108" style="fill: #2d3047; stroke: #ffffff; stroke-width: 0.5"/>
     <use xlink:href="#mc7b5ccae3e" x="314.260751" y="91.83108" style="fill: #2d3047; stroke: #ffffff; stroke-width: 0.5"/>
     <use xlink:href="#mc7b5ccae3e" x="324.234908" y="91.83108" style="fill: #2d3047; stroke: #ffffff; stroke-width: 0.5"/>
     <use xlink:href="#mc7b5ccae3e" x="336.20392" y="91.83108" style="fill: #2d3047; stroke: #ffffff; stroke-width: 0.5"/>
     <use xlink:href="#mc7b5ccae3e" x="346.178077" y="91.83108" style="fill: #2d3047; stroke: #ffffff; stroke-width: 0.5"/>
     <use xlink:href="#mc7b5ccae3e" x="358.147065" y="91.83108" style="fill: #2d3047; stroke: #ffffff; stroke-width: 0.5"/>
     <use xlink:href="#mc7b5ccae3e" x="368.121245" y="91.83108" style="fill: #2d3047; stroke: #ffffff; stroke-width: 0.5"/>
     <use xlink:href="#mc7b5ccae3e" x="380.090233" y="91.83108" style="fill: #2d3047; stroke: #ffffff; stroke-width: 0.5"/>
     <use xlink:href="#mc7b5ccae3e" x="391.06183" y="91.83108" style="fill: #2d3047; stroke: #ffffff; stroke-width: 0.5"/>
    </g>
   </g>
   <g id="line2d_22">
    <path d="M 72.88592 91.83108 
L 82.860089 91.83108 
L 94.829086 91.83108 
L 104.803252 26.54017 
L 116.772252 26.54017 
L 126.74642 91.83108 
L 138.71542 91.83108 
L 148.689583 91.83108 
L 160.658583 91.83108 
L 170.632752 91.83108 
L 182.601752 91.83108 
L 192.57592 91.83108 
L 204.54492 91.83108 
L 214.519077 91.83108 
L 226.488077 91.83108 
L 236.462246 91.83108 
L 247.43383 91.83108 
L 258.405402 91.83108 
L 269.376998 91.83108 
L 280.348571 91.83108 
L 292.317583 91.83108 
L 302.291739 91.83108 
L 314.260751 91.83108 
L 324.234908 91.83108 
L 336.20392 91.83108 
L 346.178077 91.83108 
L 358.147065 91.83108 
L 368.121245 91.83108 
L 380.090233 91.83108 
L 391.06183 91.83108 
" clip-path="url(#p6362db6e51)" style="fill: none; stroke-dasharray: 5.92,2.56; stroke-dashoffset: 0; stroke: #d1345b; stroke-width: 1.6"/>
    <defs>
     <path id="m4d05e0f88b" d="M 0 3 
C 0.795609 3 1.55874 2.683901 2.12132 2.12132 
C 2.683901 1.55874 3 0.795609 3 0 
C 3 -0.795609 2.683901 -1.55874 2.12132 -2.12132 
C 1.55874 -2.683901 0.795609 -3 0 -3 
C -0.795609 -3 -1.55874 -2.683901 -2.12132 -2.12132 
C -2.683901 -1.55874 -3 -0.795609 -3 0 
C -3 0.795609 -2.683901 1.55874 -2.12132 2.12132 
C -1.55874 2.683901 -0.795609 3 0 3 
z
" style="stroke: #ffffff; stroke-width: 0.5"/>
    </defs>
    <g clip-path="url(#p6362db6e51)">
     <use xlink:href="#m4d05e0f88b" x="72.88592" y="91.83108" style="fill: #d1345b; stroke: #ffffff; stroke-width: 0.5"/>
     <use xlink:href="#m4d05e0f88b" x="82.860089" y="91.83108" style="fill: #d1345b; stroke: #ffffff; stroke-width: 0.5"/>
     <use xlink:href="#m4d05e0f88b" x="94.829086" y="91.83108" style="fill: #d1345b; stroke: #ffffff; stroke-width: 0.5"/>
     <use xlink:href="#m4d05e0f88b" x="104.803252" y="26.54017" style="fill: #d1345b; stroke: #ffffff; stroke-width: 0.5"/>
     <use xlink:href="#m4d05e0f88b" x="116.772252" y="26.54017" style="fill: #d1345b; stroke: #ffffff; stroke-width: 0.5"/>
     <use xlink:href="#m4d05e0f88b" x="126.74642" y="91.83108" style="fill: #d1345b; stroke: #ffffff; stroke-width: 0.5"/>
     <use xlink:href="#m4d05e0f88b" x="138.71542" y="91.83108" style="fill: #d1345b; stroke: #ffffff; stroke-width: 0.5"/>
     <use xlink:href="#m4d05e0f88b" x="148.689583" y="91.83108" style="fill: #d1345b; stroke: #ffffff; stroke-width: 0.5"/>
     <use xlink:href="#m4d05e0f88b" x="160.658583" y="91.83108" style="fill: #d1345b; stroke: #ffffff; stroke-width: 0.5"/>
     <use xlink:href="#m4d05e0f88b" x="170.632752" y="91.83108" style="fill: #d1345b; stroke: #ffffff; stroke-width: 0.5"/>
     <use xlink:href="#m4d05e0f88b" x="182.601752" y="91.83108" style="fill: #d1345b; stroke: #ffffff; stroke-width: 0.5"/>
     <use xlink:href="#m4d05e0f88b" x="192.57592" y="91.83108" style="fill: #d1345b; stroke: #ffffff; stroke-width: 0.5"/>
     <use xlink:href="#m4d05e0f88b" x="204.54492" y="91.83108" style="fill: #d1345b; stroke: #ffffff; stroke-width: 0.5"/>
     <use xlink:href="#m4d05e0f88b" x="214.519077" y="91.83108" style="fill: #d1345b; stroke: #ffffff; stroke-width: 0.5"/>
     <use xlink:href="#m4d05e0f88b" x="226.488077" y="91.83108" style="fill: #d1345b; stroke: #ffffff; stroke-width: 0.5"/>
     <use xlink:href="#m4d05e0f88b" x="236.462246" y="91.83108" style="fill: #d1345b; stroke: #ffffff; stroke-width: 0.5"/>
     <use xlink:href="#m4d05e0f88b" x="247.43383" y="91.83108" style="fill: #d1345b; stroke: #ffffff; stroke-width: 0.5"/>
     <use xlink:href="#m4d05e0f88b" x="258.405402" y="91.83108" style="fill: #d1345b; stroke: #ffffff; stroke-width: 0.5"/>
     <use xlink:href="#m4d05e0f88b" x="269.376998" y="91.83108" style="fill: #d1345b; stroke: #ffffff; stroke-width: 0.5"/>
     <use xlink:href="#m4d05e0f88b" x="280.348571" y="91.83108" style="fill: #d1345b; stroke: #ffffff; stroke-width: 0.5"/>
     <use xlink:href="#m4d05e0f88b" x="292.317583" y="91.83108" style="fill: #d1345b; stroke: #ffffff; stroke-width: 0.5"/>
     <use xlink:href="#m4d05e0f88b" x="302.291739" y="91.83108" style="fill: #d1345b; stroke: #ffffff; stroke-width: 0.5"/>
     <use xlink:href="#m4d05e0f88b" x="314.260751" y="91.83108" style="fill: #d1345b; stroke: #ffffff; stroke-width: 0.5"/>
     <use xlink:href="#m4d05e0f88b" x="324.234908" y="91.83108" style="fill: #d1345b; stroke: #ffffff; stroke-width: 0.5"/>
     <use xlink:href="#m4d05e0f88b" x="336.20392" y="91.83108" style="fill: #d1345b; stroke: #ffffff; stroke-width: 0.5"/>
     <use xlink:href="#m4d05e0f88b" x="346.178077" y="91.83108" style="fill: #d1345b; stroke: #ffffff; stroke-width: 0.5"/>
     <use xlink:href="#m4d05e0f88b" x="358.147065" y="91.83108" style="fill: #d1345b; stroke: #ffffff; stroke-width: 0.5"/>
     <use xlink:href="#m4d05e0f88b" x="368.121245" y="91.83108" style="fill: #d1345b; stroke: #ffffff; stroke-width: 0.5"/>
     <use xlink:href="#m4d05e0f88b" x="380.090233" y="91.83108" style="fill: #d1345b; stroke: #ffffff; stroke-width: 0.5"/>
     <use xlink:href="#m4d05e0f88b" x="391.06183" y="91.83108" style="fill: #d1345b; stroke: #ffffff; stroke-width: 0.5"/>
    </g>
   </g>
   <g id="patch_3">
    <path d="M 56.977125 95.095625 
L 56.977125 23.275625 
" style="fill: none; stroke: #000000; stroke-width: 0.8; stroke-linejoin: miter; stroke-linecap: square"/>
   </g>
   <g id="patch_4">
    <path d="M 406.970625 95.095625 
L 406.970625 23.275625 
" style="fill: none; stroke: #000000; stroke-width: 0.8; stroke-linejoin: miter; stroke-linecap: square"/>
   </g>
   <g id="patch_5">
    <path d="M 56.977125 95.095625 
L 406.970625 95.095625 
" style="fill: none; stroke: #000000; stroke-width: 0.8; stroke-linejoin: miter; stroke-linecap: square"/>
   </g>
   <g id="patch_6">
    <path d="M 56.977125 23.275625 
L 406.970625 23.275625 
" style="fill: none; stroke: #000000; stroke-width: 0.8; stroke-linejoin: miter; stroke-linecap: square"/>
   </g>
   <g id="text_13">
    <text style="font-size: 14px; font-family: 'Helvetica', 'Arial', sans-serif; text-anchor: middle" x="231.973875" y="17.275625" transform="rotate(-0 231.973875 17.275625)">Flat-Top Window Post-Processing</text>
   </g>
   <g id="legend_1">
    <g id="patch_7">
     <path d="M 270.709687 59.838125 
L 399.970625 59.838125 
Q 401.970625 59.838125 401.970625 57.838125 
L 401.970625 30.275625 
Q 401.970625 28.275625 399.970625 28.275625 
L 270.709687 28.275625 
Q 268.709687 28.275625 268.709687 30.275625 
L 268.709687 57.838125 
Q 268.709687 59.838125 270.709687 59.838125 
z
" style="fill: #ffffff; opacity: 0.8"/>
    </g>
    <g id="line2d_23">
     <path d="M 272.709687 35.9725 
L 282.709687 35.9725 
L 292.709687 35.9725 
" style="fill: none; stroke: #2d3047; stroke-width: 1.6; stroke-linecap: square"/>
     <g>
      <use xlink:href="#mc7b5ccae3e" x="282.709687" y="35.9725" style="fill: #2d3047; stroke: #ffffff; stroke-width: 0.5"/>
     </g>
    </g>
    <g id="text_14">
     <text style="font-size: 10px; font-family: 'Helvetica', 'Arial', sans-serif; text-anchor: start" x="300.709687" y="39.4725" transform="rotate(-0 300.709687 39.4725)">Unprocessed Window</text>
    </g>
    <g id="line2d_24">
     <path d="M 272.709687 50.25375 
L 282.709687 50.25375 
L 292.709687 50.25375 
" style="fill: none; stroke-dasharray: 5.92,2.56; stroke-dashoffset: 0; stroke: #d1345b; stroke-width: 1.6"/>
     <g>
      <use xlink:href="#m4d05e0f88b" x="282.709687" y="50.25375" style="fill: #d1345b; stroke: #ffffff; stroke-width: 0.5"/>
     </g>
    </g>
    <g id="text_15">
     <text style="font-size: 10px; font-family: 'Helvetica', 'Arial', sans-serif; text-anchor: start" x="300.709687" y="53.75375" transform="rotate(-0 300.709687 53.75375)">Flat-Top Window</text>
    </g>
   </g>
  </g>
 </g>
 <defs>
  <clipPath id="p6362db6e51">
   <rect x="56.977125" y="23.275625" width="349.9935" height="71.82"/>
  </clipPath>
 </defs>
</svg>
