<?xml version="1.0" encoding="utf-8" standalone="no"?>
<!DOCTYPE svg PUBLIC "-//W3C//DTD SVG 1.1//EN"
  "http://www.w3.org/Graphics/SVG/1.1/DTD/svg11.dtd">
<svg xmlns:xlink="http://www.w3.org/1999/xlink" width="708.391875pt" height="420.32pt" viewBox="0 0 708.391875 420.32" xmlns="http://www.w3.org/2000/svg" version="1.1">
 <metadata>
  <rdf:RDF xmlns:dc="http://purl.org/dc/elements/1.1/" xmlns:cc="http://creativecommons.org/ns#" xmlns:rdf="http://www.w3.org/1999/02/22-rdf-syntax-ns#">
   <cc:Work>
    <dc:type rdf:resource="http://purl.org/dc/dcmitype/StillImage"/>
    <dc:date>2025-12-07T00:54:37.755831</dc:date>
    <dc:format>image/svg+xml</dc:format>
    <dc:creator>
     <cc:Agent>
      <dc:title>Matplotlib v3.9.2, https://matplotlib.org/</dc:title>
     </cc:Agent>
    </dc:creator>
   </cc:Work>
  </rdf:RDF>
 </metadata>
 <defs>
  <style type="text/css">*{stroke-linejoin: round; stroke-linecap: butt}</style>
 </defs>
 <g id="figure_1">
  <g id="patch_1">
   <path d="M 0 420.32 
L 708.391875 420.32 
L 708.391875 0 
L 0 0 
z
" style="fill: #ffffff"/>
  </g>
  <g id="axes_1">
   <g id="patch_2">
    <path d="M 44.099375 380.32125 
L 347.671875 380.32125 
L 347.671875 22.92125 
L 44.099375 22.92125 
z
" style="fill: #ffffff"/>
   </g>
   <g id="matplotlib.axis_1">
    <g id="xtick_1">
     <g id="line2d_1">
      <path d="M 57.898125 380.32125 
L 57.898125 22.92125 
" clip-path="url(#p643b3bcfe2)" style="fill: none; stroke: #b0b0b0; stroke-width: 0.8; stroke-linecap: square"/>
     </g>
     <g id="line2d_2">
      <defs>
       <path id="m9dd18f2958" d="M 0 0 
L 0 3.5 
" style="stroke: #000000; stroke-width: 0.8"/>
      </defs>
      <g>
       <use xlink:href="#m9dd18f2958" x="57.898125" y="380.32125" style="stroke: #000000; stroke-width: 0.8"/>
      </g>
     </g>
     <g id="text_1">
      <text style="font: 12px 'Times New Roman', 'Times', serif; text-anchor: middle" x="57.898125" y="395.65375" transform="rotate(-0 57.898125 395.65375)">0</text>
     </g>
    </g>
    <g id="xtick_2">
     <g id="line2d_3">
      <path d="M 117.503957 380.32125 
L 117.503957 22.92125 
" clip-path="url(#p643b3bcfe2)" style="fill: none; stroke: #b0b0b0; stroke-width: 0.8; stroke-linecap: square"/>
     </g>
     <g id="line2d_4">
      <g>
       <use xlink:href="#m9dd18f2958" x="117.503957" y="380.32125" style="stroke: #000000; stroke-width: 0.8"/>
      </g>
     </g>
     <g id="text_2">
      <text style="font: 12px 'Times New Roman', 'Times', serif; text-anchor: middle" x="117.503957" y="395.65375" transform="rotate(-0 117.503957 395.65375)">100</text>
     </g>
    </g>
    <g id="xtick_3">
     <g id="line2d_5">
      <path d="M 177.109788 380.32125 
L 177.109788 22.92125 
" clip-path="url(#p643b3bcfe2)" style="fill: none; stroke: #b0b0b0; stroke-width: 0.8; stroke-linecap: square"/>
     </g>
     <g id="line2d_6">
      <g>
       <use xlink:href="#m9dd18f2958" x="177.109788" y="380.32125" style="stroke: #000000; stroke-width: 0.8"/>
      </g>
     </g>
     <g id="text_3">
      <text style="font: 12px 'Times New Roman', 'Times', serif; text-anchor: middle" x="177.109788" y="395.65375" transform="rotate(-0 177.109788 395.65375)">200</text>
     </g>
    </g>
    <g id="xtick_4">
     <g id="line2d_7">
      <path d="M 236.71562 380.32125 
L 236.71562 22.92125 
" clip-path="url(#p643b3bcfe2)" style="fill: none; stroke: #b0b0b0; stroke-width: 0.8; stroke-linecap: square"/>
     </g>
     <g id="line2d_8">
      <g>
       <use xlink:href="#m9dd18f2958" x="236.71562" y="380.32125" style="stroke: #000000; stroke-width: 0.8"/>
      </g>
     </g>
     <g id="text_4">
      <text style="font: 12px 'Times New Roman', 'Times', serif; text-anchor: middle" x="236.71562" y="395.65375" transform="rotate(-0 236.71562 395.65375)">300</text>
     </g>
    </g>
    <g id="xtick_5">
     <g id="line2d_9">
      <path d="M 296.321451 380.32125 
L 296.321451 22.92125 
" clip-path="url(#p643b3bcfe2)" style="fill: none; stroke: #b0b0b0; stroke-width: 0.8; stroke-linecap: square"/>
     </g>
     <g id="line2d_10">
      <g>
       <use xlink:href="#m9dd18f2958" x="296.321451" y="380.32125" style="stroke: #000000; stroke-width: 0.8"/>
      </g>
     </g>
     <g id="text_5">
      <text style="font: 12px 'Times New Roman', 'Times', serif; text-anchor: middle" x="296.321451" y="395.65375" transform="rotate(-0 296.321451 395.65375)">400</text>
     </g>
    </g>
    <g id="text_6">
     <text style="font: 12px 'Times New Roman', 'Times', serif; text-anchor: middle" x="195.885625" y="410.553125" transform="rotate(-0 195.885625 410.553125)">Epoch</text>
    </g>
   </g>
   <g id="matplotlib.axis_2">
    <g id="ytick_1">
     <g id="line2d_11">
      <path d="M 44.099375 333.837357 
L 347.671875 333.837357 
" clip-path="url(#p643b3bcfe2)" style="fill: none; stroke: #b0b0b0; stroke-width: 0.8; stroke-linecap: square"/>
     </g>
     <g id="line2d_12">
      <defs>
       <path id="m3070634053" d="M 0 0 
L -3.5 0 
" style="stroke: #000000; stroke-width: 0.8"/>
      </defs>
      <g>
       <use xlink:href="#m3070634053" x="44.099375" y="333.837357" style="stroke: #000000; stroke-width: 0.8"/>
      </g>
     </g>
     <g id="text_7">
      <text style="font: 12px 'Times New Roman', 'Times', serif; text-anchor: end" x="37.099375" y="338.003607" transform="rotate(-0 37.099375 338.003607)">0.6</text>
     </g>
    </g>
    <g id="ytick_2">
     <g id="line2d_13">
      <path d="M 44.099375 260.169694 
L 347.671875 260.169694 
" clip-path="url(#p643b3bcfe2)" style="fill: none; stroke: #b0b0b0; stroke-width: 0.8; stroke-linecap: square"/>
     </g>
     <g id="line2d_14">
      <g>
       <use xlink:href="#m3070634053" x="44.099375" y="260.169694" style="stroke: #000000; stroke-width: 0.8"/>
      </g>
     </g>
     <g id="text_8">
      <text style="font: 12px 'Times New Roman', 'Times', serif; text-anchor: end" x="37.099375" y="264.335944" transform="rotate(-0 37.099375 264.335944)">0.7</text>
     </g>
    </g>
    <g id="ytick_3">
     <g id="line2d_15">
      <path d="M 44.099375 186.502031 
L 347.671875 186.502031 
" clip-path="url(#p643b3bcfe2)" style="fill: none; stroke: #b0b0b0; stroke-width: 0.8; stroke-linecap: square"/>
     </g>
     <g id="line2d_16">
      <g>
       <use xlink:href="#m3070634053" x="44.099375" y="186.502031" style="stroke: #000000; stroke-width: 0.8"/>
      </g>
     </g>
     <g id="text_9">
      <text style="font: 12px 'Times New Roman', 'Times', serif; text-anchor: end" x="37.099375" y="190.668281" transform="rotate(-0 37.099375 190.668281)">0.8</text>
     </g>
    </g>
    <g id="ytick_4">
     <g id="line2d_17">
      <path d="M 44.099375 112.834368 
L 347.671875 112.834368 
" clip-path="url(#p643b3bcfe2)" style="fill: none; stroke: #b0b0b0; stroke-width: 0.8; stroke-linecap: square"/>
     </g>
     <g id="line2d_18">
      <g>
       <use xlink:href="#m3070634053" x="44.099375" y="112.834368" style="stroke: #000000; stroke-width: 0.8"/>
      </g>
     </g>
     <g id="text_10">
      <text style="font: 12px 'Times New Roman', 'Times', serif; text-anchor: end" x="37.099375" y="117.000618" transform="rotate(-0 37.099375 117.000618)">0.9</text>
     </g>
    </g>
    <g id="ytick_5">
     <g id="line2d_19">
      <path d="M 44.099375 39.166705 
L 347.671875 39.166705 
" clip-path="url(#p643b3bcfe2)" style="fill: none; stroke: #b0b0b0; stroke-width: 0.8; stroke-linecap: square"/>
     </g>
     <g id="line2d_20">
      <g>
       <use xlink:href="#m3070634053" x="44.099375" y="39.166705" style="stroke: #000000; stroke-width: 0.8"/>
      </g>
     </g>
     <g id="text_11">
      <text style="font: 12px 'Times New Roman', 'Times', serif; text-anchor: end" x="37.099375" y="43.332955" transform="rotate(-0 37.099375 43.332955)">1.0</text>
     </g>
    </g>
    <g id="text_12">
     <text style="font: 12px 'Times New Roman', 'Times', serif; text-anchor: middle" x="15.5325" y="201.62125" transform="rotate(-90 15.5325 201.62125)">Metric Value</text>
    </g>
   </g>
   <g id="line2d_21">
    <path d="M 57.898125 172.343517 
L 65.050825 169.401733 
L 71.607466 166.478473 
L 77.568049 163.576863 
L 83.528633 160.4398 
L 89.489216 157.070573 
L 95.449799 153.447204 
L 101.410382 149.568379 
L 107.967023 145.023534 
L 115.119723 139.77743 
L 123.46454 133.373246 
L 131.809356 126.694806 
L 138.962056 120.688962 
L 144.922639 115.400382 
L 150.883222 109.818911 
L 159.228039 101.649218 
L 167.572855 93.548035 
L 172.93738 88.67473 
L 177.705846 84.652309 
L 182.474313 80.92097 
L 187.242779 77.46005 
L 192.607304 73.863866 
L 197.971829 70.538924 
L 206.912704 65.319181 
L 214.065404 61.018668 
L 221.814162 56.045833 
L 227.178687 52.697488 
L 231.351095 50.363243 
L 234.927445 48.624863 
L 238.503795 47.143804 
L 242.080144 45.907351 
L 246.252553 44.734199 
L 250.424961 43.79935 
L 255.193427 42.958332 
L 260.557952 42.227366 
L 267.710652 41.501114 
L 276.055468 40.890067 
L 287.380576 40.308999 
L 302.282034 39.796167 
L 323.144075 39.335621 
L 333.873125 39.166705 
L 333.873125 39.166705 
" clip-path="url(#p643b3bcfe2)" style="fill: none; stroke: #1f77b4; stroke-width: 1.5; stroke-linecap: square"/>
   </g>
   <g id="line2d_22">
    <path d="M 57.898125 273.209348 
L 65.646883 271.618988 
L 72.799583 269.938337 
L 79.356224 268.170443 
L 85.912866 266.177238 
L 92.469507 263.942002 
L 98.43009 261.67495 
L 104.390674 259.176772 
L 110.351257 256.442793 
L 116.907898 253.171955 
L 123.46454 249.634747 
L 129.425123 246.160272 
L 134.789648 242.772244 
L 139.558114 239.494101 
L 143.730522 236.370746 
L 147.902931 232.975966 
L 152.075339 229.297299 
L 156.843805 224.763818 
L 162.20833 219.327124 
L 172.93738 208.024371 
L 188.434896 191.524325 
L 194.395479 184.859954 
L 198.567887 179.899741 
L 201.548179 176.06594 
L 204.528471 171.840234 
L 206.912704 168.063349 
L 209.296937 163.830443 
L 211.68117 159.05268 
L 214.065404 153.66712 
L 216.449637 147.658045 
L 218.83387 141.073024 
L 221.814162 132.211499 
L 231.351095 103.210556 
L 234.331386 95.185047 
L 236.71562 89.3686 
L 239.099853 84.118337 
L 241.484086 79.426432 
L 243.868319 75.262352 
L 246.252553 71.583373 
L 248.636786 68.339712 
L 251.021019 65.480615 
L 253.405252 62.958237 
L 255.789486 60.72854 
L 258.769777 58.292575 
L 261.750069 56.185642 
L 264.73036 54.352212 
L 268.30671 52.450094 
L 271.88306 50.814 
L 276.055468 49.176521 
L 280.227877 47.774184 
L 284.996343 46.40079 
L 290.360868 45.088536 
L 296.321451 43.856324 
L 303.474151 42.620581 
L 311.818967 41.433168 
L 321.3559 40.325936 
L 332.08495 39.315642 
L 333.873125 39.166705 
L 333.873125 39.166705 
" clip-path="url(#p643b3bcfe2)" style="fill: none; stroke-dasharray: 5.55,2.4; stroke-dashoffset: 0; stroke: #ff7f0e; stroke-width: 1.5"/>
   </g>
   <g id="line2d_23">
    <path d="M 57.898125 364.075795 
L 63.858708 361.424114 
L 69.819291 358.53649 
L 75.183816 355.680973 
L 80.548341 352.556887 
L 85.912866 349.167084 
L 91.277391 345.493026 
L 96.045857 341.964639 
L 100.814324 338.183931 
L 106.178849 333.62837 
L 111.543373 328.757916 
L 117.503957 323.007817 
L 123.46454 316.926577 
L 128.829065 311.150032 
L 134.193589 305.030376 
L 138.962056 299.226434 
L 143.134464 293.794988 
L 147.306872 287.985169 
L 151.479281 281.780988 
L 156.247747 274.239277 
L 162.20833 264.310435 
L 175.917671 241.278323 
L 184.262488 227.857177 
L 199.163946 203.992651 
L 202.740296 197.756147 
L 205.720587 192.080721 
L 208.10482 187.082615 
L 210.489054 181.562972 
L 212.873287 175.433592 
L 215.25752 168.646338 
L 217.641754 161.21361 
L 220.622045 151.156858 
L 225.98657 131.957438 
L 230.158978 117.377621 
L 233.13927 107.767605 
L 235.523503 100.738444 
L 237.907736 94.349787 
L 240.291969 88.611529 
L 242.676203 83.498174 
L 245.060436 78.968627 
L 247.444669 74.968268 
L 249.828903 71.439708 
L 252.213136 68.326987 
L 254.597369 65.575483 
L 256.981602 63.138787 
L 259.365836 60.972561 
L 262.346127 58.590702 
L 265.326419 56.514878 
L 268.30671 54.692714 
L 271.88306 52.785939 
L 275.45941 51.13101 
L 279.631818 49.458493 
L 284.400285 47.822879 
L 289.168751 46.421481 
L 294.533276 45.068222 
L 301.089918 43.667687 
L 307.646559 42.48486 
L 315.991376 41.223558 
L 324.93225 40.103477 
L 333.873125 39.166705 
L 333.873125 39.166705 
" clip-path="url(#p643b3bcfe2)" style="fill: none; stroke-dasharray: 9.6,2.4,1.5,2.4; stroke-dashoffset: 0; stroke: #2ca02c; stroke-width: 1.5"/>
   </g>
   <g id="patch_3">
    <path d="M 44.099375 380.32125 
L 44.099375 22.92125 
" style="fill: none; stroke: #000000; stroke-width: 0.8; stroke-linejoin: miter; stroke-linecap: square"/>
   </g>
   <g id="patch_4">
    <path d="M 347.671875 380.32125 
L 347.671875 22.92125 
" style="fill: none; stroke: #000000; stroke-width: 0.8; stroke-linejoin: miter; stroke-linecap: square"/>
   </g>
   <g id="patch_5">
    <path d="M 44.099375 380.32125 
L 347.671875 380.32125 
" style="fill: none; stroke: #000000; stroke-width: 0.8; stroke-linejoin: miter; stroke-linecap: square"/>
   </g>
   <g id="patch_6">
    <path d="M 44.099375 22.92125 
L 347.671875 22.92125 
" style="fill: none; stroke: #000000; stroke-width: 0.8; stroke-linejoin: miter; stroke-linecap: square"/>
   </g>
   <g id="text_13">
    <text style="font: 14px 'Times New Roman', 'Times', serif; text-anchor: middle" x="195.885625" y="16.92125" transform="rotate(-0 195.885625 16.92125)">Normalized Training Metrics</text>
   </g>
   <g id="legend_1">
    <g id="patch_7">
     <path d="M 214.884375 374.32125 
L 339.271875 374.32125 
Q 341.671875 374.32125 341.671875 371.92125 
L 341.671875 322.198125 
Q 341.671875 319.798125 339.271875 319.798125 
L 214.884375 319.798125 
Q 212.484375 319.798125 212.484375 322.198125 
L 212.484375 371.92125 
Q 212.484375 374.32125 214.884375 374.32125 
z
" style="fill: #ffffff; opacity: 0.8; stroke: #cccccc; stroke-linejoin: miter"/>
    </g>
    <g id="line2d_24">
     <path d="M 217.284375 328.798125 
L 229.284375 328.798125 
L 241.284375 328.798125 
" style="fill: none; stroke: #1f77b4; stroke-width: 1.5; stroke-linecap: square"/>
    </g>
    <g id="text_14">
     <text style="font: 12px 'Times New Roman', 'Times', serif; text-anchor: start" x="250.884375" y="332.998125" transform="rotate(-0 250.884375 332.998125)">Energy Ratio</text>
    </g>
    <g id="line2d_25">
     <path d="M 217.284375 345.7875 
L 229.284375 345.7875 
L 241.284375 345.7875 
" style="fill: none; stroke-dasharray: 5.55,2.4; stroke-dashoffset: 0; stroke: #ff7f0e; stroke-width: 1.5"/>
    </g>
    <g id="text_15">
     <text style="font: 12px 'Times New Roman', 'Times', serif; text-anchor: start" x="250.884375" y="349.9875" transform="rotate(-0 250.884375 349.9875)">Contrast-to-Noise</text>
    </g>
    <g id="line2d_26">
     <path d="M 217.284375 362.754375 
L 229.284375 362.754375 
L 241.284375 362.754375 
" style="fill: none; stroke-dasharray: 9.6,2.4,1.5,2.4; stroke-dashoffset: 0; stroke: #2ca02c; stroke-width: 1.5"/>
    </g>
    <g id="text_16">
     <text style="font: 12px 'Times New Roman', 'Times', serif; text-anchor: start" x="250.884375" y="366.954375" transform="rotate(-0 250.884375 366.954375)">Final Metric</text>
    </g>
   </g>
  </g>
  <g id="axes_2">
   <g id="patch_8">
    <path d="M 397.619375 380.32125 
L 701.191875 380.32125 
L 701.191875 22.92125 
L 397.619375 22.92125 
z
" style="fill: #ffffff"/>
   </g>
   <g id="matplotlib.axis_3">
    <g id="xtick_6">
     <g id="line2d_27">
      <g>
       <use xlink:href="#m9dd18f2958" x="411.418125" y="380.32125" style="stroke: #000000; stroke-width: 0.8"/>
      </g>
     </g>
     <g id="text_17">
      <text style="font: 12px 'Times New Roman', 'Times', serif; text-anchor: middle" x="411.418125" y="395.65375" transform="rotate(-0 411.418125 395.65375)">0</text>
     </g>
    </g>
    <g id="xtick_7">
     <g id="line2d_28">
      <g>
       <use xlink:href="#m9dd18f2958" x="484.043125" y="380.32125" style="stroke: #000000; stroke-width: 0.8"/>
      </g>
     </g>
     <g id="text_18">
      <text style="font: 12px 'Times New Roman', 'Times', serif; text-anchor: middle" x="484.043125" y="395.65375" transform="rotate(-0 484.043125 395.65375)">5</text>
     </g>
    </g>
    <g id="xtick_8">
     <g id="line2d_29">
      <g>
       <use xlink:href="#m9dd18f2958" x="556.668125" y="380.32125" style="stroke: #000000; stroke-width: 0.8"/>
      </g>
     </g>
     <g id="text_19">
      <text style="font: 12px 'Times New Roman', 'Times', serif; text-anchor: middle" x="556.668125" y="395.65375" transform="rotate(-0 556.668125 395.65375)">10</text>
     </g>
    </g>
    <g id="xtick_9">
     <g id="line2d_30">
      <g>
       <use xlink:href="#m9dd18f2958" x="629.293125" y="380.32125" style="stroke: #000000; stroke-width: 0.8"/>
      </g>
     </g>
     <g id="text_20">
      <text style="font: 12px 'Times New Roman', 'Times', serif; text-anchor: middle" x="629.293125" y="395.65375" transform="rotate(-0 629.293125 395.65375)">15</text>
     </g>
    </g>
    <g id="text_21">
     <text style="font: 12px 'Times New Roman', 'Times', serif; text-anchor: middle" x="549.405625" y="410.553125" transform="rotate(-0 549.405625 410.553125)">Timebin Index</text>
    </g>
   </g>
   <g id="matplotlib.axis_4">
    <g id="ytick_6">
     <g id="line2d_31">
      <g>
       <use xlink:href="#m3070634053" x="397.619375" y="364.086615" style="stroke: #000000; stroke-width: 0.8"/>
      </g>
     </g>
     <g id="text_22">
      <text style="font: 12px 'Times New Roman', 'Times', serif; text-anchor: end" x="390.619375" y="368.252865" transform="rotate(-0 390.619375 368.252865)">0.0</text>
     </g>
    </g>
    <g id="ytick_7">
     <g id="line2d_32">
      <g>
       <use xlink:href="#m3070634053" x="397.619375" y="299.100971" style="stroke: #000000; stroke-width: 0.8"/>
      </g>
     </g>
     <g id="text_23">
      <text style="font: 12px 'Times New Roman', 'Times', serif; text-anchor: end" x="390.619375" y="303.267221" transform="rotate(-0 390.619375 303.267221)">0.2</text>
     </g>
    </g>
    <g id="ytick_8">
     <g id="line2d_33">
      <g>
       <use xlink:href="#m3070634053" x="397.619375" y="234.115328" style="stroke: #000000; stroke-width: 0.8"/>
      </g>
     </g>
     <g id="text_24">
      <text style="font: 12px 'Times New Roman', 'Times', serif; text-anchor: end" x="390.619375" y="238.281578" transform="rotate(-0 390.619375 238.281578)">0.4</text>
     </g>
    </g>
    <g id="ytick_9">
     <g id="line2d_34">
      <g>
       <use xlink:href="#m3070634053" x="397.619375" y="169.129684" style="stroke: #000000; stroke-width: 0.8"/>
      </g>
     </g>
     <g id="text_25">
      <text style="font: 12px 'Times New Roman', 'Times', serif; text-anchor: end" x="390.619375" y="173.295934" transform="rotate(-0 390.619375 173.295934)">0.6</text>
     </g>
    </g>
    <g id="ytick_10">
     <g id="line2d_35">
      <g>
       <use xlink:href="#m3070634053" x="397.619375" y="104.14404" style="stroke: #000000; stroke-width: 0.8"/>
      </g>
     </g>
     <g id="text_26">
      <text style="font: 12px 'Times New Roman', 'Times', serif; text-anchor: end" x="390.619375" y="108.31029" transform="rotate(-0 390.619375 108.31029)">0.8</text>
     </g>
    </g>
    <g id="ytick_11">
     <g id="line2d_36">
      <g>
       <use xlink:href="#m3070634053" x="397.619375" y="39.158396" style="stroke: #000000; stroke-width: 0.8"/>
      </g>
     </g>
     <g id="text_27">
      <text style="font: 12px 'Times New Roman', 'Times', serif; text-anchor: end" x="390.619375" y="43.324646" transform="rotate(-0 390.619375 43.324646)">1.0</text>
     </g>
    </g>
    <g id="text_28">
     <text style="font: 12px 'Times New Roman', 'Times', serif; text-anchor: middle" x="369.0525" y="201.62125" transform="rotate(-90 369.0525 201.62125)">Window Value</text>
    </g>
   </g>
   <g id="line2d_37">
    <path d="M 411.418125 364.075795 
L 425.943125 364.071362 
L 440.468125 364.070376 
L 454.993125 364.069689 
L 469.518125 364.069811 
L 484.043125 364.070086 
L 498.568125 364.071057 
L 513.093125 364.071928 
L 527.618125 364.075156 
L 542.143125 364.073396 
L 556.668125 364.065952 
L 571.193125 364.055162 
L 585.718125 364.032717 
L 600.243125 363.99916 
L 614.768125 363.974552 
L 629.293125 363.908546 
L 643.818125 363.572726 
L 658.343125 362.562902 
L 672.868125 362.425501 
L 687.393125 39.166705 
" clip-path="url(#p284a575b6d)" style="fill: none; stroke: #1f77b4; stroke-width: 1.5; stroke-linecap: square"/>
    <defs>
     <path id="m40838e3e5b" d="M 0 3 
C 0.795609 3 1.55874 2.683901 2.12132 2.12132 
C 2.683901 1.55874 3 0.795609 3 0 
C 3 -0.795609 2.683901 -1.55874 2.12132 -2.12132 
C 1.55874 -2.683901 0.795609 -3 0 -3 
C -0.795609 -3 -1.55874 -2.683901 -2.12132 -2.12132 
C -2.683901 -1.55874 -3 -0.795609 -3 0 
C -3 0.795609 -2.683901 1.55874 -2.12132 2.12132 
C -1.55874 2.683901 -0.795609 3 0 3 
z
" style="stroke: #1f77b4"/>
    </defs>
    <g clip-path="url(#p284a575b6d)">
     <use xlink:href="#m40838e3e5b" x="411.418125" y="364.075795" style="fill: #1f77b4; stroke: #1f77b4"/>
     <use xlink:href="#m40838e3e5b" x="425.943125" y="364.071362" style="fill: #1f77b4; stroke: #1f77b4"/>
     <use xlink:href="#m40838e3e5b" x="440.468125" y="364.070376" style="fill: #1f77b4; stroke: #1f77b4"/>
     <use xlink:href="#m40838e3e5b" x="454.993125" y="364.069689" style="fill: #1f77b4; stroke: #1f77b4"/>
     <use xlink:href="#m40838e3e5b" x="469.518125" y="364.069811" style="fill: #1f77b4; stroke: #1f77b4"/>
     <use xlink:href="#m40838e3e5b" x="484.043125" y="364.070086" style="fill: #1f77b4; stroke: #1f77b4"/>
     <use xlink:href="#m40838e3e5b" x="498.568125" y="364.071057" style="fill: #1f77b4; stroke: #1f77b4"/>
     <use xlink:href="#m40838e3e5b" x="513.093125" y="364.071928" style="fill: #1f77b4; stroke: #1f77b4"/>
     <use xlink:href="#m40838e3e5b" x="527.618125" y="364.075156" style="fill: #1f77b4; stroke: #1f77b4"/>
     <use xlink:href="#m40838e3e5b" x="542.143125" y="364.073396" style="fill: #1f77b4; stroke: #1f77b4"/>
     <use xlink:href="#m40838e3e5b" x="556.668125" y="364.065952" style="fill: #1f77b4; stroke: #1f77b4"/>
     <use xlink:href="#m40838e3e5b" x="571.193125" y="364.055162" style="fill: #1f77b4; stroke: #1f77b4"/>
     <use xlink:href="#m40838e3e5b" x="585.718125" y="364.032717" style="fill: #1f77b4; stroke: #1f77b4"/>
     <use xlink:href="#m40838e3e5b" x="600.243125" y="363.99916" style="fill: #1f77b4; stroke: #1f77b4"/>
     <use xlink:href="#m40838e3e5b" x="614.768125" y="363.974552" style="fill: #1f77b4; stroke: #1f77b4"/>
     <use xlink:href="#m40838e3e5b" x="629.293125" y="363.908546" style="fill: #1f77b4; stroke: #1f77b4"/>
     <use xlink:href="#m40838e3e5b" x="643.818125" y="363.572726" style="fill: #1f77b4; stroke: #1f77b4"/>
     <use xlink:href="#m40838e3e5b" x="658.343125" y="362.562902" style="fill: #1f77b4; stroke: #1f77b4"/>
     <use xlink:href="#m40838e3e5b" x="672.868125" y="362.425501" style="fill: #1f77b4; stroke: #1f77b4"/>
     <use xlink:href="#m40838e3e5b" x="687.393125" y="39.166705" style="fill: #1f77b4; stroke: #1f77b4"/>
    </g>
   </g>
   <g id="patch_9">
    <path d="M 397.619375 380.32125 
L 397.619375 22.92125 
" style="fill: none; stroke: #000000; stroke-width: 0.8; stroke-linejoin: miter; stroke-linecap: square"/>
   </g>
   <g id="patch_10">
    <path d="M 701.191875 380.32125 
L 701.191875 22.92125 
" style="fill: none; stroke: #000000; stroke-width: 0.8; stroke-linejoin: miter; stroke-linecap: square"/>
   </g>
   <g id="patch_11">
    <path d="M 397.619375 380.32125 
L 701.191875 380.32125 
" style="fill: none; stroke: #000000; stroke-width: 0.8; stroke-linejoin: miter; stroke-linecap: square"/>
   </g>
   <g id="patch_12">
    <path d="M 397.619375 22.92125 
L 701.191875 22.92125 
" style="fill: none; stroke: #000000; stroke-width: 0.8; stroke-linejoin: miter; stroke-linecap: square"/>
   </g>
   <g id="text_29">
    <text style="font: 14px 'Times New Roman', 'Times', serif; text-anchor: middle" x="549.405625" y="16.92125" transform="rotate(-0 549.405625 16.92125)">Optimized Window</text>
   </g>
  </g>
 </g>
 <defs>
  <clipPath id="p643b3bcfe2">
   <rect x="44.099375" y="22.92125" width="303.5725" height="357.4"/>
  </clipPath>
  <clipPath id="p284a575b6d">
   <rect x="397.619375" y="22.92125" width="303.5725" height="357.4"/>
  </clipPath>
 </defs>
</svg>
