<?xml version="1.0" encoding="utf-8" standalone="no"?>
<!DOCTYPE svg PUBLIC "-//W3C//DTD SVG 1.1//EN"
  "http://www.w3.org/Graphics/SVG/1.1/DTD/svg11.dtd">
<svg xmlns:xlink="http://www.w3.org/1999/xlink" width="708.406875pt" height="420.246875pt" viewBox="0 0 708.406875 420.246875" xmlns="http://www.w3.org/2000/svg" version="1.1">
 <metadata>
  <rdf:RDF xmlns:dc="http://purl.org/dc/elements/1.1/" xmlns:cc="http://creativecommons.org/ns#" xmlns:rdf="http://www.w3.org/1999/02/22-rdf-syntax-ns#">
   <cc:Work>
    <dc:type rdf:resource="http://purl.org/dc/dcmitype/StillImage"/>
    <dc:date>2025-12-07T17:54:02.827218</dc:date>
    <dc:format>image/svg+xml</dc:format>
    <dc:creator>
     <cc:Agent>
      <dc:title>Matplotlib v3.9.2, https://matplotlib.org/</dc:title>
     </cc:Agent>
    </dc:creator>
   </cc:Work>
  </rdf:RDF>
 </metadata>
 <defs>
  <style type="text/css">*{stroke-linejoin: round; stroke-linecap: butt}</style>
 </defs>
 <g id="figure_1">
  <g id="patch_1">
   <path d="M 0 420.246875 
L 708.406875 420.246875 
L 708.406875 0 
L 0 0 
z
" style="fill: #ffffff"/>
  </g>
  <g id="axes_1">
   <g id="patch_2">
    <path d="M 50.099375 380.248125 
L 343.296558 380.248125 
L 343.296558 22.92125 
L 50.099375 22.92125 
z
" style="fill: #ffffff"/>
   </g>
   <g id="matplotlib.axis_1">
    <g id="xtick_1">
     <g id="line2d_1">
      <path d="M 63.42652 380.248125 
L 63.42652 22.92125 
" clip-path="url(#p000d9103b7)" style="fill: none; stroke: #b0b0b0; stroke-width: 0.8; stroke-linecap: square"/>
     </g>
     <g id="line2d_2">
      <defs>
       <path id="mb0acee8c05" d="M 0 0 
L 0 3.5 
" style="stroke: #000000; stroke-width: 0.8"/>
      </defs>
      <g>
       <use xlink:href="#mb0acee8c05" x="63.42652" y="380.248125" style="stroke: #000000; stroke-width: 0.8"/>
      </g>
     </g>
     <g id="text_1">
      <text style="font: 12px 'Times New Roman', 'Times', serif; text-anchor: middle" x="63.42652" y="395.580625" transform="rotate(-0 63.42652 395.580625)">0</text>
     </g>
    </g>
    <g id="xtick_2">
     <g id="line2d_3">
      <path d="M 100.705246 380.248125 
L 100.705246 22.92125 
" clip-path="url(#p000d9103b7)" style="fill: none; stroke: #b0b0b0; stroke-width: 0.8; stroke-linecap: square"/>
     </g>
     <g id="line2d_4">
      <g>
       <use xlink:href="#mb0acee8c05" x="100.705246" y="380.248125" style="stroke: #000000; stroke-width: 0.8"/>
      </g>
     </g>
     <g id="text_2">
      <text style="font: 12px 'Times New Roman', 'Times', serif; text-anchor: middle" x="100.705246" y="395.580625" transform="rotate(-0 100.705246 395.580625)">20</text>
     </g>
    </g>
    <g id="xtick_3">
     <g id="line2d_5">
      <path d="M 137.983972 380.248125 
L 137.983972 22.92125 
" clip-path="url(#p000d9103b7)" style="fill: none; stroke: #b0b0b0; stroke-width: 0.8; stroke-linecap: square"/>
     </g>
     <g id="line2d_6">
      <g>
       <use xlink:href="#mb0acee8c05" x="137.983972" y="380.248125" style="stroke: #000000; stroke-width: 0.8"/>
      </g>
     </g>
     <g id="text_3">
      <text style="font: 12px 'Times New Roman', 'Times', serif; text-anchor: middle" x="137.983972" y="395.580625" transform="rotate(-0 137.983972 395.580625)">40</text>
     </g>
    </g>
    <g id="xtick_4">
     <g id="line2d_7">
      <path d="M 175.262699 380.248125 
L 175.262699 22.92125 
" clip-path="url(#p000d9103b7)" style="fill: none; stroke: #b0b0b0; stroke-width: 0.8; stroke-linecap: square"/>
     </g>
     <g id="line2d_8">
      <g>
       <use xlink:href="#mb0acee8c05" x="175.262699" y="380.248125" style="stroke: #000000; stroke-width: 0.8"/>
      </g>
     </g>
     <g id="text_4">
      <text style="font: 12px 'Times New Roman', 'Times', serif; text-anchor: middle" x="175.262699" y="395.580625" transform="rotate(-0 175.262699 395.580625)">60</text>
     </g>
    </g>
    <g id="xtick_5">
     <g id="line2d_9">
      <path d="M 212.541425 380.248125 
L 212.541425 22.92125 
" clip-path="url(#p000d9103b7)" style="fill: none; stroke: #b0b0b0; stroke-width: 0.8; stroke-linecap: square"/>
     </g>
     <g id="line2d_10">
      <g>
       <use xlink:href="#mb0acee8c05" x="212.541425" y="380.248125" style="stroke: #000000; stroke-width: 0.8"/>
      </g>
     </g>
     <g id="text_5">
      <text style="font: 12px 'Times New Roman', 'Times', serif; text-anchor: middle" x="212.541425" y="395.580625" transform="rotate(-0 212.541425 395.580625)">80</text>
     </g>
    </g>
    <g id="xtick_6">
     <g id="line2d_11">
      <path d="M 249.820151 380.248125 
L 249.820151 22.92125 
" clip-path="url(#p000d9103b7)" style="fill: none; stroke: #b0b0b0; stroke-width: 0.8; stroke-linecap: square"/>
     </g>
     <g id="line2d_12">
      <g>
       <use xlink:href="#mb0acee8c05" x="249.820151" y="380.248125" style="stroke: #000000; stroke-width: 0.8"/>
      </g>
     </g>
     <g id="text_6">
      <text style="font: 12px 'Times New Roman', 'Times', serif; text-anchor: middle" x="249.820151" y="395.580625" transform="rotate(-0 249.820151 395.580625)">100</text>
     </g>
    </g>
    <g id="xtick_7">
     <g id="line2d_13">
      <path d="M 287.098878 380.248125 
L 287.098878 22.92125 
" clip-path="url(#p000d9103b7)" style="fill: none; stroke: #b0b0b0; stroke-width: 0.8; stroke-linecap: square"/>
     </g>
     <g id="line2d_14">
      <g>
       <use xlink:href="#mb0acee8c05" x="287.098878" y="380.248125" style="stroke: #000000; stroke-width: 0.8"/>
      </g>
     </g>
     <g id="text_7">
      <text style="font: 12px 'Times New Roman', 'Times', serif; text-anchor: middle" x="287.098878" y="395.580625" transform="rotate(-0 287.098878 395.580625)">120</text>
     </g>
    </g>
    <g id="xtick_8">
     <g id="line2d_15">
      <path d="M 324.377604 380.248125 
L 324.377604 22.92125 
" clip-path="url(#p000d9103b7)" style="fill: none; stroke: #b0b0b0; stroke-width: 0.8; stroke-linecap: square"/>
     </g>
     <g id="line2d_16">
      <g>
       <use xlink:href="#mb0acee8c05" x="324.377604" y="380.248125" style="stroke: #000000; stroke-width: 0.8"/>
      </g>
     </g>
     <g id="text_8">
      <text style="font: 12px 'Times New Roman', 'Times', serif; text-anchor: middle" x="324.377604" y="395.580625" transform="rotate(-0 324.377604 395.580625)">140</text>
     </g>
    </g>
    <g id="text_9">
     <text style="font: 12px 'Times New Roman', 'Times', serif; text-anchor: middle" x="196.697966" y="410.48" transform="rotate(-0 196.697966 410.48)">Epoch</text>
    </g>
   </g>
   <g id="matplotlib.axis_2">
    <g id="ytick_1">
     <g id="line2d_17">
      <path d="M 50.099375 353.349457 
L 343.296558 353.349457 
" clip-path="url(#p000d9103b7)" style="fill: none; stroke: #b0b0b0; stroke-width: 0.8; stroke-linecap: square"/>
     </g>
     <g id="line2d_18">
      <defs>
       <path id="m6d51cdd391" d="M 0 0 
L -3.5 0 
" style="stroke: #000000; stroke-width: 0.8"/>
      </defs>
      <g>
       <use xlink:href="#m6d51cdd391" x="50.099375" y="353.349457" style="stroke: #000000; stroke-width: 0.8"/>
      </g>
     </g>
     <g id="text_10">
      <text style="font: 12px 'Times New Roman', 'Times', serif; text-anchor: end" x="43.099375" y="357.515707" transform="rotate(-0 43.099375 357.515707)">0.90</text>
     </g>
    </g>
    <g id="ytick_2">
     <g id="line2d_19">
      <path d="M 50.099375 290.512242 
L 343.296558 290.512242 
" clip-path="url(#p000d9103b7)" style="fill: none; stroke: #b0b0b0; stroke-width: 0.8; stroke-linecap: square"/>
     </g>
     <g id="line2d_20">
      <g>
       <use xlink:href="#m6d51cdd391" x="50.099375" y="290.512242" style="stroke: #000000; stroke-width: 0.8"/>
      </g>
     </g>
     <g id="text_11">
      <text style="font: 12px 'Times New Roman', 'Times', serif; text-anchor: end" x="43.099375" y="294.678492" transform="rotate(-0 43.099375 294.678492)">0.92</text>
     </g>
    </g>
    <g id="ytick_3">
     <g id="line2d_21">
      <path d="M 50.099375 227.675027 
L 343.296558 227.675027 
" clip-path="url(#p000d9103b7)" style="fill: none; stroke: #b0b0b0; stroke-width: 0.8; stroke-linecap: square"/>
     </g>
     <g id="line2d_22">
      <g>
       <use xlink:href="#m6d51cdd391" x="50.099375" y="227.675027" style="stroke: #000000; stroke-width: 0.8"/>
      </g>
     </g>
     <g id="text_12">
      <text style="font: 12px 'Times New Roman', 'Times', serif; text-anchor: end" x="43.099375" y="231.841277" transform="rotate(-0 43.099375 231.841277)">0.94</text>
     </g>
    </g>
    <g id="ytick_4">
     <g id="line2d_23">
      <path d="M 50.099375 164.837811 
L 343.296558 164.837811 
" clip-path="url(#p000d9103b7)" style="fill: none; stroke: #b0b0b0; stroke-width: 0.8; stroke-linecap: square"/>
     </g>
     <g id="line2d_24">
      <g>
       <use xlink:href="#m6d51cdd391" x="50.099375" y="164.837811" style="stroke: #000000; stroke-width: 0.8"/>
      </g>
     </g>
     <g id="text_13">
      <text style="font: 12px 'Times New Roman', 'Times', serif; text-anchor: end" x="43.099375" y="169.004061" transform="rotate(-0 43.099375 169.004061)">0.96</text>
     </g>
    </g>
    <g id="ytick_5">
     <g id="line2d_25">
      <path d="M 50.099375 102.000596 
L 343.296558 102.000596 
" clip-path="url(#p000d9103b7)" style="fill: none; stroke: #b0b0b0; stroke-width: 0.8; stroke-linecap: square"/>
     </g>
     <g id="line2d_26">
      <g>
       <use xlink:href="#m6d51cdd391" x="50.099375" y="102.000596" style="stroke: #000000; stroke-width: 0.8"/>
      </g>
     </g>
     <g id="text_14">
      <text style="font: 12px 'Times New Roman', 'Times', serif; text-anchor: end" x="43.099375" y="106.166846" transform="rotate(-0 43.099375 106.166846)">0.98</text>
     </g>
    </g>
    <g id="ytick_6">
     <g id="line2d_27">
      <path d="M 50.099375 39.163381 
L 343.296558 39.163381 
" clip-path="url(#p000d9103b7)" style="fill: none; stroke: #b0b0b0; stroke-width: 0.8; stroke-linecap: square"/>
     </g>
     <g id="line2d_28">
      <g>
       <use xlink:href="#m6d51cdd391" x="50.099375" y="39.163381" style="stroke: #000000; stroke-width: 0.8"/>
      </g>
     </g>
     <g id="text_15">
      <text style="font: 12px 'Times New Roman', 'Times', serif; text-anchor: end" x="43.099375" y="43.329631" transform="rotate(-0 43.099375 43.329631)">1.00</text>
     </g>
    </g>
    <g id="text_16">
     <text style="font: 12px 'Times New Roman', 'Times', serif; text-anchor: middle" x="15.5325" y="201.584688" transform="rotate(-90 15.5325 201.584688)">Metric Value</text>
    </g>
   </g>
   <g id="line2d_29">
    <path d="M 63.42652 39.163381 
L 70.882265 41.014395 
L 83.929819 44.174466 
L 96.977373 47.14156 
L 110.024928 49.899745 
L 121.208546 52.029103 
L 130.528227 53.585543 
L 139.847909 54.953814 
L 151.031527 56.374689 
L 162.215145 57.575834 
L 175.262699 58.747823 
L 188.310253 59.719921 
L 203.221744 60.614769 
L 218.133234 61.313633 
L 236.772597 61.975225 
L 261.003769 62.596238 
L 296.418559 63.238592 
L 329.969413 63.665425 
L 329.969413 63.665425 
" clip-path="url(#p000d9103b7)" style="fill: none; stroke: #7fc97f; stroke-width: 1.5; stroke-linecap: square"/>
   </g>
   <g id="line2d_30">
    <path d="M 63.42652 364.005994 
L 69.018329 337.266842 
L 74.610138 311.781129 
L 80.201947 287.721628 
L 83.929819 272.498242 
L 87.657692 257.927259 
L 91.385564 244.005675 
L 95.113437 230.74083 
L 98.84131 218.143397 
L 102.569182 206.217044 
L 106.297055 194.965106 
L 110.024928 184.379246 
L 113.7528 174.445788 
L 117.480673 165.146722 
L 121.208546 156.452695 
L 124.936418 148.33469 
L 128.664291 140.757018 
L 132.392163 133.686992 
L 136.120036 127.089925 
L 139.847909 120.934796 
L 143.575781 115.194924 
L 147.303654 109.843291 
L 151.031527 104.85655 
L 154.759399 100.214021 
L 158.487272 95.893357 
L 162.215145 91.87488 
L 165.943017 88.139243 
L 169.67089 84.666102 
L 173.398762 81.438779 
L 177.126635 78.439596 
L 180.854508 75.654546 
L 184.58238 73.067951 
L 190.174189 69.532438 
L 195.765998 66.370155 
L 201.357807 63.543746 
L 206.949616 61.015187 
L 212.541425 58.751124 
L 218.133234 56.719538 
L 223.725043 54.897415 
L 231.180788 52.745421 
L 238.636534 50.865929 
L 246.092279 49.214911 
L 255.41196 47.419471 
L 264.731642 45.868848 
L 275.91526 44.271197 
L 287.098878 42.905354 
L 300.146432 41.549519 
L 315.057923 40.251051 
L 329.969413 39.163381 
L 329.969413 39.163381 
" clip-path="url(#p000d9103b7)" style="fill: none; stroke-dasharray: 5.55,2.4; stroke-dashoffset: 0; stroke: #beaed4; stroke-width: 1.5"/>
   </g>
   <g id="line2d_31">
    <path d="M 63.42652 341.864386 
L 69.018329 316.175068 
L 74.610138 291.7845 
L 78.33801 276.307941 
L 82.065883 261.482916 
L 85.793755 247.309694 
L 89.521628 233.78342 
L 93.249501 220.904902 
L 96.977373 208.686282 
L 100.705246 197.129987 
L 104.433119 186.241953 
L 108.160991 176.015974 
L 111.888864 166.436403 
L 115.616737 157.483006 
L 119.344609 149.126376 
L 123.072482 141.335488 
L 126.800354 134.080396 
L 130.528227 127.317394 
L 134.2561 121.024629 
L 137.983972 115.160285 
L 141.711845 109.704397 
L 145.439718 104.625401 
L 149.16759 99.898745 
L 152.895463 95.507164 
L 156.623336 91.423409 
L 160.351208 87.633182 
L 164.079081 84.11409 
L 167.806953 80.848867 
L 171.534826 77.823753 
L 175.262699 75.018785 
L 178.990571 72.420204 
L 184.58238 68.876831 
L 190.174189 65.718983 
L 195.765998 62.900796 
L 201.357807 60.391244 
L 206.949616 58.153097 
L 212.541425 56.15506 
L 218.133234 54.36233 
L 225.588979 52.261774 
L 233.044725 50.438289 
L 240.50047 48.844391 
L 249.820151 47.125043 
L 259.139833 45.654978 
L 270.323451 44.157934 
L 281.507069 42.889129 
L 294.554623 41.645414 
L 307.602177 40.600262 
L 324.377604 39.486854 
L 329.969413 39.163381 
L 329.969413 39.163381 
" clip-path="url(#p000d9103b7)" style="fill: none; stroke-dasharray: 9.6,2.4,1.5,2.4; stroke-dashoffset: 0; stroke: #fdc086; stroke-width: 1.5"/>
   </g>
   <g id="patch_3">
    <path d="M 50.099375 380.248125 
L 50.099375 22.92125 
" style="fill: none; stroke: #000000; stroke-width: 0.8; stroke-linejoin: miter; stroke-linecap: square"/>
   </g>
   <g id="patch_4">
    <path d="M 343.296558 380.248125 
L 343.296558 22.92125 
" style="fill: none; stroke: #000000; stroke-width: 0.8; stroke-linejoin: miter; stroke-linecap: square"/>
   </g>
   <g id="patch_5">
    <path d="M 50.099375 380.248125 
L 343.296558 380.248125 
" style="fill: none; stroke: #000000; stroke-width: 0.8; stroke-linejoin: miter; stroke-linecap: square"/>
   </g>
   <g id="patch_6">
    <path d="M 50.099375 22.92125 
L 343.296558 22.92125 
" style="fill: none; stroke: #000000; stroke-width: 0.8; stroke-linejoin: miter; stroke-linecap: square"/>
   </g>
   <g id="text_17">
    <text style="font: 14px 'Times New Roman', 'Times', serif; text-anchor: middle" x="196.697966" y="16.92125" transform="rotate(-0 196.697966 16.92125)">Normalized Training Metrics</text>
   </g>
   <g id="legend_1">
    <g id="patch_7">
     <path d="M 210.509058 374.248125 
L 334.896558 374.248125 
Q 337.296558 374.248125 337.296558 371.848125 
L 337.296558 322.125 
Q 337.296558 319.725 334.896558 319.725 
L 210.509058 319.725 
Q 208.109058 319.725 208.109058 322.125 
L 208.109058 371.848125 
Q 208.109058 374.248125 210.509058 374.248125 
z
" style="fill: #ffffff; opacity: 0.8; stroke: #cccccc; stroke-linejoin: miter"/>
    </g>
    <g id="line2d_32">
     <path d="M 212.909058 328.725 
L 224.909058 328.725 
L 236.909058 328.725 
" style="fill: none; stroke: #7fc97f; stroke-width: 1.5; stroke-linecap: square"/>
    </g>
    <g id="text_18">
     <text style="font: 12px 'Times New Roman', 'Times', serif; text-anchor: start" x="246.509058" y="332.925" transform="rotate(-0 246.509058 332.925)">Energy Ratio</text>
    </g>
    <g id="line2d_33">
     <path d="M 212.909058 345.714375 
L 224.909058 345.714375 
L 236.909058 345.714375 
" style="fill: none; stroke-dasharray: 5.55,2.4; stroke-dashoffset: 0; stroke: #beaed4; stroke-width: 1.5"/>
    </g>
    <g id="text_19">
     <text style="font: 12px 'Times New Roman', 'Times', serif; text-anchor: start" x="246.509058" y="349.914375" transform="rotate(-0 246.509058 349.914375)">Contrast-to-Noise</text>
    </g>
    <g id="line2d_34">
     <path d="M 212.909058 362.68125 
L 224.909058 362.68125 
L 236.909058 362.68125 
" style="fill: none; stroke-dasharray: 9.6,2.4,1.5,2.4; stroke-dashoffset: 0; stroke: #fdc086; stroke-width: 1.5"/>
    </g>
    <g id="text_20">
     <text style="font: 12px 'Times New Roman', 'Times', serif; text-anchor: start" x="246.509058" y="366.88125" transform="rotate(-0 246.509058 366.88125)">Final Metric</text>
    </g>
   </g>
  </g>
  <g id="axes_2">
   <g id="patch_8">
    <path d="M 408.009692 380.248125 
L 701.206875 380.248125 
L 701.206875 22.92125 
L 408.009692 22.92125 
z
" style="fill: #ffffff"/>
   </g>
   <g id="matplotlib.axis_3">
    <g id="xtick_9">
     <g id="line2d_35">
      <g>
       <use xlink:href="#mb0acee8c05" x="421.336837" y="380.248125" style="stroke: #000000; stroke-width: 0.8"/>
      </g>
     </g>
     <g id="text_21">
      <text style="font: 12px 'Times New Roman', 'Times', serif; text-anchor: middle" x="421.336837" y="395.580625" transform="rotate(-0 421.336837 395.580625)">0.1</text>
     </g>
    </g>
    <g id="xtick_10">
     <g id="line2d_36">
      <g>
       <use xlink:href="#mb0acee8c05" x="473.600149" y="380.248125" style="stroke: #000000; stroke-width: 0.8"/>
      </g>
     </g>
     <g id="text_22">
      <text style="font: 12px 'Times New Roman', 'Times', serif; text-anchor: middle" x="473.600149" y="395.580625" transform="rotate(-0 473.600149 395.580625)">0.2</text>
     </g>
    </g>
    <g id="xtick_11">
     <g id="line2d_37">
      <g>
       <use xlink:href="#mb0acee8c05" x="525.863462" y="380.248125" style="stroke: #000000; stroke-width: 0.8"/>
      </g>
     </g>
     <g id="text_23">
      <text style="font: 12px 'Times New Roman', 'Times', serif; text-anchor: middle" x="525.863462" y="395.580625" transform="rotate(-0 525.863462 395.580625)">0.3</text>
     </g>
    </g>
    <g id="xtick_12">
     <g id="line2d_38">
      <g>
       <use xlink:href="#mb0acee8c05" x="578.126774" y="380.248125" style="stroke: #000000; stroke-width: 0.8"/>
      </g>
     </g>
     <g id="text_24">
      <text style="font: 12px 'Times New Roman', 'Times', serif; text-anchor: middle" x="578.126774" y="395.580625" transform="rotate(-0 578.126774 395.580625)">0.4</text>
     </g>
    </g>
    <g id="xtick_13">
     <g id="line2d_39">
      <g>
       <use xlink:href="#mb0acee8c05" x="630.390087" y="380.248125" style="stroke: #000000; stroke-width: 0.8"/>
      </g>
     </g>
     <g id="text_25">
      <text style="font: 12px 'Times New Roman', 'Times', serif; text-anchor: middle" x="630.390087" y="395.580625" transform="rotate(-0 630.390087 395.580625)">0.5</text>
     </g>
    </g>
    <g id="xtick_14">
     <g id="line2d_40">
      <g>
       <use xlink:href="#mb0acee8c05" x="682.653399" y="380.248125" style="stroke: #000000; stroke-width: 0.8"/>
      </g>
     </g>
     <g id="text_26">
      <text style="font: 12px 'Times New Roman', 'Times', serif; text-anchor: middle" x="682.653399" y="395.580625" transform="rotate(-0 682.653399 395.580625)">0.6</text>
     </g>
    </g>
    <g id="text_27">
     <text style="font: 12px 'Times New Roman', 'Times', serif; text-anchor: middle" x="554.608284" y="410.48" transform="rotate(-0 554.608284 410.48)">Bin Center (ns)</text>
    </g>
   </g>
   <g id="matplotlib.axis_4">
    <g id="ytick_7">
     <g id="line2d_41">
      <g>
       <use xlink:href="#m6d51cdd391" x="408.009692" y="341.996602" style="stroke: #000000; stroke-width: 0.8"/>
      </g>
     </g>
     <g id="text_28">
      <text style="font: 12px 'Times New Roman', 'Times', serif; text-anchor: end" x="401.009692" y="346.162852" transform="rotate(-0 401.009692 346.162852)">0.10</text>
     </g>
    </g>
    <g id="ytick_8">
     <g id="line2d_42">
      <g>
       <use xlink:href="#m6d51cdd391" x="408.009692" y="294.834533" style="stroke: #000000; stroke-width: 0.8"/>
      </g>
     </g>
     <g id="text_29">
      <text style="font: 12px 'Times New Roman', 'Times', serif; text-anchor: end" x="401.009692" y="299.000783" transform="rotate(-0 401.009692 299.000783)">0.15</text>
     </g>
    </g>
    <g id="ytick_9">
     <g id="line2d_43">
      <g>
       <use xlink:href="#m6d51cdd391" x="408.009692" y="247.672464" style="stroke: #000000; stroke-width: 0.8"/>
      </g>
     </g>
     <g id="text_30">
      <text style="font: 12px 'Times New Roman', 'Times', serif; text-anchor: end" x="401.009692" y="251.838714" transform="rotate(-0 401.009692 251.838714)">0.20</text>
     </g>
    </g>
    <g id="ytick_10">
     <g id="line2d_44">
      <g>
       <use xlink:href="#m6d51cdd391" x="408.009692" y="200.510395" style="stroke: #000000; stroke-width: 0.8"/>
      </g>
     </g>
     <g id="text_31">
      <text style="font: 12px 'Times New Roman', 'Times', serif; text-anchor: end" x="401.009692" y="204.676645" transform="rotate(-0 401.009692 204.676645)">0.25</text>
     </g>
    </g>
    <g id="ytick_11">
     <g id="line2d_45">
      <g>
       <use xlink:href="#m6d51cdd391" x="408.009692" y="153.348326" style="stroke: #000000; stroke-width: 0.8"/>
      </g>
     </g>
     <g id="text_32">
      <text style="font: 12px 'Times New Roman', 'Times', serif; text-anchor: end" x="401.009692" y="157.514576" transform="rotate(-0 401.009692 157.514576)">0.30</text>
     </g>
    </g>
    <g id="ytick_12">
     <g id="line2d_46">
      <g>
       <use xlink:href="#m6d51cdd391" x="408.009692" y="106.186258" style="stroke: #000000; stroke-width: 0.8"/>
      </g>
     </g>
     <g id="text_33">
      <text style="font: 12px 'Times New Roman', 'Times', serif; text-anchor: end" x="401.009692" y="110.352508" transform="rotate(-0 401.009692 110.352508)">0.35</text>
     </g>
    </g>
    <g id="ytick_13">
     <g id="line2d_47">
      <g>
       <use xlink:href="#m6d51cdd391" x="408.009692" y="59.024189" style="stroke: #000000; stroke-width: 0.8"/>
      </g>
     </g>
     <g id="text_34">
      <text style="font: 12px 'Times New Roman', 'Times', serif; text-anchor: end" x="401.009692" y="63.190439" transform="rotate(-0 401.009692 63.190439)">0.40</text>
     </g>
    </g>
    <g id="text_35">
     <text style="font: 12px 'Times New Roman', 'Times', serif; text-anchor: middle" x="373.442817" y="201.584688" transform="rotate(-90 373.442817 201.584688)">Window Value</text>
    </g>
   </g>
   <g id="line2d_48">
    <path d="M 421.336837 362.297695 
L 437.015831 271.052298 
L 447.468493 142.824987 
L 463.147487 73.473998 
L 478.826481 39.163381 
L 494.505474 77.931946 
L 504.958137 143.027863 
L 520.637131 169.715763 
L 536.316124 192.328836 
L 546.768787 243.813694 
L 562.44778 265.901953 
L 578.126774 301.879104 
L 593.805768 341.946598 
L 604.25843 346.511143 
L 619.937424 350.635845 
L 635.616418 358.490392 
L 646.06908 360.854768 
L 661.748074 362.230222 
L 677.427068 363.214528 
L 687.87973 364.005994 
" clip-path="url(#pea693a7a15)" style="fill: none; stroke: #7fc97f; stroke-width: 1.5; stroke-linecap: square"/>
    <defs>
     <path id="m48f00859d7" d="M 0 3 
C 0.795609 3 1.55874 2.683901 2.12132 2.12132 
C 2.683901 1.55874 3 0.795609 3 0 
C 3 -0.795609 2.683901 -1.55874 2.12132 -2.12132 
C 1.55874 -2.683901 0.795609 -3 0 -3 
C -0.795609 -3 -1.55874 -2.683901 -2.12132 -2.12132 
C -2.683901 -1.55874 -3 -0.795609 -3 0 
C -3 0.795609 -2.683901 1.55874 -2.12132 2.12132 
C -1.55874 2.683901 -0.795609 3 0 3 
z
" style="stroke: #7fc97f"/>
    </defs>
    <g clip-path="url(#pea693a7a15)">
     <use xlink:href="#m48f00859d7" x="421.336837" y="362.297695" style="fill: #7fc97f; stroke: #7fc97f"/>
     <use xlink:href="#m48f00859d7" x="437.015831" y="271.052298" style="fill: #7fc97f; stroke: #7fc97f"/>
     <use xlink:href="#m48f00859d7" x="447.468493" y="142.824987" style="fill: #7fc97f; stroke: #7fc97f"/>
     <use xlink:href="#m48f00859d7" x="463.147487" y="73.473998" style="fill: #7fc97f; stroke: #7fc97f"/>
     <use xlink:href="#m48f00859d7" x="478.826481" y="39.163381" style="fill: #7fc97f; stroke: #7fc97f"/>
     <use xlink:href="#m48f00859d7" x="494.505474" y="77.931946" style="fill: #7fc97f; stroke: #7fc97f"/>
     <use xlink:href="#m48f00859d7" x="504.958137" y="143.027863" style="fill: #7fc97f; stroke: #7fc97f"/>
     <use xlink:href="#m48f00859d7" x="520.637131" y="169.715763" style="fill: #7fc97f; stroke: #7fc97f"/>
     <use xlink:href="#m48f00859d7" x="536.316124" y="192.328836" style="fill: #7fc97f; stroke: #7fc97f"/>
     <use xlink:href="#m48f00859d7" x="546.768787" y="243.813694" style="fill: #7fc97f; stroke: #7fc97f"/>
     <use xlink:href="#m48f00859d7" x="562.44778" y="265.901953" style="fill: #7fc97f; stroke: #7fc97f"/>
     <use xlink:href="#m48f00859d7" x="578.126774" y="301.879104" style="fill: #7fc97f; stroke: #7fc97f"/>
     <use xlink:href="#m48f00859d7" x="593.805768" y="341.946598" style="fill: #7fc97f; stroke: #7fc97f"/>
     <use xlink:href="#m48f00859d7" x="604.25843" y="346.511143" style="fill: #7fc97f; stroke: #7fc97f"/>
     <use xlink:href="#m48f00859d7" x="619.937424" y="350.635845" style="fill: #7fc97f; stroke: #7fc97f"/>
     <use xlink:href="#m48f00859d7" x="635.616418" y="358.490392" style="fill: #7fc97f; stroke: #7fc97f"/>
     <use xlink:href="#m48f00859d7" x="646.06908" y="360.854768" style="fill: #7fc97f; stroke: #7fc97f"/>
     <use xlink:href="#m48f00859d7" x="661.748074" y="362.230222" style="fill: #7fc97f; stroke: #7fc97f"/>
     <use xlink:href="#m48f00859d7" x="677.427068" y="363.214528" style="fill: #7fc97f; stroke: #7fc97f"/>
     <use xlink:href="#m48f00859d7" x="687.87973" y="364.005994" style="fill: #7fc97f; stroke: #7fc97f"/>
    </g>
   </g>
   <g id="patch_9">
    <path d="M 408.009692 380.248125 
L 408.009692 22.92125 
" style="fill: none; stroke: #000000; stroke-width: 0.8; stroke-linejoin: miter; stroke-linecap: square"/>
   </g>
   <g id="patch_10">
    <path d="M 701.206875 380.248125 
L 701.206875 22.92125 
" style="fill: none; stroke: #000000; stroke-width: 0.8; stroke-linejoin: miter; stroke-linecap: square"/>
   </g>
   <g id="patch_11">
    <path d="M 408.009692 380.248125 
L 701.206875 380.248125 
" style="fill: none; stroke: #000000; stroke-width: 0.8; stroke-linejoin: miter; stroke-linecap: square"/>
   </g>
   <g id="patch_12">
    <path d="M 408.009692 22.92125 
L 701.206875 22.92125 
" style="fill: none; stroke: #000000; stroke-width: 0.8; stroke-linejoin: miter; stroke-linecap: square"/>
   </g>
   <g id="text_36">
    <text style="font: 14px 'Times New Roman', 'Times', serif; text-anchor: middle" x="554.608284" y="16.92125" transform="rotate(-0 554.608284 16.92125)">Optimized Window</text>
   </g>
  </g>
 </g>
 <defs>
  <clipPath id="p000d9103b7">
   <rect x="50.099375" y="22.92125" width="293.197183" height="357.326875"/>
  </clipPath>
  <clipPath id="pea693a7a15">
   <rect x="408.009692" y="22.92125" width="293.197183" height="357.326875"/>
  </clipPath>
 </defs>
</svg>
