<?xml version="1.0" encoding="utf-8" standalone="no"?>
<!DOCTYPE svg PUBLIC "-//W3C//DTD SVG 1.1//EN"
  "http://www.w3.org/Graphics/SVG/1.1/DTD/svg11.dtd">
<svg xmlns:xlink="http://www.w3.org/1999/xlink" width="708.391875pt" height="420.246875pt" viewBox="0 0 708.391875 420.246875" xmlns="http://www.w3.org/2000/svg" version="1.1">
 <metadata>
  <rdf:RDF xmlns:dc="http://purl.org/dc/elements/1.1/" xmlns:cc="http://creativecommons.org/ns#" xmlns:rdf="http://www.w3.org/1999/02/22-rdf-syntax-ns#">
   <cc:Work>
    <dc:type rdf:resource="http://purl.org/dc/dcmitype/StillImage"/>
    <dc:date>2026-01-12T02:19:58.489954</dc:date>
    <dc:format>image/svg+xml</dc:format>
    <dc:creator>
     <cc:Agent>
      <dc:title>Matplotlib v3.9.2, https://matplotlib.org/</dc:title>
     </cc:Agent>
    </dc:creator>
   </cc:Work>
  </rdf:RDF>
 </metadata>
 <defs>
  <style type="text/css">*{stroke-linejoin: round; stroke-linecap: butt}</style>
 </defs>
 <g id="figure_1">
  <g id="patch_1">
   <path d="M 0 420.246875 
L 708.391875 420.246875 
L 708.391875 0 
L 0 0 
z
" style="fill: #ffffff"/>
  </g>
  <g id="axes_1">
   <g id="patch_2">
    <path d="M 44.099375 380.248125 
L 347.671875 380.248125 
L 347.671875 22.92125 
L 44.099375 22.92125 
z
" style="fill: #ffffff"/>
   </g>
   <g id="matplotlib.axis_1">
    <g id="xtick_1">
     <g id="line2d_1">
      <path d="M 57.898125 380.248125 
L 57.898125 22.92125 
" clip-path="url(#p51cbab3420)" style="fill: none; stroke: #b0b0b0; stroke-width: 0.8; stroke-linecap: square"/>
     </g>
     <g id="line2d_2">
      <defs>
       <path id="mf38f048e86" d="M 0 0 
L 0 3.5 
" style="stroke: #000000; stroke-width: 0.8"/>
      </defs>
      <g>
       <use xlink:href="#mf38f048e86" x="57.898125" y="380.248125" style="stroke: #000000; stroke-width: 0.8"/>
      </g>
     </g>
     <g id="text_1">
      <text style="font: 12px 'Times New Roman', 'Times', serif; text-anchor: middle" x="57.898125" y="395.580625" transform="rotate(-0 57.898125 395.580625)">0</text>
     </g>
    </g>
    <g id="xtick_2">
     <g id="line2d_3">
      <path d="M 112.54664 380.248125 
L 112.54664 22.92125 
" clip-path="url(#p51cbab3420)" style="fill: none; stroke: #b0b0b0; stroke-width: 0.8; stroke-linecap: square"/>
     </g>
     <g id="line2d_4">
      <g>
       <use xlink:href="#mf38f048e86" x="112.54664" y="380.248125" style="stroke: #000000; stroke-width: 0.8"/>
      </g>
     </g>
     <g id="text_2">
      <text style="font: 12px 'Times New Roman', 'Times', serif; text-anchor: middle" x="112.54664" y="395.580625" transform="rotate(-0 112.54664 395.580625)">20</text>
     </g>
    </g>
    <g id="xtick_3">
     <g id="line2d_5">
      <path d="M 167.195155 380.248125 
L 167.195155 22.92125 
" clip-path="url(#p51cbab3420)" style="fill: none; stroke: #b0b0b0; stroke-width: 0.8; stroke-linecap: square"/>
     </g>
     <g id="line2d_6">
      <g>
       <use xlink:href="#mf38f048e86" x="167.195155" y="380.248125" style="stroke: #000000; stroke-width: 0.8"/>
      </g>
     </g>
     <g id="text_3">
      <text style="font: 12px 'Times New Roman', 'Times', serif; text-anchor: middle" x="167.195155" y="395.580625" transform="rotate(-0 167.195155 395.580625)">40</text>
     </g>
    </g>
    <g id="xtick_4">
     <g id="line2d_7">
      <path d="M 221.84367 380.248125 
L 221.84367 22.92125 
" clip-path="url(#p51cbab3420)" style="fill: none; stroke: #b0b0b0; stroke-width: 0.8; stroke-linecap: square"/>
     </g>
     <g id="line2d_8">
      <g>
       <use xlink:href="#mf38f048e86" x="221.84367" y="380.248125" style="stroke: #000000; stroke-width: 0.8"/>
      </g>
     </g>
     <g id="text_4">
      <text style="font: 12px 'Times New Roman', 'Times', serif; text-anchor: middle" x="221.84367" y="395.580625" transform="rotate(-0 221.84367 395.580625)">60</text>
     </g>
    </g>
    <g id="xtick_5">
     <g id="line2d_9">
      <path d="M 276.492184 380.248125 
L 276.492184 22.92125 
" clip-path="url(#p51cbab3420)" style="fill: none; stroke: #b0b0b0; stroke-width: 0.8; stroke-linecap: square"/>
     </g>
     <g id="line2d_10">
      <g>
       <use xlink:href="#mf38f048e86" x="276.492184" y="380.248125" style="stroke: #000000; stroke-width: 0.8"/>
      </g>
     </g>
     <g id="text_5">
      <text style="font: 12px 'Times New Roman', 'Times', serif; text-anchor: middle" x="276.492184" y="395.580625" transform="rotate(-0 276.492184 395.580625)">80</text>
     </g>
    </g>
    <g id="xtick_6">
     <g id="line2d_11">
      <path d="M 331.140699 380.248125 
L 331.140699 22.92125 
" clip-path="url(#p51cbab3420)" style="fill: none; stroke: #b0b0b0; stroke-width: 0.8; stroke-linecap: square"/>
     </g>
     <g id="line2d_12">
      <g>
       <use xlink:href="#mf38f048e86" x="331.140699" y="380.248125" style="stroke: #000000; stroke-width: 0.8"/>
      </g>
     </g>
     <g id="text_6">
      <text style="font: 12px 'Times New Roman', 'Times', serif; text-anchor: middle" x="331.140699" y="395.580625" transform="rotate(-0 331.140699 395.580625)">100</text>
     </g>
    </g>
    <g id="text_7">
     <text style="font: 12px 'Times New Roman', 'Times', serif; text-anchor: middle" x="195.885625" y="410.48" transform="rotate(-0 195.885625 410.48)">Epoch</text>
    </g>
   </g>
   <g id="matplotlib.axis_2">
    <g id="ytick_1">
     <g id="line2d_13">
      <path d="M 44.099375 341.089511 
L 347.671875 341.089511 
" clip-path="url(#p51cbab3420)" style="fill: none; stroke: #b0b0b0; stroke-width: 0.8; stroke-linecap: square"/>
     </g>
     <g id="line2d_14">
      <defs>
       <path id="m1001d405bb" d="M 0 0 
L -3.5 0 
" style="stroke: #000000; stroke-width: 0.8"/>
      </defs>
      <g>
       <use xlink:href="#m1001d405bb" x="44.099375" y="341.089511" style="stroke: #000000; stroke-width: 0.8"/>
      </g>
     </g>
     <g id="text_8">
      <text style="font: 12px 'Times New Roman', 'Times', serif; text-anchor: end" x="37.099375" y="345.255761" transform="rotate(-0 37.099375 345.255761)">0.3</text>
     </g>
    </g>
    <g id="ytick_2">
     <g id="line2d_15">
      <path d="M 44.099375 297.957207 
L 347.671875 297.957207 
" clip-path="url(#p51cbab3420)" style="fill: none; stroke: #b0b0b0; stroke-width: 0.8; stroke-linecap: square"/>
     </g>
     <g id="line2d_16">
      <g>
       <use xlink:href="#m1001d405bb" x="44.099375" y="297.957207" style="stroke: #000000; stroke-width: 0.8"/>
      </g>
     </g>
     <g id="text_9">
      <text style="font: 12px 'Times New Roman', 'Times', serif; text-anchor: end" x="37.099375" y="302.123457" transform="rotate(-0 37.099375 302.123457)">0.4</text>
     </g>
    </g>
    <g id="ytick_3">
     <g id="line2d_17">
      <path d="M 44.099375 254.824902 
L 347.671875 254.824902 
" clip-path="url(#p51cbab3420)" style="fill: none; stroke: #b0b0b0; stroke-width: 0.8; stroke-linecap: square"/>
     </g>
     <g id="line2d_18">
      <g>
       <use xlink:href="#m1001d405bb" x="44.099375" y="254.824902" style="stroke: #000000; stroke-width: 0.8"/>
      </g>
     </g>
     <g id="text_10">
      <text style="font: 12px 'Times New Roman', 'Times', serif; text-anchor: end" x="37.099375" y="258.991152" transform="rotate(-0 37.099375 258.991152)">0.5</text>
     </g>
    </g>
    <g id="ytick_4">
     <g id="line2d_19">
      <path d="M 44.099375 211.692598 
L 347.671875 211.692598 
" clip-path="url(#p51cbab3420)" style="fill: none; stroke: #b0b0b0; stroke-width: 0.8; stroke-linecap: square"/>
     </g>
     <g id="line2d_20">
      <g>
       <use xlink:href="#m1001d405bb" x="44.099375" y="211.692598" style="stroke: #000000; stroke-width: 0.8"/>
      </g>
     </g>
     <g id="text_11">
      <text style="font: 12px 'Times New Roman', 'Times', serif; text-anchor: end" x="37.099375" y="215.858848" transform="rotate(-0 37.099375 215.858848)">0.6</text>
     </g>
    </g>
    <g id="ytick_5">
     <g id="line2d_21">
      <path d="M 44.099375 168.560294 
L 347.671875 168.560294 
" clip-path="url(#p51cbab3420)" style="fill: none; stroke: #b0b0b0; stroke-width: 0.8; stroke-linecap: square"/>
     </g>
     <g id="line2d_22">
      <g>
       <use xlink:href="#m1001d405bb" x="44.099375" y="168.560294" style="stroke: #000000; stroke-width: 0.8"/>
      </g>
     </g>
     <g id="text_12">
      <text style="font: 12px 'Times New Roman', 'Times', serif; text-anchor: end" x="37.099375" y="172.726544" transform="rotate(-0 37.099375 172.726544)">0.7</text>
     </g>
    </g>
    <g id="ytick_6">
     <g id="line2d_23">
      <path d="M 44.099375 125.427989 
L 347.671875 125.427989 
" clip-path="url(#p51cbab3420)" style="fill: none; stroke: #b0b0b0; stroke-width: 0.8; stroke-linecap: square"/>
     </g>
     <g id="line2d_24">
      <g>
       <use xlink:href="#m1001d405bb" x="44.099375" y="125.427989" style="stroke: #000000; stroke-width: 0.8"/>
      </g>
     </g>
     <g id="text_13">
      <text style="font: 12px 'Times New Roman', 'Times', serif; text-anchor: end" x="37.099375" y="129.594239" transform="rotate(-0 37.099375 129.594239)">0.8</text>
     </g>
    </g>
    <g id="ytick_7">
     <g id="line2d_25">
      <path d="M 44.099375 82.295685 
L 347.671875 82.295685 
" clip-path="url(#p51cbab3420)" style="fill: none; stroke: #b0b0b0; stroke-width: 0.8; stroke-linecap: square"/>
     </g>
     <g id="line2d_26">
      <g>
       <use xlink:href="#m1001d405bb" x="44.099375" y="82.295685" style="stroke: #000000; stroke-width: 0.8"/>
      </g>
     </g>
     <g id="text_14">
      <text style="font: 12px 'Times New Roman', 'Times', serif; text-anchor: end" x="37.099375" y="86.461935" transform="rotate(-0 37.099375 86.461935)">0.9</text>
     </g>
    </g>
    <g id="ytick_8">
     <g id="line2d_27">
      <path d="M 44.099375 39.163381 
L 347.671875 39.163381 
" clip-path="url(#p51cbab3420)" style="fill: none; stroke: #b0b0b0; stroke-width: 0.8; stroke-linecap: square"/>
     </g>
     <g id="line2d_28">
      <g>
       <use xlink:href="#m1001d405bb" x="44.099375" y="39.163381" style="stroke: #000000; stroke-width: 0.8"/>
      </g>
     </g>
     <g id="text_15">
      <text style="font: 12px 'Times New Roman', 'Times', serif; text-anchor: end" x="37.099375" y="43.329631" transform="rotate(-0 37.099375 43.329631)">1.0</text>
     </g>
    </g>
    <g id="text_16">
     <text style="font: 12px 'Times New Roman', 'Times', serif; text-anchor: middle" x="15.5325" y="201.584688" transform="rotate(-90 15.5325 201.584688)">Metric Value</text>
    </g>
   </g>
   <g id="line2d_29">
    <path d="M 57.898125 49.705738 
L 60.630551 49.380285 
L 63.362976 49.00403 
L 66.095402 48.588149 
L 68.827828 48.147087 
L 71.560254 47.696363 
L 74.292679 47.252185 
L 77.025105 46.827711 
L 79.757531 46.434806 
L 82.489957 46.079231 
L 85.222382 45.765424 
L 87.954808 45.494486 
L 90.687234 45.263489 
L 93.41966 45.069476 
L 96.152085 44.907883 
L 98.884511 44.773893 
L 101.616937 44.662062 
L 104.349363 44.567762 
L 107.081788 44.487689 
L 109.814214 44.418161 
L 112.54664 44.355336 
L 115.279066 44.297044 
L 118.011491 44.240483 
L 120.743917 44.184741 
L 123.476343 44.126889 
L 126.208769 44.066237 
L 128.941194 44.000517 
L 131.67362 43.928753 
L 134.406046 43.84868 
L 137.138472 43.758221 
L 139.870897 43.656462 
L 142.603323 43.539405 
L 145.335749 43.40743 
L 148.068175 43.257325 
L 150.8006 43.088398 
L 153.533026 42.899798 
L 156.265452 42.690961 
L 158.997877 42.463112 
L 161.730303 42.218487 
L 164.462729 41.959729 
L 167.195155 41.692033 
L 169.92758 41.419206 
L 172.660006 41.148016 
L 175.392432 40.883688 
L 178.124858 40.631666 
L 180.857283 40.396263 
L 183.589709 40.181414 
L 186.322135 39.989163 
L 189.054561 39.819921 
L 191.786986 39.674506 
L 194.519412 39.552414 
L 197.251838 39.451064 
L 199.984264 39.369763 
L 202.716689 39.305428 
L 205.449115 39.256736 
L 208.181541 39.220603 
L 210.913967 39.195643 
L 213.646392 39.179181 
L 216.378818 39.169204 
L 219.111244 39.16486 
L 221.84367 39.163381 
L 224.576095 39.164293 
L 227.308521 39.166088 
L 230.040947 39.168039 
L 232.773373 39.16955 
L 235.505798 39.170211 
L 238.238224 39.170714 
L 240.97065 39.170274 
L 243.703075 39.169172 
L 246.435501 39.168889 
L 249.167927 39.168008 
L 251.900353 39.168448 
L 254.632778 39.169487 
L 257.365204 39.17169 
L 260.09763 39.174428 
L 262.830056 39.178772 
L 265.562481 39.184406 
L 268.294907 39.189096 
L 271.027333 39.195108 
L 273.759759 39.200931 
L 276.492184 39.207163 
L 279.22461 39.212104 
L 281.957036 39.217077 
L 284.689462 39.221043 
L 287.421887 39.224663 
L 290.154313 39.226961 
L 292.886739 39.228849 
L 295.619165 39.230863 
L 298.35159 39.232343 
L 301.084016 39.233539 
L 303.816442 39.235396 
L 306.548868 39.237221 
L 309.281293 39.239708 
L 312.013719 39.242541 
L 314.746145 39.246003 
L 317.478571 39.249276 
L 320.210996 39.253337 
L 322.943422 39.257208 
L 325.675848 39.260985 
L 328.408274 39.264038 
L 331.140699 39.267249 
L 333.873125 39.268854 
" clip-path="url(#p51cbab3420)" style="fill: none; stroke: #7fc97f; stroke-width: 1.5; stroke-linecap: square"/>
   </g>
   <g id="line2d_30">
    <path d="M 57.898125 361.352688 
L 60.630551 352.351112 
L 63.362976 341.872437 
L 66.095402 329.820483 
L 68.827828 316.160338 
L 71.560254 300.942675 
L 74.292679 284.324355 
L 77.025105 266.577931 
L 79.757531 248.083787 
L 82.489957 229.299417 
L 85.222382 210.714888 
L 87.954808 192.797286 
L 90.687234 175.940497 
L 93.41966 160.434214 
L 96.152085 146.454564 
L 98.884511 134.076824 
L 101.616937 123.302128 
L 104.349363 114.085293 
L 107.081788 106.35708 
L 109.814214 100.03725 
L 112.54664 95.037119 
L 115.279066 91.261905 
L 118.011491 88.605917 
L 120.743917 86.951001 
L 123.476343 86.164784 
L 126.208769 86.103856 
L 128.941194 86.613837 
L 131.67362 87.537134 
L 134.406046 88.715373 
L 137.138472 89.996154 
L 139.870897 91.237982 
L 142.603323 92.313387 
L 145.335749 93.113887 
L 148.068175 93.548529 
L 150.8006 93.546094 
L 153.533026 93.052862 
L 156.265452 92.032477 
L 158.997877 90.466664 
L 161.730303 88.354838 
L 164.462729 85.714918 
L 167.195155 82.58644 
L 169.92758 79.02858 
L 172.660006 75.122746 
L 175.392432 70.967261 
L 178.124858 66.675411 
L 180.857283 62.367786 
L 183.589709 58.169259 
L 186.322135 54.198472 
L 189.054561 50.563778 
L 191.786986 47.356455 
L 194.519412 44.646551 
L 197.251838 42.477141 
L 199.984264 40.866338 
L 202.716689 39.80317 
L 205.449115 39.254431 
L 208.181541 39.163381 
L 210.913967 39.45906 
L 213.646392 40.057204 
L 216.378818 40.868513 
L 219.111244 41.805086 
L 221.84367 42.781909 
L 224.576095 43.726662 
L 227.308521 44.579943 
L 230.040947 45.299649 
L 232.773373 45.861762 
L 235.505798 46.259237 
L 238.238224 46.501195 
L 240.97065 46.607631 
L 243.703075 46.607047 
L 246.435501 46.533395 
L 249.167927 46.418421 
L 251.900353 46.292963 
L 254.632778 46.180943 
L 257.365204 46.100019 
L 260.09763 46.05925 
L 262.830056 46.061781 
L 265.562481 46.102779 
L 268.294907 46.17075 
L 271.027333 46.2544 
L 273.759759 46.33753 
L 276.492184 46.40534 
L 279.22461 46.443643 
L 281.957036 46.443221 
L 284.689462 46.397614 
L 287.421887 46.307083 
L 290.154313 46.175262 
L 292.886739 46.012247 
L 295.619165 45.830762 
L 298.35159 45.645642 
L 301.084016 45.473668 
L 303.816442 45.330584 
L 306.548868 45.22947 
L 309.281293 45.18104 
L 312.013719 45.190681 
L 314.746145 45.260145 
L 317.478571 45.385149 
L 320.210996 45.558876 
L 322.943422 45.768958 
L 325.675848 46.001048 
L 328.408274 46.238722 
L 331.140699 46.466462 
L 333.873125 46.667228 
" clip-path="url(#p51cbab3420)" style="fill: none; stroke-dasharray: 5.55,2.4; stroke-dashoffset: 0; stroke: #beaed4; stroke-width: 1.5"/>
   </g>
   <g id="line2d_31">
    <path d="M 57.898125 364.005994 
L 60.630551 355.134116 
L 63.362976 344.790086 
L 66.095402 332.875889 
L 68.827828 319.354631 
L 71.560254 304.274753 
L 74.292679 287.791304 
L 77.025105 270.174676 
L 79.757531 251.804125 
L 82.489957 233.135122 
L 85.222382 214.657138 
L 87.954808 196.836991 
L 90.687234 180.067668 
L 93.41966 164.639178 
L 96.152085 150.727694 
L 98.884511 138.408673 
L 101.616937 127.682694 
L 104.349363 118.504225 
L 107.081788 110.804229 
L 109.814214 104.501861 
L 112.54664 99.507297 
L 115.279066 95.725742 
L 118.011491 93.050954 
L 120.743917 91.365723 
L 123.476343 90.537018 
L 126.208769 90.422709 
L 128.941194 90.86846 
L 131.67362 91.717793 
L 134.406046 92.812279 
L 137.138472 93.999532 
L 139.870897 95.138812 
L 142.603323 96.100507 
L 145.335749 96.777501 
L 148.068175 97.076709 
L 150.8006 96.926668 
L 153.533026 96.272806 
L 156.265452 95.077842 
L 158.997877 93.32385 
L 161.730303 91.011148 
L 164.462729 88.158736 
L 167.195155 84.809339 
L 169.92758 81.024246 
L 172.660006 76.889706 
L 175.392432 72.507906 
L 178.124858 67.996653 
L 180.857283 63.480353 
L 183.589709 59.087861 
L 186.322135 54.940324 
L 189.054561 51.147322 
L 191.786986 47.80178 
L 194.519412 44.974169 
L 197.251838 42.705864 
L 199.984264 41.014909 
L 202.716689 39.887871 
L 205.449115 39.290568 
L 208.181541 39.163381 
L 210.913967 39.434091 
L 213.646392 40.015853 
L 216.378818 40.817292 
L 219.111244 41.749654 
L 221.84367 42.725141 
L 224.576095 43.670937 
L 227.308521 44.526112 
L 230.040947 45.247821 
L 232.773373 45.811499 
L 235.505798 46.209674 
L 238.238224 46.452125 
L 240.97065 46.558167 
L 243.703075 46.556498 
L 246.435501 46.482531 
L 249.167927 46.366711 
L 251.900353 46.24167 
L 254.632778 46.130659 
L 257.365204 46.051882 
L 260.09763 46.013806 
L 262.830056 46.020602 
L 265.562481 46.067145 
L 268.294907 46.139761 
L 271.027333 46.229309 
L 273.759759 46.318181 
L 276.492184 46.392108 
L 279.22461 46.435273 
L 281.957036 46.439764 
L 284.689462 46.398031 
L 287.421887 46.311066 
L 290.154313 46.181494 
L 292.886739 46.020364 
L 295.619165 45.840871 
L 298.35159 45.657205 
L 301.084016 45.486416 
L 303.816442 45.345159 
L 306.548868 45.245833 
L 309.281293 45.199887 
L 312.013719 45.212288 
L 314.746145 45.285182 
L 317.478571 45.413402 
L 320.210996 45.591107 
L 322.943422 45.80498 
L 325.675848 46.040793 
L 328.408274 46.281455 
L 331.140699 46.5123 
L 333.873125 46.714647 
" clip-path="url(#p51cbab3420)" style="fill: none; stroke-dasharray: 9.6,2.4,1.5,2.4; stroke-dashoffset: 0; stroke: #fdc086; stroke-width: 1.5"/>
   </g>
   <g id="patch_3">
    <path d="M 44.099375 380.248125 
L 44.099375 22.92125 
" style="fill: none; stroke: #000000; stroke-width: 0.8; stroke-linejoin: miter; stroke-linecap: square"/>
   </g>
   <g id="patch_4">
    <path d="M 347.671875 380.248125 
L 347.671875 22.92125 
" style="fill: none; stroke: #000000; stroke-width: 0.8; stroke-linejoin: miter; stroke-linecap: square"/>
   </g>
   <g id="patch_5">
    <path d="M 44.099375 380.248125 
L 347.671875 380.248125 
" style="fill: none; stroke: #000000; stroke-width: 0.8; stroke-linejoin: miter; stroke-linecap: square"/>
   </g>
   <g id="patch_6">
    <path d="M 44.099375 22.92125 
L 347.671875 22.92125 
" style="fill: none; stroke: #000000; stroke-width: 0.8; stroke-linejoin: miter; stroke-linecap: square"/>
   </g>
   <g id="text_17">
    <text style="font: 14px 'Times New Roman', 'Times', serif; text-anchor: middle" x="195.885625" y="16.92125" transform="rotate(-0 195.885625 16.92125)">Normalized Training Metrics</text>
   </g>
   <g id="legend_1">
    <g id="patch_7">
     <path d="M 214.884375 374.248125 
L 339.271875 374.248125 
Q 341.671875 374.248125 341.671875 371.848125 
L 341.671875 322.125 
Q 341.671875 319.725 339.271875 319.725 
L 214.884375 319.725 
Q 212.484375 319.725 212.484375 322.125 
L 212.484375 371.848125 
Q 212.484375 374.248125 214.884375 374.248125 
z
" style="fill: #ffffff; opacity: 0.8; stroke: #cccccc; stroke-linejoin: miter"/>
    </g>
    <g id="line2d_32">
     <path d="M 217.284375 328.725 
L 229.284375 328.725 
L 241.284375 328.725 
" style="fill: none; stroke: #7fc97f; stroke-width: 1.5; stroke-linecap: square"/>
    </g>
    <g id="text_18">
     <text style="font: 12px 'Times New Roman', 'Times', serif; text-anchor: start" x="250.884375" y="332.925" transform="rotate(-0 250.884375 332.925)">Energy Ratio</text>
    </g>
    <g id="line2d_33">
     <path d="M 217.284375 345.714375 
L 229.284375 345.714375 
L 241.284375 345.714375 
" style="fill: none; stroke-dasharray: 5.55,2.4; stroke-dashoffset: 0; stroke: #beaed4; stroke-width: 1.5"/>
    </g>
    <g id="text_19">
     <text style="font: 12px 'Times New Roman', 'Times', serif; text-anchor: start" x="250.884375" y="349.914375" transform="rotate(-0 250.884375 349.914375)">Contrast-to-Noise</text>
    </g>
    <g id="line2d_34">
     <path d="M 217.284375 362.68125 
L 229.284375 362.68125 
L 241.284375 362.68125 
" style="fill: none; stroke-dasharray: 9.6,2.4,1.5,2.4; stroke-dashoffset: 0; stroke: #fdc086; stroke-width: 1.5"/>
    </g>
    <g id="text_20">
     <text style="font: 12px 'Times New Roman', 'Times', serif; text-anchor: start" x="250.884375" y="366.88125" transform="rotate(-0 250.884375 366.88125)">Final Metric</text>
    </g>
   </g>
  </g>
  <g id="axes_2">
   <g id="patch_8">
    <path d="M 397.619375 380.248125 
L 701.191875 380.248125 
L 701.191875 22.92125 
L 397.619375 22.92125 
z
" style="fill: #ffffff"/>
   </g>
   <g id="matplotlib.axis_3">
    <g id="xtick_7">
     <g id="line2d_35">
      <g>
       <use xlink:href="#mf38f048e86" x="406.818542" y="380.248125" style="stroke: #000000; stroke-width: 0.8"/>
      </g>
     </g>
     <g id="text_21">
      <text style="font: 12px 'Times New Roman', 'Times', serif; text-anchor: middle" x="406.818542" y="395.580625" transform="rotate(-0 406.818542 395.580625)">0.3</text>
     </g>
    </g>
    <g id="xtick_8">
     <g id="line2d_36">
      <g>
       <use xlink:href="#mf38f048e86" x="452.814375" y="380.248125" style="stroke: #000000; stroke-width: 0.8"/>
      </g>
     </g>
     <g id="text_22">
      <text style="font: 12px 'Times New Roman', 'Times', serif; text-anchor: middle" x="452.814375" y="395.580625" transform="rotate(-0 452.814375 395.580625)">0.4</text>
     </g>
    </g>
    <g id="xtick_9">
     <g id="line2d_37">
      <g>
       <use xlink:href="#mf38f048e86" x="498.810208" y="380.248125" style="stroke: #000000; stroke-width: 0.8"/>
      </g>
     </g>
     <g id="text_23">
      <text style="font: 12px 'Times New Roman', 'Times', serif; text-anchor: middle" x="498.810208" y="395.580625" transform="rotate(-0 498.810208 395.580625)">0.5</text>
     </g>
    </g>
    <g id="xtick_10">
     <g id="line2d_38">
      <g>
       <use xlink:href="#mf38f048e86" x="544.806042" y="380.248125" style="stroke: #000000; stroke-width: 0.8"/>
      </g>
     </g>
     <g id="text_24">
      <text style="font: 12px 'Times New Roman', 'Times', serif; text-anchor: middle" x="544.806042" y="395.580625" transform="rotate(-0 544.806042 395.580625)">0.6</text>
     </g>
    </g>
    <g id="xtick_11">
     <g id="line2d_39">
      <g>
       <use xlink:href="#mf38f048e86" x="590.801875" y="380.248125" style="stroke: #000000; stroke-width: 0.8"/>
      </g>
     </g>
     <g id="text_25">
      <text style="font: 12px 'Times New Roman', 'Times', serif; text-anchor: middle" x="590.801875" y="395.580625" transform="rotate(-0 590.801875 395.580625)">0.7</text>
     </g>
    </g>
    <g id="xtick_12">
     <g id="line2d_40">
      <g>
       <use xlink:href="#mf38f048e86" x="636.797708" y="380.248125" style="stroke: #000000; stroke-width: 0.8"/>
      </g>
     </g>
     <g id="text_26">
      <text style="font: 12px 'Times New Roman', 'Times', serif; text-anchor: middle" x="636.797708" y="395.580625" transform="rotate(-0 636.797708 395.580625)">0.8</text>
     </g>
    </g>
    <g id="xtick_13">
     <g id="line2d_41">
      <g>
       <use xlink:href="#mf38f048e86" x="682.793542" y="380.248125" style="stroke: #000000; stroke-width: 0.8"/>
      </g>
     </g>
     <g id="text_27">
      <text style="font: 12px 'Times New Roman', 'Times', serif; text-anchor: middle" x="682.793542" y="395.580625" transform="rotate(-0 682.793542 395.580625)">0.9</text>
     </g>
    </g>
    <g id="text_28">
     <text style="font: 12px 'Times New Roman', 'Times', serif; text-anchor: middle" x="549.405625" y="410.48" transform="rotate(-0 549.405625 410.48)">Bin Center (ns)</text>
    </g>
   </g>
   <g id="matplotlib.axis_4">
    <g id="ytick_9">
     <g id="line2d_42">
      <g>
       <use xlink:href="#m1001d405bb" x="397.619375" y="369.450908" style="stroke: #000000; stroke-width: 0.8"/>
      </g>
     </g>
     <g id="text_29">
      <text style="font: 12px 'Times New Roman', 'Times', serif; text-anchor: end" x="390.619375" y="373.617158" transform="rotate(-0 390.619375 373.617158)">0.0</text>
     </g>
    </g>
    <g id="ytick_10">
     <g id="line2d_43">
      <g>
       <use xlink:href="#m1001d405bb" x="397.619375" y="325.480939" style="stroke: #000000; stroke-width: 0.8"/>
      </g>
     </g>
     <g id="text_30">
      <text style="font: 12px 'Times New Roman', 'Times', serif; text-anchor: end" x="390.619375" y="329.647189" transform="rotate(-0 390.619375 329.647189)">0.1</text>
     </g>
    </g>
    <g id="ytick_11">
     <g id="line2d_44">
      <g>
       <use xlink:href="#m1001d405bb" x="397.619375" y="281.51097" style="stroke: #000000; stroke-width: 0.8"/>
      </g>
     </g>
     <g id="text_31">
      <text style="font: 12px 'Times New Roman', 'Times', serif; text-anchor: end" x="390.619375" y="285.67722" transform="rotate(-0 390.619375 285.67722)">0.2</text>
     </g>
    </g>
    <g id="ytick_12">
     <g id="line2d_45">
      <g>
       <use xlink:href="#m1001d405bb" x="397.619375" y="237.541002" style="stroke: #000000; stroke-width: 0.8"/>
      </g>
     </g>
     <g id="text_32">
      <text style="font: 12px 'Times New Roman', 'Times', serif; text-anchor: end" x="390.619375" y="241.707252" transform="rotate(-0 390.619375 241.707252)">0.3</text>
     </g>
    </g>
    <g id="ytick_13">
     <g id="line2d_46">
      <g>
       <use xlink:href="#m1001d405bb" x="397.619375" y="193.571033" style="stroke: #000000; stroke-width: 0.8"/>
      </g>
     </g>
     <g id="text_33">
      <text style="font: 12px 'Times New Roman', 'Times', serif; text-anchor: end" x="390.619375" y="197.737283" transform="rotate(-0 390.619375 197.737283)">0.4</text>
     </g>
    </g>
    <g id="ytick_14">
     <g id="line2d_47">
      <g>
       <use xlink:href="#m1001d405bb" x="397.619375" y="149.601065" style="stroke: #000000; stroke-width: 0.8"/>
      </g>
     </g>
     <g id="text_34">
      <text style="font: 12px 'Times New Roman', 'Times', serif; text-anchor: end" x="390.619375" y="153.767315" transform="rotate(-0 390.619375 153.767315)">0.5</text>
     </g>
    </g>
    <g id="ytick_15">
     <g id="line2d_48">
      <g>
       <use xlink:href="#m1001d405bb" x="397.619375" y="105.631096" style="stroke: #000000; stroke-width: 0.8"/>
      </g>
     </g>
     <g id="text_35">
      <text style="font: 12px 'Times New Roman', 'Times', serif; text-anchor: end" x="390.619375" y="109.797346" transform="rotate(-0 390.619375 109.797346)">0.6</text>
     </g>
    </g>
    <g id="ytick_16">
     <g id="line2d_49">
      <g>
       <use xlink:href="#m1001d405bb" x="397.619375" y="61.661127" style="stroke: #000000; stroke-width: 0.8"/>
      </g>
     </g>
     <g id="text_36">
      <text style="font: 12px 'Times New Roman', 'Times', serif; text-anchor: end" x="390.619375" y="65.827377" transform="rotate(-0 390.619375 65.827377)">0.7</text>
     </g>
    </g>
    <g id="text_37">
     <text style="font: 12px 'Times New Roman', 'Times', serif; text-anchor: middle" x="369.0525" y="201.584688" transform="rotate(-90 369.0525 201.584688)">Window Value</text>
    </g>
   </g>
   <g id="line2d_50">
    <path d="M 411.418125 363.510253 
L 425.216875 363.630037 
L 439.015625 39.163381 
L 452.814375 363.630209 
L 466.613125 361.339004 
L 485.011458 363.910894 
L 498.810208 363.466961 
L 512.608958 363.712998 
L 526.407708 363.777805 
L 540.206458 364.005994 
L 554.005208 363.65438 
L 567.803958 363.74352 
L 586.202292 363.958012 
L 600.001042 363.983446 
L 613.799792 363.988713 
L 627.598542 363.979814 
L 641.397292 363.993174 
L 655.196042 363.98639 
L 668.994792 363.997098 
L 687.393125 363.886361 
" clip-path="url(#pb95f0b8c31)" style="fill: none; stroke: #7fc97f; stroke-width: 1.5; stroke-linecap: square"/>
    <defs>
     <path id="m1d0a4db0a3" d="M 0 3 
C 0.795609 3 1.55874 2.683901 2.12132 2.12132 
C 2.683901 1.55874 3 0.795609 3 0 
C 3 -0.795609 2.683901 -1.55874 2.12132 -2.12132 
C 1.55874 -2.683901 0.795609 -3 0 -3 
C -0.795609 -3 -1.55874 -2.683901 -2.12132 -2.12132 
C -2.683901 -1.55874 -3 -0.795609 -3 0 
C -3 0.795609 -2.683901 1.55874 -2.12132 2.12132 
C -1.55874 2.683901 -0.795609 3 0 3 
z
" style="stroke: #7fc97f"/>
    </defs>
    <g clip-path="url(#pb95f0b8c31)">
     <use xlink:href="#m1d0a4db0a3" x="411.418125" y="363.510253" style="fill: #7fc97f; stroke: #7fc97f"/>
     <use xlink:href="#m1d0a4db0a3" x="425.216875" y="363.630037" style="fill: #7fc97f; stroke: #7fc97f"/>
     <use xlink:href="#m1d0a4db0a3" x="439.015625" y="39.163381" style="fill: #7fc97f; stroke: #7fc97f"/>
     <use xlink:href="#m1d0a4db0a3" x="452.814375" y="363.630209" style="fill: #7fc97f; stroke: #7fc97f"/>
     <use xlink:href="#m1d0a4db0a3" x="466.613125" y="361.339004" style="fill: #7fc97f; stroke: #7fc97f"/>
     <use xlink:href="#m1d0a4db0a3" x="485.011458" y="363.910894" style="fill: #7fc97f; stroke: #7fc97f"/>
     <use xlink:href="#m1d0a4db0a3" x="498.810208" y="363.466961" style="fill: #7fc97f; stroke: #7fc97f"/>
     <use xlink:href="#m1d0a4db0a3" x="512.608958" y="363.712998" style="fill: #7fc97f; stroke: #7fc97f"/>
     <use xlink:href="#m1d0a4db0a3" x="526.407708" y="363.777805" style="fill: #7fc97f; stroke: #7fc97f"/>
     <use xlink:href="#m1d0a4db0a3" x="540.206458" y="364.005994" style="fill: #7fc97f; stroke: #7fc97f"/>
     <use xlink:href="#m1d0a4db0a3" x="554.005208" y="363.65438" style="fill: #7fc97f; stroke: #7fc97f"/>
     <use xlink:href="#m1d0a4db0a3" x="567.803958" y="363.74352" style="fill: #7fc97f; stroke: #7fc97f"/>
     <use xlink:href="#m1d0a4db0a3" x="586.202292" y="363.958012" style="fill: #7fc97f; stroke: #7fc97f"/>
     <use xlink:href="#m1d0a4db0a3" x="600.001042" y="363.983446" style="fill: #7fc97f; stroke: #7fc97f"/>
     <use xlink:href="#m1d0a4db0a3" x="613.799792" y="363.988713" style="fill: #7fc97f; stroke: #7fc97f"/>
     <use xlink:href="#m1d0a4db0a3" x="627.598542" y="363.979814" style="fill: #7fc97f; stroke: #7fc97f"/>
     <use xlink:href="#m1d0a4db0a3" x="641.397292" y="363.993174" style="fill: #7fc97f; stroke: #7fc97f"/>
     <use xlink:href="#m1d0a4db0a3" x="655.196042" y="363.98639" style="fill: #7fc97f; stroke: #7fc97f"/>
     <use xlink:href="#m1d0a4db0a3" x="668.994792" y="363.997098" style="fill: #7fc97f; stroke: #7fc97f"/>
     <use xlink:href="#m1d0a4db0a3" x="687.393125" y="363.886361" style="fill: #7fc97f; stroke: #7fc97f"/>
    </g>
   </g>
   <g id="patch_9">
    <path d="M 397.619375 380.248125 
L 397.619375 22.92125 
" style="fill: none; stroke: #000000; stroke-width: 0.8; stroke-linejoin: miter; stroke-linecap: square"/>
   </g>
   <g id="patch_10">
    <path d="M 701.191875 380.248125 
L 701.191875 22.92125 
" style="fill: none; stroke: #000000; stroke-width: 0.8; stroke-linejoin: miter; stroke-linecap: square"/>
   </g>
   <g id="patch_11">
    <path d="M 397.619375 380.248125 
L 701.191875 380.248125 
" style="fill: none; stroke: #000000; stroke-width: 0.8; stroke-linejoin: miter; stroke-linecap: square"/>
   </g>
   <g id="patch_12">
    <path d="M 397.619375 22.92125 
L 701.191875 22.92125 
" style="fill: none; stroke: #000000; stroke-width: 0.8; stroke-linejoin: miter; stroke-linecap: square"/>
   </g>
   <g id="text_38">
    <text style="font: 14px 'Times New Roman', 'Times', serif; text-anchor: middle" x="549.405625" y="16.92125" transform="rotate(-0 549.405625 16.92125)">Optimized Window</text>
   </g>
  </g>
 </g>
 <defs>
  <clipPath id="p51cbab3420">
   <rect x="44.099375" y="22.92125" width="303.5725" height="357.326875"/>
  </clipPath>
  <clipPath id="pb95f0b8c31">
   <rect x="397.619375" y="22.92125" width="303.5725" height="357.326875"/>
  </clipPath>
 </defs>
</svg>
