<?xml version="1.0" encoding="utf-8" standalone="no"?>
<!DOCTYPE svg PUBLIC "-//W3C//DTD SVG 1.1//EN"
  "http://www.w3.org/Graphics/SVG/1.1/DTD/svg11.dtd">
<svg xmlns:xlink="http://www.w3.org/1999/xlink" width="708.391875pt" height="420.246875pt" viewBox="0 0 708.391875 420.246875" xmlns="http://www.w3.org/2000/svg" version="1.1">
 <metadata>
  <rdf:RDF xmlns:dc="http://purl.org/dc/elements/1.1/" xmlns:cc="http://creativecommons.org/ns#" xmlns:rdf="http://www.w3.org/1999/02/22-rdf-syntax-ns#">
   <cc:Work>
    <dc:type rdf:resource="http://purl.org/dc/dcmitype/StillImage"/>
    <dc:date>2026-01-30T10:03:56.322976</dc:date>
    <dc:format>image/svg+xml</dc:format>
    <dc:creator>
     <cc:Agent>
      <dc:title>Matplotlib v3.9.2, https://matplotlib.org/</dc:title>
     </cc:Agent>
    </dc:creator>
   </cc:Work>
  </rdf:RDF>
 </metadata>
 <defs>
  <style type="text/css">*{stroke-linejoin: round; stroke-linecap: butt}</style>
 </defs>
 <g id="figure_1">
  <g id="patch_1">
   <path d="M 0 420.246875 
L 708.391875 420.246875 
L 708.391875 0 
L 0 0 
z
" style="fill: #ffffff"/>
  </g>
  <g id="axes_1">
   <g id="patch_2">
    <path d="M 44.099375 380.248125 
L 347.671875 380.248125 
L 347.671875 22.92125 
L 44.099375 22.92125 
z
" style="fill: #ffffff"/>
   </g>
   <g id="matplotlib.axis_1">
    <g id="xtick_1">
     <g id="line2d_1">
      <path d="M 57.898125 380.248125 
L 57.898125 22.92125 
" clip-path="url(#p74706aa8bc)" style="fill: none; stroke: #b0b0b0; stroke-width: 0.8; stroke-linecap: square"/>
     </g>
     <g id="line2d_2">
      <defs>
       <path id="ma03914bafa" d="M 0 0 
L 0 3.5 
" style="stroke: #000000; stroke-width: 0.8"/>
      </defs>
      <g>
       <use xlink:href="#ma03914bafa" x="57.898125" y="380.248125" style="stroke: #000000; stroke-width: 0.8"/>
      </g>
     </g>
     <g id="text_1">
      <text style="font: 12px 'Times New Roman', 'Times', serif; text-anchor: middle" x="57.898125" y="395.580625" transform="rotate(-0 57.898125 395.580625)">0</text>
     </g>
    </g>
    <g id="xtick_2">
     <g id="line2d_3">
      <path d="M 99.398125 380.248125 
L 99.398125 22.92125 
" clip-path="url(#p74706aa8bc)" style="fill: none; stroke: #b0b0b0; stroke-width: 0.8; stroke-linecap: square"/>
     </g>
     <g id="line2d_4">
      <g>
       <use xlink:href="#ma03914bafa" x="99.398125" y="380.248125" style="stroke: #000000; stroke-width: 0.8"/>
      </g>
     </g>
     <g id="text_2">
      <text style="font: 12px 'Times New Roman', 'Times', serif; text-anchor: middle" x="99.398125" y="395.580625" transform="rotate(-0 99.398125 395.580625)">20</text>
     </g>
    </g>
    <g id="xtick_3">
     <g id="line2d_5">
      <path d="M 140.898125 380.248125 
L 140.898125 22.92125 
" clip-path="url(#p74706aa8bc)" style="fill: none; stroke: #b0b0b0; stroke-width: 0.8; stroke-linecap: square"/>
     </g>
     <g id="line2d_6">
      <g>
       <use xlink:href="#ma03914bafa" x="140.898125" y="380.248125" style="stroke: #000000; stroke-width: 0.8"/>
      </g>
     </g>
     <g id="text_3">
      <text style="font: 12px 'Times New Roman', 'Times', serif; text-anchor: middle" x="140.898125" y="395.580625" transform="rotate(-0 140.898125 395.580625)">40</text>
     </g>
    </g>
    <g id="xtick_4">
     <g id="line2d_7">
      <path d="M 182.398125 380.248125 
L 182.398125 22.92125 
" clip-path="url(#p74706aa8bc)" style="fill: none; stroke: #b0b0b0; stroke-width: 0.8; stroke-linecap: square"/>
     </g>
     <g id="line2d_8">
      <g>
       <use xlink:href="#ma03914bafa" x="182.398125" y="380.248125" style="stroke: #000000; stroke-width: 0.8"/>
      </g>
     </g>
     <g id="text_4">
      <text style="font: 12px 'Times New Roman', 'Times', serif; text-anchor: middle" x="182.398125" y="395.580625" transform="rotate(-0 182.398125 395.580625)">60</text>
     </g>
    </g>
    <g id="xtick_5">
     <g id="line2d_9">
      <path d="M 223.898125 380.248125 
L 223.898125 22.92125 
" clip-path="url(#p74706aa8bc)" style="fill: none; stroke: #b0b0b0; stroke-width: 0.8; stroke-linecap: square"/>
     </g>
     <g id="line2d_10">
      <g>
       <use xlink:href="#ma03914bafa" x="223.898125" y="380.248125" style="stroke: #000000; stroke-width: 0.8"/>
      </g>
     </g>
     <g id="text_5">
      <text style="font: 12px 'Times New Roman', 'Times', serif; text-anchor: middle" x="223.898125" y="395.580625" transform="rotate(-0 223.898125 395.580625)">80</text>
     </g>
    </g>
    <g id="xtick_6">
     <g id="line2d_11">
      <path d="M 265.398125 380.248125 
L 265.398125 22.92125 
" clip-path="url(#p74706aa8bc)" style="fill: none; stroke: #b0b0b0; stroke-width: 0.8; stroke-linecap: square"/>
     </g>
     <g id="line2d_12">
      <g>
       <use xlink:href="#ma03914bafa" x="265.398125" y="380.248125" style="stroke: #000000; stroke-width: 0.8"/>
      </g>
     </g>
     <g id="text_6">
      <text style="font: 12px 'Times New Roman', 'Times', serif; text-anchor: middle" x="265.398125" y="395.580625" transform="rotate(-0 265.398125 395.580625)">100</text>
     </g>
    </g>
    <g id="xtick_7">
     <g id="line2d_13">
      <path d="M 306.898125 380.248125 
L 306.898125 22.92125 
" clip-path="url(#p74706aa8bc)" style="fill: none; stroke: #b0b0b0; stroke-width: 0.8; stroke-linecap: square"/>
     </g>
     <g id="line2d_14">
      <g>
       <use xlink:href="#ma03914bafa" x="306.898125" y="380.248125" style="stroke: #000000; stroke-width: 0.8"/>
      </g>
     </g>
     <g id="text_7">
      <text style="font: 12px 'Times New Roman', 'Times', serif; text-anchor: middle" x="306.898125" y="395.580625" transform="rotate(-0 306.898125 395.580625)">120</text>
     </g>
    </g>
    <g id="text_8">
     <text style="font: 12px 'Times New Roman', 'Times', serif; text-anchor: middle" x="195.885625" y="410.48" transform="rotate(-0 195.885625 410.48)">Epoch</text>
    </g>
   </g>
   <g id="matplotlib.axis_2">
    <g id="ytick_1">
     <g id="line2d_15">
      <path d="M 44.099375 365.863118 
L 347.671875 365.863118 
" clip-path="url(#p74706aa8bc)" style="fill: none; stroke: #b0b0b0; stroke-width: 0.8; stroke-linecap: square"/>
     </g>
     <g id="line2d_16">
      <defs>
       <path id="m8f30efc3f8" d="M 0 0 
L -3.5 0 
" style="stroke: #000000; stroke-width: 0.8"/>
      </defs>
      <g>
       <use xlink:href="#m8f30efc3f8" x="44.099375" y="365.863118" style="stroke: #000000; stroke-width: 0.8"/>
      </g>
     </g>
     <g id="text_9">
      <text style="font: 12px 'Times New Roman', 'Times', serif; text-anchor: end" x="37.099375" y="370.029368" transform="rotate(-0 37.099375 370.029368)">0.2</text>
     </g>
    </g>
    <g id="ytick_2">
     <g id="line2d_17">
      <path d="M 44.099375 325.025651 
L 347.671875 325.025651 
" clip-path="url(#p74706aa8bc)" style="fill: none; stroke: #b0b0b0; stroke-width: 0.8; stroke-linecap: square"/>
     </g>
     <g id="line2d_18">
      <g>
       <use xlink:href="#m8f30efc3f8" x="44.099375" y="325.025651" style="stroke: #000000; stroke-width: 0.8"/>
      </g>
     </g>
     <g id="text_10">
      <text style="font: 12px 'Times New Roman', 'Times', serif; text-anchor: end" x="37.099375" y="329.191901" transform="rotate(-0 37.099375 329.191901)">0.3</text>
     </g>
    </g>
    <g id="ytick_3">
     <g id="line2d_19">
      <path d="M 44.099375 284.188184 
L 347.671875 284.188184 
" clip-path="url(#p74706aa8bc)" style="fill: none; stroke: #b0b0b0; stroke-width: 0.8; stroke-linecap: square"/>
     </g>
     <g id="line2d_20">
      <g>
       <use xlink:href="#m8f30efc3f8" x="44.099375" y="284.188184" style="stroke: #000000; stroke-width: 0.8"/>
      </g>
     </g>
     <g id="text_11">
      <text style="font: 12px 'Times New Roman', 'Times', serif; text-anchor: end" x="37.099375" y="288.354434" transform="rotate(-0 37.099375 288.354434)">0.4</text>
     </g>
    </g>
    <g id="ytick_4">
     <g id="line2d_21">
      <path d="M 44.099375 243.350717 
L 347.671875 243.350717 
" clip-path="url(#p74706aa8bc)" style="fill: none; stroke: #b0b0b0; stroke-width: 0.8; stroke-linecap: square"/>
     </g>
     <g id="line2d_22">
      <g>
       <use xlink:href="#m8f30efc3f8" x="44.099375" y="243.350717" style="stroke: #000000; stroke-width: 0.8"/>
      </g>
     </g>
     <g id="text_12">
      <text style="font: 12px 'Times New Roman', 'Times', serif; text-anchor: end" x="37.099375" y="247.516967" transform="rotate(-0 37.099375 247.516967)">0.5</text>
     </g>
    </g>
    <g id="ytick_5">
     <g id="line2d_23">
      <path d="M 44.099375 202.513249 
L 347.671875 202.513249 
" clip-path="url(#p74706aa8bc)" style="fill: none; stroke: #b0b0b0; stroke-width: 0.8; stroke-linecap: square"/>
     </g>
     <g id="line2d_24">
      <g>
       <use xlink:href="#m8f30efc3f8" x="44.099375" y="202.513249" style="stroke: #000000; stroke-width: 0.8"/>
      </g>
     </g>
     <g id="text_13">
      <text style="font: 12px 'Times New Roman', 'Times', serif; text-anchor: end" x="37.099375" y="206.679499" transform="rotate(-0 37.099375 206.679499)">0.6</text>
     </g>
    </g>
    <g id="ytick_6">
     <g id="line2d_25">
      <path d="M 44.099375 161.675782 
L 347.671875 161.675782 
" clip-path="url(#p74706aa8bc)" style="fill: none; stroke: #b0b0b0; stroke-width: 0.8; stroke-linecap: square"/>
     </g>
     <g id="line2d_26">
      <g>
       <use xlink:href="#m8f30efc3f8" x="44.099375" y="161.675782" style="stroke: #000000; stroke-width: 0.8"/>
      </g>
     </g>
     <g id="text_14">
      <text style="font: 12px 'Times New Roman', 'Times', serif; text-anchor: end" x="37.099375" y="165.842032" transform="rotate(-0 37.099375 165.842032)">0.7</text>
     </g>
    </g>
    <g id="ytick_7">
     <g id="line2d_27">
      <path d="M 44.099375 120.838315 
L 347.671875 120.838315 
" clip-path="url(#p74706aa8bc)" style="fill: none; stroke: #b0b0b0; stroke-width: 0.8; stroke-linecap: square"/>
     </g>
     <g id="line2d_28">
      <g>
       <use xlink:href="#m8f30efc3f8" x="44.099375" y="120.838315" style="stroke: #000000; stroke-width: 0.8"/>
      </g>
     </g>
     <g id="text_15">
      <text style="font: 12px 'Times New Roman', 'Times', serif; text-anchor: end" x="37.099375" y="125.004565" transform="rotate(-0 37.099375 125.004565)">0.8</text>
     </g>
    </g>
    <g id="ytick_8">
     <g id="line2d_29">
      <path d="M 44.099375 80.000848 
L 347.671875 80.000848 
" clip-path="url(#p74706aa8bc)" style="fill: none; stroke: #b0b0b0; stroke-width: 0.8; stroke-linecap: square"/>
     </g>
     <g id="line2d_30">
      <g>
       <use xlink:href="#m8f30efc3f8" x="44.099375" y="80.000848" style="stroke: #000000; stroke-width: 0.8"/>
      </g>
     </g>
     <g id="text_16">
      <text style="font: 12px 'Times New Roman', 'Times', serif; text-anchor: end" x="37.099375" y="84.167098" transform="rotate(-0 37.099375 84.167098)">0.9</text>
     </g>
    </g>
    <g id="ytick_9">
     <g id="line2d_31">
      <path d="M 44.099375 39.163381 
L 347.671875 39.163381 
" clip-path="url(#p74706aa8bc)" style="fill: none; stroke: #b0b0b0; stroke-width: 0.8; stroke-linecap: square"/>
     </g>
     <g id="line2d_32">
      <g>
       <use xlink:href="#m8f30efc3f8" x="44.099375" y="39.163381" style="stroke: #000000; stroke-width: 0.8"/>
      </g>
     </g>
     <g id="text_17">
      <text style="font: 12px 'Times New Roman', 'Times', serif; text-anchor: end" x="37.099375" y="43.329631" transform="rotate(-0 37.099375 43.329631)">1.0</text>
     </g>
    </g>
    <g id="text_18">
     <text style="font: 12px 'Times New Roman', 'Times', serif; text-anchor: middle" x="15.5325" y="201.584688" transform="rotate(-90 15.5325 201.584688)">Metric Value</text>
    </g>
   </g>
   <g id="line2d_33">
    <path d="M 57.898125 50.062097 
L 62.048125 49.15899 
L 66.198125 48.152564 
L 72.423125 46.952702 
L 78.648125 46.003421 
L 84.873125 45.305701 
L 91.098125 44.849405 
L 99.398125 44.512929 
L 113.923125 44.230713 
L 138.823125 43.723873 
L 157.498125 43.125488 
L 174.098125 42.379395 
L 217.673125 40.214553 
L 234.273125 39.764709 
L 255.023125 39.464981 
L 286.148125 39.270594 
L 333.873125 39.163381 
L 333.873125 39.163381 
" clip-path="url(#p74706aa8bc)" style="fill: none; stroke: #213c51; stroke-width: 1.5; stroke-linecap: square"/>
   </g>
   <g id="line2d_34">
    <path d="M 57.898125 361.721349 
L 59.973125 353.805112 
L 62.048125 345.171128 
L 64.123125 335.694626 
L 66.198125 325.380423 
L 68.273125 314.159029 
L 70.348125 301.966401 
L 72.423125 288.688391 
L 74.498125 274.228427 
L 76.573125 258.608435 
L 80.723125 224.541775 
L 86.948125 171.071393 
L 89.023125 154.200121 
L 91.098125 138.438236 
L 93.173125 124.062146 
L 95.248125 111.245882 
L 97.323125 100.055959 
L 99.398125 90.464251 
L 101.473125 82.369984 
L 103.548125 75.626289 
L 105.623125 70.063706 
L 107.698125 65.510555 
L 109.773125 61.806412 
L 111.848125 58.807087 
L 113.923125 56.389985 
L 115.998125 54.452826 
L 118.073125 52.91041 
L 120.148125 51.695477 
L 122.223125 50.752155 
L 124.298125 50.036233 
L 126.373125 49.512131 
L 128.448125 49.150189 
L 130.523125 48.926744 
L 134.673125 48.816553 
L 138.823125 49.048702 
L 142.973125 49.513943 
L 161.648125 52.018954 
L 165.798125 52.236579 
L 169.948125 52.241377 
L 174.098125 52.028577 
L 178.248125 51.608284 
L 182.398125 51.004391 
L 188.623125 49.828512 
L 196.923125 47.963563 
L 209.373125 45.133213 
L 217.673125 43.522185 
L 223.898125 42.523423 
L 230.123125 41.705964 
L 238.423125 40.869743 
L 246.723125 40.27236 
L 257.098125 39.777177 
L 269.548125 39.434302 
L 286.148125 39.227652 
L 313.123125 39.164453 
L 333.873125 39.195925 
L 333.873125 39.195925 
" clip-path="url(#p74706aa8bc)" style="fill: none; stroke-dasharray: 5.55,2.4; stroke-dashoffset: 0; stroke: #6594b1; stroke-width: 1.5"/>
   </g>
   <g id="line2d_35">
    <path d="M 57.898125 364.005994 
L 59.973125 356.205755 
L 62.048125 347.669986 
L 64.123125 338.282347 
L 66.198125 328.061311 
L 68.273125 316.944191 
L 70.348125 304.864698 
L 72.423125 291.707771 
L 74.498125 277.377319 
L 76.573125 261.894421 
L 80.723125 228.119442 
L 86.948125 175.091317 
L 89.023125 158.356945 
L 91.098125 142.721452 
L 93.173125 128.45916 
L 95.248125 115.742931 
L 97.323125 104.638587 
L 99.398125 95.118004 
L 101.473125 87.080936 
L 103.548125 80.381868 
L 105.623125 74.852177 
L 107.698125 70.321589 
L 109.773125 66.631054 
L 111.848125 63.636676 
L 113.923125 61.217509 
L 115.998125 59.271966 
L 118.073125 57.71474 
L 120.148125 56.480228 
L 122.223125 55.512149 
L 124.298125 54.767039 
L 126.373125 54.209727 
L 128.448125 53.810559 
L 130.523125 53.546277 
L 134.673125 53.344293 
L 138.823125 53.472225 
L 142.973125 53.821317 
L 159.573125 55.570456 
L 163.723125 55.716503 
L 167.873125 55.647284 
L 172.023125 55.350449 
L 176.173125 54.828869 
L 180.323125 54.102249 
L 186.548125 52.699021 
L 194.848125 50.459326 
L 207.298125 46.994535 
L 213.523125 45.45134 
L 219.748125 44.112998 
L 225.973125 42.994195 
L 232.198125 42.084922 
L 238.423125 41.363228 
L 246.723125 40.640162 
L 255.023125 40.131865 
L 265.398125 39.712462 
L 279.923125 39.386817 
L 300.673125 39.204133 
L 333.873125 39.168401 
L 333.873125 39.168401 
" clip-path="url(#p74706aa8bc)" style="fill: none; stroke-dasharray: 9.6,2.4,1.5,2.4; stroke-dashoffset: 0; stroke: #ddaed3; stroke-width: 1.5"/>
   </g>
   <g id="patch_3">
    <path d="M 44.099375 380.248125 
L 44.099375 22.92125 
" style="fill: none; stroke: #000000; stroke-width: 0.8; stroke-linejoin: miter; stroke-linecap: square"/>
   </g>
   <g id="patch_4">
    <path d="M 347.671875 380.248125 
L 347.671875 22.92125 
" style="fill: none; stroke: #000000; stroke-width: 0.8; stroke-linejoin: miter; stroke-linecap: square"/>
   </g>
   <g id="patch_5">
    <path d="M 44.099375 380.248125 
L 347.671875 380.248125 
" style="fill: none; stroke: #000000; stroke-width: 0.8; stroke-linejoin: miter; stroke-linecap: square"/>
   </g>
   <g id="patch_6">
    <path d="M 44.099375 22.92125 
L 347.671875 22.92125 
" style="fill: none; stroke: #000000; stroke-width: 0.8; stroke-linejoin: miter; stroke-linecap: square"/>
   </g>
   <g id="text_19">
    <text style="font: 14px 'Times New Roman', 'Times', serif; text-anchor: middle" x="195.885625" y="16.92125" transform="rotate(-0 195.885625 16.92125)">Normalized Training Metrics</text>
   </g>
   <g id="legend_1">
    <g id="patch_7">
     <path d="M 214.884375 374.248125 
L 339.271875 374.248125 
Q 341.671875 374.248125 341.671875 371.848125 
L 341.671875 322.125 
Q 341.671875 319.725 339.271875 319.725 
L 214.884375 319.725 
Q 212.484375 319.725 212.484375 322.125 
L 212.484375 371.848125 
Q 212.484375 374.248125 214.884375 374.248125 
z
" style="fill: #ffffff; opacity: 0.8; stroke: #cccccc; stroke-linejoin: miter"/>
    </g>
    <g id="line2d_36">
     <path d="M 217.284375 328.725 
L 229.284375 328.725 
L 241.284375 328.725 
" style="fill: none; stroke: #213c51; stroke-width: 1.5; stroke-linecap: square"/>
    </g>
    <g id="text_20">
     <text style="font: 12px 'Times New Roman', 'Times', serif; text-anchor: start" x="250.884375" y="332.925" transform="rotate(-0 250.884375 332.925)">Energy Ratio</text>
    </g>
    <g id="line2d_37">
     <path d="M 217.284375 345.714375 
L 229.284375 345.714375 
L 241.284375 345.714375 
" style="fill: none; stroke-dasharray: 5.55,2.4; stroke-dashoffset: 0; stroke: #6594b1; stroke-width: 1.5"/>
    </g>
    <g id="text_21">
     <text style="font: 12px 'Times New Roman', 'Times', serif; text-anchor: start" x="250.884375" y="349.914375" transform="rotate(-0 250.884375 349.914375)">Contrast-to-Noise</text>
    </g>
    <g id="line2d_38">
     <path d="M 217.284375 362.68125 
L 229.284375 362.68125 
L 241.284375 362.68125 
" style="fill: none; stroke-dasharray: 9.6,2.4,1.5,2.4; stroke-dashoffset: 0; stroke: #ddaed3; stroke-width: 1.5"/>
    </g>
    <g id="text_22">
     <text style="font: 12px 'Times New Roman', 'Times', serif; text-anchor: start" x="250.884375" y="366.88125" transform="rotate(-0 250.884375 366.88125)">Final Metric</text>
    </g>
   </g>
  </g>
  <g id="axes_2">
   <g id="patch_8">
    <path d="M 397.619375 380.248125 
L 701.191875 380.248125 
L 701.191875 22.92125 
L 397.619375 22.92125 
z
" style="fill: #ffffff"/>
   </g>
   <g id="matplotlib.axis_3">
    <g id="xtick_8">
     <g id="line2d_39">
      <g>
       <use xlink:href="#ma03914bafa" x="406.818542" y="380.248125" style="stroke: #000000; stroke-width: 0.8"/>
      </g>
     </g>
     <g id="text_23">
      <text style="font: 12px 'Times New Roman', 'Times', serif; text-anchor: middle" x="406.818542" y="395.580625" transform="rotate(-0 406.818542 395.580625)">0.3</text>
     </g>
    </g>
    <g id="xtick_9">
     <g id="line2d_40">
      <g>
       <use xlink:href="#ma03914bafa" x="452.814375" y="380.248125" style="stroke: #000000; stroke-width: 0.8"/>
      </g>
     </g>
     <g id="text_24">
      <text style="font: 12px 'Times New Roman', 'Times', serif; text-anchor: middle" x="452.814375" y="395.580625" transform="rotate(-0 452.814375 395.580625)">0.4</text>
     </g>
    </g>
    <g id="xtick_10">
     <g id="line2d_41">
      <g>
       <use xlink:href="#ma03914bafa" x="498.810208" y="380.248125" style="stroke: #000000; stroke-width: 0.8"/>
      </g>
     </g>
     <g id="text_25">
      <text style="font: 12px 'Times New Roman', 'Times', serif; text-anchor: middle" x="498.810208" y="395.580625" transform="rotate(-0 498.810208 395.580625)">0.5</text>
     </g>
    </g>
    <g id="xtick_11">
     <g id="line2d_42">
      <g>
       <use xlink:href="#ma03914bafa" x="544.806042" y="380.248125" style="stroke: #000000; stroke-width: 0.8"/>
      </g>
     </g>
     <g id="text_26">
      <text style="font: 12px 'Times New Roman', 'Times', serif; text-anchor: middle" x="544.806042" y="395.580625" transform="rotate(-0 544.806042 395.580625)">0.6</text>
     </g>
    </g>
    <g id="xtick_12">
     <g id="line2d_43">
      <g>
       <use xlink:href="#ma03914bafa" x="590.801875" y="380.248125" style="stroke: #000000; stroke-width: 0.8"/>
      </g>
     </g>
     <g id="text_27">
      <text style="font: 12px 'Times New Roman', 'Times', serif; text-anchor: middle" x="590.801875" y="395.580625" transform="rotate(-0 590.801875 395.580625)">0.7</text>
     </g>
    </g>
    <g id="xtick_13">
     <g id="line2d_44">
      <g>
       <use xlink:href="#ma03914bafa" x="636.797708" y="380.248125" style="stroke: #000000; stroke-width: 0.8"/>
      </g>
     </g>
     <g id="text_28">
      <text style="font: 12px 'Times New Roman', 'Times', serif; text-anchor: middle" x="636.797708" y="395.580625" transform="rotate(-0 636.797708 395.580625)">0.8</text>
     </g>
    </g>
    <g id="xtick_14">
     <g id="line2d_45">
      <g>
       <use xlink:href="#ma03914bafa" x="682.793542" y="380.248125" style="stroke: #000000; stroke-width: 0.8"/>
      </g>
     </g>
     <g id="text_29">
      <text style="font: 12px 'Times New Roman', 'Times', serif; text-anchor: middle" x="682.793542" y="395.580625" transform="rotate(-0 682.793542 395.580625)">0.9</text>
     </g>
    </g>
    <g id="text_30">
     <text style="font: 12px 'Times New Roman', 'Times', serif; text-anchor: middle" x="549.405625" y="410.48" transform="rotate(-0 549.405625 410.48)">Bin Center (ns)</text>
    </g>
   </g>
   <g id="matplotlib.axis_4">
    <g id="ytick_10">
     <g id="line2d_46">
      <g>
       <use xlink:href="#m8f30efc3f8" x="397.619375" y="364.507675" style="stroke: #000000; stroke-width: 0.8"/>
      </g>
     </g>
     <g id="text_31">
      <text style="font: 12px 'Times New Roman', 'Times', serif; text-anchor: end" x="390.619375" y="368.673925" transform="rotate(-0 390.619375 368.673925)">0.0</text>
     </g>
    </g>
    <g id="ytick_11">
     <g id="line2d_47">
      <g>
       <use xlink:href="#m8f30efc3f8" x="397.619375" y="296.955984" style="stroke: #000000; stroke-width: 0.8"/>
      </g>
     </g>
     <g id="text_32">
      <text style="font: 12px 'Times New Roman', 'Times', serif; text-anchor: end" x="390.619375" y="301.122234" transform="rotate(-0 390.619375 301.122234)">0.2</text>
     </g>
    </g>
    <g id="ytick_12">
     <g id="line2d_48">
      <g>
       <use xlink:href="#m8f30efc3f8" x="397.619375" y="229.404293" style="stroke: #000000; stroke-width: 0.8"/>
      </g>
     </g>
     <g id="text_33">
      <text style="font: 12px 'Times New Roman', 'Times', serif; text-anchor: end" x="390.619375" y="233.570543" transform="rotate(-0 390.619375 233.570543)">0.4</text>
     </g>
    </g>
    <g id="ytick_13">
     <g id="line2d_49">
      <g>
       <use xlink:href="#m8f30efc3f8" x="397.619375" y="161.852603" style="stroke: #000000; stroke-width: 0.8"/>
      </g>
     </g>
     <g id="text_34">
      <text style="font: 12px 'Times New Roman', 'Times', serif; text-anchor: end" x="390.619375" y="166.018853" transform="rotate(-0 390.619375 166.018853)">0.6</text>
     </g>
    </g>
    <g id="ytick_14">
     <g id="line2d_50">
      <g>
       <use xlink:href="#m8f30efc3f8" x="397.619375" y="94.300912" style="stroke: #000000; stroke-width: 0.8"/>
      </g>
     </g>
     <g id="text_35">
      <text style="font: 12px 'Times New Roman', 'Times', serif; text-anchor: end" x="390.619375" y="98.467162" transform="rotate(-0 390.619375 98.467162)">0.8</text>
     </g>
    </g>
    <g id="ytick_15">
     <g id="line2d_51">
      <g>
       <use xlink:href="#m8f30efc3f8" x="397.619375" y="26.749221" style="stroke: #000000; stroke-width: 0.8"/>
      </g>
     </g>
     <g id="text_36">
      <text style="font: 12px 'Times New Roman', 'Times', serif; text-anchor: end" x="390.619375" y="30.915471" transform="rotate(-0 390.619375 30.915471)">1.0</text>
     </g>
    </g>
    <g id="text_37">
     <text style="font: 12px 'Times New Roman', 'Times', serif; text-anchor: middle" x="369.0525" y="201.584688" transform="rotate(-90 369.0525 201.584688)">Window Value</text>
    </g>
   </g>
   <g id="line2d_52">
    <path d="M 411.418125 363.962192 
L 425.216875 363.979356 
L 439.015625 39.163381 
L 452.814375 363.975503 
L 466.613125 361.366022 
L 485.011458 364.001552 
L 498.810208 363.954198 
L 512.608958 363.985411 
L 526.407708 363.99493 
L 540.206458 364.005994 
L 554.005208 363.978036 
L 567.803958 363.989591 
L 586.202292 364.00463 
L 600.001042 364.005084 
L 613.799792 364.005868 
L 627.598542 364.005855 
L 641.397292 364.005693 
L 655.196042 364.004947 
L 668.994792 364.005734 
L 687.393125 364.001054 
" clip-path="url(#p58075389b8)" style="fill: none; stroke: #213c51; stroke-width: 1.5; stroke-linecap: square"/>
    <defs>
     <path id="m863a423d24" d="M 0 3 
C 0.795609 3 1.55874 2.683901 2.12132 2.12132 
C 2.683901 1.55874 3 0.795609 3 0 
C 3 -0.795609 2.683901 -1.55874 2.12132 -2.12132 
C 1.55874 -2.683901 0.795609 -3 0 -3 
C -0.795609 -3 -1.55874 -2.683901 -2.12132 -2.12132 
C -2.683901 -1.55874 -3 -0.795609 -3 0 
C -3 0.795609 -2.683901 1.55874 -2.12132 2.12132 
C -1.55874 2.683901 -0.795609 3 0 3 
z
" style="stroke: #213c51"/>
    </defs>
    <g clip-path="url(#p58075389b8)">
     <use xlink:href="#m863a423d24" x="411.418125" y="363.962192" style="fill: #213c51; stroke: #213c51"/>
     <use xlink:href="#m863a423d24" x="425.216875" y="363.979356" style="fill: #213c51; stroke: #213c51"/>
     <use xlink:href="#m863a423d24" x="439.015625" y="39.163381" style="fill: #213c51; stroke: #213c51"/>
     <use xlink:href="#m863a423d24" x="452.814375" y="363.975503" style="fill: #213c51; stroke: #213c51"/>
     <use xlink:href="#m863a423d24" x="466.613125" y="361.366022" style="fill: #213c51; stroke: #213c51"/>
     <use xlink:href="#m863a423d24" x="485.011458" y="364.001552" style="fill: #213c51; stroke: #213c51"/>
     <use xlink:href="#m863a423d24" x="498.810208" y="363.954198" style="fill: #213c51; stroke: #213c51"/>
     <use xlink:href="#m863a423d24" x="512.608958" y="363.985411" style="fill: #213c51; stroke: #213c51"/>
     <use xlink:href="#m863a423d24" x="526.407708" y="363.99493" style="fill: #213c51; stroke: #213c51"/>
     <use xlink:href="#m863a423d24" x="540.206458" y="364.005994" style="fill: #213c51; stroke: #213c51"/>
     <use xlink:href="#m863a423d24" x="554.005208" y="363.978036" style="fill: #213c51; stroke: #213c51"/>
     <use xlink:href="#m863a423d24" x="567.803958" y="363.989591" style="fill: #213c51; stroke: #213c51"/>
     <use xlink:href="#m863a423d24" x="586.202292" y="364.00463" style="fill: #213c51; stroke: #213c51"/>
     <use xlink:href="#m863a423d24" x="600.001042" y="364.005084" style="fill: #213c51; stroke: #213c51"/>
     <use xlink:href="#m863a423d24" x="613.799792" y="364.005868" style="fill: #213c51; stroke: #213c51"/>
     <use xlink:href="#m863a423d24" x="627.598542" y="364.005855" style="fill: #213c51; stroke: #213c51"/>
     <use xlink:href="#m863a423d24" x="641.397292" y="364.005693" style="fill: #213c51; stroke: #213c51"/>
     <use xlink:href="#m863a423d24" x="655.196042" y="364.004947" style="fill: #213c51; stroke: #213c51"/>
     <use xlink:href="#m863a423d24" x="668.994792" y="364.005734" style="fill: #213c51; stroke: #213c51"/>
     <use xlink:href="#m863a423d24" x="687.393125" y="364.001054" style="fill: #213c51; stroke: #213c51"/>
    </g>
   </g>
   <g id="patch_9">
    <path d="M 397.619375 380.248125 
L 397.619375 22.92125 
" style="fill: none; stroke: #000000; stroke-width: 0.8; stroke-linejoin: miter; stroke-linecap: square"/>
   </g>
   <g id="patch_10">
    <path d="M 701.191875 380.248125 
L 701.191875 22.92125 
" style="fill: none; stroke: #000000; stroke-width: 0.8; stroke-linejoin: miter; stroke-linecap: square"/>
   </g>
   <g id="patch_11">
    <path d="M 397.619375 380.248125 
L 701.191875 380.248125 
" style="fill: none; stroke: #000000; stroke-width: 0.8; stroke-linejoin: miter; stroke-linecap: square"/>
   </g>
   <g id="patch_12">
    <path d="M 397.619375 22.92125 
L 701.191875 22.92125 
" style="fill: none; stroke: #000000; stroke-width: 0.8; stroke-linejoin: miter; stroke-linecap: square"/>
   </g>
   <g id="text_38">
    <text style="font: 14px 'Times New Roman', 'Times', serif; text-anchor: middle" x="549.405625" y="16.92125" transform="rotate(-0 549.405625 16.92125)">Optimized Window</text>
   </g>
  </g>
 </g>
 <defs>
  <clipPath id="p74706aa8bc">
   <rect x="44.099375" y="22.92125" width="303.5725" height="357.326875"/>
  </clipPath>
  <clipPath id="p58075389b8">
   <rect x="397.619375" y="22.92125" width="303.5725" height="357.326875"/>
  </clipPath>
 </defs>
</svg>
