<?xml version="1.0" encoding="utf-8" standalone="no"?>
<!DOCTYPE svg PUBLIC "-//W3C//DTD SVG 1.1//EN"
  "http://www.w3.org/Graphics/SVG/1.1/DTD/svg11.dtd">
<svg xmlns:xlink="http://www.w3.org/1999/xlink" width="708.969424pt" height="420.246875pt" viewBox="0 0 708.969424 420.246875" xmlns="http://www.w3.org/2000/svg" version="1.1">
 <metadata>
  <rdf:RDF xmlns:dc="http://purl.org/dc/elements/1.1/" xmlns:cc="http://creativecommons.org/ns#" xmlns:rdf="http://www.w3.org/1999/02/22-rdf-syntax-ns#">
   <cc:Work>
    <dc:type rdf:resource="http://purl.org/dc/dcmitype/StillImage"/>
    <dc:date>2026-01-30T17:09:42.332459</dc:date>
    <dc:format>image/svg+xml</dc:format>
    <dc:creator>
     <cc:Agent>
      <dc:title>Matplotlib v3.9.2, https://matplotlib.org/</dc:title>
     </cc:Agent>
    </dc:creator>
   </cc:Work>
  </rdf:RDF>
 </metadata>
 <defs>
  <style type="text/css">*{stroke-linejoin: round; stroke-linecap: butt}</style>
 </defs>
 <g id="figure_1">
  <g id="patch_1">
   <path d="M 0 420.246875 
L 708.969424 420.246875 
L 708.969424 0 
L 0 0 
z
" style="fill: #ffffff"/>
  </g>
  <g id="axes_1">
   <g id="patch_2">
    <path d="M 66.619375 380.248125 
L 359.220649 380.248125 
L 359.220649 22.92125 
L 66.619375 22.92125 
z
" style="fill: #ffffff"/>
   </g>
   <g id="matplotlib.axis_1">
    <g id="xtick_1">
     <g id="line2d_1">
      <path d="M 79.919433 380.248125 
L 79.919433 22.92125 
" clip-path="url(#p81ed0a6f3a)" style="fill: none; stroke: #b0b0b0; stroke-width: 0.8; stroke-linecap: square"/>
     </g>
     <g id="line2d_2">
      <defs>
       <path id="m439237566c" d="M 0 0 
L 0 3.5 
" style="stroke: #000000; stroke-width: 0.8"/>
      </defs>
      <g>
       <use xlink:href="#m439237566c" x="79.919433" y="380.248125" style="stroke: #000000; stroke-width: 0.8"/>
      </g>
     </g>
     <g id="text_1">
      <text style="font: 12px 'Times New Roman', 'Times', serif; text-anchor: middle" x="79.919433" y="395.580625" transform="rotate(-0 79.919433 395.580625)">0</text>
     </g>
    </g>
    <g id="xtick_2">
     <g id="line2d_3">
      <path d="M 144.797764 380.248125 
L 144.797764 22.92125 
" clip-path="url(#p81ed0a6f3a)" style="fill: none; stroke: #b0b0b0; stroke-width: 0.8; stroke-linecap: square"/>
     </g>
     <g id="line2d_4">
      <g>
       <use xlink:href="#m439237566c" x="144.797764" y="380.248125" style="stroke: #000000; stroke-width: 0.8"/>
      </g>
     </g>
     <g id="text_2">
      <text style="font: 12px 'Times New Roman', 'Times', serif; text-anchor: middle" x="144.797764" y="395.580625" transform="rotate(-0 144.797764 395.580625)">20</text>
     </g>
    </g>
    <g id="xtick_3">
     <g id="line2d_5">
      <path d="M 209.676096 380.248125 
L 209.676096 22.92125 
" clip-path="url(#p81ed0a6f3a)" style="fill: none; stroke: #b0b0b0; stroke-width: 0.8; stroke-linecap: square"/>
     </g>
     <g id="line2d_6">
      <g>
       <use xlink:href="#m439237566c" x="209.676096" y="380.248125" style="stroke: #000000; stroke-width: 0.8"/>
      </g>
     </g>
     <g id="text_3">
      <text style="font: 12px 'Times New Roman', 'Times', serif; text-anchor: middle" x="209.676096" y="395.580625" transform="rotate(-0 209.676096 395.580625)">40</text>
     </g>
    </g>
    <g id="xtick_4">
     <g id="line2d_7">
      <path d="M 274.554427 380.248125 
L 274.554427 22.92125 
" clip-path="url(#p81ed0a6f3a)" style="fill: none; stroke: #b0b0b0; stroke-width: 0.8; stroke-linecap: square"/>
     </g>
     <g id="line2d_8">
      <g>
       <use xlink:href="#m439237566c" x="274.554427" y="380.248125" style="stroke: #000000; stroke-width: 0.8"/>
      </g>
     </g>
     <g id="text_4">
      <text style="font: 12px 'Times New Roman', 'Times', serif; text-anchor: middle" x="274.554427" y="395.580625" transform="rotate(-0 274.554427 395.580625)">60</text>
     </g>
    </g>
    <g id="xtick_5">
     <g id="line2d_9">
      <path d="M 339.432758 380.248125 
L 339.432758 22.92125 
" clip-path="url(#p81ed0a6f3a)" style="fill: none; stroke: #b0b0b0; stroke-width: 0.8; stroke-linecap: square"/>
     </g>
     <g id="line2d_10">
      <g>
       <use xlink:href="#m439237566c" x="339.432758" y="380.248125" style="stroke: #000000; stroke-width: 0.8"/>
      </g>
     </g>
     <g id="text_5">
      <text style="font: 12px 'Times New Roman', 'Times', serif; text-anchor: middle" x="339.432758" y="395.580625" transform="rotate(-0 339.432758 395.580625)">80</text>
     </g>
    </g>
    <g id="text_6">
     <text style="font: 12px 'Times New Roman', 'Times', serif; text-anchor: middle" x="212.920012" y="410.48" transform="rotate(-0 212.920012 410.48)">Epoch</text>
    </g>
   </g>
   <g id="matplotlib.axis_2">
    <g id="ytick_1">
     <g id="line2d_11">
      <path d="M 66.619375 177.881339 
L 359.220649 177.881339 
" clip-path="url(#p81ed0a6f3a)" style="fill: none; stroke: #b0b0b0; stroke-width: 0.8; stroke-linecap: square"/>
     </g>
     <g id="line2d_12">
      <defs>
       <path id="m8976adada6" d="M 0 0 
L -3.5 0 
" style="stroke: #000000; stroke-width: 0.8"/>
      </defs>
      <g>
       <use xlink:href="#m8976adada6" x="66.619375" y="177.881339" style="stroke: #000000; stroke-width: 0.8"/>
      </g>
     </g>
     <g id="text_7">
      <!-- $\mathdefault{10^{-1}}$ -->
      <g transform="translate(37.899375 183.197902)">
       <text>
        <tspan style="font: 12px 'Times New Roman'" x="0 6" y="-0.10993750000000091">10</tspan>
        <tspan style="font: 8.4px 'Times New Roman'" x="12.180338 16.917642" y="-7.3234375">−1</tspan>
       </text>
      </g>
     </g>
    </g>
    <g id="ytick_2">
     <g id="line2d_13">
      <defs>
       <path id="m3aa26345b7" d="M 0 0 
L -2 0 
" style="stroke: #000000; stroke-width: 0.6"/>
      </defs>
      <g>
       <use xlink:href="#m3aa26345b7" x="66.619375" y="342.664472" style="stroke: #000000; stroke-width: 0.6"/>
      </g>
     </g>
     <g id="text_8">
      <!-- $\mathdefault{4\times10^{-2}}$ -->
      <g transform="translate(22.099375 347.981035)">
       <text>
        <tspan style="font: 12px 'Times New Roman'" x="0 8.337891 17.443359 23.443359" y="-0.10993750000000091">4×10</tspan>
        <tspan style="font: 8.4px 'Times New Roman'" x="29.623697 34.361002" y="-7.3234375">−2</tspan>
       </text>
      </g>
     </g>
    </g>
    <g id="ytick_3">
     <g id="line2d_14">
      <g>
       <use xlink:href="#m3aa26345b7" x="66.619375" y="302.534967" style="stroke: #000000; stroke-width: 0.6"/>
      </g>
     </g>
    </g>
    <g id="ytick_4">
     <g id="line2d_15">
      <g>
       <use xlink:href="#m3aa26345b7" x="66.619375" y="269.746774" style="stroke: #000000; stroke-width: 0.6"/>
      </g>
     </g>
     <g id="text_9">
      <!-- $\mathdefault{6\times10^{-2}}$ -->
      <g transform="translate(22.099375 275.063337)">
       <text>
        <tspan style="font: 12px 'Times New Roman'" x="0 8.337891 17.443359 23.443359" y="-0.10993750000000091">6×10</tspan>
        <tspan style="font: 8.4px 'Times New Roman'" x="29.623697 34.361002" y="-7.3234375">−2</tspan>
       </text>
      </g>
     </g>
    </g>
    <g id="ytick_5">
     <g id="line2d_16">
      <g>
       <use xlink:href="#m3aa26345b7" x="66.619375" y="242.024752" style="stroke: #000000; stroke-width: 0.6"/>
      </g>
     </g>
    </g>
    <g id="ytick_6">
     <g id="line2d_17">
      <g>
       <use xlink:href="#m3aa26345b7" x="66.619375" y="218.010844" style="stroke: #000000; stroke-width: 0.6"/>
      </g>
     </g>
    </g>
    <g id="ytick_7">
     <g id="line2d_18">
      <g>
       <use xlink:href="#m3aa26345b7" x="66.619375" y="196.829076" style="stroke: #000000; stroke-width: 0.6"/>
      </g>
     </g>
    </g>
    <g id="ytick_8">
     <g id="line2d_19">
      <g>
       <use xlink:href="#m3aa26345b7" x="66.619375" y="53.227712" style="stroke: #000000; stroke-width: 0.6"/>
      </g>
     </g>
     <g id="text_10">
      <!-- $\mathdefault{2\times10^{-1}}$ -->
      <g transform="translate(22.099375 58.544274)">
       <text>
        <tspan style="font: 12px 'Times New Roman'" x="0 8.337891 17.443359 23.443359" y="-0.10993750000000091">2×10</tspan>
        <tspan style="font: 8.4px 'Times New Roman'" x="29.623697 34.361002" y="-7.3234375">−1</tspan>
       </text>
      </g>
     </g>
    </g>
    <g id="text_11">
     <text style="font: 12px 'Times New Roman', 'Times', serif; text-anchor: middle" x="15.5325" y="201.584688" transform="rotate(-90 15.5325 201.584688)">Metric Value</text>
    </g>
   </g>
   <g id="line2d_20">
    <path d="M 79.919433 54.201319 
L 83.163349 54.285469 
L 86.407266 54.347087 
L 89.651183 54.390749 
L 92.895099 54.417615 
L 96.139016 54.430847 
L 99.382932 54.433396 
L 102.626849 54.427488 
L 105.870765 54.414729 
L 109.114682 54.397196 
L 112.358599 54.376724 
L 115.602515 54.354732 
L 118.846432 54.332405 
L 122.090348 54.310135 
L 125.334265 54.288892 
L 128.578181 54.268622 
L 131.822098 54.249419 
L 135.066015 54.230878 
L 138.309931 54.212972 
L 141.553848 54.195338 
L 144.797764 54.178001 
L 148.041681 54.160558 
L 151.285597 54.143265 
L 154.529514 54.126015 
L 157.773431 54.108537 
L 161.017347 54.090912 
L 164.261264 54.073276 
L 167.50518 54.055615 
L 170.749097 54.037807 
L 173.993013 54.019867 
L 177.23693 54.001955 
L 180.480847 53.984031 
L 183.724763 53.96615 
L 186.96868 53.948297 
L 190.212596 53.930473 
L 193.456513 53.912866 
L 196.700429 53.895705 
L 199.944346 53.87911 
L 203.188263 53.863202 
L 206.432179 53.848183 
L 209.676096 53.834039 
L 212.920012 53.821254 
L 216.163929 53.809411 
L 219.407845 53.7989 
L 222.651762 53.789491 
L 225.895678 53.781413 
L 229.139595 53.774062 
L 232.383512 53.767812 
L 235.627428 53.762437 
L 238.871345 53.757706 
L 242.115261 53.753755 
L 245.359178 53.750476 
L 248.603094 53.74756 
L 251.847011 53.745034 
L 255.090928 53.74318 
L 258.334844 53.741433 
L 261.578761 53.74025 
L 264.822677 53.739041 
L 268.066594 53.737912 
L 271.31051 53.737402 
L 274.554427 53.736918 
L 277.798344 53.736649 
L 281.04226 53.736273 
L 284.286177 53.736394 
L 287.530093 53.736072 
L 290.77401 53.736179 
L 294.017926 53.736448 
L 297.261843 53.736448 
L 300.50576 53.736784 
L 303.749676 53.737093 
L 306.993593 53.737214 
L 310.237509 53.737657 
L 313.481426 53.737805 
L 316.725342 53.738033 
L 319.969259 53.738477 
L 323.213176 53.738557 
L 326.457092 53.738947 
L 329.701009 53.739364 
L 332.944925 53.7397 
L 336.188842 53.739915 
L 339.432758 53.740224 
L 342.676675 53.740331 
L 345.920591 53.740734 
" clip-path="url(#p81ed0a6f3a)" style="fill: none; stroke: #213c51; stroke-width: 1.5; stroke-linecap: square"/>
   </g>
   <g id="line2d_21">
    <path d="M 79.919433 364.005994 
L 83.163349 340.11102 
L 86.407266 317.179995 
L 89.651183 295.229757 
L 92.895099 274.435892 
L 96.139016 255.007878 
L 99.382932 237.051065 
L 102.626849 220.565184 
L 105.870765 205.541355 
L 109.114682 191.991001 
L 112.358599 179.903343 
L 115.602515 169.209457 
L 118.846432 159.776849 
L 122.090348 151.427228 
L 125.334265 143.967887 
L 128.578181 137.220437 
L 131.822098 131.040662 
L 135.066015 125.32519 
L 138.309931 120.006924 
L 141.553848 115.045229 
L 144.797764 110.416435 
L 148.041681 106.103665 
L 151.285597 102.091684 
L 154.529514 98.363544 
L 157.773431 94.899262 
L 161.017347 91.678641 
L 164.261264 88.680912 
L 167.50518 85.88595 
L 170.749097 83.274073 
L 173.993013 80.826044 
L 177.23693 78.522639 
L 180.480847 76.344818 
L 183.724763 74.274736 
L 186.96868 72.29643 
L 190.212596 70.397824 
L 193.456513 68.571183 
L 196.700429 66.81319 
L 199.944346 65.125819 
L 203.188263 63.513896 
L 206.432179 61.984746 
L 209.676096 60.546022 
L 212.920012 59.205367 
L 216.163929 57.968071 
L 219.407845 56.837153 
L 222.651762 55.813156 
L 225.895678 54.89449 
L 229.139595 54.077099 
L 232.383512 53.355996 
L 235.627428 52.725029 
L 238.871345 52.17712 
L 242.115261 51.705767 
L 245.359178 51.303823 
L 248.603094 50.964807 
L 251.847011 50.682539 
L 255.090928 50.451304 
L 258.334844 50.265449 
L 261.578761 50.120751 
L 264.822677 50.011833 
L 268.066594 49.934895 
L 271.31051 49.88679 
L 274.554427 49.863276 
L 277.798344 49.86154 
L 281.04226 49.877926 
L 284.286177 49.910677 
L 287.530093 49.956156 
L 290.77401 50.012557 
L 294.017926 50.077639 
L 297.261843 50.148922 
L 300.50576 50.225122 
L 303.749676 50.304031 
L 306.993593 50.384293 
L 310.237509 50.464696 
L 313.481426 50.543617 
L 316.725342 50.62075 
L 319.969259 50.695129 
L 323.213176 50.765812 
L 326.457092 50.832727 
L 329.701009 50.895554 
L 332.944925 50.953998 
L 336.188842 51.008039 
L 339.432758 51.057874 
L 342.676675 51.103367 
L 345.920591 51.145215 
" clip-path="url(#p81ed0a6f3a)" style="fill: none; stroke-dasharray: 5.55,2.4; stroke-dashoffset: 0; stroke: #6594b1; stroke-width: 1.5"/>
   </g>
   <g id="line2d_22">
    <path d="M 79.919433 47.966832 
L 83.163349 47.625107 
L 86.407266 47.252403 
L 89.651183 46.855313 
L 92.895099 46.440957 
L 96.139016 46.020023 
L 99.382932 45.601497 
L 102.626849 45.191554 
L 105.870765 44.795519 
L 109.114682 44.419492 
L 112.358599 44.068657 
L 115.602515 43.745807 
L 118.846432 43.451235 
L 122.090348 43.18246 
L 125.334265 42.936468 
L 128.578181 42.709137 
L 131.822098 42.497088 
L 135.066015 42.297417 
L 138.309931 42.108574 
L 141.553848 41.929353 
L 144.797764 41.759436 
L 148.041681 41.598259 
L 151.285597 41.445884 
L 154.529514 41.301914 
L 157.773431 41.165702 
L 161.017347 41.036843 
L 164.261264 40.91492 
L 167.50518 40.799394 
L 170.749097 40.689603 
L 173.993013 40.584975 
L 177.23693 40.485076 
L 180.480847 40.389274 
L 183.724763 40.297027 
L 186.96868 40.207819 
L 190.212596 40.121221 
L 193.456513 40.037192 
L 196.700429 39.955829 
L 199.944346 39.877376 
L 203.188263 39.802153 
L 206.432179 39.730641 
L 209.676096 39.663158 
L 212.920012 39.600482 
L 216.163929 39.54246 
L 219.407845 39.489596 
L 222.651762 39.441736 
L 225.895678 39.39905 
L 229.139595 39.360852 
L 232.383512 39.327326 
L 235.627428 39.298047 
L 238.871345 39.272529 
L 242.115261 39.250659 
L 245.359178 39.232089 
L 248.603094 39.216261 
L 251.847011 39.202987 
L 255.090928 39.192316 
L 258.334844 39.183492 
L 261.578761 39.176776 
L 264.822677 39.171435 
L 268.066594 39.16742 
L 271.31051 39.165066 
L 274.554427 39.163703 
L 277.798344 39.163381 
L 281.04226 39.163678 
L 284.286177 39.165053 
L 287.530093 39.166528 
L 290.77401 39.16882 
L 294.017926 39.171596 
L 297.261843 39.174347 
L 300.50576 39.177618 
L 303.749676 39.180964 
L 306.993593 39.184186 
L 310.237509 39.187718 
L 313.481426 39.190916 
L 316.725342 39.194113 
L 319.969259 39.197409 
L 323.213176 39.200223 
L 326.457092 39.203172 
L 329.701009 39.205998 
L 332.944925 39.208564 
L 336.188842 39.210857 
L 339.432758 39.213063 
L 342.676675 39.214934 
L 345.920591 39.216918 
" clip-path="url(#p81ed0a6f3a)" style="fill: none; stroke-dasharray: 9.6,2.4,1.5,2.4; stroke-dashoffset: 0; stroke: #ddaed3; stroke-width: 1.5"/>
   </g>
   <g id="patch_3">
    <path d="M 66.619375 380.248125 
L 66.619375 22.92125 
" style="fill: none; stroke: #000000; stroke-width: 0.8; stroke-linejoin: miter; stroke-linecap: square"/>
   </g>
   <g id="patch_4">
    <path d="M 359.220649 380.248125 
L 359.220649 22.92125 
" style="fill: none; stroke: #000000; stroke-width: 0.8; stroke-linejoin: miter; stroke-linecap: square"/>
   </g>
   <g id="patch_5">
    <path d="M 66.619375 380.248125 
L 359.220649 380.248125 
" style="fill: none; stroke: #000000; stroke-width: 0.8; stroke-linejoin: miter; stroke-linecap: square"/>
   </g>
   <g id="patch_6">
    <path d="M 66.619375 22.92125 
L 359.220649 22.92125 
" style="fill: none; stroke: #000000; stroke-width: 0.8; stroke-linejoin: miter; stroke-linecap: square"/>
   </g>
   <g id="text_12">
    <text style="font: 14px 'Times New Roman', 'Times', serif; text-anchor: middle" x="212.920012" y="16.92125" transform="rotate(-0 212.920012 16.92125)">Training Metrics</text>
   </g>
   <g id="legend_1">
    <g id="patch_7">
     <path d="M 226.433149 374.248125 
L 350.820649 374.248125 
Q 353.220649 374.248125 353.220649 371.848125 
L 353.220649 322.125 
Q 353.220649 319.725 350.820649 319.725 
L 226.433149 319.725 
Q 224.033149 319.725 224.033149 322.125 
L 224.033149 371.848125 
Q 224.033149 374.248125 226.433149 374.248125 
z
" style="fill: #ffffff; opacity: 0.8; stroke: #cccccc; stroke-linejoin: miter"/>
    </g>
    <g id="line2d_23">
     <path d="M 228.833149 328.725 
L 240.833149 328.725 
L 252.833149 328.725 
" style="fill: none; stroke: #213c51; stroke-width: 1.5; stroke-linecap: square"/>
    </g>
    <g id="text_13">
     <text style="font: 12px 'Times New Roman', 'Times', serif; text-anchor: start" x="262.433149" y="332.925" transform="rotate(-0 262.433149 332.925)">Energy Ratio</text>
    </g>
    <g id="line2d_24">
     <path d="M 228.833149 345.714375 
L 240.833149 345.714375 
L 252.833149 345.714375 
" style="fill: none; stroke-dasharray: 5.55,2.4; stroke-dashoffset: 0; stroke: #6594b1; stroke-width: 1.5"/>
    </g>
    <g id="text_14">
     <text style="font: 12px 'Times New Roman', 'Times', serif; text-anchor: start" x="262.433149" y="349.914375" transform="rotate(-0 262.433149 349.914375)">Contrast-to-Noise</text>
    </g>
    <g id="line2d_25">
     <path d="M 228.833149 362.68125 
L 240.833149 362.68125 
L 252.833149 362.68125 
" style="fill: none; stroke-dasharray: 9.6,2.4,1.5,2.4; stroke-dashoffset: 0; stroke: #ddaed3; stroke-width: 1.5"/>
    </g>
    <g id="text_15">
     <text style="font: 12px 'Times New Roman', 'Times', serif; text-anchor: start" x="262.433149" y="366.88125" transform="rotate(-0 262.433149 366.88125)">Final Metric</text>
    </g>
   </g>
  </g>
  <g id="axes_2">
   <g id="patch_8">
    <path d="M 409.168149 380.248125 
L 701.769424 380.248125 
L 701.769424 22.92125 
L 409.168149 22.92125 
z
" style="fill: #ffffff"/>
   </g>
   <g id="matplotlib.axis_3">
    <g id="xtick_6">
     <g id="line2d_26">
      <g>
       <use xlink:href="#m439237566c" x="422.468207" y="380.248125" style="stroke: #000000; stroke-width: 0.8"/>
      </g>
     </g>
     <g id="text_16">
      <text style="font: 12px 'Times New Roman', 'Times', serif; text-anchor: middle" x="422.468207" y="395.580625" transform="rotate(-0 422.468207 395.580625)">0.1</text>
     </g>
    </g>
    <g id="xtick_7">
     <g id="line2d_27">
      <g>
       <use xlink:href="#m439237566c" x="474.625297" y="380.248125" style="stroke: #000000; stroke-width: 0.8"/>
      </g>
     </g>
     <g id="text_17">
      <text style="font: 12px 'Times New Roman', 'Times', serif; text-anchor: middle" x="474.625297" y="395.580625" transform="rotate(-0 474.625297 395.580625)">0.2</text>
     </g>
    </g>
    <g id="xtick_8">
     <g id="line2d_28">
      <g>
       <use xlink:href="#m439237566c" x="526.782387" y="380.248125" style="stroke: #000000; stroke-width: 0.8"/>
      </g>
     </g>
     <g id="text_18">
      <text style="font: 12px 'Times New Roman', 'Times', serif; text-anchor: middle" x="526.782387" y="395.580625" transform="rotate(-0 526.782387 395.580625)">0.3</text>
     </g>
    </g>
    <g id="xtick_9">
     <g id="line2d_29">
      <g>
       <use xlink:href="#m439237566c" x="578.939477" y="380.248125" style="stroke: #000000; stroke-width: 0.8"/>
      </g>
     </g>
     <g id="text_19">
      <text style="font: 12px 'Times New Roman', 'Times', serif; text-anchor: middle" x="578.939477" y="395.580625" transform="rotate(-0 578.939477 395.580625)">0.4</text>
     </g>
    </g>
    <g id="xtick_10">
     <g id="line2d_30">
      <g>
       <use xlink:href="#m439237566c" x="631.096567" y="380.248125" style="stroke: #000000; stroke-width: 0.8"/>
      </g>
     </g>
     <g id="text_20">
      <text style="font: 12px 'Times New Roman', 'Times', serif; text-anchor: middle" x="631.096567" y="395.580625" transform="rotate(-0 631.096567 395.580625)">0.5</text>
     </g>
    </g>
    <g id="xtick_11">
     <g id="line2d_31">
      <g>
       <use xlink:href="#m439237566c" x="683.253657" y="380.248125" style="stroke: #000000; stroke-width: 0.8"/>
      </g>
     </g>
     <g id="text_21">
      <text style="font: 12px 'Times New Roman', 'Times', serif; text-anchor: middle" x="683.253657" y="395.580625" transform="rotate(-0 683.253657 395.580625)">0.6</text>
     </g>
    </g>
    <g id="text_22">
     <text style="font: 12px 'Times New Roman', 'Times', serif; text-anchor: middle" x="555.468787" y="410.48" transform="rotate(-0 555.468787 410.48)">Bin Center (ns)</text>
    </g>
   </g>
   <g id="matplotlib.axis_4">
    <g id="ytick_9">
     <g id="line2d_32">
      <g>
       <use xlink:href="#m8976adada6" x="409.168149" y="364.815065" style="stroke: #000000; stroke-width: 0.8"/>
      </g>
     </g>
     <g id="text_23">
      <text style="font: 12px 'Times New Roman', 'Times', serif; text-anchor: end" x="402.168149" y="368.981315" transform="rotate(-0 402.168149 368.981315)">0.0</text>
     </g>
    </g>
    <g id="ytick_10">
     <g id="line2d_33">
      <g>
       <use xlink:href="#m8976adada6" x="409.168149" y="296.242785" style="stroke: #000000; stroke-width: 0.8"/>
      </g>
     </g>
     <g id="text_24">
      <text style="font: 12px 'Times New Roman', 'Times', serif; text-anchor: end" x="402.168149" y="300.409035" transform="rotate(-0 402.168149 300.409035)">0.2</text>
     </g>
    </g>
    <g id="ytick_11">
     <g id="line2d_34">
      <g>
       <use xlink:href="#m8976adada6" x="409.168149" y="227.670505" style="stroke: #000000; stroke-width: 0.8"/>
      </g>
     </g>
     <g id="text_25">
      <text style="font: 12px 'Times New Roman', 'Times', serif; text-anchor: end" x="402.168149" y="231.836755" transform="rotate(-0 402.168149 231.836755)">0.4</text>
     </g>
    </g>
    <g id="ytick_12">
     <g id="line2d_35">
      <g>
       <use xlink:href="#m8976adada6" x="409.168149" y="159.098225" style="stroke: #000000; stroke-width: 0.8"/>
      </g>
     </g>
     <g id="text_26">
      <text style="font: 12px 'Times New Roman', 'Times', serif; text-anchor: end" x="402.168149" y="163.264475" transform="rotate(-0 402.168149 163.264475)">0.6</text>
     </g>
    </g>
    <g id="ytick_13">
     <g id="line2d_36">
      <g>
       <use xlink:href="#m8976adada6" x="409.168149" y="90.525944" style="stroke: #000000; stroke-width: 0.8"/>
      </g>
     </g>
     <g id="text_27">
      <text style="font: 12px 'Times New Roman', 'Times', serif; text-anchor: end" x="402.168149" y="94.692194" transform="rotate(-0 402.168149 94.692194)">0.8</text>
     </g>
    </g>
    <g id="text_28">
     <text style="font: 12px 'Times New Roman', 'Times', serif; text-anchor: middle" x="380.601274" y="201.584688" transform="rotate(-90 380.601274 201.584688)">Window Value</text>
    </g>
   </g>
   <g id="line2d_37">
    <path d="M 422.468207 363.953025 
L 438.115334 363.920538 
L 448.546752 363.739474 
L 464.193879 39.163381 
L 479.841006 363.462592 
L 490.272424 363.896823 
L 505.919551 363.861125 
L 521.566678 363.801013 
L 531.998096 363.833713 
L 547.645223 363.956893 
L 563.29235 363.973967 
L 578.939477 363.982945 
L 589.370895 363.996086 
L 605.018022 364.005994 
L 620.665149 364.001719 
L 631.096567 363.98977 
L 646.743694 363.983042 
L 662.390821 363.977485 
L 672.822239 363.972529 
L 688.469366 363.967762 
" clip-path="url(#pd7f2910754)" style="fill: none; stroke: #213c51; stroke-width: 1.5; stroke-linecap: square"/>
    <defs>
     <path id="m10dce4fd2e" d="M 0 3 
C 0.795609 3 1.55874 2.683901 2.12132 2.12132 
C 2.683901 1.55874 3 0.795609 3 0 
C 3 -0.795609 2.683901 -1.55874 2.12132 -2.12132 
C 1.55874 -2.683901 0.795609 -3 0 -3 
C -0.795609 -3 -1.55874 -2.683901 -2.12132 -2.12132 
C -2.683901 -1.55874 -3 -0.795609 -3 0 
C -3 0.795609 -2.683901 1.55874 -2.12132 2.12132 
C -1.55874 2.683901 -0.795609 3 0 3 
z
" style="stroke: #213c51"/>
    </defs>
    <g clip-path="url(#pd7f2910754)">
     <use xlink:href="#m10dce4fd2e" x="422.468207" y="363.953025" style="fill: #213c51; stroke: #213c51"/>
     <use xlink:href="#m10dce4fd2e" x="438.115334" y="363.920538" style="fill: #213c51; stroke: #213c51"/>
     <use xlink:href="#m10dce4fd2e" x="448.546752" y="363.739474" style="fill: #213c51; stroke: #213c51"/>
     <use xlink:href="#m10dce4fd2e" x="464.193879" y="39.163381" style="fill: #213c51; stroke: #213c51"/>
     <use xlink:href="#m10dce4fd2e" x="479.841006" y="363.462592" style="fill: #213c51; stroke: #213c51"/>
     <use xlink:href="#m10dce4fd2e" x="490.272424" y="363.896823" style="fill: #213c51; stroke: #213c51"/>
     <use xlink:href="#m10dce4fd2e" x="505.919551" y="363.861125" style="fill: #213c51; stroke: #213c51"/>
     <use xlink:href="#m10dce4fd2e" x="521.566678" y="363.801013" style="fill: #213c51; stroke: #213c51"/>
     <use xlink:href="#m10dce4fd2e" x="531.998096" y="363.833713" style="fill: #213c51; stroke: #213c51"/>
     <use xlink:href="#m10dce4fd2e" x="547.645223" y="363.956893" style="fill: #213c51; stroke: #213c51"/>
     <use xlink:href="#m10dce4fd2e" x="563.29235" y="363.973967" style="fill: #213c51; stroke: #213c51"/>
     <use xlink:href="#m10dce4fd2e" x="578.939477" y="363.982945" style="fill: #213c51; stroke: #213c51"/>
     <use xlink:href="#m10dce4fd2e" x="589.370895" y="363.996086" style="fill: #213c51; stroke: #213c51"/>
     <use xlink:href="#m10dce4fd2e" x="605.018022" y="364.005994" style="fill: #213c51; stroke: #213c51"/>
     <use xlink:href="#m10dce4fd2e" x="620.665149" y="364.001719" style="fill: #213c51; stroke: #213c51"/>
     <use xlink:href="#m10dce4fd2e" x="631.096567" y="363.98977" style="fill: #213c51; stroke: #213c51"/>
     <use xlink:href="#m10dce4fd2e" x="646.743694" y="363.983042" style="fill: #213c51; stroke: #213c51"/>
     <use xlink:href="#m10dce4fd2e" x="662.390821" y="363.977485" style="fill: #213c51; stroke: #213c51"/>
     <use xlink:href="#m10dce4fd2e" x="672.822239" y="363.972529" style="fill: #213c51; stroke: #213c51"/>
     <use xlink:href="#m10dce4fd2e" x="688.469366" y="363.967762" style="fill: #213c51; stroke: #213c51"/>
    </g>
   </g>
   <g id="patch_9">
    <path d="M 409.168149 380.248125 
L 409.168149 22.92125 
" style="fill: none; stroke: #000000; stroke-width: 0.8; stroke-linejoin: miter; stroke-linecap: square"/>
   </g>
   <g id="patch_10">
    <path d="M 701.769424 380.248125 
L 701.769424 22.92125 
" style="fill: none; stroke: #000000; stroke-width: 0.8; stroke-linejoin: miter; stroke-linecap: square"/>
   </g>
   <g id="patch_11">
    <path d="M 409.168149 380.248125 
L 701.769424 380.248125 
" style="fill: none; stroke: #000000; stroke-width: 0.8; stroke-linejoin: miter; stroke-linecap: square"/>
   </g>
   <g id="patch_12">
    <path d="M 409.168149 22.92125 
L 701.769424 22.92125 
" style="fill: none; stroke: #000000; stroke-width: 0.8; stroke-linejoin: miter; stroke-linecap: square"/>
   </g>
   <g id="text_29">
    <text style="font: 14px 'Times New Roman', 'Times', serif; text-anchor: middle" x="555.468787" y="16.92125" transform="rotate(-0 555.468787 16.92125)">Optimized Window</text>
   </g>
  </g>
 </g>
 <defs>
  <clipPath id="p81ed0a6f3a">
   <rect x="66.619375" y="22.92125" width="292.601274" height="357.326875"/>
  </clipPath>
  <clipPath id="pd7f2910754">
   <rect x="409.168149" y="22.92125" width="292.601274" height="357.326875"/>
  </clipPath>
 </defs>
</svg>
