<?xml version="1.0" encoding="utf-8" standalone="no"?>
<!DOCTYPE svg PUBLIC "-//W3C//DTD SVG 1.1//EN"
  "http://www.w3.org/Graphics/SVG/1.1/DTD/svg11.dtd">
<svg xmlns:xlink="http://www.w3.org/1999/xlink" width="280.499375pt" height="229.2625pt" viewBox="0 0 280.499375 229.2625" xmlns="http://www.w3.org/2000/svg" version="1.1">
 <metadata>
  <rdf:RDF xmlns:dc="http://purl.org/dc/elements/1.1/" xmlns:cc="http://creativecommons.org/ns#" xmlns:rdf="http://www.w3.org/1999/02/22-rdf-syntax-ns#">
   <cc:Work>
    <dc:type rdf:resource="http://purl.org/dc/dcmitype/StillImage"/>
    <dc:date>2026-02-10T07:29:51.808590</dc:date>
    <dc:format>image/svg+xml</dc:format>
    <dc:creator>
     <cc:Agent>
      <dc:title>Matplotlib v3.9.2, https://matplotlib.org/</dc:title>
     </cc:Agent>
    </dc:creator>
   </cc:Work>
  </rdf:RDF>
 </metadata>
 <defs>
  <style type="text/css">*{stroke-linejoin: round; stroke-linecap: butt}</style>
 </defs>
 <g id="figure_1">
  <g id="patch_1">
   <path d="M 0 229.2625 
L 280.499375 229.2625 
L 280.499375 0 
L 0 0 
z
" style="fill: #ffffff"/>
  </g>
  <g id="axes_1">
   <g id="patch_2">
    <path d="M 50.099375 189.24125 
L 273.299375 189.24125 
L 273.299375 22.92125 
L 50.099375 22.92125 
z
" style="fill: #ffffff"/>
   </g>
   <g id="patch_3">
    <path d="M 60.24483 176.749936 
L 70.390272 176.749936 
L 70.390272 30.48125 
L 60.24483 30.48125 
z
" clip-path="url(#p711a093906)" style="fill: #213c51; opacity: 0.7; stroke: #000000; stroke-width: 0.5; stroke-linejoin: miter"/>
   </g>
   <g id="patch_4">
    <path d="M 70.390287 176.749936 
L 80.53576 176.749936 
L 80.53576 176.749936 
L 70.390287 176.749936 
z
" clip-path="url(#p711a093906)" style="fill: #213c51; opacity: 0.7; stroke: #000000; stroke-width: 0.5; stroke-linejoin: miter"/>
   </g>
   <g id="patch_5">
    <path d="M 80.535745 176.749936 
L 90.681187 176.749936 
L 90.681187 147.612518 
L 80.535745 147.612518 
z
" clip-path="url(#p711a093906)" style="fill: #213c51; opacity: 0.7; stroke: #000000; stroke-width: 0.5; stroke-linejoin: miter"/>
   </g>
   <g id="patch_6">
    <path d="M 90.681203 176.749936 
L 100.826645 176.749936 
L 100.826645 160.022702 
L 90.681203 160.022702 
z
" clip-path="url(#p711a093906)" style="fill: #213c51; opacity: 0.7; stroke: #000000; stroke-width: 0.5; stroke-linejoin: miter"/>
   </g>
   <g id="patch_7">
    <path d="M 100.82666 176.749936 
L 110.972133 176.749936 
L 110.972133 176.749936 
L 100.82666 176.749936 
z
" clip-path="url(#p711a093906)" style="fill: #213c51; opacity: 0.7; stroke: #000000; stroke-width: 0.5; stroke-linejoin: miter"/>
   </g>
   <g id="patch_8">
    <path d="M 110.972118 176.749936 
L 121.11756 176.749936 
L 121.11756 148.369336 
L 110.972118 148.369336 
z
" clip-path="url(#p711a093906)" style="fill: #213c51; opacity: 0.7; stroke: #000000; stroke-width: 0.5; stroke-linejoin: miter"/>
   </g>
   <g id="patch_9">
    <path d="M 121.11756 176.749936 
L 131.263018 176.749936 
L 131.263018 176.749936 
L 121.11756 176.749936 
z
" clip-path="url(#p711a093906)" style="fill: #213c51; opacity: 0.7; stroke: #000000; stroke-width: 0.5; stroke-linejoin: miter"/>
   </g>
   <g id="patch_10">
    <path d="M 131.263018 176.749936 
L 141.408475 176.749936 
L 141.408475 116.360493 
L 131.263018 116.360493 
z
" clip-path="url(#p711a093906)" style="fill: #213c51; opacity: 0.7; stroke: #000000; stroke-width: 0.5; stroke-linejoin: miter"/>
   </g>
   <g id="patch_11">
    <path d="M 141.408475 176.749936 
L 151.553933 176.749936 
L 151.553933 176.749936 
L 141.408475 176.749936 
z
" clip-path="url(#p711a093906)" style="fill: #213c51; opacity: 0.7; stroke: #000000; stroke-width: 0.5; stroke-linejoin: miter"/>
   </g>
   <g id="patch_12">
    <path d="M 151.553933 176.749936 
L 161.699391 176.749936 
L 161.699391 159.995738 
L 151.553933 159.995738 
z
" clip-path="url(#p711a093906)" style="fill: #213c51; opacity: 0.7; stroke: #000000; stroke-width: 0.5; stroke-linejoin: miter"/>
   </g>
   <g id="patch_13">
    <path d="M 161.699375 176.749936 
L 171.844801 176.749936 
L 171.844801 176.749936 
L 161.699375 176.749936 
z
" clip-path="url(#p711a093906)" style="fill: #213c51; opacity: 0.7; stroke: #000000; stroke-width: 0.5; stroke-linejoin: miter"/>
   </g>
   <g id="patch_14">
    <path d="M 171.844864 176.749936 
L 181.990353 176.749936 
L 181.990353 165.075537 
L 171.844864 165.075537 
z
" clip-path="url(#p711a093906)" style="fill: #213c51; opacity: 0.7; stroke: #000000; stroke-width: 0.5; stroke-linejoin: miter"/>
   </g>
   <g id="patch_15">
    <path d="M 181.990322 176.749936 
L 192.135748 176.749936 
L 192.135748 176.749936 
L 181.990322 176.749936 
z
" clip-path="url(#p711a093906)" style="fill: #213c51; opacity: 0.7; stroke: #000000; stroke-width: 0.5; stroke-linejoin: miter"/>
   </g>
   <g id="patch_16">
    <path d="M 192.135748 176.749936 
L 202.281206 176.749936 
L 202.281206 176.749936 
L 192.135748 176.749936 
z
" clip-path="url(#p711a093906)" style="fill: #213c51; opacity: 0.7; stroke: #000000; stroke-width: 0.5; stroke-linejoin: miter"/>
   </g>
   <g id="patch_17">
    <path d="M 202.281206 176.749936 
L 212.426663 176.749936 
L 212.426663 172.307295 
L 202.281206 172.307295 
z
" clip-path="url(#p711a093906)" style="fill: #213c51; opacity: 0.7; stroke: #000000; stroke-width: 0.5; stroke-linejoin: miter"/>
   </g>
   <g id="patch_18">
    <path d="M 212.426632 176.749936 
L 222.572059 176.749936 
L 222.572059 158.772506 
L 212.426632 158.772506 
z
" clip-path="url(#p711a093906)" style="fill: #213c51; opacity: 0.7; stroke: #000000; stroke-width: 0.5; stroke-linejoin: miter"/>
   </g>
   <g id="patch_19">
    <path d="M 222.57209 176.749936 
L 232.717579 176.749936 
L 232.717579 169.150048 
L 222.57209 169.150048 
z
" clip-path="url(#p711a093906)" style="fill: #213c51; opacity: 0.7; stroke: #000000; stroke-width: 0.5; stroke-linejoin: miter"/>
   </g>
   <g id="patch_20">
    <path d="M 232.717579 176.749936 
L 242.863036 176.749936 
L 242.863036 176.749936 
L 232.717579 176.749936 
z
" clip-path="url(#p711a093906)" style="fill: #213c51; opacity: 0.7; stroke: #000000; stroke-width: 0.5; stroke-linejoin: miter"/>
   </g>
   <g id="patch_21">
    <path d="M 242.863005 176.749936 
L 253.008432 176.749936 
L 253.008432 176.749936 
L 242.863005 176.749936 
z
" clip-path="url(#p711a093906)" style="fill: #213c51; opacity: 0.7; stroke: #000000; stroke-width: 0.5; stroke-linejoin: miter"/>
   </g>
   <g id="patch_22">
    <path d="M 253.008463 176.749936 
L 263.15392 176.749936 
L 263.15392 167.988825 
L 253.008463 167.988825 
z
" clip-path="url(#p711a093906)" style="fill: #213c51; opacity: 0.7; stroke: #000000; stroke-width: 0.5; stroke-linejoin: miter"/>
   </g>
   <g id="matplotlib.axis_1">
    <g id="xtick_1">
     <g id="line2d_1">
      <path d="M 66.638463 189.24125 
L 66.638463 22.92125 
" clip-path="url(#p711a093906)" style="fill: none; stroke: #b0b0b0; stroke-opacity: 0.1; stroke-width: 0.8; stroke-linecap: square"/>
     </g>
     <g id="line2d_2">
      <defs>
       <path id="mbfca05fbd4" d="M 0 0 
L 0 3.5 
" style="stroke: #000000; stroke-width: 0.8"/>
      </defs>
      <g>
       <use xlink:href="#mbfca05fbd4" x="66.638463" y="189.24125" style="stroke: #000000; stroke-width: 0.8"/>
      </g>
     </g>
     <g id="text_1">
      <text style="font: 12px 'Times New Roman', 'Times', serif; text-anchor: middle" x="66.638463" y="204.57375" transform="rotate(-0 66.638463 204.57375)">0.6</text>
     </g>
    </g>
    <g id="xtick_2">
     <g id="line2d_3">
      <path d="M 119.015419 189.24125 
L 119.015419 22.92125 
" clip-path="url(#p711a093906)" style="fill: none; stroke: #b0b0b0; stroke-opacity: 0.1; stroke-width: 0.8; stroke-linecap: square"/>
     </g>
     <g id="line2d_4">
      <g>
       <use xlink:href="#mbfca05fbd4" x="119.015419" y="189.24125" style="stroke: #000000; stroke-width: 0.8"/>
      </g>
     </g>
     <g id="text_2">
      <text style="font: 12px 'Times New Roman', 'Times', serif; text-anchor: middle" x="119.015419" y="204.57375" transform="rotate(-0 119.015419 204.57375)">0.8</text>
     </g>
    </g>
    <g id="xtick_3">
     <g id="line2d_5">
      <path d="M 171.392374 189.24125 
L 171.392374 22.92125 
" clip-path="url(#p711a093906)" style="fill: none; stroke: #b0b0b0; stroke-opacity: 0.1; stroke-width: 0.8; stroke-linecap: square"/>
     </g>
     <g id="line2d_6">
      <g>
       <use xlink:href="#mbfca05fbd4" x="171.392374" y="189.24125" style="stroke: #000000; stroke-width: 0.8"/>
      </g>
     </g>
     <g id="text_3">
      <text style="font: 12px 'Times New Roman', 'Times', serif; text-anchor: middle" x="171.392374" y="204.57375" transform="rotate(-0 171.392374 204.57375)">1.0</text>
     </g>
    </g>
    <g id="xtick_4">
     <g id="line2d_7">
      <path d="M 223.76933 189.24125 
L 223.76933 22.92125 
" clip-path="url(#p711a093906)" style="fill: none; stroke: #b0b0b0; stroke-opacity: 0.1; stroke-width: 0.8; stroke-linecap: square"/>
     </g>
     <g id="line2d_8">
      <g>
       <use xlink:href="#mbfca05fbd4" x="223.76933" y="189.24125" style="stroke: #000000; stroke-width: 0.8"/>
      </g>
     </g>
     <g id="text_4">
      <text style="font: 12px 'Times New Roman', 'Times', serif; text-anchor: middle" x="223.76933" y="204.57375" transform="rotate(-0 223.76933 204.57375)">1.2</text>
     </g>
    </g>
    <g id="text_5">
     <text style="font: 12px 'Times New Roman', 'Times', serif; text-anchor: middle" x="161.699375" y="219.473125" transform="rotate(-0 161.699375 219.473125)">Time of Flight (ns)</text>
    </g>
   </g>
   <g id="matplotlib.axis_2">
    <g id="ytick_1">
     <g id="line2d_9">
      <path d="M 50.099375 176.749936 
L 273.299375 176.749936 
" clip-path="url(#p711a093906)" style="fill: none; stroke: #b0b0b0; stroke-opacity: 0.1; stroke-width: 0.8; stroke-linecap: square"/>
     </g>
     <g id="line2d_10">
      <defs>
       <path id="ma325c2ba21" d="M 0 0 
L -3.5 0 
" style="stroke: #000000; stroke-width: 0.8"/>
      </defs>
      <g>
       <use xlink:href="#ma325c2ba21" x="50.099375" y="176.749936" style="stroke: #000000; stroke-width: 0.8"/>
      </g>
     </g>
     <g id="text_6">
      <text style="font: 12px 'Times New Roman', 'Times', serif; text-anchor: end" x="43.099375" y="180.916186" transform="rotate(-0 43.099375 180.916186)">0.00</text>
     </g>
    </g>
    <g id="ytick_2">
     <g id="line2d_11">
      <path d="M 50.099375 145.386602 
L 273.299375 145.386602 
" clip-path="url(#p711a093906)" style="fill: none; stroke: #b0b0b0; stroke-opacity: 0.1; stroke-width: 0.8; stroke-linecap: square"/>
     </g>
     <g id="line2d_12">
      <g>
       <use xlink:href="#ma325c2ba21" x="50.099375" y="145.386602" style="stroke: #000000; stroke-width: 0.8"/>
      </g>
     </g>
     <g id="text_7">
      <text style="font: 12px 'Times New Roman', 'Times', serif; text-anchor: end" x="43.099375" y="149.552852" transform="rotate(-0 43.099375 149.552852)">0.02</text>
     </g>
    </g>
    <g id="ytick_3">
     <g id="line2d_13">
      <path d="M 50.099375 114.023268 
L 273.299375 114.023268 
" clip-path="url(#p711a093906)" style="fill: none; stroke: #b0b0b0; stroke-opacity: 0.1; stroke-width: 0.8; stroke-linecap: square"/>
     </g>
     <g id="line2d_14">
      <g>
       <use xlink:href="#ma325c2ba21" x="50.099375" y="114.023268" style="stroke: #000000; stroke-width: 0.8"/>
      </g>
     </g>
     <g id="text_8">
      <text style="font: 12px 'Times New Roman', 'Times', serif; text-anchor: end" x="43.099375" y="118.189518" transform="rotate(-0 43.099375 118.189518)">0.04</text>
     </g>
    </g>
    <g id="ytick_4">
     <g id="line2d_15">
      <path d="M 50.099375 82.659934 
L 273.299375 82.659934 
" clip-path="url(#p711a093906)" style="fill: none; stroke: #b0b0b0; stroke-opacity: 0.1; stroke-width: 0.8; stroke-linecap: square"/>
     </g>
     <g id="line2d_16">
      <g>
       <use xlink:href="#ma325c2ba21" x="50.099375" y="82.659934" style="stroke: #000000; stroke-width: 0.8"/>
      </g>
     </g>
     <g id="text_9">
      <text style="font: 12px 'Times New Roman', 'Times', serif; text-anchor: end" x="43.099375" y="86.826184" transform="rotate(-0 43.099375 86.826184)">0.06</text>
     </g>
    </g>
    <g id="ytick_5">
     <g id="line2d_17">
      <path d="M 50.099375 51.2966 
L 273.299375 51.2966 
" clip-path="url(#p711a093906)" style="fill: none; stroke: #b0b0b0; stroke-opacity: 0.1; stroke-width: 0.8; stroke-linecap: square"/>
     </g>
     <g id="line2d_18">
      <g>
       <use xlink:href="#ma325c2ba21" x="50.099375" y="51.2966" style="stroke: #000000; stroke-width: 0.8"/>
      </g>
     </g>
     <g id="text_10">
      <text style="font: 12px 'Times New Roman', 'Times', serif; text-anchor: end" x="43.099375" y="55.46285" transform="rotate(-0 43.099375 55.46285)">0.08</text>
     </g>
    </g>
    <g id="text_11">
     <text style="font: 12px 'Times New Roman', 'Times', serif; text-anchor: middle" x="15.5325" y="106.08125" transform="rotate(-90 15.5325 106.08125)">Count</text>
    </g>
   </g>
   <g id="line2d_19">
    <path d="M 65.317558 93.501731 
L 69.18573 102.279295 
L 73.053885 110.417673 
L 76.277366 116.727382 
L 79.500832 122.621322 
L 82.724313 128.11233 
L 85.947778 133.213134 
L 89.17126 137.936564 
L 92.394725 142.295356 
L 95.618191 146.302313 
L 98.841672 149.970234 
L 102.065137 153.311862 
L 105.288619 156.340013 
L 108.512084 159.067436 
L 111.73555 161.506928 
L 114.959031 163.671279 
L 118.182512 165.573258 
L 121.405978 167.225638 
L 124.629443 168.64121 
L 127.852924 169.83276 
L 131.07639 170.813056 
L 134.299871 171.594888 
L 138.168027 172.289102 
L 142.036198 172.738014 
L 145.904353 172.963708 
L 149.772524 172.988268 
L 154.285401 172.792175 
L 159.442952 172.314643 
L 165.245193 171.516878 
L 171.69214 170.39434 
L 182.007242 168.329397 
L 192.96705 166.183865 
L 199.414012 165.14296 
L 204.571564 164.514084 
L 209.08444 164.157187 
L 213.597286 164.017512 
L 217.465457 164.097262 
L 221.333628 164.384453 
L 225.201799 164.901171 
L 229.069939 165.669492 
L 232.293405 166.517898 
L 235.516902 167.569162 
L 238.740367 168.836044 
L 241.963833 170.331333 
L 245.187329 172.067829 
L 248.410764 174.058259 
L 251.634261 176.315479 
L 254.857726 178.852209 
L 258.081192 181.68125 
L 258.081192 181.68125 
" clip-path="url(#p711a093906)" style="fill: none; stroke: #6594b1; stroke-width: 2; stroke-linecap: square"/>
   </g>
   <g id="patch_23">
    <path d="M 50.099375 189.24125 
L 50.099375 22.92125 
" style="fill: none; stroke: #000000; stroke-width: 0.8; stroke-linejoin: miter; stroke-linecap: square"/>
   </g>
   <g id="patch_24">
    <path d="M 273.299375 189.24125 
L 273.299375 22.92125 
" style="fill: none; stroke: #000000; stroke-width: 0.8; stroke-linejoin: miter; stroke-linecap: square"/>
   </g>
   <g id="patch_25">
    <path d="M 50.099375 189.24125 
L 273.299375 189.24125 
" style="fill: none; stroke: #000000; stroke-width: 0.8; stroke-linejoin: miter; stroke-linecap: square"/>
   </g>
   <g id="patch_26">
    <path d="M 50.099375 22.92125 
L 273.299375 22.92125 
" style="fill: none; stroke: #000000; stroke-width: 0.8; stroke-linejoin: miter; stroke-linecap: square"/>
   </g>
   <g id="text_12">
    <text style="font: 14px 'Times New Roman', 'Times', serif; text-anchor: middle" x="161.699375" y="16.92125" transform="rotate(-0 161.699375 16.92125)">Distribution Time-of-Flight (DTOF)</text>
   </g>
  </g>
 </g>
 <defs>
  <clipPath id="p711a093906">
   <rect x="50.099375" y="22.92125" width="223.2" height="166.32"/>
  </clipPath>
 </defs>
</svg>
