<?xml version="1.0" encoding="utf-8" standalone="no"?>
<!DOCTYPE svg PUBLIC "-//W3C//DTD SVG 1.1//EN"
  "http://www.w3.org/Graphics/SVG/1.1/DTD/svg11.dtd">
<svg xmlns:xlink="http://www.w3.org/1999/xlink" width="271.499375pt" height="229.2625pt" viewBox="0 0 271.499375 229.2625" xmlns="http://www.w3.org/2000/svg" version="1.1">
 <metadata>
  <rdf:RDF xmlns:dc="http://purl.org/dc/elements/1.1/" xmlns:cc="http://creativecommons.org/ns#" xmlns:rdf="http://www.w3.org/1999/02/22-rdf-syntax-ns#">
   <cc:Work>
    <dc:type rdf:resource="http://purl.org/dc/dcmitype/StillImage"/>
    <dc:date>2026-01-18T13:41:42.765769</dc:date>
    <dc:format>image/svg+xml</dc:format>
    <dc:creator>
     <cc:Agent>
      <dc:title>Matplotlib v3.9.2, https://matplotlib.org/</dc:title>
     </cc:Agent>
    </dc:creator>
   </cc:Work>
  </rdf:RDF>
 </metadata>
 <defs>
  <style type="text/css">*{stroke-linejoin: round; stroke-linecap: butt}</style>
 </defs>
 <g id="figure_1">
  <g id="patch_1">
   <path d="M 0 229.2625 
L 271.499375 229.2625 
L 271.499375 0 
L 0 0 
z
" style="fill: #ffffff"/>
  </g>
  <g id="axes_1">
   <g id="patch_2">
    <path d="M 41.099375 189.24125 
L 264.299375 189.24125 
L 264.299375 22.92125 
L 41.099375 22.92125 
z
" style="fill: #ffffff"/>
   </g>
   <g id="patch_3">
    <path d="M 51.24483 189.24125 
L 61.390283 189.24125 
L 61.390283 173.172855 
L 51.24483 173.172855 
z
" clip-path="url(#p6bbe59d644)" style="fill: #213c51; opacity: 0.7; stroke: #000000; stroke-width: 0.5; stroke-linejoin: miter"/>
   </g>
   <g id="patch_4">
    <path d="M 61.390283 189.24125 
L 71.535737 189.24125 
L 71.535737 127.136261 
L 61.390283 127.136261 
z
" clip-path="url(#p6bbe59d644)" style="fill: #213c51; opacity: 0.7; stroke: #000000; stroke-width: 0.5; stroke-linejoin: miter"/>
   </g>
   <g id="patch_5">
    <path d="M 71.535731 189.24125 
L 81.681191 189.24125 
L 81.681191 74.556086 
L 71.535731 74.556086 
z
" clip-path="url(#p6bbe59d644)" style="fill: #213c51; opacity: 0.7; stroke: #000000; stroke-width: 0.5; stroke-linejoin: miter"/>
   </g>
   <g id="patch_6">
    <path d="M 81.681196 189.24125 
L 91.82665 189.24125 
L 91.82665 31.353744 
L 81.681196 31.353744 
z
" clip-path="url(#p6bbe59d644)" style="fill: #213c51; opacity: 0.7; stroke: #000000; stroke-width: 0.5; stroke-linejoin: miter"/>
   </g>
   <g id="patch_7">
    <path d="M 91.82665 189.24125 
L 101.972104 189.24125 
L 101.972104 43.206814 
L 91.82665 43.206814 
z
" clip-path="url(#p6bbe59d644)" style="fill: #213c51; opacity: 0.7; stroke: #000000; stroke-width: 0.5; stroke-linejoin: miter"/>
   </g>
   <g id="patch_8">
    <path d="M 101.972104 189.24125 
L 112.117557 189.24125 
L 112.117557 52.597666 
L 101.972104 52.597666 
z
" clip-path="url(#p6bbe59d644)" style="fill: #213c51; opacity: 0.7; stroke: #000000; stroke-width: 0.5; stroke-linejoin: miter"/>
   </g>
   <g id="patch_9">
    <path d="M 112.117552 189.24125 
L 122.263011 189.24125 
L 122.263011 66.366936 
L 112.117552 66.366936 
z
" clip-path="url(#p6bbe59d644)" style="fill: #213c51; opacity: 0.7; stroke: #000000; stroke-width: 0.5; stroke-linejoin: miter"/>
   </g>
   <g id="patch_10">
    <path d="M 122.263011 189.24125 
L 132.408465 189.24125 
L 132.408465 75.7792 
L 122.263011 75.7792 
z
" clip-path="url(#p6bbe59d644)" style="fill: #213c51; opacity: 0.7; stroke: #000000; stroke-width: 0.5; stroke-linejoin: miter"/>
   </g>
   <g id="patch_11">
    <path d="M 132.408454 189.24125 
L 142.553907 189.24125 
L 142.553907 99.519214 
L 132.408454 99.519214 
z
" clip-path="url(#p6bbe59d644)" style="fill: #213c51; opacity: 0.7; stroke: #000000; stroke-width: 0.5; stroke-linejoin: miter"/>
   </g>
   <g id="patch_12">
    <path d="M 142.553918 189.24125 
L 152.699383 189.24125 
L 152.699383 120.334281 
L 142.553918 120.334281 
z
" clip-path="url(#p6bbe59d644)" style="fill: #213c51; opacity: 0.7; stroke: #000000; stroke-width: 0.5; stroke-linejoin: miter"/>
   </g>
   <g id="patch_13">
    <path d="M 152.699383 189.24125 
L 162.844826 189.24125 
L 162.844826 131.499071 
L 152.699383 131.499071 
z
" clip-path="url(#p6bbe59d644)" style="fill: #213c51; opacity: 0.7; stroke: #000000; stroke-width: 0.5; stroke-linejoin: miter"/>
   </g>
   <g id="patch_14">
    <path d="M 162.844826 189.24125 
L 172.99028 189.24125 
L 172.99028 142.496912 
L 162.844826 142.496912 
z
" clip-path="url(#p6bbe59d644)" style="fill: #213c51; opacity: 0.7; stroke: #000000; stroke-width: 0.5; stroke-linejoin: miter"/>
   </g>
   <g id="patch_15">
    <path d="M 172.99028 189.24125 
L 183.135745 189.24125 
L 183.135745 153.440099 
L 172.99028 153.440099 
z
" clip-path="url(#p6bbe59d644)" style="fill: #213c51; opacity: 0.7; stroke: #000000; stroke-width: 0.5; stroke-linejoin: miter"/>
   </g>
   <g id="patch_16">
    <path d="M 183.135745 189.24125 
L 193.281187 189.24125 
L 193.281187 157.04373 
L 183.135745 157.04373 
z
" clip-path="url(#p6bbe59d644)" style="fill: #213c51; opacity: 0.7; stroke: #000000; stroke-width: 0.5; stroke-linejoin: miter"/>
   </g>
   <g id="patch_17">
    <path d="M 193.281187 189.24125 
L 203.426652 189.24125 
L 203.426652 163.162598 
L 193.281187 163.162598 
z
" clip-path="url(#p6bbe59d644)" style="fill: #213c51; opacity: 0.7; stroke: #000000; stroke-width: 0.5; stroke-linejoin: miter"/>
   </g>
   <g id="patch_18">
    <path d="M 203.426641 189.24125 
L 213.572083 189.24125 
L 213.572083 170.281304 
L 203.426641 170.281304 
z
" clip-path="url(#p6bbe59d644)" style="fill: #213c51; opacity: 0.7; stroke: #000000; stroke-width: 0.5; stroke-linejoin: miter"/>
   </g>
   <g id="patch_19">
    <path d="M 213.572083 189.24125 
L 223.717526 189.24125 
L 223.717526 175.021755 
L 213.572083 175.021755 
z
" clip-path="url(#p6bbe59d644)" style="fill: #213c51; opacity: 0.7; stroke: #000000; stroke-width: 0.5; stroke-linejoin: miter"/>
   </g>
   <g id="patch_20">
    <path d="M 223.717548 189.24125 
L 233.863013 189.24125 
L 233.863013 178.24212 
L 223.717548 178.24212 
z
" clip-path="url(#p6bbe59d644)" style="fill: #213c51; opacity: 0.7; stroke: #000000; stroke-width: 0.5; stroke-linejoin: miter"/>
   </g>
   <g id="patch_21">
    <path d="M 233.863013 189.24125 
L 244.008478 189.24125 
L 244.008478 179.947187 
L 233.863013 179.947187 
z
" clip-path="url(#p6bbe59d644)" style="fill: #213c51; opacity: 0.7; stroke: #000000; stroke-width: 0.5; stroke-linejoin: miter"/>
   </g>
   <g id="patch_22">
    <path d="M 244.008478 189.24125 
L 254.15392 189.24125 
L 254.15392 182.029975 
L 244.008478 182.029975 
z
" clip-path="url(#p6bbe59d644)" style="fill: #213c51; opacity: 0.7; stroke: #000000; stroke-width: 0.5; stroke-linejoin: miter"/>
   </g>
   <g id="matplotlib.axis_1">
    <g id="xtick_1">
     <g id="line2d_1">
      <path d="M 56.285195 189.24125 
L 56.285195 22.92125 
" clip-path="url(#p6bbe59d644)" style="fill: none; stroke: #b0b0b0; stroke-opacity: 0.1; stroke-width: 0.8; stroke-linecap: square"/>
     </g>
     <g id="line2d_2">
      <defs>
       <path id="m019ef78df8" d="M 0 0 
L 0 3.5 
" style="stroke: #000000; stroke-width: 0.8"/>
      </defs>
      <g>
       <use xlink:href="#m019ef78df8" x="56.285195" y="189.24125" style="stroke: #000000; stroke-width: 0.8"/>
      </g>
     </g>
     <g id="text_1">
      <text style="font: 12px 'Times New Roman', 'Times', serif; text-anchor: middle" x="56.285195" y="204.57375" transform="rotate(-0 56.285195 204.57375)">0.1</text>
     </g>
    </g>
    <g id="xtick_2">
     <g id="line2d_3">
      <path d="M 94.083016 189.24125 
L 94.083016 22.92125 
" clip-path="url(#p6bbe59d644)" style="fill: none; stroke: #b0b0b0; stroke-opacity: 0.1; stroke-width: 0.8; stroke-linecap: square"/>
     </g>
     <g id="line2d_4">
      <g>
       <use xlink:href="#m019ef78df8" x="94.083016" y="189.24125" style="stroke: #000000; stroke-width: 0.8"/>
      </g>
     </g>
     <g id="text_2">
      <text style="font: 12px 'Times New Roman', 'Times', serif; text-anchor: middle" x="94.083016" y="204.57375" transform="rotate(-0 94.083016 204.57375)">0.2</text>
     </g>
    </g>
    <g id="xtick_3">
     <g id="line2d_5">
      <path d="M 131.880836 189.24125 
L 131.880836 22.92125 
" clip-path="url(#p6bbe59d644)" style="fill: none; stroke: #b0b0b0; stroke-opacity: 0.1; stroke-width: 0.8; stroke-linecap: square"/>
     </g>
     <g id="line2d_6">
      <g>
       <use xlink:href="#m019ef78df8" x="131.880836" y="189.24125" style="stroke: #000000; stroke-width: 0.8"/>
      </g>
     </g>
     <g id="text_3">
      <text style="font: 12px 'Times New Roman', 'Times', serif; text-anchor: middle" x="131.880836" y="204.57375" transform="rotate(-0 131.880836 204.57375)">0.3</text>
     </g>
    </g>
    <g id="xtick_4">
     <g id="line2d_7">
      <path d="M 169.678657 189.24125 
L 169.678657 22.92125 
" clip-path="url(#p6bbe59d644)" style="fill: none; stroke: #b0b0b0; stroke-opacity: 0.1; stroke-width: 0.8; stroke-linecap: square"/>
     </g>
     <g id="line2d_8">
      <g>
       <use xlink:href="#m019ef78df8" x="169.678657" y="189.24125" style="stroke: #000000; stroke-width: 0.8"/>
      </g>
     </g>
     <g id="text_4">
      <text style="font: 12px 'Times New Roman', 'Times', serif; text-anchor: middle" x="169.678657" y="204.57375" transform="rotate(-0 169.678657 204.57375)">0.4</text>
     </g>
    </g>
    <g id="xtick_5">
     <g id="line2d_9">
      <path d="M 207.476477 189.24125 
L 207.476477 22.92125 
" clip-path="url(#p6bbe59d644)" style="fill: none; stroke: #b0b0b0; stroke-opacity: 0.1; stroke-width: 0.8; stroke-linecap: square"/>
     </g>
     <g id="line2d_10">
      <g>
       <use xlink:href="#m019ef78df8" x="207.476477" y="189.24125" style="stroke: #000000; stroke-width: 0.8"/>
      </g>
     </g>
     <g id="text_5">
      <text style="font: 12px 'Times New Roman', 'Times', serif; text-anchor: middle" x="207.476477" y="204.57375" transform="rotate(-0 207.476477 204.57375)">0.5</text>
     </g>
    </g>
    <g id="xtick_6">
     <g id="line2d_11">
      <path d="M 245.274298 189.24125 
L 245.274298 22.92125 
" clip-path="url(#p6bbe59d644)" style="fill: none; stroke: #b0b0b0; stroke-opacity: 0.1; stroke-width: 0.8; stroke-linecap: square"/>
     </g>
     <g id="line2d_12">
      <g>
       <use xlink:href="#m019ef78df8" x="245.274298" y="189.24125" style="stroke: #000000; stroke-width: 0.8"/>
      </g>
     </g>
     <g id="text_6">
      <text style="font: 12px 'Times New Roman', 'Times', serif; text-anchor: middle" x="245.274298" y="204.57375" transform="rotate(-0 245.274298 204.57375)">0.6</text>
     </g>
    </g>
    <g id="text_7">
     <text style="font: 12px 'Times New Roman', 'Times', serif; text-anchor: middle" x="152.699375" y="219.473125" transform="rotate(-0 152.699375 219.473125)">Time of Flight (ns)</text>
    </g>
   </g>
   <g id="matplotlib.axis_2">
    <g id="ytick_1">
     <g id="line2d_13">
      <path d="M 41.099375 189.24125 
L 264.299375 189.24125 
" clip-path="url(#p6bbe59d644)" style="fill: none; stroke: #b0b0b0; stroke-opacity: 0.1; stroke-width: 0.8; stroke-linecap: square"/>
     </g>
     <g id="line2d_14">
      <defs>
       <path id="m008c2d2574" d="M 0 0 
L -3.5 0 
" style="stroke: #000000; stroke-width: 0.8"/>
      </defs>
      <g>
       <use xlink:href="#m008c2d2574" x="41.099375" y="189.24125" style="stroke: #000000; stroke-width: 0.8"/>
      </g>
     </g>
     <g id="text_8">
      <text style="font: 12px 'Times New Roman', 'Times', serif; text-anchor: end" x="34.099375" y="193.4075" transform="rotate(-0 34.099375 193.4075)">0</text>
     </g>
    </g>
    <g id="ytick_2">
     <g id="line2d_15">
      <path d="M 41.099375 143.100522 
L 264.299375 143.100522 
" clip-path="url(#p6bbe59d644)" style="fill: none; stroke: #b0b0b0; stroke-opacity: 0.1; stroke-width: 0.8; stroke-linecap: square"/>
     </g>
     <g id="line2d_16">
      <g>
       <use xlink:href="#m008c2d2574" x="41.099375" y="143.100522" style="stroke: #000000; stroke-width: 0.8"/>
      </g>
     </g>
     <g id="text_9">
      <text style="font: 12px 'Times New Roman', 'Times', serif; text-anchor: end" x="34.099375" y="147.266772" transform="rotate(-0 34.099375 147.266772)">20</text>
     </g>
    </g>
    <g id="ytick_3">
     <g id="line2d_17">
      <path d="M 41.099375 96.959793 
L 264.299375 96.959793 
" clip-path="url(#p6bbe59d644)" style="fill: none; stroke: #b0b0b0; stroke-opacity: 0.1; stroke-width: 0.8; stroke-linecap: square"/>
     </g>
     <g id="line2d_18">
      <g>
       <use xlink:href="#m008c2d2574" x="41.099375" y="96.959793" style="stroke: #000000; stroke-width: 0.8"/>
      </g>
     </g>
     <g id="text_10">
      <text style="font: 12px 'Times New Roman', 'Times', serif; text-anchor: end" x="34.099375" y="101.126043" transform="rotate(-0 34.099375 101.126043)">40</text>
     </g>
    </g>
    <g id="ytick_4">
     <g id="line2d_19">
      <path d="M 41.099375 50.819065 
L 264.299375 50.819065 
" clip-path="url(#p6bbe59d644)" style="fill: none; stroke: #b0b0b0; stroke-opacity: 0.1; stroke-width: 0.8; stroke-linecap: square"/>
     </g>
     <g id="line2d_20">
      <g>
       <use xlink:href="#m008c2d2574" x="41.099375" y="50.819065" style="stroke: #000000; stroke-width: 0.8"/>
      </g>
     </g>
     <g id="text_11">
      <text style="font: 12px 'Times New Roman', 'Times', serif; text-anchor: end" x="34.099375" y="54.985315" transform="rotate(-0 34.099375 54.985315)">60</text>
     </g>
    </g>
    <g id="text_12">
     <text style="font: 12px 'Times New Roman', 'Times', serif; text-anchor: middle" x="15.5325" y="106.08125" transform="rotate(-90 15.5325 106.08125)">Count</text>
    </g>
   </g>
   <g id="line2d_21">
    <path d="M 56.317556 173.140753 
L 58.896334 162.475361 
L 62.119806 148.139962 
L 65.343278 132.838179 
L 69.211444 113.424883 
L 74.368999 86.209042 
L 80.815949 51.949238 
L 82.750029 43.357459 
L 84.039418 38.612115 
L 85.328807 34.862433 
L 85.973504 33.417116 
L 86.618196 32.288113 
L 87.262893 31.493734 
L 87.907584 31.020731 
L 88.552282 30.84125 
L 89.196979 30.927371 
L 89.84167 31.251166 
L 90.486362 31.784711 
L 91.775756 33.369371 
L 93.06514 35.45793 
L 97.578003 43.518224 
L 98.867392 45.27881 
L 100.801472 47.434354 
L 103.38025 49.789899 
L 105.959033 52.094037 
L 107.893113 54.137591 
L 109.827199 56.535191 
L 116.274149 64.935686 
L 118.208229 66.917293 
L 120.787007 69.091655 
L 123.365784 71.279867 
L 124.655168 72.570113 
L 125.944562 74.092975 
L 127.233956 75.924824 
L 128.52334 78.124178 
L 130.45742 82.033419 
L 132.391512 86.493066 
L 135.614975 94.593076 
L 139.483147 104.271454 
L 142.061925 110.176714 
L 143.996005 114.188545 
L 145.930085 117.761726 
L 147.864177 120.823326 
L 149.798257 123.353157 
L 151.732338 125.47787 
L 154.311115 127.943245 
L 158.179287 131.584878 
L 160.758065 134.374362 
L 164.626225 138.975362 
L 170.428478 145.951684 
L 173.007255 148.748689 
L 174.941336 150.610798 
L 176.875427 152.210381 
L 178.809508 153.494406 
L 180.743588 154.472978 
L 183.322366 155.468085 
L 188.479921 157.295735 
L 191.058698 158.539431 
L 193.637476 160.031808 
L 196.860951 162.148384 
L 203.952597 167.193603 
L 207.820769 169.792586 
L 211.044233 171.684879 
L 214.267696 173.306502 
L 217.491182 174.68828 
L 221.359343 176.073527 
L 225.227504 177.211783 
L 229.740384 178.299189 
L 235.542614 179.447794 
L 249.081211 182.001778 
L 249.081211 182.001778 
" clip-path="url(#p6bbe59d644)" style="fill: none; stroke: #6594b1; stroke-width: 2; stroke-linecap: square"/>
   </g>
   <g id="patch_23">
    <path d="M 41.099375 189.24125 
L 41.099375 22.92125 
" style="fill: none; stroke: #000000; stroke-width: 0.8; stroke-linejoin: miter; stroke-linecap: square"/>
   </g>
   <g id="patch_24">
    <path d="M 264.299375 189.24125 
L 264.299375 22.92125 
" style="fill: none; stroke: #000000; stroke-width: 0.8; stroke-linejoin: miter; stroke-linecap: square"/>
   </g>
   <g id="patch_25">
    <path d="M 41.099375 189.24125 
L 264.299375 189.24125 
" style="fill: none; stroke: #000000; stroke-width: 0.8; stroke-linejoin: miter; stroke-linecap: square"/>
   </g>
   <g id="patch_26">
    <path d="M 41.099375 22.92125 
L 264.299375 22.92125 
" style="fill: none; stroke: #000000; stroke-width: 0.8; stroke-linejoin: miter; stroke-linecap: square"/>
   </g>
   <g id="text_13">
    <text style="font: 14px 'Times New Roman', 'Times', serif; text-anchor: middle" x="152.699375" y="16.92125" transform="rotate(-0 152.699375 16.92125)">Distribution Time-of-Flight (DTOF)</text>
   </g>
  </g>
 </g>
 <defs>
  <clipPath id="p6bbe59d644">
   <rect x="41.099375" y="22.92125" width="223.2" height="166.32"/>
  </clipPath>
 </defs>
</svg>
