<?xml version="1.0" encoding="utf-8" standalone="no"?>
<!DOCTYPE svg PUBLIC "-//W3C//DTD SVG 1.1//EN"
  "http://www.w3.org/Graphics/SVG/1.1/DTD/svg11.dtd">
<svg xmlns:xlink="http://www.w3.org/1999/xlink" width="265.521875pt" height="229.2625pt" viewBox="0 0 265.521875 229.2625" xmlns="http://www.w3.org/2000/svg" version="1.1">
 <metadata>
  <rdf:RDF xmlns:dc="http://purl.org/dc/elements/1.1/" xmlns:cc="http://creativecommons.org/ns#" xmlns:rdf="http://www.w3.org/1999/02/22-rdf-syntax-ns#">
   <cc:Work>
    <dc:type rdf:resource="http://purl.org/dc/dcmitype/StillImage"/>
    <dc:date>2026-02-01T15:28:04.442744</dc:date>
    <dc:format>image/svg+xml</dc:format>
    <dc:creator>
     <cc:Agent>
      <dc:title>Matplotlib v3.9.2, https://matplotlib.org/</dc:title>
     </cc:Agent>
    </dc:creator>
   </cc:Work>
  </rdf:RDF>
 </metadata>
 <defs>
  <style type="text/css">*{stroke-linejoin: round; stroke-linecap: butt}</style>
 </defs>
 <g id="figure_1">
  <g id="patch_1">
   <path d="M 0 229.2625 
L 265.521875 229.2625 
L 265.521875 0 
L 0 0 
z
" style="fill: #ffffff"/>
  </g>
  <g id="axes_1">
   <g id="patch_2">
    <path d="M 35.121875 189.24125 
L 258.321875 189.24125 
L 258.321875 22.92125 
L 35.121875 22.92125 
z
" style="fill: #ffffff"/>
   </g>
   <g id="patch_3">
    <path d="M 45.26733 189.24125 
L 55.412783 189.24125 
L 55.412783 173.120702 
L 45.26733 173.120702 
z
" clip-path="url(#p6ab7e8cb64)" style="fill: #213c51; opacity: 0.7; stroke: #000000; stroke-width: 0.5; stroke-linejoin: miter"/>
   </g>
   <g id="patch_4">
    <path d="M 55.412783 189.24125 
L 65.558237 189.24125 
L 65.558237 126.934654 
L 55.412783 126.934654 
z
" clip-path="url(#p6ab7e8cb64)" style="fill: #213c51; opacity: 0.7; stroke: #000000; stroke-width: 0.5; stroke-linejoin: miter"/>
   </g>
   <g id="patch_5">
    <path d="M 65.558231 189.24125 
L 75.703691 189.24125 
L 75.703691 74.183884 
L 65.558231 74.183884 
z
" clip-path="url(#p6ab7e8cb64)" style="fill: #213c51; opacity: 0.7; stroke: #000000; stroke-width: 0.5; stroke-linejoin: miter"/>
   </g>
   <g id="patch_6">
    <path d="M 75.703696 189.24125 
L 85.84915 189.24125 
L 85.84915 30.84125 
L 75.703696 30.84125 
z
" clip-path="url(#p6ab7e8cb64)" style="fill: #213c51; opacity: 0.7; stroke: #000000; stroke-width: 0.5; stroke-linejoin: miter"/>
   </g>
   <g id="patch_7">
    <path d="M 85.84915 189.24125 
L 95.994604 189.24125 
L 95.994604 42.732789 
L 85.84915 42.732789 
z
" clip-path="url(#p6ab7e8cb64)" style="fill: #213c51; opacity: 0.7; stroke: #000000; stroke-width: 0.5; stroke-linejoin: miter"/>
   </g>
   <g id="patch_8">
    <path d="M 95.994604 189.24125 
L 106.140057 189.24125 
L 106.140057 52.15412 
L 95.994604 52.15412 
z
" clip-path="url(#p6ab7e8cb64)" style="fill: #213c51; opacity: 0.7; stroke: #000000; stroke-width: 0.5; stroke-linejoin: miter"/>
   </g>
   <g id="patch_9">
    <path d="M 106.140052 189.24125 
L 116.285511 189.24125 
L 116.285511 65.96809 
L 106.140052 65.96809 
z
" clip-path="url(#p6ab7e8cb64)" style="fill: #213c51; opacity: 0.7; stroke: #000000; stroke-width: 0.5; stroke-linejoin: miter"/>
   </g>
   <g id="patch_10">
    <path d="M 116.285511 189.24125 
L 126.430965 189.24125 
L 126.430965 75.410907 
L 116.285511 75.410907 
z
" clip-path="url(#p6ab7e8cb64)" style="fill: #213c51; opacity: 0.7; stroke: #000000; stroke-width: 0.5; stroke-linejoin: miter"/>
   </g>
   <g id="patch_11">
    <path d="M 126.430954 189.24125 
L 136.576407 189.24125 
L 136.576407 99.227979 
L 126.430954 99.227979 
z
" clip-path="url(#p6ab7e8cb64)" style="fill: #213c51; opacity: 0.7; stroke: #000000; stroke-width: 0.5; stroke-linejoin: miter"/>
   </g>
   <g id="patch_12">
    <path d="M 136.576418 189.24125 
L 146.721883 189.24125 
L 146.721883 120.11069 
L 136.576418 120.11069 
z
" clip-path="url(#p6ab7e8cb64)" style="fill: #213c51; opacity: 0.7; stroke: #000000; stroke-width: 0.5; stroke-linejoin: miter"/>
   </g>
   <g id="patch_13">
    <path d="M 146.721883 189.24125 
L 156.867326 189.24125 
L 156.867326 131.311578 
L 146.721883 131.311578 
z
" clip-path="url(#p6ab7e8cb64)" style="fill: #213c51; opacity: 0.7; stroke: #000000; stroke-width: 0.5; stroke-linejoin: miter"/>
   </g>
   <g id="patch_14">
    <path d="M 156.867326 189.24125 
L 167.01278 189.24125 
L 167.01278 142.34518 
L 156.867326 142.34518 
z
" clip-path="url(#p6ab7e8cb64)" style="fill: #213c51; opacity: 0.7; stroke: #000000; stroke-width: 0.5; stroke-linejoin: miter"/>
   </g>
   <g id="patch_15">
    <path d="M 167.01278 189.24125 
L 177.158245 189.24125 
L 177.158245 153.323932 
L 167.01278 153.323932 
z
" clip-path="url(#p6ab7e8cb64)" style="fill: #213c51; opacity: 0.7; stroke: #000000; stroke-width: 0.5; stroke-linejoin: miter"/>
   </g>
   <g id="patch_16">
    <path d="M 177.158245 189.24125 
L 187.303687 189.24125 
L 187.303687 156.939182 
L 177.158245 156.939182 
z
" clip-path="url(#p6ab7e8cb64)" style="fill: #213c51; opacity: 0.7; stroke: #000000; stroke-width: 0.5; stroke-linejoin: miter"/>
   </g>
   <g id="patch_17">
    <path d="M 187.303687 189.24125 
L 197.449152 189.24125 
L 197.449152 163.077978 
L 187.303687 163.077978 
z
" clip-path="url(#p6ab7e8cb64)" style="fill: #213c51; opacity: 0.7; stroke: #000000; stroke-width: 0.5; stroke-linejoin: miter"/>
   </g>
   <g id="patch_18">
    <path d="M 197.449141 189.24125 
L 207.594583 189.24125 
L 207.594583 170.21976 
L 197.449141 170.21976 
z
" clip-path="url(#p6ab7e8cb64)" style="fill: #213c51; opacity: 0.7; stroke: #000000; stroke-width: 0.5; stroke-linejoin: miter"/>
   </g>
   <g id="patch_19">
    <path d="M 207.594583 189.24125 
L 217.740026 189.24125 
L 217.740026 174.975583 
L 207.594583 174.975583 
z
" clip-path="url(#p6ab7e8cb64)" style="fill: #213c51; opacity: 0.7; stroke: #000000; stroke-width: 0.5; stroke-linejoin: miter"/>
   </g>
   <g id="patch_20">
    <path d="M 217.740048 189.24125 
L 227.885513 189.24125 
L 227.885513 178.206429 
L 217.740048 178.206429 
z
" clip-path="url(#p6ab7e8cb64)" style="fill: #213c51; opacity: 0.7; stroke: #000000; stroke-width: 0.5; stroke-linejoin: miter"/>
   </g>
   <g id="patch_21">
    <path d="M 227.885513 189.24125 
L 238.030978 189.24125 
L 238.030978 179.91703 
L 227.885513 179.91703 
z
" clip-path="url(#p6ab7e8cb64)" style="fill: #213c51; opacity: 0.7; stroke: #000000; stroke-width: 0.5; stroke-linejoin: miter"/>
   </g>
   <g id="patch_22">
    <path d="M 238.030978 189.24125 
L 248.17642 189.24125 
L 248.17642 182.006559 
L 238.030978 182.006559 
z
" clip-path="url(#p6ab7e8cb64)" style="fill: #213c51; opacity: 0.7; stroke: #000000; stroke-width: 0.5; stroke-linejoin: miter"/>
   </g>
   <g id="matplotlib.axis_1">
    <g id="xtick_1">
     <g id="line2d_1">
      <path d="M 50.307695 189.24125 
L 50.307695 22.92125 
" clip-path="url(#p6ab7e8cb64)" style="fill: none; stroke: #b0b0b0; stroke-opacity: 0.1; stroke-width: 0.8; stroke-linecap: square"/>
     </g>
     <g id="line2d_2">
      <defs>
       <path id="m3e3178888d" d="M 0 0 
L 0 3.5 
" style="stroke: #000000; stroke-width: 0.8"/>
      </defs>
      <g>
       <use xlink:href="#m3e3178888d" x="50.307695" y="189.24125" style="stroke: #000000; stroke-width: 0.8"/>
      </g>
     </g>
     <g id="text_1">
      <text style="font: 12px 'Times New Roman', 'Times', serif; text-anchor: middle" x="50.307695" y="204.57375" transform="rotate(-0 50.307695 204.57375)">0.1</text>
     </g>
    </g>
    <g id="xtick_2">
     <g id="line2d_3">
      <path d="M 88.105516 189.24125 
L 88.105516 22.92125 
" clip-path="url(#p6ab7e8cb64)" style="fill: none; stroke: #b0b0b0; stroke-opacity: 0.1; stroke-width: 0.8; stroke-linecap: square"/>
     </g>
     <g id="line2d_4">
      <g>
       <use xlink:href="#m3e3178888d" x="88.105516" y="189.24125" style="stroke: #000000; stroke-width: 0.8"/>
      </g>
     </g>
     <g id="text_2">
      <text style="font: 12px 'Times New Roman', 'Times', serif; text-anchor: middle" x="88.105516" y="204.57375" transform="rotate(-0 88.105516 204.57375)">0.2</text>
     </g>
    </g>
    <g id="xtick_3">
     <g id="line2d_5">
      <path d="M 125.903336 189.24125 
L 125.903336 22.92125 
" clip-path="url(#p6ab7e8cb64)" style="fill: none; stroke: #b0b0b0; stroke-opacity: 0.1; stroke-width: 0.8; stroke-linecap: square"/>
     </g>
     <g id="line2d_6">
      <g>
       <use xlink:href="#m3e3178888d" x="125.903336" y="189.24125" style="stroke: #000000; stroke-width: 0.8"/>
      </g>
     </g>
     <g id="text_3">
      <text style="font: 12px 'Times New Roman', 'Times', serif; text-anchor: middle" x="125.903336" y="204.57375" transform="rotate(-0 125.903336 204.57375)">0.3</text>
     </g>
    </g>
    <g id="xtick_4">
     <g id="line2d_7">
      <path d="M 163.701157 189.24125 
L 163.701157 22.92125 
" clip-path="url(#p6ab7e8cb64)" style="fill: none; stroke: #b0b0b0; stroke-opacity: 0.1; stroke-width: 0.8; stroke-linecap: square"/>
     </g>
     <g id="line2d_8">
      <g>
       <use xlink:href="#m3e3178888d" x="163.701157" y="189.24125" style="stroke: #000000; stroke-width: 0.8"/>
      </g>
     </g>
     <g id="text_4">
      <text style="font: 12px 'Times New Roman', 'Times', serif; text-anchor: middle" x="163.701157" y="204.57375" transform="rotate(-0 163.701157 204.57375)">0.4</text>
     </g>
    </g>
    <g id="xtick_5">
     <g id="line2d_9">
      <path d="M 201.498977 189.24125 
L 201.498977 22.92125 
" clip-path="url(#p6ab7e8cb64)" style="fill: none; stroke: #b0b0b0; stroke-opacity: 0.1; stroke-width: 0.8; stroke-linecap: square"/>
     </g>
     <g id="line2d_10">
      <g>
       <use xlink:href="#m3e3178888d" x="201.498977" y="189.24125" style="stroke: #000000; stroke-width: 0.8"/>
      </g>
     </g>
     <g id="text_5">
      <text style="font: 12px 'Times New Roman', 'Times', serif; text-anchor: middle" x="201.498977" y="204.57375" transform="rotate(-0 201.498977 204.57375)">0.5</text>
     </g>
    </g>
    <g id="xtick_6">
     <g id="line2d_11">
      <path d="M 239.296798 189.24125 
L 239.296798 22.92125 
" clip-path="url(#p6ab7e8cb64)" style="fill: none; stroke: #b0b0b0; stroke-opacity: 0.1; stroke-width: 0.8; stroke-linecap: square"/>
     </g>
     <g id="line2d_12">
      <g>
       <use xlink:href="#m3e3178888d" x="239.296798" y="189.24125" style="stroke: #000000; stroke-width: 0.8"/>
      </g>
     </g>
     <g id="text_6">
      <text style="font: 12px 'Times New Roman', 'Times', serif; text-anchor: middle" x="239.296798" y="204.57375" transform="rotate(-0 239.296798 204.57375)">0.6</text>
     </g>
    </g>
    <g id="text_7">
     <text style="font: 12px 'Times New Roman', 'Times', serif; text-anchor: middle" x="146.721875" y="219.473125" transform="rotate(-0 146.721875 219.473125)">Time of Flight (ns)</text>
    </g>
   </g>
   <g id="matplotlib.axis_2">
    <g id="ytick_1">
     <g id="line2d_13">
      <path d="M 35.121875 189.24125 
L 258.321875 189.24125 
" clip-path="url(#p6ab7e8cb64)" style="fill: none; stroke: #b0b0b0; stroke-opacity: 0.1; stroke-width: 0.8; stroke-linecap: square"/>
     </g>
     <g id="line2d_14">
      <defs>
       <path id="m9c8520900d" d="M 0 0 
L -3.5 0 
" style="stroke: #000000; stroke-width: 0.8"/>
      </defs>
      <g>
       <use xlink:href="#m9c8520900d" x="35.121875" y="189.24125" style="stroke: #000000; stroke-width: 0.8"/>
      </g>
     </g>
     <g id="text_8">
      <text style="font: 12px 'Times New Roman', 'Times', serif; text-anchor: end" x="28.121875" y="193.4075" transform="rotate(-0 28.121875 193.4075)">0</text>
     </g>
    </g>
    <g id="ytick_2">
     <g id="line2d_15">
      <path d="M 35.121875 154.567117 
L 258.321875 154.567117 
" clip-path="url(#p6ab7e8cb64)" style="fill: none; stroke: #b0b0b0; stroke-opacity: 0.1; stroke-width: 0.8; stroke-linecap: square"/>
     </g>
     <g id="line2d_16">
      <g>
       <use xlink:href="#m9c8520900d" x="35.121875" y="154.567117" style="stroke: #000000; stroke-width: 0.8"/>
      </g>
     </g>
     <g id="text_9">
      <text style="font: 12px 'Times New Roman', 'Times', serif; text-anchor: end" x="28.121875" y="158.733367" transform="rotate(-0 28.121875 158.733367)">1</text>
     </g>
    </g>
    <g id="ytick_3">
     <g id="line2d_17">
      <path d="M 35.121875 119.892983 
L 258.321875 119.892983 
" clip-path="url(#p6ab7e8cb64)" style="fill: none; stroke: #b0b0b0; stroke-opacity: 0.1; stroke-width: 0.8; stroke-linecap: square"/>
     </g>
     <g id="line2d_18">
      <g>
       <use xlink:href="#m9c8520900d" x="35.121875" y="119.892983" style="stroke: #000000; stroke-width: 0.8"/>
      </g>
     </g>
     <g id="text_10">
      <text style="font: 12px 'Times New Roman', 'Times', serif; text-anchor: end" x="28.121875" y="124.059233" transform="rotate(-0 28.121875 124.059233)">2</text>
     </g>
    </g>
    <g id="ytick_4">
     <g id="line2d_19">
      <path d="M 35.121875 85.21885 
L 258.321875 85.21885 
" clip-path="url(#p6ab7e8cb64)" style="fill: none; stroke: #b0b0b0; stroke-opacity: 0.1; stroke-width: 0.8; stroke-linecap: square"/>
     </g>
     <g id="line2d_20">
      <g>
       <use xlink:href="#m9c8520900d" x="35.121875" y="85.21885" style="stroke: #000000; stroke-width: 0.8"/>
      </g>
     </g>
     <g id="text_11">
      <text style="font: 12px 'Times New Roman', 'Times', serif; text-anchor: end" x="28.121875" y="89.3851" transform="rotate(-0 28.121875 89.3851)">3</text>
     </g>
    </g>
    <g id="ytick_5">
     <g id="line2d_21">
      <path d="M 35.121875 50.544717 
L 258.321875 50.544717 
" clip-path="url(#p6ab7e8cb64)" style="fill: none; stroke: #b0b0b0; stroke-opacity: 0.1; stroke-width: 0.8; stroke-linecap: square"/>
     </g>
     <g id="line2d_22">
      <g>
       <use xlink:href="#m9c8520900d" x="35.121875" y="50.544717" style="stroke: #000000; stroke-width: 0.8"/>
      </g>
     </g>
     <g id="text_12">
      <text style="font: 12px 'Times New Roman', 'Times', serif; text-anchor: end" x="28.121875" y="54.710967" transform="rotate(-0 28.121875 54.710967)">4</text>
     </g>
    </g>
    <g id="text_13">
     <text style="font: 12px 'Times New Roman', 'Times', serif; text-anchor: middle" x="15.5325" y="106.08125" transform="rotate(-90 15.5325 106.08125)">Probability Density</text>
    </g>
   </g>
   <g id="line2d_23">
    <path d="M 50.340056 178.863825 
L 52.918834 160.341675 
L 55.497612 143.264342 
L 58.076389 127.609694 
L 60.655167 113.355598 
L 63.233944 100.479919 
L 65.812722 88.960526 
L 67.746808 81.197717 
L 69.680894 74.176033 
L 71.614974 67.886154 
L 73.549054 62.31872 
L 75.48314 57.464382 
L 77.417226 53.313818 
L 79.351307 49.857701 
L 80.640696 47.934805 
L 81.930084 46.312355 
L 83.219479 44.979288 
L 84.508862 43.922166 
L 85.798256 43.127515 
L 87.08764 42.581892 
L 88.377034 42.271833 
L 89.666417 42.183887 
L 90.955812 42.304597 
L 92.245195 42.620504 
L 93.534589 43.118159 
L 95.468669 44.175971 
L 97.40275 45.567017 
L 99.336836 47.245888 
L 101.915613 49.854062 
L 104.494391 52.814578 
L 107.073163 56.092492 
L 110.296649 60.588917 
L 113.520112 65.471989 
L 117.388284 71.756647 
L 121.901142 79.542067 
L 128.348081 91.194516 
L 139.952585 112.313751 
L 144.465443 120.081311 
L 148.333615 126.344973 
L 151.55709 131.206556 
L 154.780565 135.688633 
L 158.00404 139.795339 
L 161.227503 143.547627 
L 164.450978 146.966489 
L 167.674453 150.072881 
L 170.897927 152.88777 
L 174.121402 155.432125 
L 177.344866 157.726908 
L 181.213038 160.180754 
L 185.081198 162.341647 
L 188.94937 164.245832 
L 193.462228 166.191258 
L 197.975097 167.894126 
L 203.777339 169.8197 
L 212.15838 172.308993 
L 222.47349 175.391787 
L 228.27572 177.374128 
L 232.7886 179.139749 
L 237.301458 181.164192 
L 241.169619 183.149048 
L 243.103711 184.239967 
L 243.103711 184.239967 
" clip-path="url(#p6ab7e8cb64)" style="fill: none; stroke: #6594b1; stroke-width: 2; stroke-linecap: square"/>
   </g>
   <g id="patch_23">
    <path d="M 35.121875 189.24125 
L 35.121875 22.92125 
" style="fill: none; stroke: #000000; stroke-width: 0.8; stroke-linejoin: miter; stroke-linecap: square"/>
   </g>
   <g id="patch_24">
    <path d="M 258.321875 189.24125 
L 258.321875 22.92125 
" style="fill: none; stroke: #000000; stroke-width: 0.8; stroke-linejoin: miter; stroke-linecap: square"/>
   </g>
   <g id="patch_25">
    <path d="M 35.121875 189.24125 
L 258.321875 189.24125 
" style="fill: none; stroke: #000000; stroke-width: 0.8; stroke-linejoin: miter; stroke-linecap: square"/>
   </g>
   <g id="patch_26">
    <path d="M 35.121875 22.92125 
L 258.321875 22.92125 
" style="fill: none; stroke: #000000; stroke-width: 0.8; stroke-linejoin: miter; stroke-linecap: square"/>
   </g>
   <g id="text_14">
    <text style="font: 14px 'Times New Roman', 'Times', serif; text-anchor: middle" x="146.721875" y="16.92125" transform="rotate(-0 146.721875 16.92125)">Distribution Time-of-Flight (DTOF)</text>
   </g>
  </g>
 </g>
 <defs>
  <clipPath id="p6ab7e8cb64">
   <rect x="35.121875" y="22.92125" width="223.2" height="166.32"/>
  </clipPath>
 </defs>
</svg>
