<?xml version="1.0" encoding="utf-8" standalone="no"?>
<!DOCTYPE svg PUBLIC "-//W3C//DTD SVG 1.1//EN"
  "http://www.w3.org/Graphics/SVG/1.1/DTD/svg11.dtd">
<svg xmlns:xlink="http://www.w3.org/1999/xlink" width="280.499375pt" height="229.2625pt" viewBox="0 0 280.499375 229.2625" xmlns="http://www.w3.org/2000/svg" version="1.1">
 <metadata>
  <rdf:RDF xmlns:dc="http://purl.org/dc/elements/1.1/" xmlns:cc="http://creativecommons.org/ns#" xmlns:rdf="http://www.w3.org/1999/02/22-rdf-syntax-ns#">
   <cc:Work>
    <dc:type rdf:resource="http://purl.org/dc/dcmitype/StillImage"/>
    <dc:date>2026-02-08T22:24:55.281092</dc:date>
    <dc:format>image/svg+xml</dc:format>
    <dc:creator>
     <cc:Agent>
      <dc:title>Matplotlib v3.9.2, https://matplotlib.org/</dc:title>
     </cc:Agent>
    </dc:creator>
   </cc:Work>
  </rdf:RDF>
 </metadata>
 <defs>
  <style type="text/css">*{stroke-linejoin: round; stroke-linecap: butt}</style>
 </defs>
 <g id="figure_1">
  <g id="patch_1">
   <path d="M 0 229.2625 
L 280.499375 229.2625 
L 280.499375 0 
L 0 0 
z
" style="fill: #ffffff"/>
  </g>
  <g id="axes_1">
   <g id="patch_2">
    <path d="M 50.099375 189.24125 
L 273.299375 189.24125 
L 273.299375 22.92125 
L 50.099375 22.92125 
z
" style="fill: #ffffff"/>
   </g>
   <g id="patch_3">
    <path d="M 60.24483 170.2635 
L 70.390282 170.2635 
L 70.390282 30.48125 
L 60.24483 30.48125 
z
" clip-path="url(#pc55b64d7fb)" style="fill: #213c51; opacity: 0.7; stroke: #000000; stroke-width: 0.5; stroke-linejoin: miter"/>
   </g>
   <g id="patch_4">
    <path d="M 70.390282 170.2635 
L 80.535756 170.2635 
L 80.535756 170.2635 
L 70.390282 170.2635 
z
" clip-path="url(#pc55b64d7fb)" style="fill: #213c51; opacity: 0.7; stroke: #000000; stroke-width: 0.5; stroke-linejoin: miter"/>
   </g>
   <g id="patch_5">
    <path d="M 80.535756 170.2635 
L 90.681209 170.2635 
L 90.681209 170.2635 
L 80.535756 170.2635 
z
" clip-path="url(#pc55b64d7fb)" style="fill: #213c51; opacity: 0.7; stroke: #000000; stroke-width: 0.5; stroke-linejoin: miter"/>
   </g>
   <g id="patch_6">
    <path d="M 90.681209 170.2635 
L 100.826661 170.2635 
L 100.826661 101.90151 
L 90.681209 101.90151 
z
" clip-path="url(#pc55b64d7fb)" style="fill: #213c51; opacity: 0.7; stroke: #000000; stroke-width: 0.5; stroke-linejoin: miter"/>
   </g>
   <g id="patch_7">
    <path d="M 100.826661 170.2635 
L 110.972113 170.2635 
L 110.972113 170.2635 
L 100.826661 170.2635 
z
" clip-path="url(#pc55b64d7fb)" style="fill: #213c51; opacity: 0.7; stroke: #000000; stroke-width: 0.5; stroke-linejoin: miter"/>
   </g>
   <g id="patch_8">
    <path d="M 110.972091 170.2635 
L 121.117566 170.2635 
L 121.117566 170.2635 
L 110.972091 170.2635 
z
" clip-path="url(#pc55b64d7fb)" style="fill: #213c51; opacity: 0.7; stroke: #000000; stroke-width: 0.5; stroke-linejoin: miter"/>
   </g>
   <g id="patch_9">
    <path d="M 121.117587 170.2635 
L 131.26304 170.2635 
L 131.26304 170.2635 
L 121.117587 170.2635 
z
" clip-path="url(#pc55b64d7fb)" style="fill: #213c51; opacity: 0.7; stroke: #000000; stroke-width: 0.5; stroke-linejoin: miter"/>
   </g>
   <g id="patch_10">
    <path d="M 131.26304 170.2635 
L 141.408492 170.2635 
L 141.408492 161.491866 
L 131.26304 161.491866 
z
" clip-path="url(#pc55b64d7fb)" style="fill: #213c51; opacity: 0.7; stroke: #000000; stroke-width: 0.5; stroke-linejoin: miter"/>
   </g>
   <g id="patch_11">
    <path d="M 141.408492 170.2635 
L 151.553945 170.2635 
L 151.553945 159.225448 
L 141.408492 159.225448 
z
" clip-path="url(#pc55b64d7fb)" style="fill: #213c51; opacity: 0.7; stroke: #000000; stroke-width: 0.5; stroke-linejoin: miter"/>
   </g>
   <g id="patch_12">
    <path d="M 151.553945 170.2635 
L 161.699419 170.2635 
L 161.699419 144.760599 
L 151.553945 144.760599 
z
" clip-path="url(#pc55b64d7fb)" style="fill: #213c51; opacity: 0.7; stroke: #000000; stroke-width: 0.5; stroke-linejoin: miter"/>
   </g>
   <g id="patch_13">
    <path d="M 161.699441 170.2635 
L 171.844871 170.2635 
L 171.844871 145.693931 
L 161.699441 145.693931 
z
" clip-path="url(#pc55b64d7fb)" style="fill: #213c51; opacity: 0.7; stroke: #000000; stroke-width: 0.5; stroke-linejoin: miter"/>
   </g>
   <g id="patch_14">
    <path d="M 171.844849 170.2635 
L 181.990302 170.2635 
L 181.990302 164.637148 
L 171.844849 164.637148 
z
" clip-path="url(#pc55b64d7fb)" style="fill: #213c51; opacity: 0.7; stroke: #000000; stroke-width: 0.5; stroke-linejoin: miter"/>
   </g>
   <g id="patch_15">
    <path d="M 181.990302 170.2635 
L 192.135776 170.2635 
L 192.135776 170.2635 
L 181.990302 170.2635 
z
" clip-path="url(#pc55b64d7fb)" style="fill: #213c51; opacity: 0.7; stroke: #000000; stroke-width: 0.5; stroke-linejoin: miter"/>
   </g>
   <g id="patch_16">
    <path d="M 192.135776 170.2635 
L 202.281228 170.2635 
L 202.281228 170.2635 
L 192.135776 170.2635 
z
" clip-path="url(#pc55b64d7fb)" style="fill: #213c51; opacity: 0.7; stroke: #000000; stroke-width: 0.5; stroke-linejoin: miter"/>
   </g>
   <g id="patch_17">
    <path d="M 202.281228 170.2635 
L 212.426681 170.2635 
L 212.426681 156.958745 
L 202.281228 156.958745 
z
" clip-path="url(#pc55b64d7fb)" style="fill: #213c51; opacity: 0.7; stroke: #000000; stroke-width: 0.5; stroke-linejoin: miter"/>
   </g>
   <g id="patch_18">
    <path d="M 212.426681 170.2635 
L 222.572133 170.2635 
L 222.572133 163.491094 
L 212.426681 163.491094 
z
" clip-path="url(#pc55b64d7fb)" style="fill: #213c51; opacity: 0.7; stroke: #000000; stroke-width: 0.5; stroke-linejoin: miter"/>
   </g>
   <g id="patch_19">
    <path d="M 222.572111 170.2635 
L 232.717585 170.2635 
L 232.717585 170.2635 
L 222.572111 170.2635 
z
" clip-path="url(#pc55b64d7fb)" style="fill: #213c51; opacity: 0.7; stroke: #000000; stroke-width: 0.5; stroke-linejoin: miter"/>
   </g>
   <g id="patch_20">
    <path d="M 232.717607 170.2635 
L 242.86306 170.2635 
L 242.86306 170.2635 
L 232.717607 170.2635 
z
" clip-path="url(#pc55b64d7fb)" style="fill: #213c51; opacity: 0.7; stroke: #000000; stroke-width: 0.5; stroke-linejoin: miter"/>
   </g>
   <g id="patch_21">
    <path d="M 242.86306 170.2635 
L 253.008512 170.2635 
L 253.008512 170.2635 
L 242.86306 170.2635 
z
" clip-path="url(#pc55b64d7fb)" style="fill: #213c51; opacity: 0.7; stroke: #000000; stroke-width: 0.5; stroke-linejoin: miter"/>
   </g>
   <g id="patch_22">
    <path d="M 253.008468 170.2635 
L 263.15392 170.2635 
L 263.15392 168.14927 
L 253.008468 168.14927 
z
" clip-path="url(#pc55b64d7fb)" style="fill: #213c51; opacity: 0.7; stroke: #000000; stroke-width: 0.5; stroke-linejoin: miter"/>
   </g>
   <g id="matplotlib.axis_1">
    <g id="xtick_1">
     <g id="line2d_1">
      <path d="M 92.371598 189.24125 
L 92.371598 22.92125 
" clip-path="url(#pc55b64d7fb)" style="fill: none; stroke: #b0b0b0; stroke-opacity: 0.1; stroke-width: 0.8; stroke-linecap: square"/>
     </g>
     <g id="line2d_2">
      <defs>
       <path id="mf71edc2c0a" d="M 0 0 
L 0 3.5 
" style="stroke: #000000; stroke-width: 0.8"/>
      </defs>
      <g>
       <use xlink:href="#mf71edc2c0a" x="92.371598" y="189.24125" style="stroke: #000000; stroke-width: 0.8"/>
      </g>
     </g>
     <g id="text_1">
      <text style="font: 12px 'Times New Roman', 'Times', serif; text-anchor: middle" x="92.371598" y="204.57375" transform="rotate(-0 92.371598 204.57375)">0.6</text>
     </g>
    </g>
    <g id="xtick_2">
     <g id="line2d_3">
      <path d="M 165.814056 189.24125 
L 165.814056 22.92125 
" clip-path="url(#pc55b64d7fb)" style="fill: none; stroke: #b0b0b0; stroke-opacity: 0.1; stroke-width: 0.8; stroke-linecap: square"/>
     </g>
     <g id="line2d_4">
      <g>
       <use xlink:href="#mf71edc2c0a" x="165.814056" y="189.24125" style="stroke: #000000; stroke-width: 0.8"/>
      </g>
     </g>
     <g id="text_2">
      <text style="font: 12px 'Times New Roman', 'Times', serif; text-anchor: middle" x="165.814056" y="204.57375" transform="rotate(-0 165.814056 204.57375)">0.8</text>
     </g>
    </g>
    <g id="xtick_3">
     <g id="line2d_5">
      <path d="M 239.256515 189.24125 
L 239.256515 22.92125 
" clip-path="url(#pc55b64d7fb)" style="fill: none; stroke: #b0b0b0; stroke-opacity: 0.1; stroke-width: 0.8; stroke-linecap: square"/>
     </g>
     <g id="line2d_6">
      <g>
       <use xlink:href="#mf71edc2c0a" x="239.256515" y="189.24125" style="stroke: #000000; stroke-width: 0.8"/>
      </g>
     </g>
     <g id="text_3">
      <text style="font: 12px 'Times New Roman', 'Times', serif; text-anchor: middle" x="239.256515" y="204.57375" transform="rotate(-0 239.256515 204.57375)">1.0</text>
     </g>
    </g>
    <g id="text_4">
     <text style="font: 12px 'Times New Roman', 'Times', serif; text-anchor: middle" x="161.699375" y="219.473125" transform="rotate(-0 161.699375 219.473125)">Time of Flight (ns)</text>
    </g>
   </g>
   <g id="matplotlib.axis_2">
    <g id="ytick_1">
     <g id="line2d_7">
      <path d="M 50.099375 170.2635 
L 273.299375 170.2635 
" clip-path="url(#pc55b64d7fb)" style="fill: none; stroke: #b0b0b0; stroke-opacity: 0.1; stroke-width: 0.8; stroke-linecap: square"/>
     </g>
     <g id="line2d_8">
      <defs>
       <path id="madc58331b1" d="M 0 0 
L -3.5 0 
" style="stroke: #000000; stroke-width: 0.8"/>
      </defs>
      <g>
       <use xlink:href="#madc58331b1" x="50.099375" y="170.2635" style="stroke: #000000; stroke-width: 0.8"/>
      </g>
     </g>
     <g id="text_5">
      <text style="font: 12px 'Times New Roman', 'Times', serif; text-anchor: end" x="43.099375" y="174.42975" transform="rotate(-0 43.099375 174.42975)">0.00</text>
     </g>
    </g>
    <g id="ytick_2">
     <g id="line2d_9">
      <path d="M 50.099375 137.326919 
L 273.299375 137.326919 
" clip-path="url(#pc55b64d7fb)" style="fill: none; stroke: #b0b0b0; stroke-opacity: 0.1; stroke-width: 0.8; stroke-linecap: square"/>
     </g>
     <g id="line2d_10">
      <g>
       <use xlink:href="#madc58331b1" x="50.099375" y="137.326919" style="stroke: #000000; stroke-width: 0.8"/>
      </g>
     </g>
     <g id="text_6">
      <text style="font: 12px 'Times New Roman', 'Times', serif; text-anchor: end" x="43.099375" y="141.493169" transform="rotate(-0 43.099375 141.493169)">0.05</text>
     </g>
    </g>
    <g id="ytick_3">
     <g id="line2d_11">
      <path d="M 50.099375 104.390339 
L 273.299375 104.390339 
" clip-path="url(#pc55b64d7fb)" style="fill: none; stroke: #b0b0b0; stroke-opacity: 0.1; stroke-width: 0.8; stroke-linecap: square"/>
     </g>
     <g id="line2d_12">
      <g>
       <use xlink:href="#madc58331b1" x="50.099375" y="104.390339" style="stroke: #000000; stroke-width: 0.8"/>
      </g>
     </g>
     <g id="text_7">
      <text style="font: 12px 'Times New Roman', 'Times', serif; text-anchor: end" x="43.099375" y="108.556589" transform="rotate(-0 43.099375 108.556589)">0.10</text>
     </g>
    </g>
    <g id="ytick_4">
     <g id="line2d_13">
      <path d="M 50.099375 71.453758 
L 273.299375 71.453758 
" clip-path="url(#pc55b64d7fb)" style="fill: none; stroke: #b0b0b0; stroke-opacity: 0.1; stroke-width: 0.8; stroke-linecap: square"/>
     </g>
     <g id="line2d_14">
      <g>
       <use xlink:href="#madc58331b1" x="50.099375" y="71.453758" style="stroke: #000000; stroke-width: 0.8"/>
      </g>
     </g>
     <g id="text_8">
      <text style="font: 12px 'Times New Roman', 'Times', serif; text-anchor: end" x="43.099375" y="75.620008" transform="rotate(-0 43.099375 75.620008)">0.15</text>
     </g>
    </g>
    <g id="ytick_5">
     <g id="line2d_15">
      <path d="M 50.099375 38.517177 
L 273.299375 38.517177 
" clip-path="url(#pc55b64d7fb)" style="fill: none; stroke: #b0b0b0; stroke-opacity: 0.1; stroke-width: 0.8; stroke-linecap: square"/>
     </g>
     <g id="line2d_16">
      <g>
       <use xlink:href="#madc58331b1" x="50.099375" y="38.517177" style="stroke: #000000; stroke-width: 0.8"/>
      </g>
     </g>
     <g id="text_9">
      <text style="font: 12px 'Times New Roman', 'Times', serif; text-anchor: end" x="43.099375" y="42.683427" transform="rotate(-0 43.099375 42.683427)">0.20</text>
     </g>
    </g>
    <g id="text_10">
     <text style="font: 12px 'Times New Roman', 'Times', serif; text-anchor: middle" x="15.5325" y="106.08125" transform="rotate(-90 15.5325 106.08125)">Count</text>
    </g>
   </g>
   <g id="line2d_17">
    <path d="M 65.317556 88.623257 
L 68.541024 96.452377 
L 71.764492 103.7818 
L 74.987982 110.626433 
L 78.211451 117.001044 
L 81.434919 122.920543 
L 84.658387 128.399791 
L 87.881855 133.45365 
L 91.105346 138.097011 
L 94.328814 142.344673 
L 97.552282 146.21153 
L 100.77575 149.712444 
L 103.999219 152.862275 
L 107.222709 155.675904 
L 110.446177 158.168153 
L 113.669645 160.353905 
L 116.893114 162.248021 
L 120.116582 163.865361 
L 123.34005 165.220789 
L 126.56354 166.329171 
L 129.787009 167.205354 
L 133.010477 167.864208 
L 136.233967 168.320597 
L 140.102111 168.621926 
L 143.9703 168.678785 
L 147.838444 168.516852 
L 152.351308 168.085661 
L 156.864173 167.432404 
L 162.021735 166.466217 
L 168.468693 165.018242 
L 178.783796 162.426538 
L 188.454223 160.067252 
L 194.256461 158.85561 
L 199.414024 157.993224 
L 203.926888 157.454283 
L 208.439752 157.159331 
L 212.307897 157.131623 
L 216.176085 157.338815 
L 219.399553 157.709439 
L 222.623021 158.275882 
L 225.84649 159.053006 
L 229.069958 160.055672 
L 232.293426 161.298741 
L 235.516895 162.797076 
L 238.740385 164.565549 
L 241.963831 166.618985 
L 245.187343 168.972317 
L 248.410811 171.640331 
L 251.63428 174.637916 
L 254.857748 177.979935 
L 258.081216 181.68125 
L 258.081216 181.68125 
" clip-path="url(#pc55b64d7fb)" style="fill: none; stroke: #6594b1; stroke-width: 2; stroke-linecap: square"/>
   </g>
   <g id="patch_23">
    <path d="M 50.099375 189.24125 
L 50.099375 22.92125 
" style="fill: none; stroke: #000000; stroke-width: 0.8; stroke-linejoin: miter; stroke-linecap: square"/>
   </g>
   <g id="patch_24">
    <path d="M 273.299375 189.24125 
L 273.299375 22.92125 
" style="fill: none; stroke: #000000; stroke-width: 0.8; stroke-linejoin: miter; stroke-linecap: square"/>
   </g>
   <g id="patch_25">
    <path d="M 50.099375 189.24125 
L 273.299375 189.24125 
" style="fill: none; stroke: #000000; stroke-width: 0.8; stroke-linejoin: miter; stroke-linecap: square"/>
   </g>
   <g id="patch_26">
    <path d="M 50.099375 22.92125 
L 273.299375 22.92125 
" style="fill: none; stroke: #000000; stroke-width: 0.8; stroke-linejoin: miter; stroke-linecap: square"/>
   </g>
   <g id="text_11">
    <text style="font: 14px 'Times New Roman', 'Times', serif; text-anchor: middle" x="161.699375" y="16.92125" transform="rotate(-0 161.699375 16.92125)">Distribution Time-of-Flight (DTOF)</text>
   </g>
  </g>
 </g>
 <defs>
  <clipPath id="pc55b64d7fb">
   <rect x="50.099375" y="22.92125" width="223.2" height="166.32"/>
  </clipPath>
 </defs>
</svg>
