<?xml version="1.0" encoding="utf-8" standalone="no"?>
<!DOCTYPE svg PUBLIC "-//W3C//DTD SVG 1.1//EN"
  "http://www.w3.org/Graphics/SVG/1.1/DTD/svg11.dtd">
<svg xmlns:xlink="http://www.w3.org/1999/xlink" width="280.521875pt" height="229.2625pt" viewBox="0 0 280.521875 229.2625" xmlns="http://www.w3.org/2000/svg" version="1.1">
 <metadata>
  <rdf:RDF xmlns:dc="http://purl.org/dc/elements/1.1/" xmlns:cc="http://creativecommons.org/ns#" xmlns:rdf="http://www.w3.org/1999/02/22-rdf-syntax-ns#">
   <cc:Work>
    <dc:type rdf:resource="http://purl.org/dc/dcmitype/StillImage"/>
    <dc:date>2026-02-10T07:29:52.005639</dc:date>
    <dc:format>image/svg+xml</dc:format>
    <dc:creator>
     <cc:Agent>
      <dc:title>Matplotlib v3.9.2, https://matplotlib.org/</dc:title>
     </cc:Agent>
    </dc:creator>
   </cc:Work>
  </rdf:RDF>
 </metadata>
 <defs>
  <style type="text/css">*{stroke-linejoin: round; stroke-linecap: butt}</style>
 </defs>
 <g id="figure_1">
  <g id="patch_1">
   <path d="M 0 229.2625 
L 280.521875 229.2625 
L 280.521875 0 
L 0 0 
z
" style="fill: #ffffff"/>
  </g>
  <g id="axes_1">
   <g id="patch_2">
    <path d="M 50.121875 189.24125 
L 273.321875 189.24125 
L 273.321875 22.92125 
L 50.121875 22.92125 
z
" style="fill: #ffffff"/>
   </g>
   <g id="patch_3">
    <path d="M 60.26733 179.268736 
L 70.412772 179.268736 
L 70.412772 30.48125 
L 60.26733 30.48125 
z
" clip-path="url(#pa22956e10f)" style="fill: #213c51; opacity: 0.7; stroke: #000000; stroke-width: 0.5; stroke-linejoin: miter"/>
   </g>
   <g id="patch_4">
    <path d="M 70.412787 179.268736 
L 80.55826 179.268736 
L 80.55826 179.268736 
L 70.412787 179.268736 
z
" clip-path="url(#pa22956e10f)" style="fill: #213c51; opacity: 0.7; stroke: #000000; stroke-width: 0.5; stroke-linejoin: miter"/>
   </g>
   <g id="patch_5">
    <path d="M 80.558245 179.268736 
L 90.703687 179.268736 
L 90.703687 149.629562 
L 80.558245 149.629562 
z
" clip-path="url(#pa22956e10f)" style="fill: #213c51; opacity: 0.7; stroke: #000000; stroke-width: 0.5; stroke-linejoin: miter"/>
   </g>
   <g id="patch_6">
    <path d="M 90.703703 179.268736 
L 100.849145 179.268736 
L 100.849145 162.253453 
L 90.703703 162.253453 
z
" clip-path="url(#pa22956e10f)" style="fill: #213c51; opacity: 0.7; stroke: #000000; stroke-width: 0.5; stroke-linejoin: miter"/>
   </g>
   <g id="patch_7">
    <path d="M 100.84916 179.268736 
L 110.994633 179.268736 
L 110.994633 179.268736 
L 100.84916 179.268736 
z
" clip-path="url(#pa22956e10f)" style="fill: #213c51; opacity: 0.7; stroke: #000000; stroke-width: 0.5; stroke-linejoin: miter"/>
   </g>
   <g id="patch_8">
    <path d="M 110.994618 179.268736 
L 121.14006 179.268736 
L 121.14006 150.399411 
L 110.994618 150.399411 
z
" clip-path="url(#pa22956e10f)" style="fill: #213c51; opacity: 0.7; stroke: #000000; stroke-width: 0.5; stroke-linejoin: miter"/>
   </g>
   <g id="patch_9">
    <path d="M 121.14006 179.268736 
L 131.285518 179.268736 
L 131.285518 179.268736 
L 121.14006 179.268736 
z
" clip-path="url(#pa22956e10f)" style="fill: #213c51; opacity: 0.7; stroke: #000000; stroke-width: 0.5; stroke-linejoin: miter"/>
   </g>
   <g id="patch_10">
    <path d="M 131.285518 179.268736 
L 141.430975 179.268736 
L 141.430975 117.839461 
L 131.285518 117.839461 
z
" clip-path="url(#pa22956e10f)" style="fill: #213c51; opacity: 0.7; stroke: #000000; stroke-width: 0.5; stroke-linejoin: miter"/>
   </g>
   <g id="patch_11">
    <path d="M 141.430975 179.268736 
L 151.576433 179.268736 
L 151.576433 179.268736 
L 141.430975 179.268736 
z
" clip-path="url(#pa22956e10f)" style="fill: #213c51; opacity: 0.7; stroke: #000000; stroke-width: 0.5; stroke-linejoin: miter"/>
   </g>
   <g id="patch_12">
    <path d="M 151.576433 179.268736 
L 161.721891 179.268736 
L 161.721891 162.22605 
L 151.576433 162.22605 
z
" clip-path="url(#pa22956e10f)" style="fill: #213c51; opacity: 0.7; stroke: #000000; stroke-width: 0.5; stroke-linejoin: miter"/>
   </g>
   <g id="patch_13">
    <path d="M 161.721875 179.268736 
L 171.867301 179.268736 
L 171.867301 179.268736 
L 161.721875 179.268736 
z
" clip-path="url(#pa22956e10f)" style="fill: #213c51; opacity: 0.7; stroke: #000000; stroke-width: 0.5; stroke-linejoin: miter"/>
   </g>
   <g id="patch_14">
    <path d="M 171.867364 179.268736 
L 182.012853 179.268736 
L 182.012853 167.393355 
L 171.867364 167.393355 
z
" clip-path="url(#pa22956e10f)" style="fill: #213c51; opacity: 0.7; stroke: #000000; stroke-width: 0.5; stroke-linejoin: miter"/>
   </g>
   <g id="patch_15">
    <path d="M 182.012822 179.268736 
L 192.158248 179.268736 
L 192.158248 179.268736 
L 182.012822 179.268736 
z
" clip-path="url(#pa22956e10f)" style="fill: #213c51; opacity: 0.7; stroke: #000000; stroke-width: 0.5; stroke-linejoin: miter"/>
   </g>
   <g id="patch_16">
    <path d="M 192.158248 179.268736 
L 202.303706 179.268736 
L 202.303706 179.268736 
L 192.158248 179.268736 
z
" clip-path="url(#pa22956e10f)" style="fill: #213c51; opacity: 0.7; stroke: #000000; stroke-width: 0.5; stroke-linejoin: miter"/>
   </g>
   <g id="patch_17">
    <path d="M 202.303706 179.268736 
L 212.449163 179.268736 
L 212.449163 174.749598 
L 202.303706 174.749598 
z
" clip-path="url(#pa22956e10f)" style="fill: #213c51; opacity: 0.7; stroke: #000000; stroke-width: 0.5; stroke-linejoin: miter"/>
   </g>
   <g id="patch_18">
    <path d="M 212.449132 179.268736 
L 222.594559 179.268736 
L 222.594559 160.981701 
L 212.449132 160.981701 
z
" clip-path="url(#pa22956e10f)" style="fill: #213c51; opacity: 0.7; stroke: #000000; stroke-width: 0.5; stroke-linejoin: miter"/>
   </g>
   <g id="patch_19">
    <path d="M 222.59459 179.268736 
L 232.740079 179.268736 
L 232.740079 171.538011 
L 222.59459 171.538011 
z
" clip-path="url(#pa22956e10f)" style="fill: #213c51; opacity: 0.7; stroke: #000000; stroke-width: 0.5; stroke-linejoin: miter"/>
   </g>
   <g id="patch_20">
    <path d="M 232.740079 179.268736 
L 242.885536 179.268736 
L 242.885536 179.268736 
L 232.740079 179.268736 
z
" clip-path="url(#pa22956e10f)" style="fill: #213c51; opacity: 0.7; stroke: #000000; stroke-width: 0.5; stroke-linejoin: miter"/>
   </g>
   <g id="patch_21">
    <path d="M 242.885505 179.268736 
L 253.030932 179.268736 
L 253.030932 179.268736 
L 242.885505 179.268736 
z
" clip-path="url(#pa22956e10f)" style="fill: #213c51; opacity: 0.7; stroke: #000000; stroke-width: 0.5; stroke-linejoin: miter"/>
   </g>
   <g id="patch_22">
    <path d="M 253.030963 179.268736 
L 263.17642 179.268736 
L 263.17642 170.356769 
L 253.030963 170.356769 
z
" clip-path="url(#pa22956e10f)" style="fill: #213c51; opacity: 0.7; stroke: #000000; stroke-width: 0.5; stroke-linejoin: miter"/>
   </g>
   <g id="matplotlib.axis_1">
    <g id="xtick_1">
     <g id="line2d_1">
      <path d="M 66.660963 189.24125 
L 66.660963 22.92125 
" clip-path="url(#pa22956e10f)" style="fill: none; stroke: #b0b0b0; stroke-opacity: 0.1; stroke-width: 0.8; stroke-linecap: square"/>
     </g>
     <g id="line2d_2">
      <defs>
       <path id="md60184e87c" d="M 0 0 
L 0 3.5 
" style="stroke: #000000; stroke-width: 0.8"/>
      </defs>
      <g>
       <use xlink:href="#md60184e87c" x="66.660963" y="189.24125" style="stroke: #000000; stroke-width: 0.8"/>
      </g>
     </g>
     <g id="text_1">
      <text style="font: 12px 'Times New Roman', 'Times', serif; text-anchor: middle" x="66.660963" y="204.57375" transform="rotate(-0 66.660963 204.57375)">0.6</text>
     </g>
    </g>
    <g id="xtick_2">
     <g id="line2d_3">
      <path d="M 119.037919 189.24125 
L 119.037919 22.92125 
" clip-path="url(#pa22956e10f)" style="fill: none; stroke: #b0b0b0; stroke-opacity: 0.1; stroke-width: 0.8; stroke-linecap: square"/>
     </g>
     <g id="line2d_4">
      <g>
       <use xlink:href="#md60184e87c" x="119.037919" y="189.24125" style="stroke: #000000; stroke-width: 0.8"/>
      </g>
     </g>
     <g id="text_2">
      <text style="font: 12px 'Times New Roman', 'Times', serif; text-anchor: middle" x="119.037919" y="204.57375" transform="rotate(-0 119.037919 204.57375)">0.8</text>
     </g>
    </g>
    <g id="xtick_3">
     <g id="line2d_5">
      <path d="M 171.414874 189.24125 
L 171.414874 22.92125 
" clip-path="url(#pa22956e10f)" style="fill: none; stroke: #b0b0b0; stroke-opacity: 0.1; stroke-width: 0.8; stroke-linecap: square"/>
     </g>
     <g id="line2d_6">
      <g>
       <use xlink:href="#md60184e87c" x="171.414874" y="189.24125" style="stroke: #000000; stroke-width: 0.8"/>
      </g>
     </g>
     <g id="text_3">
      <text style="font: 12px 'Times New Roman', 'Times', serif; text-anchor: middle" x="171.414874" y="204.57375" transform="rotate(-0 171.414874 204.57375)">1.0</text>
     </g>
    </g>
    <g id="xtick_4">
     <g id="line2d_7">
      <path d="M 223.79183 189.24125 
L 223.79183 22.92125 
" clip-path="url(#pa22956e10f)" style="fill: none; stroke: #b0b0b0; stroke-opacity: 0.1; stroke-width: 0.8; stroke-linecap: square"/>
     </g>
     <g id="line2d_8">
      <g>
       <use xlink:href="#md60184e87c" x="223.79183" y="189.24125" style="stroke: #000000; stroke-width: 0.8"/>
      </g>
     </g>
     <g id="text_4">
      <text style="font: 12px 'Times New Roman', 'Times', serif; text-anchor: middle" x="223.79183" y="204.57375" transform="rotate(-0 223.79183 204.57375)">1.2</text>
     </g>
    </g>
    <g id="text_5">
     <text style="font: 12px 'Times New Roman', 'Times', serif; text-anchor: middle" x="161.721875" y="219.473125" transform="rotate(-0 161.721875 219.473125)">Time of Flight (ns)</text>
    </g>
   </g>
   <g id="matplotlib.axis_2">
    <g id="ytick_1">
     <g id="line2d_9">
      <path d="M 50.121875 179.268736 
L 273.321875 179.268736 
" clip-path="url(#pa22956e10f)" style="fill: none; stroke: #b0b0b0; stroke-opacity: 0.1; stroke-width: 0.8; stroke-linecap: square"/>
     </g>
     <g id="line2d_10">
      <defs>
       <path id="maf87c3587a" d="M 0 0 
L -3.5 0 
" style="stroke: #000000; stroke-width: 0.8"/>
      </defs>
      <g>
       <use xlink:href="#maf87c3587a" x="50.121875" y="179.268736" style="stroke: #000000; stroke-width: 0.8"/>
      </g>
     </g>
     <g id="text_6">
      <text style="font: 12px 'Times New Roman', 'Times', serif; text-anchor: end" x="43.121875" y="183.434986" transform="rotate(-0 43.121875 183.434986)">0.0</text>
     </g>
    </g>
    <g id="ytick_2">
     <g id="line2d_11">
      <path d="M 50.121875 144.973321 
L 273.321875 144.973321 
" clip-path="url(#pa22956e10f)" style="fill: none; stroke: #b0b0b0; stroke-opacity: 0.1; stroke-width: 0.8; stroke-linecap: square"/>
     </g>
     <g id="line2d_12">
      <g>
       <use xlink:href="#maf87c3587a" x="50.121875" y="144.973321" style="stroke: #000000; stroke-width: 0.8"/>
      </g>
     </g>
     <g id="text_7">
      <text style="font: 12px 'Times New Roman', 'Times', serif; text-anchor: end" x="43.121875" y="149.139571" transform="rotate(-0 43.121875 149.139571)">2.5</text>
     </g>
    </g>
    <g id="ytick_3">
     <g id="line2d_13">
      <path d="M 50.121875 110.677906 
L 273.321875 110.677906 
" clip-path="url(#pa22956e10f)" style="fill: none; stroke: #b0b0b0; stroke-opacity: 0.1; stroke-width: 0.8; stroke-linecap: square"/>
     </g>
     <g id="line2d_14">
      <g>
       <use xlink:href="#maf87c3587a" x="50.121875" y="110.677906" style="stroke: #000000; stroke-width: 0.8"/>
      </g>
     </g>
     <g id="text_8">
      <text style="font: 12px 'Times New Roman', 'Times', serif; text-anchor: end" x="43.121875" y="114.844156" transform="rotate(-0 43.121875 114.844156)">5.0</text>
     </g>
    </g>
    <g id="ytick_4">
     <g id="line2d_15">
      <path d="M 50.121875 76.382491 
L 273.321875 76.382491 
" clip-path="url(#pa22956e10f)" style="fill: none; stroke: #b0b0b0; stroke-opacity: 0.1; stroke-width: 0.8; stroke-linecap: square"/>
     </g>
     <g id="line2d_16">
      <g>
       <use xlink:href="#maf87c3587a" x="50.121875" y="76.382491" style="stroke: #000000; stroke-width: 0.8"/>
      </g>
     </g>
     <g id="text_9">
      <text style="font: 12px 'Times New Roman', 'Times', serif; text-anchor: end" x="43.121875" y="80.548741" transform="rotate(-0 43.121875 80.548741)">7.5</text>
     </g>
    </g>
    <g id="ytick_5">
     <g id="line2d_17">
      <path d="M 50.121875 42.087076 
L 273.321875 42.087076 
" clip-path="url(#pa22956e10f)" style="fill: none; stroke: #b0b0b0; stroke-opacity: 0.1; stroke-width: 0.8; stroke-linecap: square"/>
     </g>
     <g id="line2d_18">
      <g>
       <use xlink:href="#maf87c3587a" x="50.121875" y="42.087076" style="stroke: #000000; stroke-width: 0.8"/>
      </g>
     </g>
     <g id="text_10">
      <text style="font: 12px 'Times New Roman', 'Times', serif; text-anchor: end" x="43.121875" y="46.253326" transform="rotate(-0 43.121875 46.253326)">10.0</text>
     </g>
    </g>
    <g id="text_11">
     <text style="font: 12px 'Times New Roman', 'Times', serif; text-anchor: middle" x="15.5325" y="106.08125" transform="rotate(-90 15.5325 106.08125)">Probability Density</text>
    </g>
   </g>
   <g id="line2d_19">
    <path d="M 65.340058 30.536947 
L 66.629454 69.140815 
L 67.918834 100.855221 
L 69.20823 126.265948 
L 70.49761 145.957391 
L 71.787005 160.515042 
L 72.431695 166.051353 
L 73.076385 170.523557 
L 73.721091 174.004851 
L 74.365781 176.568195 
L 75.010471 178.286809 
L 75.655176 179.233833 
L 76.299866 179.482347 
L 76.944556 179.105508 
L 77.589246 178.176443 
L 78.233952 176.768236 
L 78.878642 174.954083 
L 80.168037 170.400292 
L 84.680883 152.4234 
L 85.325588 150.571362 
L 85.970278 149.115343 
L 86.614968 148.076254 
L 87.259674 147.428617 
L 87.904364 147.145219 
L 88.549054 147.198794 
L 89.19376 147.562112 
L 89.83845 148.207908 
L 90.48314 149.108945 
L 91.772535 151.567794 
L 93.061915 154.720641 
L 94.996001 160.274476 
L 98.219482 169.930432 
L 99.508862 173.328044 
L 100.798257 176.155752 
L 102.087637 178.210655 
L 102.732327 178.884934 
L 103.377033 179.289967 
L 104.021723 179.400378 
L 104.666413 179.190828 
L 105.311119 178.635945 
L 105.955809 177.710404 
L 106.600499 176.40616 
L 107.889894 172.878725 
L 109.82398 166.246968 
L 111.75805 159.537168 
L 113.047445 155.870889 
L 113.692135 154.471192 
L 114.336841 153.445453 
L 114.981531 152.8575 
L 115.626221 152.771079 
L 116.270926 153.249151 
L 116.915616 154.29762 
L 117.560306 155.829794 
L 118.849702 159.96458 
L 122.717858 174.078632 
L 123.362563 175.680905 
L 124.007253 176.814997 
L 124.651943 177.385768 
L 125.296649 177.298024 
L 125.941339 176.456584 
L 126.586029 174.773385 
L 127.230734 172.276186 
L 127.875424 169.087221 
L 129.164804 161.133248 
L 133.677665 129.855046 
L 134.322371 126.614679 
L 134.967061 124.05595 
L 135.611751 122.303625 
L 136.256457 121.482546 
L 136.901131 121.693473 
L 137.545837 122.881194 
L 138.190527 124.928369 
L 138.835217 127.717568 
L 140.124612 135.052354 
L 142.058698 148.683532 
L 143.992783 162.650767 
L 145.282179 170.582992 
L 145.926853 173.782855 
L 146.571559 176.31555 
L 147.216249 178.106687 
L 147.860939 179.208654 
L 148.505644 179.696788 
L 149.150334 179.646398 
L 149.795024 179.132837 
L 150.43973 178.23141 
L 151.08442 177.017496 
L 152.373816 173.953438 
L 154.952575 167.389959 
L 155.597281 166.097785 
L 156.241971 165.095801 
L 156.886661 164.458306 
L 157.531367 164.212409 
L 158.176057 164.318554 
L 158.820747 164.732125 
L 159.465452 165.408539 
L 160.754832 167.371389 
L 162.688918 171.171756 
L 164.623003 174.928884 
L 165.912383 176.814866 
L 166.557089 177.438432 
L 167.201779 177.792748 
L 167.846469 177.878788 
L 168.491175 177.727503 
L 169.135864 177.370493 
L 170.42526 176.165648 
L 171.71464 174.517024 
L 174.938106 170.11246 
L 176.227486 168.900894 
L 176.872191 168.539386 
L 177.516897 168.37686 
L 178.161571 168.405888 
L 178.806277 168.607769 
L 179.450982 168.963787 
L 180.740362 170.063344 
L 182.029742 171.554844 
L 184.608533 175.114843 
L 186.542619 177.700139 
L 187.831999 179.1081 
L 189.12141 180.185148 
L 190.41079 180.949484 
L 191.70017 181.421504 
L 192.98955 181.621574 
L 194.27893 181.570063 
L 195.568341 181.287327 
L 196.857721 180.793747 
L 198.147101 180.110081 
L 200.081187 178.782839 
L 202.015272 177.174323 
L 205.238769 174.115442 
L 209.751615 169.746737 
L 211.6857 168.096268 
L 213.619786 166.710294 
L 214.909166 165.978176 
L 216.198546 165.430988 
L 217.487957 165.095673 
L 218.777337 164.991874 
L 220.066717 165.107496 
L 221.356128 165.421885 
L 222.645508 165.914364 
L 224.579562 166.941802 
L 226.513648 168.253746 
L 229.092439 170.325023 
L 233.605316 174.371219 
L 236.828782 177.176497 
L 239.407573 179.121871 
L 241.341658 180.298077 
L 243.275744 181.15438 
L 244.565093 181.513079 
L 245.854504 181.677958 
L 247.143884 181.628334 
L 248.433264 181.343553 
L 249.722675 180.802935 
L 251.012055 179.985843 
L 252.301435 178.871605 
L 253.590846 177.43952 
L 254.880226 175.668994 
L 256.169606 173.539334 
L 257.459017 171.029811 
L 258.103692 169.626232 
L 258.103692 169.626232 
" clip-path="url(#pa22956e10f)" style="fill: none; stroke: #6594b1; stroke-width: 2; stroke-linecap: square"/>
   </g>
   <g id="patch_23">
    <path d="M 50.121875 189.24125 
L 50.121875 22.92125 
" style="fill: none; stroke: #000000; stroke-width: 0.8; stroke-linejoin: miter; stroke-linecap: square"/>
   </g>
   <g id="patch_24">
    <path d="M 273.321875 189.24125 
L 273.321875 22.92125 
" style="fill: none; stroke: #000000; stroke-width: 0.8; stroke-linejoin: miter; stroke-linecap: square"/>
   </g>
   <g id="patch_25">
    <path d="M 50.121875 189.24125 
L 273.321875 189.24125 
" style="fill: none; stroke: #000000; stroke-width: 0.8; stroke-linejoin: miter; stroke-linecap: square"/>
   </g>
   <g id="patch_26">
    <path d="M 50.121875 22.92125 
L 273.321875 22.92125 
" style="fill: none; stroke: #000000; stroke-width: 0.8; stroke-linejoin: miter; stroke-linecap: square"/>
   </g>
   <g id="text_12">
    <text style="font: 14px 'Times New Roman', 'Times', serif; text-anchor: middle" x="161.721875" y="16.92125" transform="rotate(-0 161.721875 16.92125)">Distribution Time-of-Flight (DTOF)</text>
   </g>
  </g>
 </g>
 <defs>
  <clipPath id="pa22956e10f">
   <rect x="50.121875" y="22.92125" width="223.2" height="166.32"/>
  </clipPath>
 </defs>
</svg>
