<?xml version="1.0" encoding="utf-8" standalone="no"?>
<!DOCTYPE svg PUBLIC "-//W3C//DTD SVG 1.1//EN"
  "http://www.w3.org/Graphics/SVG/1.1/DTD/svg11.dtd">
<svg xmlns:xlink="http://www.w3.org/1999/xlink" width="271.521875pt" height="229.2625pt" viewBox="0 0 271.521875 229.2625" xmlns="http://www.w3.org/2000/svg" version="1.1">
 <metadata>
  <rdf:RDF xmlns:dc="http://purl.org/dc/elements/1.1/" xmlns:cc="http://creativecommons.org/ns#" xmlns:rdf="http://www.w3.org/1999/02/22-rdf-syntax-ns#">
   <cc:Work>
    <dc:type rdf:resource="http://purl.org/dc/dcmitype/StillImage"/>
    <dc:date>2026-02-08T22:24:55.509862</dc:date>
    <dc:format>image/svg+xml</dc:format>
    <dc:creator>
     <cc:Agent>
      <dc:title>Matplotlib v3.9.2, https://matplotlib.org/</dc:title>
     </cc:Agent>
    </dc:creator>
   </cc:Work>
  </rdf:RDF>
 </metadata>
 <defs>
  <style type="text/css">*{stroke-linejoin: round; stroke-linecap: butt}</style>
 </defs>
 <g id="figure_1">
  <g id="patch_1">
   <path d="M 0 229.2625 
L 271.521875 229.2625 
L 271.521875 0 
L 0 0 
z
" style="fill: #ffffff"/>
  </g>
  <g id="axes_1">
   <g id="patch_2">
    <path d="M 41.121875 189.24125 
L 264.321875 189.24125 
L 264.321875 22.92125 
L 41.121875 22.92125 
z
" style="fill: #ffffff"/>
   </g>
   <g id="patch_3">
    <path d="M 51.26733 166.287829 
L 61.412782 166.287829 
L 61.412782 30.61247 
L 51.26733 30.61247 
z
" clip-path="url(#p6f7cb1a899)" style="fill: #213c51; opacity: 0.7; stroke: #000000; stroke-width: 0.5; stroke-linejoin: miter"/>
   </g>
   <g id="patch_4">
    <path d="M 61.412782 166.287829 
L 71.558256 166.287829 
L 71.558256 166.287829 
L 61.412782 166.287829 
z
" clip-path="url(#p6f7cb1a899)" style="fill: #213c51; opacity: 0.7; stroke: #000000; stroke-width: 0.5; stroke-linejoin: miter"/>
   </g>
   <g id="patch_5">
    <path d="M 71.558256 166.287829 
L 81.703709 166.287829 
L 81.703709 166.287829 
L 71.558256 166.287829 
z
" clip-path="url(#p6f7cb1a899)" style="fill: #213c51; opacity: 0.7; stroke: #000000; stroke-width: 0.5; stroke-linejoin: miter"/>
   </g>
   <g id="patch_6">
    <path d="M 81.703709 166.287829 
L 91.849161 166.287829 
L 91.849161 99.934364 
L 81.703709 99.934364 
z
" clip-path="url(#p6f7cb1a899)" style="fill: #213c51; opacity: 0.7; stroke: #000000; stroke-width: 0.5; stroke-linejoin: miter"/>
   </g>
   <g id="patch_7">
    <path d="M 91.849161 166.287829 
L 101.994613 166.287829 
L 101.994613 166.287829 
L 91.849161 166.287829 
z
" clip-path="url(#p6f7cb1a899)" style="fill: #213c51; opacity: 0.7; stroke: #000000; stroke-width: 0.5; stroke-linejoin: miter"/>
   </g>
   <g id="patch_8">
    <path d="M 101.994591 166.287829 
L 112.140066 166.287829 
L 112.140066 166.287829 
L 101.994591 166.287829 
z
" clip-path="url(#p6f7cb1a899)" style="fill: #213c51; opacity: 0.7; stroke: #000000; stroke-width: 0.5; stroke-linejoin: miter"/>
   </g>
   <g id="patch_9">
    <path d="M 112.140087 166.287829 
L 122.28554 166.287829 
L 122.28554 166.287829 
L 112.140087 166.287829 
z
" clip-path="url(#p6f7cb1a899)" style="fill: #213c51; opacity: 0.7; stroke: #000000; stroke-width: 0.5; stroke-linejoin: miter"/>
   </g>
   <g id="patch_10">
    <path d="M 122.28554 166.287829 
L 132.430992 166.287829 
L 132.430992 157.773911 
L 122.28554 157.773911 
z
" clip-path="url(#p6f7cb1a899)" style="fill: #213c51; opacity: 0.7; stroke: #000000; stroke-width: 0.5; stroke-linejoin: miter"/>
   </g>
   <g id="patch_11">
    <path d="M 132.430992 166.287829 
L 142.576445 166.287829 
L 142.576445 155.574083 
L 132.430992 155.574083 
z
" clip-path="url(#p6f7cb1a899)" style="fill: #213c51; opacity: 0.7; stroke: #000000; stroke-width: 0.5; stroke-linejoin: miter"/>
   </g>
   <g id="patch_12">
    <path d="M 142.576445 166.287829 
L 152.721919 166.287829 
L 152.721919 141.534274 
L 142.576445 141.534274 
z
" clip-path="url(#p6f7cb1a899)" style="fill: #213c51; opacity: 0.7; stroke: #000000; stroke-width: 0.5; stroke-linejoin: miter"/>
   </g>
   <g id="patch_13">
    <path d="M 152.721941 166.287829 
L 162.867371 166.287829 
L 162.867371 142.440079 
L 152.721941 142.440079 
z
" clip-path="url(#p6f7cb1a899)" style="fill: #213c51; opacity: 0.7; stroke: #000000; stroke-width: 0.5; stroke-linejoin: miter"/>
   </g>
   <g id="patch_14">
    <path d="M 162.867349 166.287829 
L 173.012802 166.287829 
L 173.012802 160.826784 
L 162.867349 160.826784 
z
" clip-path="url(#p6f7cb1a899)" style="fill: #213c51; opacity: 0.7; stroke: #000000; stroke-width: 0.5; stroke-linejoin: miter"/>
   </g>
   <g id="patch_15">
    <path d="M 173.012802 166.287829 
L 183.158276 166.287829 
L 183.158276 166.287829 
L 173.012802 166.287829 
z
" clip-path="url(#p6f7cb1a899)" style="fill: #213c51; opacity: 0.7; stroke: #000000; stroke-width: 0.5; stroke-linejoin: miter"/>
   </g>
   <g id="patch_16">
    <path d="M 183.158276 166.287829 
L 193.303728 166.287829 
L 193.303728 166.287829 
L 183.158276 166.287829 
z
" clip-path="url(#p6f7cb1a899)" style="fill: #213c51; opacity: 0.7; stroke: #000000; stroke-width: 0.5; stroke-linejoin: miter"/>
   </g>
   <g id="patch_17">
    <path d="M 193.303728 166.287829 
L 203.449181 166.287829 
L 203.449181 153.373977 
L 193.303728 153.373977 
z
" clip-path="url(#p6f7cb1a899)" style="fill: #213c51; opacity: 0.7; stroke: #000000; stroke-width: 0.5; stroke-linejoin: miter"/>
   </g>
   <g id="patch_18">
    <path d="M 203.449181 166.287829 
L 213.594633 166.287829 
L 213.594633 159.714401 
L 203.449181 159.714401 
z
" clip-path="url(#p6f7cb1a899)" style="fill: #213c51; opacity: 0.7; stroke: #000000; stroke-width: 0.5; stroke-linejoin: miter"/>
   </g>
   <g id="patch_19">
    <path d="M 213.594611 166.287829 
L 223.740085 166.287829 
L 223.740085 166.287829 
L 213.594611 166.287829 
z
" clip-path="url(#p6f7cb1a899)" style="fill: #213c51; opacity: 0.7; stroke: #000000; stroke-width: 0.5; stroke-linejoin: miter"/>
   </g>
   <g id="patch_20">
    <path d="M 223.740107 166.287829 
L 233.88556 166.287829 
L 233.88556 166.287829 
L 223.740107 166.287829 
z
" clip-path="url(#p6f7cb1a899)" style="fill: #213c51; opacity: 0.7; stroke: #000000; stroke-width: 0.5; stroke-linejoin: miter"/>
   </g>
   <g id="patch_21">
    <path d="M 233.88556 166.287829 
L 244.031012 166.287829 
L 244.031012 166.287829 
L 233.88556 166.287829 
z
" clip-path="url(#p6f7cb1a899)" style="fill: #213c51; opacity: 0.7; stroke: #000000; stroke-width: 0.5; stroke-linejoin: miter"/>
   </g>
   <g id="patch_22">
    <path d="M 244.030968 166.287829 
L 254.17642 166.287829 
L 254.17642 164.235717 
L 244.030968 164.235717 
z
" clip-path="url(#p6f7cb1a899)" style="fill: #213c51; opacity: 0.7; stroke: #000000; stroke-width: 0.5; stroke-linejoin: miter"/>
   </g>
   <g id="matplotlib.axis_1">
    <g id="xtick_1">
     <g id="line2d_1">
      <path d="M 83.394098 189.24125 
L 83.394098 22.92125 
" clip-path="url(#p6f7cb1a899)" style="fill: none; stroke: #b0b0b0; stroke-opacity: 0.1; stroke-width: 0.8; stroke-linecap: square"/>
     </g>
     <g id="line2d_2">
      <defs>
       <path id="m4571942f71" d="M 0 0 
L 0 3.5 
" style="stroke: #000000; stroke-width: 0.8"/>
      </defs>
      <g>
       <use xlink:href="#m4571942f71" x="83.394098" y="189.24125" style="stroke: #000000; stroke-width: 0.8"/>
      </g>
     </g>
     <g id="text_1">
      <text style="font: 12px 'Times New Roman', 'Times', serif; text-anchor: middle" x="83.394098" y="204.57375" transform="rotate(-0 83.394098 204.57375)">0.6</text>
     </g>
    </g>
    <g id="xtick_2">
     <g id="line2d_3">
      <path d="M 156.836556 189.24125 
L 156.836556 22.92125 
" clip-path="url(#p6f7cb1a899)" style="fill: none; stroke: #b0b0b0; stroke-opacity: 0.1; stroke-width: 0.8; stroke-linecap: square"/>
     </g>
     <g id="line2d_4">
      <g>
       <use xlink:href="#m4571942f71" x="156.836556" y="189.24125" style="stroke: #000000; stroke-width: 0.8"/>
      </g>
     </g>
     <g id="text_2">
      <text style="font: 12px 'Times New Roman', 'Times', serif; text-anchor: middle" x="156.836556" y="204.57375" transform="rotate(-0 156.836556 204.57375)">0.8</text>
     </g>
    </g>
    <g id="xtick_3">
     <g id="line2d_5">
      <path d="M 230.279015 189.24125 
L 230.279015 22.92125 
" clip-path="url(#p6f7cb1a899)" style="fill: none; stroke: #b0b0b0; stroke-opacity: 0.1; stroke-width: 0.8; stroke-linecap: square"/>
     </g>
     <g id="line2d_6">
      <g>
       <use xlink:href="#m4571942f71" x="230.279015" y="189.24125" style="stroke: #000000; stroke-width: 0.8"/>
      </g>
     </g>
     <g id="text_3">
      <text style="font: 12px 'Times New Roman', 'Times', serif; text-anchor: middle" x="230.279015" y="204.57375" transform="rotate(-0 230.279015 204.57375)">1.0</text>
     </g>
    </g>
    <g id="text_4">
     <text style="font: 12px 'Times New Roman', 'Times', serif; text-anchor: middle" x="152.721875" y="219.473125" transform="rotate(-0 152.721875 219.473125)">Time of Flight (ns)</text>
    </g>
   </g>
   <g id="matplotlib.axis_2">
    <g id="ytick_1">
     <g id="line2d_7">
      <path d="M 41.121875 166.287829 
L 264.321875 166.287829 
" clip-path="url(#p6f7cb1a899)" style="fill: none; stroke: #b0b0b0; stroke-opacity: 0.1; stroke-width: 0.8; stroke-linecap: square"/>
     </g>
     <g id="line2d_8">
      <defs>
       <path id="m57790bb27e" d="M 0 0 
L -3.5 0 
" style="stroke: #000000; stroke-width: 0.8"/>
      </defs>
      <g>
       <use xlink:href="#m57790bb27e" x="41.121875" y="166.287829" style="stroke: #000000; stroke-width: 0.8"/>
      </g>
     </g>
     <g id="text_5">
      <text style="font: 12px 'Times New Roman', 'Times', serif; text-anchor: end" x="34.121875" y="170.454079" transform="rotate(-0 34.121875 170.454079)">0</text>
     </g>
    </g>
    <g id="ytick_2">
     <g id="line2d_9">
      <path d="M 41.121875 125.279384 
L 264.321875 125.279384 
" clip-path="url(#p6f7cb1a899)" style="fill: none; stroke: #b0b0b0; stroke-opacity: 0.1; stroke-width: 0.8; stroke-linecap: square"/>
     </g>
     <g id="line2d_10">
      <g>
       <use xlink:href="#m57790bb27e" x="41.121875" y="125.279384" style="stroke: #000000; stroke-width: 0.8"/>
      </g>
     </g>
     <g id="text_6">
      <text style="font: 12px 'Times New Roman', 'Times', serif; text-anchor: end" x="34.121875" y="129.445634" transform="rotate(-0 34.121875 129.445634)">5</text>
     </g>
    </g>
    <g id="ytick_3">
     <g id="line2d_11">
      <path d="M 41.121875 84.270938 
L 264.321875 84.270938 
" clip-path="url(#p6f7cb1a899)" style="fill: none; stroke: #b0b0b0; stroke-opacity: 0.1; stroke-width: 0.8; stroke-linecap: square"/>
     </g>
     <g id="line2d_12">
      <g>
       <use xlink:href="#m57790bb27e" x="41.121875" y="84.270938" style="stroke: #000000; stroke-width: 0.8"/>
      </g>
     </g>
     <g id="text_7">
      <text style="font: 12px 'Times New Roman', 'Times', serif; text-anchor: end" x="34.121875" y="88.437188" transform="rotate(-0 34.121875 88.437188)">10</text>
     </g>
    </g>
    <g id="ytick_4">
     <g id="line2d_13">
      <path d="M 41.121875 43.262493 
L 264.321875 43.262493 
" clip-path="url(#p6f7cb1a899)" style="fill: none; stroke: #b0b0b0; stroke-opacity: 0.1; stroke-width: 0.8; stroke-linecap: square"/>
     </g>
     <g id="line2d_14">
      <g>
       <use xlink:href="#m57790bb27e" x="41.121875" y="43.262493" style="stroke: #000000; stroke-width: 0.8"/>
      </g>
     </g>
     <g id="text_8">
      <text style="font: 12px 'Times New Roman', 'Times', serif; text-anchor: end" x="34.121875" y="47.428743" transform="rotate(-0 34.121875 47.428743)">15</text>
     </g>
    </g>
    <g id="text_9">
     <text style="font: 12px 'Times New Roman', 'Times', serif; text-anchor: middle" x="15.5325" y="106.08125" transform="rotate(-90 15.5325 106.08125)">Probability Density</text>
    </g>
   </g>
   <g id="line2d_15">
    <path d="M 56.340056 30.48125 
L 58.27415 68.357877 
L 60.208222 100.480325 
L 61.497618 118.779332 
L 62.786992 134.641366 
L 64.076388 148.115181 
L 65.365784 159.248704 
L 66.655159 168.090021 
L 67.944555 174.687648 
L 68.589253 177.160082 
L 69.233951 179.089632 
L 69.878649 180.482326 
L 70.523347 181.34419 
L 71.168023 181.68125 
L 71.812721 181.499554 
L 72.457419 180.805111 
L 73.102117 179.603945 
L 73.746815 177.902086 
L 74.391491 175.705643 
L 75.036189 173.020493 
L 76.325585 166.208381 
L 77.614981 157.566144 
L 79.549053 142.408044 
L 82.127846 122.041872 
L 83.41722 113.48375 
L 84.706616 107.01095 
L 85.351314 104.791511 
L 85.996012 103.375331 
L 86.640688 102.856374 
L 87.285386 103.312359 
L 87.930084 104.697169 
L 88.574782 106.907451 
L 89.21948 109.839546 
L 90.508876 117.454533 
L 91.79825 126.712685 
L 95.666417 156.05472 
L 96.955813 163.593652 
L 97.600511 166.505612 
L 98.245209 168.846862 
L 98.889885 170.664461 
L 99.534583 172.005644 
L 100.179281 172.917455 
L 100.823979 173.447008 
L 101.468677 173.641416 
L 102.113375 173.547792 
L 102.758073 173.213249 
L 103.402749 172.684923 
L 104.692145 171.235276 
L 107.270916 168.083015 
L 108.560312 167.013511 
L 109.849708 166.322069 
L 111.139082 165.916824 
L 113.073176 165.644589 
L 116.296644 165.320331 
L 117.58604 164.968564 
L 118.875414 164.40181 
L 120.809509 163.244882 
L 124.677675 160.462463 
L 126.611747 159.183798 
L 128.545841 158.197825 
L 131.124611 157.259169 
L 134.34808 156.106118 
L 136.282174 155.109809 
L 137.57157 154.209264 
L 138.860944 153.07871 
L 140.795038 151.037799 
L 144.018506 147.15075 
L 147.241996 143.362922 
L 149.176069 141.476857 
L 150.465465 140.489199 
L 151.754861 139.778169 
L 153.044235 139.395921 
L 154.333609 139.394587 
L 154.978329 139.553071 
L 155.623005 139.826328 
L 156.912401 140.743295 
L 158.201797 142.196663 
L 159.491193 144.170912 
L 160.780568 146.542121 
L 163.359338 151.940365 
L 165.93813 157.32103 
L 167.227526 159.670243 
L 168.5169 161.616633 
L 169.806296 163.119861 
L 171.09567 164.24315 
L 172.385066 165.055516 
L 173.674462 165.625919 
L 175.608535 166.178731 
L 182.700191 167.633837 
L 183.989587 167.652901 
L 185.278961 167.448966 
L 186.568336 166.959577 
L 187.857732 166.122258 
L 189.147128 164.885876 
L 190.436524 163.311986 
L 193.015294 159.657192 
L 194.949388 156.972246 
L 196.238762 155.447072 
L 197.528158 154.281782 
L 198.172856 153.873775 
L 198.817532 153.601926 
L 199.462252 153.465048 
L 200.106929 153.452386 
L 201.396325 153.756025 
L 202.685721 154.425523 
L 203.975117 155.373559 
L 205.909189 157.126831 
L 209.777355 160.759443 
L 211.711449 162.253474 
L 213.645521 163.511749 
L 215.579594 164.550564 
L 217.513688 165.386204 
L 219.447782 166.034936 
L 222.026552 166.637298 
L 224.605322 166.974908 
L 227.184114 167.086353 
L 230.407583 166.966392 
L 234.275771 166.54166 
L 240.077988 165.601561 
L 245.880248 164.688522 
L 249.103716 164.354754 
L 249.103716 164.354754 
" clip-path="url(#p6f7cb1a899)" style="fill: none; stroke: #6594b1; stroke-width: 2; stroke-linecap: square"/>
   </g>
   <g id="patch_23">
    <path d="M 41.121875 189.24125 
L 41.121875 22.92125 
" style="fill: none; stroke: #000000; stroke-width: 0.8; stroke-linejoin: miter; stroke-linecap: square"/>
   </g>
   <g id="patch_24">
    <path d="M 264.321875 189.24125 
L 264.321875 22.92125 
" style="fill: none; stroke: #000000; stroke-width: 0.8; stroke-linejoin: miter; stroke-linecap: square"/>
   </g>
   <g id="patch_25">
    <path d="M 41.121875 189.24125 
L 264.321875 189.24125 
" style="fill: none; stroke: #000000; stroke-width: 0.8; stroke-linejoin: miter; stroke-linecap: square"/>
   </g>
   <g id="patch_26">
    <path d="M 41.121875 22.92125 
L 264.321875 22.92125 
" style="fill: none; stroke: #000000; stroke-width: 0.8; stroke-linejoin: miter; stroke-linecap: square"/>
   </g>
   <g id="text_10">
    <text style="font: 14px 'Times New Roman', 'Times', serif; text-anchor: middle" x="152.721875" y="16.92125" transform="rotate(-0 152.721875 16.92125)">Distribution Time-of-Flight (DTOF)</text>
   </g>
  </g>
 </g>
 <defs>
  <clipPath id="p6f7cb1a899">
   <rect x="41.121875" y="22.92125" width="223.2" height="166.32"/>
  </clipPath>
 </defs>
</svg>
