<?xml version="1.0" encoding="utf-8" standalone="no"?>
<!DOCTYPE svg PUBLIC "-//W3C//DTD SVG 1.1//EN"
  "http://www.w3.org/Graphics/SVG/1.1/DTD/svg11.dtd">
<svg xmlns:xlink="http://www.w3.org/1999/xlink" width="400.425412pt" height="268.763437pt" viewBox="0 0 400.425412 268.763437" xmlns="http://www.w3.org/2000/svg" version="1.1">
 <metadata>
  <rdf:RDF xmlns:dc="http://purl.org/dc/elements/1.1/" xmlns:cc="http://creativecommons.org/ns#" xmlns:rdf="http://www.w3.org/1999/02/22-rdf-syntax-ns#">
   <cc:Work>
    <dc:type rdf:resource="http://purl.org/dc/dcmitype/StillImage"/>
    <dc:date>2026-03-06T04:59:20.370438</dc:date>
    <dc:format>image/svg+xml</dc:format>
    <dc:creator>
     <cc:Agent>
      <dc:title>Matplotlib v3.10.8, https://matplotlib.org/</dc:title>
     </cc:Agent>
    </dc:creator>
   </cc:Work>
  </rdf:RDF>
 </metadata>
 <defs>
  <style type="text/css">*{stroke-linejoin: round; stroke-linecap: butt}</style>
 </defs>
 <g id="figure_1">
  <g id="patch_1">
   <path d="M 0 268.763437 
L 400.425412 268.763437 
L 400.425412 0 
L 0 0 
z
" style="fill: #ffffff"/>
  </g>
  <g id="axes_1">
   <g id="patch_2">
    <path d="M 47.638125 228.96 
L 382.438125 228.96 
L 382.438125 7.2 
L 47.638125 7.2 
z
" style="fill: #ffffff"/>
   </g>
   <g id="matplotlib.axis_1">
    <g id="xtick_1">
     <g id="line2d_1">
      <path d="M 140.400588 228.96 
L 140.400588 7.2 
" clip-path="url(#p6454e57155)" style="fill: none; stroke: #e0e0e0; stroke-opacity: 0.7; stroke-width: 0.8; stroke-linecap: square"/>
     </g>
     <g id="line2d_2">
      <defs>
       <path id="m5c6b4ac16e" d="M 0 0 
L 0 -4 
" style="stroke: #000000; stroke-width: 0.8"/>
      </defs>
      <g>
       <use xlink:href="#m5c6b4ac16e" x="140.400588" y="228.96" style="stroke: #000000; stroke-width: 0.8"/>
      </g>
     </g>
     <g id="text_1">
      <!-- $\mathdefault{10^{-2}}$ -->
      <g transform="translate(130.500588 242.7725)">
       <text>
        <tspan x="0" y="-0.999375" style="font-size: 10px; font-family: 'Arial'">1</tspan>
        <tspan x="5.561523" y="-0.999375" style="font-size: 10px; font-family: 'Arial'">0</tspan>
        <tspan x="11.297281" y="-7.96875" style="font-size: 7px; font-family: 'Arial'">−</tspan>
        <tspan x="15.385172" y="-7.96875" style="font-size: 7px; font-family: 'Arial'">2</tspan>
       </text>
      </g>
     </g>
    </g>
    <g id="xtick_2">
     <g id="line2d_3">
      <path d="M 333.840707 228.96 
L 333.840707 7.2 
" clip-path="url(#p6454e57155)" style="fill: none; stroke: #e0e0e0; stroke-opacity: 0.7; stroke-width: 0.8; stroke-linecap: square"/>
     </g>
     <g id="line2d_4">
      <g>
       <use xlink:href="#m5c6b4ac16e" x="333.840707" y="228.96" style="stroke: #000000; stroke-width: 0.8"/>
      </g>
     </g>
     <g id="text_2">
      <!-- $\mathdefault{10^{-1}}$ -->
      <g transform="translate(323.940707 242.7725)">
       <text>
        <tspan x="0" y="-0.999375" style="font-size: 10px; font-family: 'Arial'">1</tspan>
        <tspan x="5.561523" y="-0.999375" style="font-size: 10px; font-family: 'Arial'">0</tspan>
        <tspan x="11.297281" y="-7.96875" style="font-size: 7px; font-family: 'Arial'">−</tspan>
        <tspan x="15.385172" y="-7.96875" style="font-size: 7px; font-family: 'Arial'">1</tspan>
       </text>
      </g>
     </g>
    </g>
    <g id="xtick_3">
     <g id="line2d_5">
      <path d="M 63.423025 228.96 
L 63.423025 7.2 
" clip-path="url(#p6454e57155)" style="fill: none; stroke: #e0e0e0; stroke-opacity: 0.3; stroke-width: 0.8; stroke-linecap: square"/>
     </g>
     <g id="line2d_6">
      <defs>
       <path id="m6882ef019c" d="M 0 0 
L 0 -2 
" style="stroke: #000000; stroke-width: 0.6"/>
      </defs>
      <g>
       <use xlink:href="#m6882ef019c" x="63.423025" y="228.96" style="stroke: #000000; stroke-width: 0.6"/>
      </g>
     </g>
    </g>
    <g id="xtick_4">
     <g id="line2d_7">
      <path d="M 82.169309 228.96 
L 82.169309 7.2 
" clip-path="url(#p6454e57155)" style="fill: none; stroke: #e0e0e0; stroke-opacity: 0.3; stroke-width: 0.8; stroke-linecap: square"/>
     </g>
     <g id="line2d_8">
      <g>
       <use xlink:href="#m6882ef019c" x="82.169309" y="228.96" style="stroke: #000000; stroke-width: 0.6"/>
      </g>
     </g>
    </g>
    <g id="xtick_5">
     <g id="line2d_9">
      <path d="M 97.486139 228.96 
L 97.486139 7.2 
" clip-path="url(#p6454e57155)" style="fill: none; stroke: #e0e0e0; stroke-opacity: 0.3; stroke-width: 0.8; stroke-linecap: square"/>
     </g>
     <g id="line2d_10">
      <g>
       <use xlink:href="#m6882ef019c" x="97.486139" y="228.96" style="stroke: #000000; stroke-width: 0.6"/>
      </g>
     </g>
    </g>
    <g id="xtick_6">
     <g id="line2d_11">
      <path d="M 110.436334 228.96 
L 110.436334 7.2 
" clip-path="url(#p6454e57155)" style="fill: none; stroke: #e0e0e0; stroke-opacity: 0.3; stroke-width: 0.8; stroke-linecap: square"/>
     </g>
     <g id="line2d_12">
      <g>
       <use xlink:href="#m6882ef019c" x="110.436334" y="228.96" style="stroke: #000000; stroke-width: 0.6"/>
      </g>
     </g>
    </g>
    <g id="xtick_7">
     <g id="line2d_13">
      <path d="M 121.654303 228.96 
L 121.654303 7.2 
" clip-path="url(#p6454e57155)" style="fill: none; stroke: #e0e0e0; stroke-opacity: 0.3; stroke-width: 0.8; stroke-linecap: square"/>
     </g>
     <g id="line2d_14">
      <g>
       <use xlink:href="#m6882ef019c" x="121.654303" y="228.96" style="stroke: #000000; stroke-width: 0.6"/>
      </g>
     </g>
    </g>
    <g id="xtick_8">
     <g id="line2d_15">
      <path d="M 131.549253 228.96 
L 131.549253 7.2 
" clip-path="url(#p6454e57155)" style="fill: none; stroke: #e0e0e0; stroke-opacity: 0.3; stroke-width: 0.8; stroke-linecap: square"/>
     </g>
     <g id="line2d_16">
      <g>
       <use xlink:href="#m6882ef019c" x="131.549253" y="228.96" style="stroke: #000000; stroke-width: 0.6"/>
      </g>
     </g>
    </g>
    <g id="xtick_9">
     <g id="line2d_17">
      <path d="M 198.631866 228.96 
L 198.631866 7.2 
" clip-path="url(#p6454e57155)" style="fill: none; stroke: #e0e0e0; stroke-opacity: 0.3; stroke-width: 0.8; stroke-linecap: square"/>
     </g>
     <g id="line2d_18">
      <g>
       <use xlink:href="#m6882ef019c" x="198.631866" y="228.96" style="stroke: #000000; stroke-width: 0.6"/>
      </g>
     </g>
    </g>
    <g id="xtick_10">
     <g id="line2d_19">
      <path d="M 232.69498 228.96 
L 232.69498 7.2 
" clip-path="url(#p6454e57155)" style="fill: none; stroke: #e0e0e0; stroke-opacity: 0.3; stroke-width: 0.8; stroke-linecap: square"/>
     </g>
     <g id="line2d_20">
      <g>
       <use xlink:href="#m6882ef019c" x="232.69498" y="228.96" style="stroke: #000000; stroke-width: 0.6"/>
      </g>
     </g>
    </g>
    <g id="xtick_11">
     <g id="line2d_21">
      <path d="M 256.863144 228.96 
L 256.863144 7.2 
" clip-path="url(#p6454e57155)" style="fill: none; stroke: #e0e0e0; stroke-opacity: 0.3; stroke-width: 0.8; stroke-linecap: square"/>
     </g>
     <g id="line2d_22">
      <g>
       <use xlink:href="#m6882ef019c" x="256.863144" y="228.96" style="stroke: #000000; stroke-width: 0.6"/>
      </g>
     </g>
    </g>
    <g id="xtick_12">
     <g id="line2d_23">
      <path d="M 275.609429 228.96 
L 275.609429 7.2 
" clip-path="url(#p6454e57155)" style="fill: none; stroke: #e0e0e0; stroke-opacity: 0.3; stroke-width: 0.8; stroke-linecap: square"/>
     </g>
     <g id="line2d_24">
      <g>
       <use xlink:href="#m6882ef019c" x="275.609429" y="228.96" style="stroke: #000000; stroke-width: 0.6"/>
      </g>
     </g>
    </g>
    <g id="xtick_13">
     <g id="line2d_25">
      <path d="M 290.926259 228.96 
L 290.926259 7.2 
" clip-path="url(#p6454e57155)" style="fill: none; stroke: #e0e0e0; stroke-opacity: 0.3; stroke-width: 0.8; stroke-linecap: square"/>
     </g>
     <g id="line2d_26">
      <g>
       <use xlink:href="#m6882ef019c" x="290.926259" y="228.96" style="stroke: #000000; stroke-width: 0.6"/>
      </g>
     </g>
    </g>
    <g id="xtick_14">
     <g id="line2d_27">
      <path d="M 303.876454 228.96 
L 303.876454 7.2 
" clip-path="url(#p6454e57155)" style="fill: none; stroke: #e0e0e0; stroke-opacity: 0.3; stroke-width: 0.8; stroke-linecap: square"/>
     </g>
     <g id="line2d_28">
      <g>
       <use xlink:href="#m6882ef019c" x="303.876454" y="228.96" style="stroke: #000000; stroke-width: 0.6"/>
      </g>
     </g>
    </g>
    <g id="xtick_15">
     <g id="line2d_29">
      <path d="M 315.094423 228.96 
L 315.094423 7.2 
" clip-path="url(#p6454e57155)" style="fill: none; stroke: #e0e0e0; stroke-opacity: 0.3; stroke-width: 0.8; stroke-linecap: square"/>
     </g>
     <g id="line2d_30">
      <g>
       <use xlink:href="#m6882ef019c" x="315.094423" y="228.96" style="stroke: #000000; stroke-width: 0.6"/>
      </g>
     </g>
    </g>
    <g id="xtick_16">
     <g id="line2d_31">
      <path d="M 324.989373 228.96 
L 324.989373 7.2 
" clip-path="url(#p6454e57155)" style="fill: none; stroke: #e0e0e0; stroke-opacity: 0.3; stroke-width: 0.8; stroke-linecap: square"/>
     </g>
     <g id="line2d_32">
      <g>
       <use xlink:href="#m6882ef019c" x="324.989373" y="228.96" style="stroke: #000000; stroke-width: 0.6"/>
      </g>
     </g>
    </g>
    <g id="text_3">
     <text style="font-size: 14px; font-family: 'Helvetica', 'Arial', sans-serif; text-anchor: middle" x="215.038125" y="258.780937" transform="rotate(-0 215.038125 258.780937)">Fetal SNR</text>
    </g>
   </g>
   <g id="matplotlib.axis_2">
    <g id="ytick_1">
     <g id="line2d_33">
      <path d="M 47.638125 181.976439 
L 382.438125 181.976439 
" clip-path="url(#p6454e57155)" style="fill: none; stroke: #e0e0e0; stroke-opacity: 0.7; stroke-width: 0.8; stroke-linecap: square"/>
     </g>
     <g id="line2d_34">
      <defs>
       <path id="mad5ea1f530" d="M 0 0 
L 4 0 
" style="stroke: #000000; stroke-width: 0.8"/>
      </defs>
      <g>
       <use xlink:href="#mad5ea1f530" x="47.638125" y="181.976439" style="stroke: #000000; stroke-width: 0.8"/>
      </g>
     </g>
     <g id="text_4">
      <!-- $\mathdefault{10^{-1}}$ -->
      <g transform="translate(24.338125 187.132689)">
       <text>
        <tspan x="0" y="-0.999375" style="font-size: 10px; font-family: 'Arial'">1</tspan>
        <tspan x="5.561523" y="-0.999375" style="font-size: 10px; font-family: 'Arial'">0</tspan>
        <tspan x="11.297281" y="-7.96875" style="font-size: 7px; font-family: 'Arial'">−</tspan>
        <tspan x="15.385172" y="-7.96875" style="font-size: 7px; font-family: 'Arial'">1</tspan>
       </text>
      </g>
     </g>
    </g>
    <g id="ytick_2">
     <g id="line2d_35">
      <path d="M 47.638125 30.847801 
L 382.438125 30.847801 
" clip-path="url(#p6454e57155)" style="fill: none; stroke: #e0e0e0; stroke-opacity: 0.7; stroke-width: 0.8; stroke-linecap: square"/>
     </g>
     <g id="line2d_36">
      <g>
       <use xlink:href="#mad5ea1f530" x="47.638125" y="30.847801" style="stroke: #000000; stroke-width: 0.8"/>
      </g>
     </g>
     <g id="text_5">
      <!-- $\mathdefault{10^{0}}$ -->
      <g transform="translate(28.438125 36.004051)">
       <text>
        <tspan x="0" y="-0.999375" style="font-size: 10px; font-family: 'Arial'">1</tspan>
        <tspan x="5.561523" y="-0.999375" style="font-size: 10px; font-family: 'Arial'">0</tspan>
        <tspan x="11.297281" y="-7.96875" style="font-size: 7px; font-family: 'Arial'">0</tspan>
       </text>
      </g>
     </g>
    </g>
    <g id="ytick_3">
     <g id="line2d_37">
      <path d="M 47.638125 227.470692 
L 382.438125 227.470692 
" clip-path="url(#p6454e57155)" style="fill: none; stroke: #e0e0e0; stroke-opacity: 0.3; stroke-width: 0.8; stroke-linecap: square"/>
     </g>
     <g id="line2d_38">
      <defs>
       <path id="mff4a857446" d="M 0 0 
L 2 0 
" style="stroke: #000000; stroke-width: 0.6"/>
      </defs>
      <g>
       <use xlink:href="#mff4a857446" x="47.638125" y="227.470692" style="stroke: #000000; stroke-width: 0.6"/>
      </g>
     </g>
    </g>
    <g id="ytick_4">
     <g id="line2d_39">
      <path d="M 47.638125 215.504138 
L 382.438125 215.504138 
" clip-path="url(#p6454e57155)" style="fill: none; stroke: #e0e0e0; stroke-opacity: 0.3; stroke-width: 0.8; stroke-linecap: square"/>
     </g>
     <g id="line2d_40">
      <g>
       <use xlink:href="#mff4a857446" x="47.638125" y="215.504138" style="stroke: #000000; stroke-width: 0.6"/>
      </g>
     </g>
    </g>
    <g id="ytick_5">
     <g id="line2d_41">
      <path d="M 47.638125 205.386561 
L 382.438125 205.386561 
" clip-path="url(#p6454e57155)" style="fill: none; stroke: #e0e0e0; stroke-opacity: 0.3; stroke-width: 0.8; stroke-linecap: square"/>
     </g>
     <g id="line2d_42">
      <g>
       <use xlink:href="#mff4a857446" x="47.638125" y="205.386561" style="stroke: #000000; stroke-width: 0.6"/>
      </g>
     </g>
    </g>
    <g id="ytick_6">
     <g id="line2d_43">
      <path d="M 47.638125 196.622317 
L 382.438125 196.622317 
" clip-path="url(#p6454e57155)" style="fill: none; stroke: #e0e0e0; stroke-opacity: 0.3; stroke-width: 0.8; stroke-linecap: square"/>
     </g>
     <g id="line2d_44">
      <g>
       <use xlink:href="#mff4a857446" x="47.638125" y="196.622317" style="stroke: #000000; stroke-width: 0.6"/>
      </g>
     </g>
    </g>
    <g id="ytick_7">
     <g id="line2d_45">
      <path d="M 47.638125 188.891706 
L 382.438125 188.891706 
" clip-path="url(#p6454e57155)" style="fill: none; stroke: #e0e0e0; stroke-opacity: 0.3; stroke-width: 0.8; stroke-linecap: square"/>
     </g>
     <g id="line2d_46">
      <g>
       <use xlink:href="#mff4a857446" x="47.638125" y="188.891706" style="stroke: #000000; stroke-width: 0.6"/>
      </g>
     </g>
    </g>
    <g id="ytick_8">
     <g id="line2d_47">
      <path d="M 47.638125 136.482186 
L 382.438125 136.482186 
" clip-path="url(#p6454e57155)" style="fill: none; stroke: #e0e0e0; stroke-opacity: 0.3; stroke-width: 0.8; stroke-linecap: square"/>
     </g>
     <g id="line2d_48">
      <g>
       <use xlink:href="#mff4a857446" x="47.638125" y="136.482186" style="stroke: #000000; stroke-width: 0.6"/>
      </g>
     </g>
    </g>
    <g id="ytick_9">
     <g id="line2d_49">
      <path d="M 47.638125 109.869754 
L 382.438125 109.869754 
" clip-path="url(#p6454e57155)" style="fill: none; stroke: #e0e0e0; stroke-opacity: 0.3; stroke-width: 0.8; stroke-linecap: square"/>
     </g>
     <g id="line2d_50">
      <g>
       <use xlink:href="#mff4a857446" x="47.638125" y="109.869754" style="stroke: #000000; stroke-width: 0.6"/>
      </g>
     </g>
    </g>
    <g id="ytick_10">
     <g id="line2d_51">
      <path d="M 47.638125 90.987933 
L 382.438125 90.987933 
" clip-path="url(#p6454e57155)" style="fill: none; stroke: #e0e0e0; stroke-opacity: 0.3; stroke-width: 0.8; stroke-linecap: square"/>
     </g>
     <g id="line2d_52">
      <g>
       <use xlink:href="#mff4a857446" x="47.638125" y="90.987933" style="stroke: #000000; stroke-width: 0.6"/>
      </g>
     </g>
    </g>
    <g id="ytick_11">
     <g id="line2d_53">
      <path d="M 47.638125 76.342054 
L 382.438125 76.342054 
" clip-path="url(#p6454e57155)" style="fill: none; stroke: #e0e0e0; stroke-opacity: 0.3; stroke-width: 0.8; stroke-linecap: square"/>
     </g>
     <g id="line2d_54">
      <g>
       <use xlink:href="#mff4a857446" x="47.638125" y="76.342054" style="stroke: #000000; stroke-width: 0.6"/>
      </g>
     </g>
    </g>
    <g id="ytick_12">
     <g id="line2d_55">
      <path d="M 47.638125 64.375501 
L 382.438125 64.375501 
" clip-path="url(#p6454e57155)" style="fill: none; stroke: #e0e0e0; stroke-opacity: 0.3; stroke-width: 0.8; stroke-linecap: square"/>
     </g>
     <g id="line2d_56">
      <g>
       <use xlink:href="#mff4a857446" x="47.638125" y="64.375501" style="stroke: #000000; stroke-width: 0.6"/>
      </g>
     </g>
    </g>
    <g id="ytick_13">
     <g id="line2d_57">
      <path d="M 47.638125 54.257924 
L 382.438125 54.257924 
" clip-path="url(#p6454e57155)" style="fill: none; stroke: #e0e0e0; stroke-opacity: 0.3; stroke-width: 0.8; stroke-linecap: square"/>
     </g>
     <g id="line2d_58">
      <g>
       <use xlink:href="#mff4a857446" x="47.638125" y="54.257924" style="stroke: #000000; stroke-width: 0.6"/>
      </g>
     </g>
    </g>
    <g id="ytick_14">
     <g id="line2d_59">
      <path d="M 47.638125 45.49368 
L 382.438125 45.49368 
" clip-path="url(#p6454e57155)" style="fill: none; stroke: #e0e0e0; stroke-opacity: 0.3; stroke-width: 0.8; stroke-linecap: square"/>
     </g>
     <g id="line2d_60">
      <g>
       <use xlink:href="#mff4a857446" x="47.638125" y="45.49368" style="stroke: #000000; stroke-width: 0.6"/>
      </g>
     </g>
    </g>
    <g id="ytick_15">
     <g id="line2d_61">
      <path d="M 47.638125 37.763069 
L 382.438125 37.763069 
" clip-path="url(#p6454e57155)" style="fill: none; stroke: #e0e0e0; stroke-opacity: 0.3; stroke-width: 0.8; stroke-linecap: square"/>
     </g>
     <g id="line2d_62">
      <g>
       <use xlink:href="#mff4a857446" x="47.638125" y="37.763069" style="stroke: #000000; stroke-width: 0.6"/>
      </g>
     </g>
    </g>
    <g id="text_6">
     <text style="font-size: 14px; font-family: 'Helvetica', 'Arial', sans-serif; text-anchor: middle" x="17.391563" y="118.08" transform="rotate(-90 17.391563 118.08)">Fetal Selectivity</text>
    </g>
   </g>
   <g id="line2d_63">
    <path d="M 363.458582 17.28 
L 269.159209 52.336979 
L 138.191608 100.744784 
" clip-path="url(#p6454e57155)" style="fill: none; stroke: #2d3047; stroke-width: 1.6; stroke-linecap: square"/>
    <defs>
     <path id="m3dea982a63" d="M -3 3 
L 3 3 
L 3 -3 
L -3 -3 
z
" style="stroke: #ffffff; stroke-width: 0.5; stroke-linejoin: miter"/>
    </defs>
    <g clip-path="url(#p6454e57155)">
     <use xlink:href="#m3dea982a63" x="363.458582" y="17.28" style="fill: #2d3047; stroke: #ffffff; stroke-width: 0.5; stroke-linejoin: miter"/>
     <use xlink:href="#m3dea982a63" x="269.159209" y="52.336979" style="fill: #2d3047; stroke: #ffffff; stroke-width: 0.5; stroke-linejoin: miter"/>
     <use xlink:href="#m3dea982a63" x="138.191608" y="100.744784" style="fill: #2d3047; stroke: #ffffff; stroke-width: 0.5; stroke-linejoin: miter"/>
    </g>
   </g>
   <g id="line2d_64">
    <path d="M 367.219943 32.140448 
L 271.61894 61.774316 
L 142.151938 110.389546 
" clip-path="url(#p6454e57155)" style="fill: none; stroke-dasharray: 5.92,2.56; stroke-dashoffset: 0; stroke: #d1345b; stroke-width: 1.6"/>
    <defs>
     <path id="md60f4cde03" d="M 0 3 
C 0.795609 3 1.55874 2.683901 2.12132 2.12132 
C 2.683901 1.55874 3 0.795609 3 0 
C 3 -0.795609 2.683901 -1.55874 2.12132 -2.12132 
C 1.55874 -2.683901 0.795609 -3 0 -3 
C -0.795609 -3 -1.55874 -2.683901 -2.12132 -2.12132 
C -2.683901 -1.55874 -3 -0.795609 -3 0 
C -3 0.795609 -2.683901 1.55874 -2.12132 2.12132 
C -1.55874 2.683901 -0.795609 3 0 3 
z
" style="stroke: #ffffff; stroke-width: 0.5"/>
    </defs>
    <g clip-path="url(#p6454e57155)">
     <use xlink:href="#md60f4cde03" x="367.219943" y="32.140448" style="fill: #d1345b; stroke: #ffffff; stroke-width: 0.5"/>
     <use xlink:href="#md60f4cde03" x="271.61894" y="61.774316" style="fill: #d1345b; stroke: #ffffff; stroke-width: 0.5"/>
     <use xlink:href="#md60f4cde03" x="142.151938" y="110.389546" style="fill: #d1345b; stroke: #ffffff; stroke-width: 0.5"/>
    </g>
   </g>
   <g id="line2d_65">
    <path d="M 327.547298 54.857595 
L 229.787234 94.013361 
L 62.856307 218.88 
" clip-path="url(#p6454e57155)" style="fill: none; stroke-dasharray: 1.6,2.64; stroke-dashoffset: 0; stroke: #ff9b71; stroke-width: 1.6"/>
    <defs>
     <path id="m900c9481a9" d="M 0 -3 
L -3 3 
L 3 3 
z
" style="stroke: #ffffff; stroke-width: 0.5; stroke-linejoin: miter"/>
    </defs>
    <g clip-path="url(#p6454e57155)">
     <use xlink:href="#m900c9481a9" x="327.547298" y="54.857595" style="fill: #ff9b71; stroke: #ffffff; stroke-width: 0.5; stroke-linejoin: miter"/>
     <use xlink:href="#m900c9481a9" x="229.787234" y="94.013361" style="fill: #ff9b71; stroke: #ffffff; stroke-width: 0.5; stroke-linejoin: miter"/>
     <use xlink:href="#m900c9481a9" x="62.856307" y="218.88" style="fill: #ff9b71; stroke: #ffffff; stroke-width: 0.5; stroke-linejoin: miter"/>
    </g>
   </g>
   <g id="patch_3">
    <path d="M 47.638125 228.96 
L 47.638125 7.2 
" style="fill: none; stroke: #000000; stroke-width: 0.8; stroke-linejoin: miter; stroke-linecap: square"/>
   </g>
   <g id="patch_4">
    <path d="M 382.438125 228.96 
L 382.438125 7.2 
" style="fill: none; stroke: #000000; stroke-width: 0.8; stroke-linejoin: miter; stroke-linecap: square"/>
   </g>
   <g id="patch_5">
    <path d="M 47.638125 228.96 
L 382.438125 228.96 
" style="fill: none; stroke: #000000; stroke-width: 0.8; stroke-linejoin: miter; stroke-linecap: square"/>
   </g>
   <g id="patch_6">
    <path d="M 47.638125 7.2 
L 382.438125 7.2 
" style="fill: none; stroke: #000000; stroke-width: 0.8; stroke-linejoin: miter; stroke-linecap: square"/>
   </g>
   <g id="text_7">
    <g id="patch_7">
     <path d="M 368.458582 14.72125 
L 389.464051 14.72125 
Q 390.514051 14.72125 390.514051 13.67125 
L 390.514051 7.269531 
Q 390.514051 6.219531 389.464051 6.219531 
L 368.458582 6.219531 
Q 367.408582 6.219531 367.408582 7.269531 
L 367.408582 13.67125 
Q 367.408582 14.72125 368.458582 14.72125 
z
" style="fill: #d3d3d3; opacity: 0.7"/>
    </g>
    <text style="font-size: 7px; font-family: 'Helvetica', 'Arial', sans-serif; text-anchor: start; opacity: 0.7" x="368.458582" y="12.28" transform="rotate(-0 368.458582 12.28)">0.6 cm</text>
   </g>
   <g id="text_8">
    <g id="patch_8">
     <path d="M 274.159209 49.778229 
L 295.164678 49.778229 
Q 296.214678 49.778229 296.214678 48.728229 
L 296.214678 42.32651 
Q 296.214678 41.27651 295.164678 41.27651 
L 274.159209 41.27651 
Q 273.109209 41.27651 273.109209 42.32651 
L 273.109209 48.728229 
Q 273.109209 49.778229 274.159209 49.778229 
z
" style="fill: #d3d3d3; opacity: 0.7"/>
    </g>
    <text style="font-size: 7px; font-family: 'Helvetica', 'Arial', sans-serif; text-anchor: start; opacity: 0.7" x="274.159209" y="47.336979" transform="rotate(-0 274.159209 47.336979)">1.2 cm</text>
   </g>
   <g id="text_9">
    <g id="patch_9">
     <path d="M 143.191608 98.186034 
L 164.197077 98.186034 
Q 165.247077 98.186034 165.247077 97.136034 
L 165.247077 90.734315 
Q 165.247077 89.684315 164.197077 89.684315 
L 143.191608 89.684315 
Q 142.141608 89.684315 142.141608 90.734315 
L 142.141608 97.136034 
Q 142.141608 98.186034 143.191608 98.186034 
z
" style="fill: #d3d3d3; opacity: 0.7"/>
    </g>
    <text style="font-size: 7px; font-family: 'Helvetica', 'Arial', sans-serif; text-anchor: start; opacity: 0.7" x="143.191608" y="95.744784" transform="rotate(-0 143.191608 95.744784)">1.8 cm</text>
   </g>
   <g id="text_10">
    <g id="patch_10">
     <path d="M 372.219943 29.581698 
L 393.225412 29.581698 
Q 394.275412 29.581698 394.275412 28.531698 
L 394.275412 22.12998 
Q 394.275412 21.07998 393.225412 21.07998 
L 372.219943 21.07998 
Q 371.169943 21.07998 371.169943 22.12998 
L 371.169943 28.531698 
Q 371.169943 29.581698 372.219943 29.581698 
z
" style="fill: #d3d3d3; opacity: 0.7"/>
    </g>
    <text style="font-size: 7px; font-family: 'Helvetica', 'Arial', sans-serif; text-anchor: start; opacity: 0.7" x="372.219943" y="27.140448" transform="rotate(-0 372.219943 27.140448)">0.6 cm</text>
   </g>
   <g id="text_11">
    <g id="patch_11">
     <path d="M 276.61894 59.215566 
L 297.624409 59.215566 
Q 298.674409 59.215566 298.674409 58.165566 
L 298.674409 51.763847 
Q 298.674409 50.713847 297.624409 50.713847 
L 276.61894 50.713847 
Q 275.56894 50.713847 275.56894 51.763847 
L 275.56894 58.165566 
Q 275.56894 59.215566 276.61894 59.215566 
z
" style="fill: #d3d3d3; opacity: 0.7"/>
    </g>
    <text style="font-size: 7px; font-family: 'Helvetica', 'Arial', sans-serif; text-anchor: start; opacity: 0.7" x="276.61894" y="56.774316" transform="rotate(-0 276.61894 56.774316)">1.2 cm</text>
   </g>
   <g id="text_12">
    <g id="patch_12">
     <path d="M 147.151938 107.830796 
L 168.157406 107.830796 
Q 169.207406 107.830796 169.207406 106.780796 
L 169.207406 100.379077 
Q 169.207406 99.329077 168.157406 99.329077 
L 147.151938 99.329077 
Q 146.101938 99.329077 146.101938 100.379077 
L 146.101938 106.780796 
Q 146.101938 107.830796 147.151938 107.830796 
z
" style="fill: #d3d3d3; opacity: 0.7"/>
    </g>
    <text style="font-size: 7px; font-family: 'Helvetica', 'Arial', sans-serif; text-anchor: start; opacity: 0.7" x="147.151938" y="105.389546" transform="rotate(-0 147.151938 105.389546)">1.8 cm</text>
   </g>
   <g id="text_13">
    <g id="patch_13">
     <path d="M 332.547298 52.298845 
L 353.552767 52.298845 
Q 354.602767 52.298845 354.602767 51.248845 
L 354.602767 44.847126 
Q 354.602767 43.797126 353.552767 43.797126 
L 332.547298 43.797126 
Q 331.497298 43.797126 331.497298 44.847126 
L 331.497298 51.248845 
Q 331.497298 52.298845 332.547298 52.298845 
z
" style="fill: #d3d3d3; opacity: 0.7"/>
    </g>
    <text style="font-size: 7px; font-family: 'Helvetica', 'Arial', sans-serif; text-anchor: start; opacity: 0.7" x="332.547298" y="49.857595" transform="rotate(-0 332.547298 49.857595)">0.6 cm</text>
   </g>
   <g id="text_14">
    <g id="patch_14">
     <path d="M 234.787234 91.454611 
L 255.792703 91.454611 
Q 256.842703 91.454611 256.842703 90.404611 
L 256.842703 84.002892 
Q 256.842703 82.952892 255.792703 82.952892 
L 234.787234 82.952892 
Q 233.737234 82.952892 233.737234 84.002892 
L 233.737234 90.404611 
Q 233.737234 91.454611 234.787234 91.454611 
z
" style="fill: #d3d3d3; opacity: 0.7"/>
    </g>
    <text style="font-size: 7px; font-family: 'Helvetica', 'Arial', sans-serif; text-anchor: start; opacity: 0.7" x="234.787234" y="89.013361" transform="rotate(-0 234.787234 89.013361)">1.2 cm</text>
   </g>
   <g id="text_15">
    <g id="patch_15">
     <path d="M 67.856307 216.32125 
L 88.861776 216.32125 
Q 89.911776 216.32125 89.911776 215.27125 
L 89.911776 208.869531 
Q 89.911776 207.819531 88.861776 207.819531 
L 67.856307 207.819531 
Q 66.806307 207.819531 66.806307 208.869531 
L 66.806307 215.27125 
Q 66.806307 216.32125 67.856307 216.32125 
z
" style="fill: #d3d3d3; opacity: 0.7"/>
    </g>
    <text style="font-size: 7px; font-family: 'Helvetica', 'Arial', sans-serif; text-anchor: start; opacity: 0.7" x="67.856307" y="213.88" transform="rotate(-0 67.856307 213.88)">1.8 cm</text>
   </g>
   <g id="legend_1">
    <g id="patch_16">
     <path d="M 54.638125 57.635937 
L 124.438125 57.635937 
Q 126.438125 57.635937 126.438125 55.635937 
L 126.438125 14.2 
Q 126.438125 12.2 124.438125 12.2 
L 54.638125 12.2 
Q 52.638125 12.2 52.638125 14.2 
L 52.638125 55.635937 
Q 52.638125 57.635937 54.638125 57.635937 
z
" style="fill: #ffffff; opacity: 0.8"/>
    </g>
    <g id="line2d_66">
     <path d="M 56.638125 19.857812 
L 66.638125 19.857812 
L 76.638125 19.857812 
" style="fill: none; stroke: #2d3047; stroke-width: 1.6; stroke-linecap: square"/>
     <g>
      <use xlink:href="#m3dea982a63" x="66.638125" y="19.857812" style="fill: #2d3047; stroke: #ffffff; stroke-width: 0.5; stroke-linejoin: miter"/>
     </g>
    </g>
    <g id="text_16">
     <text style="font-size: 10px; font-family: 'Helvetica', 'Arial', sans-serif; text-anchor: start" x="84.638125" y="23.357812" transform="rotate(-0 84.638125 23.357812)">DIGSS</text>
    </g>
    <g id="line2d_67">
     <path d="M 56.638125 34.003125 
L 66.638125 34.003125 
L 76.638125 34.003125 
" style="fill: none; stroke-dasharray: 5.92,2.56; stroke-dashoffset: 0; stroke: #d1345b; stroke-width: 1.6"/>
     <g>
      <use xlink:href="#md60f4cde03" x="66.638125" y="34.003125" style="fill: #d1345b; stroke: #ffffff; stroke-width: 0.5"/>
     </g>
    </g>
    <g id="text_17">
     <text style="font-size: 10px; font-family: 'Helvetica', 'Arial', sans-serif; text-anchor: start" x="84.638125" y="37.503125" transform="rotate(-0 84.638125 37.503125)">Liu et al.</text>
    </g>
    <g id="line2d_68">
     <path d="M 56.638125 48.148437 
L 66.638125 48.148437 
L 76.638125 48.148437 
" style="fill: none; stroke-dasharray: 1.6,2.64; stroke-dashoffset: 0; stroke: #ff9b71; stroke-width: 1.6"/>
     <g>
      <use xlink:href="#m900c9481a9" x="66.638125" y="48.148437" style="fill: #ff9b71; stroke: #ffffff; stroke-width: 0.5; stroke-linejoin: miter"/>
     </g>
    </g>
    <g id="text_18">
     <text style="font-size: 10px; font-family: 'Helvetica', 'Arial', sans-serif; text-anchor: start" x="84.638125" y="51.648437" transform="rotate(-0 84.638125 51.648437)">CW</text>
    </g>
   </g>
  </g>
 </g>
 <defs>
  <clipPath id="p6454e57155">
   <rect x="47.638125" y="7.2" width="334.8" height="221.76"/>
  </clipPath>
 </defs>
</svg>
