<?xml version="1.0" encoding="utf-8" standalone="no"?>
<!DOCTYPE svg PUBLIC "-//W3C//DTD SVG 1.1//EN"
  "http://www.w3.org/Graphics/SVG/1.1/DTD/svg11.dtd">
<svg xmlns:xlink="http://www.w3.org/1999/xlink" width="564.48pt" height="202.365636pt" viewBox="0 0 564.48 202.365636" xmlns="http://www.w3.org/2000/svg" version="1.1">
 <metadata>
  <rdf:RDF xmlns:dc="http://purl.org/dc/elements/1.1/" xmlns:cc="http://creativecommons.org/ns#" xmlns:rdf="http://www.w3.org/1999/02/22-rdf-syntax-ns#">
   <cc:Work>
    <dc:type rdf:resource="http://purl.org/dc/dcmitype/StillImage"/>
    <dc:date>2026-04-22T13:05:56.568955</dc:date>
    <dc:format>image/svg+xml</dc:format>
    <dc:creator>
     <cc:Agent>
      <dc:title>Matplotlib v3.10.8, https://matplotlib.org/</dc:title>
     </cc:Agent>
    </dc:creator>
   </cc:Work>
  </rdf:RDF>
 </metadata>
 <defs>
  <style type="text/css">*{stroke-linejoin: round; stroke-linecap: butt}</style>
 </defs>
 <g id="figure_1">
  <g id="patch_1">
   <path d="M 0 202.365636 
L 564.48 202.365636 
L 564.48 0 
L 0 0 
z
" style="fill: #ffffff"/>
  </g>
  <g id="axes_1">
   <g id="patch_2">
    <path d="M 18.695823 25.895287 
L 248.612281 25.895287 
L 248.612281 158.221385 
L 18.695823 158.221385 
z
" clip-path="url(#pae16761764)" style="fill: #ffebeb; stroke: #ddb3b3; stroke-width: 1.5; stroke-linejoin: miter"/>
   </g>
   <g id="line2d_1">
    <path d="M 41.687469 25.895287 
L 89.747564 41.552448 
L 133.654052 61.984223 
L 150.910554 59.191278 
L 174.488127 54.546501 
L 187.836763 46.300726 
L 204.073403 35.199508 
L 217.463151 32.712808 
L 225.620636 25.895287 
" clip-path="url(#pae16761764)" style="fill: none; stroke: #001aff; stroke-width: 1.8; stroke-linecap: square"/>
   </g>
   <g id="line2d_2">
    <path d="M 41.687469 25.895287 
L 62.010136 42.157188 
L 69.173792 51.106647 
L 97.541311 58.317306 
L 92.606531 71.446386 
L 114.678379 85.362575 
L 133.654052 98.073159 
L 146.021874 86.322932 
L 165.173917 76.314495 
L 174.650633 59.499056 
L 194.610487 51.043355 
L 206.635909 34.312152 
L 225.620636 25.895287 
" clip-path="url(#pae16761764)" style="fill: none; stroke: #641a9b; stroke-width: 1.8; stroke-linecap: square"/>
   </g>
   <g id="line2d_3">
    <path d="M 41.687469 25.895287 
L 59.342582 32.868688 
L 76.696482 37.828949 
L 95.909785 58.424149 
L 100.095581 67.201545 
L 117.396174 81.514952 
L 121.949694 97.700946 
L 128.846627 108.557247 
L 133.654052 122.132449 
L 148.29787 113.041793 
L 158.98694 96.442454 
L 169.314267 79.962756 
L 184.933802 60.178643 
L 199.077553 45.151229 
L 204.512609 37.664335 
L 218.200403 32.557829 
L 225.620636 25.895287 
" clip-path="url(#pae16761764)" style="fill: none; stroke: #971a68; stroke-width: 1.8; stroke-linecap: square"/>
   </g>
   <g id="line2d_4">
    <path d="M 41.687469 25.895287 
L 37.320648 34.525318 
L 45.798553 44.592754 
L 65.037093 57.149959 
L 79.632971 63.914132 
L 85.238581 75.149515 
L 95.874869 86.668174 
L 108.966138 107.754039 
L 120.742418 114.613316 
L 125.565668 131.628719 
L 133.654052 146.19174 
L 151.464418 138.282827 
L 161.792664 116.42409 
L 157.514167 110.735919 
L 154.635333 105.517268 
L 161.408182 91.700752 
L 171.273435 83.11579 
L 176.753553 69.520395 
L 187.599681 63.357045 
L 210.395718 44.310869 
L 225.620636 25.895287 
" clip-path="url(#pae16761764)" style="fill: none; stroke: #ff1a00; stroke-width: 1.8; stroke-linecap: square"/>
   </g>
   <g id="patch_3">
    <path d="M 41.687469 25.895287 
Q 65.717517 33.723868 89.216043 41.379288 
" style="fill: none; stroke: #001aff; stroke-width: 0.5; stroke-linecap: round"/>
    <path d="M 85.395553 37.610487 
L 89.216043 41.379288 
L 83.908708 42.174399 
z
" style="fill: #001aff; stroke: #001aff; stroke-width: 0.5; stroke-linecap: round"/>
   </g>
   <g id="patch_4">
    <path d="M 89.747564 41.552448 
Q 111.700808 51.768336 133.147224 61.748372 
" style="fill: none; stroke: #001aff; stroke-width: 0.5; stroke-linecap: round"/>
    <path d="M 129.807915 57.547299 
L 133.147224 61.748372 
L 127.782781 61.899175 
z
" style="fill: #001aff; stroke: #001aff; stroke-width: 0.5; stroke-linecap: round"/>
   </g>
   <g id="patch_5">
    <path d="M 133.654052 61.984223 
Q 142.282303 60.58775 150.358718 59.280592 
" style="fill: none; stroke: #001aff; stroke-width: 0.5; stroke-linecap: round"/>
    <path d="M 145.23693 57.678316 
L 150.358718 59.280592 
L 146.003825 62.416657 
z
" style="fill: #001aff; stroke: #001aff; stroke-width: 0.5; stroke-linecap: round"/>
   </g>
   <g id="patch_6">
    <path d="M 150.910554 59.191278 
Q 162.699341 56.868889 173.939652 54.65455 
" style="fill: none; stroke: #001aff; stroke-width: 0.5; stroke-linecap: round"/>
    <path d="M 168.766283 53.227575 
L 173.939652 54.65455 
L 169.694051 57.93706 
z
" style="fill: #001aff; stroke: #001aff; stroke-width: 0.5; stroke-linecap: round"/>
   </g>
   <g id="patch_7">
    <path d="M 174.488127 54.546501 
Q 181.162445 50.423613 187.361169 46.594512 
" style="fill: none; stroke: #001aff; stroke-width: 0.5; stroke-linecap: round"/>
    <path d="M 182.016182 47.075261 
L 187.361169 46.594512 
L 184.538776 51.15895 
z
" style="fill: #001aff; stroke: #001aff; stroke-width: 0.5; stroke-linecap: round"/>
   </g>
   <g id="patch_8">
    <path d="M 187.836763 46.300726 
Q 195.955083 40.750117 203.611936 35.51502 
" style="fill: none; stroke: #001aff; stroke-width: 0.5; stroke-linecap: round"/>
    <path d="M 198.294973 36.242966 
L 203.611936 35.51502 
L 201.004115 40.205358 
z
" style="fill: #001aff; stroke: #001aff; stroke-width: 0.5; stroke-linecap: round"/>
   </g>
   <g id="patch_9">
    <path d="M 204.073403 35.199508 
Q 210.768277 33.956158 216.913532 32.814881 
" style="fill: none; stroke: #001aff; stroke-width: 0.5; stroke-linecap: round"/>
    <path d="M 211.756001 31.331683 
L 216.913532 32.814881 
L 212.632455 36.050987 
z
" style="fill: #001aff; stroke: #001aff; stroke-width: 0.5; stroke-linecap: round"/>
   </g>
   <g id="patch_10">
    <path d="M 217.463151 32.712808 
Q 221.541893 29.304047 225.191695 26.253769 
" style="fill: none; stroke: #001aff; stroke-width: 0.5; stroke-linecap: round"/>
    <path d="M 219.969537 27.490327 
L 225.191695 26.253769 
L 223.047646 31.17343 
z
" style="fill: #001aff; stroke: #001aff; stroke-width: 0.5; stroke-linecap: round"/>
   </g>
   <g id="patch_11">
    <path d="M 41.687469 25.895287 
Q 51.848802 34.026237 61.573657 41.807923 
" style="fill: none; stroke: #641a9b; stroke-width: 0.5; stroke-linecap: round"/>
    <path d="M 59.325305 36.935048 
L 61.573657 41.807923 
L 56.326345 40.682879 
z
" style="fill: #641a9b; stroke: #641a9b; stroke-width: 0.5; stroke-linecap: round"/>
   </g>
   <g id="patch_12">
    <path d="M 62.010136 42.157188 
Q 65.591964 46.631917 68.824455 50.670225 
" style="fill: none; stroke: #641a9b; stroke-width: 0.5; stroke-linecap: round"/>
    <path d="M 67.698542 45.4231 
L 68.824455 50.670225 
L 63.951207 48.42268 
z
" style="fill: #641a9b; stroke: #641a9b; stroke-width: 0.5; stroke-linecap: round"/>
   </g>
   <g id="patch_13">
    <path d="M 69.173792 51.106647 
Q 83.357551 54.711977 96.999523 58.179591 
" style="fill: none; stroke: #641a9b; stroke-width: 0.5; stroke-linecap: round"/>
    <path d="M 92.938706 54.671063 
L 96.999523 58.179591 
L 91.756211 59.323128 
z
" style="fill: #641a9b; stroke: #641a9b; stroke-width: 0.5; stroke-linecap: round"/>
   </g>
   <g id="patch_14">
    <path d="M 97.541311 58.317306 
Q 95.073921 64.881846 92.803212 70.923111 
" style="fill: none; stroke: #641a9b; stroke-width: 0.5; stroke-linecap: round"/>
    <path d="M 96.738567 67.274415 
L 92.803212 70.923111 
L 92.245468 65.58561 
z
" style="fill: #641a9b; stroke: #641a9b; stroke-width: 0.5; stroke-linecap: round"/>
   </g>
   <g id="patch_15">
    <path d="M 92.606531 71.446386 
Q 103.642455 78.40448 114.205505 85.06443 
" style="fill: none; stroke: #641a9b; stroke-width: 0.5; stroke-linecap: round"/>
    <path d="M 111.425182 80.474245 
L 114.205505 85.06443 
L 108.865163 84.534577 
z
" style="fill: #641a9b; stroke: #641a9b; stroke-width: 0.5; stroke-linecap: round"/>
   </g>
   <g id="patch_16">
    <path d="M 114.678379 85.362575 
Q 124.166215 91.717867 133.189602 97.762054 
" style="fill: none; stroke: #641a9b; stroke-width: 0.5; stroke-linecap: round"/>
    <path d="M 130.537256 93.09675 
L 133.189602 97.762054 
L 127.865951 97.084749 
z
" style="fill: #641a9b; stroke: #641a9b; stroke-width: 0.5; stroke-linecap: round"/>
   </g>
   <g id="patch_17">
    <path d="M 133.654052 98.073159 
Q 139.837963 92.198045 145.6166 86.707968 
" style="fill: none; stroke: #641a9b; stroke-width: 0.5; stroke-linecap: round"/>
    <path d="M 140.483657 88.274141 
L 145.6166 86.707968 
L 143.789772 91.754026 
z
" style="fill: #641a9b; stroke: #641a9b; stroke-width: 0.5; stroke-linecap: round"/>
   </g>
   <g id="patch_18">
    <path d="M 146.021874 86.322932 
Q 155.597895 81.318713 164.678472 76.573404 
" style="fill: none; stroke: #641a9b; stroke-width: 0.5; stroke-linecap: round"/>
    <path d="M 159.312768 76.669454 
L 164.678472 76.573404 
L 161.53589 80.923596 
z
" style="fill: #641a9b; stroke: #641a9b; stroke-width: 0.5; stroke-linecap: round"/>
   </g>
   <g id="patch_19">
    <path d="M 165.173917 76.314495 
Q 169.912275 67.906775 174.376172 59.986059 
" style="fill: none; stroke: #641a9b; stroke-width: 0.5; stroke-linecap: round"/>
    <path d="M 169.92869 62.989374 
L 174.376172 59.986059 
L 174.110335 65.346033 
z
" style="fill: #641a9b; stroke: #641a9b; stroke-width: 0.5; stroke-linecap: round"/>
   </g>
   <g id="patch_20">
    <path d="M 174.650633 59.499056 
Q 184.63056 55.271205 194.095754 51.261414 
" style="fill: none; stroke: #641a9b; stroke-width: 0.5; stroke-linecap: round"/>
    <path d="M 188.739815 50.923901 
L 194.095754 51.261414 
L 190.61218 55.343658 
z
" style="fill: #641a9b; stroke: #641a9b; stroke-width: 0.5; stroke-linecap: round"/>
   </g>
   <g id="patch_21">
    <path d="M 194.610487 51.043355 
Q 200.623198 42.677753 206.309649 34.766084 
" style="fill: none; stroke: #641a9b; stroke-width: 0.5; stroke-linecap: round"/>
    <path d="M 201.559371 37.263056 
L 206.309649 34.766084 
L 205.45706 40.064489 
z
" style="fill: #641a9b; stroke: #641a9b; stroke-width: 0.5; stroke-linecap: round"/>
   </g>
   <g id="patch_22">
    <path d="M 206.635909 34.312152 
Q 216.128272 30.10372 225.109592 26.121858 
" style="fill: none; stroke: #641a9b; stroke-width: 0.5; stroke-linecap: round"/>
    <path d="M 219.748789 25.87327 
L 225.109592 26.121858 
L 221.69424 30.261347 
z
" style="fill: #641a9b; stroke: #641a9b; stroke-width: 0.5; stroke-linecap: round"/>
   </g>
   <g id="patch_23">
    <path d="M 41.687469 25.895287 
Q 50.515025 29.381988 58.822652 32.663327 
" style="fill: none; stroke: #971a68; stroke-width: 0.5; stroke-linecap: round"/>
    <path d="M 55.239944 28.667804 
L 58.822652 32.663327 
L 53.476609 33.13218 
z
" style="fill: #971a68; stroke: #971a68; stroke-width: 0.5; stroke-linecap: round"/>
   </g>
   <g id="patch_24">
    <path d="M 59.342582 32.868688 
Q 68.019532 35.348819 76.15899 37.675318 
" style="fill: none; stroke: #971a68; stroke-width: 0.5; stroke-linecap: round"/>
    <path d="M 72.203393 34.048577 
L 76.15899 37.675318 
L 70.884239 38.663751 
z
" style="fill: #971a68; stroke: #971a68; stroke-width: 0.5; stroke-linecap: round"/>
   </g>
   <g id="patch_25">
    <path d="M 76.696482 37.828949 
Q 86.303133 48.126549 95.528451 58.015389 
" style="fill: none; stroke: #971a68; stroke-width: 0.5; stroke-linecap: round"/>
    <path d="M 94.009043 52.868409 
L 95.528451 58.015389 
L 90.499223 56.142728 
z
" style="fill: #971a68; stroke: #971a68; stroke-width: 0.5; stroke-linecap: round"/>
   </g>
   <g id="patch_26">
    <path d="M 95.909785 58.424149 
Q 98.002683 62.812847 99.854955 66.696967 
" style="fill: none; stroke: #971a68; stroke-width: 0.5; stroke-linecap: round"/>
    <path d="M 99.955109 61.331338 
L 99.854955 66.696967 
L 95.622545 63.397467 
z
" style="fill: #971a68; stroke: #971a68; stroke-width: 0.5; stroke-linecap: round"/>
   </g>
   <g id="patch_27">
    <path d="M 100.095581 67.201545 
Q 108.745878 74.358249 116.965458 81.158605 
" style="fill: none; stroke: #971a68; stroke-width: 0.5; stroke-linecap: round"/>
    <path d="M 114.796999 76.249656 
L 116.965458 81.158605 
L 111.737223 79.948002 
z
" style="fill: #971a68; stroke: #971a68; stroke-width: 0.5; stroke-linecap: round"/>
   </g>
   <g id="patch_28">
    <path d="M 117.396174 81.514952 
Q 119.672934 89.607949 121.798305 97.162818 
" style="fill: none; stroke: #971a68; stroke-width: 0.5; stroke-linecap: round"/>
    <path d="M 122.808724 91.892234 
L 121.798305 97.162818 
L 118.18809 93.192133 
z
" style="fill: #971a68; stroke: #971a68; stroke-width: 0.5; stroke-linecap: round"/>
   </g>
   <g id="patch_29">
    <path d="M 121.949694 97.700946 
Q 125.398161 103.129096 128.546864 108.085397 
" style="fill: none; stroke: #971a68; stroke-width: 0.5; stroke-linecap: round"/>
    <path d="M 127.998719 102.746901 
L 128.546864 108.085397 
L 123.947181 105.320816 
z
" style="fill: #971a68; stroke: #971a68; stroke-width: 0.5; stroke-linecap: round"/>
   </g>
   <g id="patch_30">
    <path d="M 128.846627 108.557247 
Q 131.25034 115.344848 133.467442 121.605499 
" style="fill: none; stroke: #971a68; stroke-width: 0.5; stroke-linecap: round"/>
    <path d="M 134.127441 116.279675 
L 133.467442 121.605499 
L 129.602782 117.882005 
z
" style="fill: #971a68; stroke: #971a68; stroke-width: 0.5; stroke-linecap: round"/>
   </g>
   <g id="patch_31">
    <path d="M 133.654052 122.132449 
Q 140.975961 117.587121 147.822927 113.33663 
" style="fill: none; stroke: #971a68; stroke-width: 0.5; stroke-linecap: round"/>
    <path d="M 142.479017 113.829202 
L 147.822927 113.33663 
L 145.010638 117.907301 
z
" style="fill: #971a68; stroke: #971a68; stroke-width: 0.5; stroke-linecap: round"/>
   </g>
   <g id="patch_32">
    <path d="M 148.29787 113.041793 
Q 153.642405 104.742123 158.684285 96.912454 
" style="fill: none; stroke: #971a68; stroke-width: 0.5; stroke-linecap: round"/>
    <path d="M 154.067713 99.64874 
L 158.684285 96.912454 
L 158.103371 102.247483 
z
" style="fill: #971a68; stroke: #971a68; stroke-width: 0.5; stroke-linecap: round"/>
   </g>
   <g id="patch_33">
    <path d="M 158.98694 96.442454 
Q 164.150604 88.202605 169.01742 80.436445 
" style="fill: none; stroke: #971a68; stroke-width: 0.5; stroke-linecap: round"/>
    <path d="M 164.434875 83.229344 
L 169.01742 80.436445 
L 168.502212 85.77822 
z
" style="fill: #971a68; stroke: #971a68; stroke-width: 0.5; stroke-linecap: round"/>
   </g>
   <g id="patch_34">
    <path d="M 169.314267 79.962756 
Q 177.124035 70.070699 184.587404 60.6174 
" style="fill: none; stroke: #971a68; stroke-width: 0.5; stroke-linecap: round"/>
    <path d="M 179.729357 62.897616 
L 184.587404 60.6174 
L 183.496748 65.871967 
z
" style="fill: #971a68; stroke: #971a68; stroke-width: 0.5; stroke-linecap: round"/>
   </g>
   <g id="patch_35">
    <path d="M 184.933802 60.178643 
Q 192.005678 52.664936 198.694418 45.558301 
" style="fill: none; stroke: #971a68; stroke-width: 0.5; stroke-linecap: round"/>
    <path d="M 193.656968 47.408732 
L 198.694418 45.558301 
L 197.152293 50.69852 
z
" style="fill: #971a68; stroke: #971a68; stroke-width: 0.5; stroke-linecap: round"/>
   </g>
   <g id="patch_36">
    <path d="M 199.077553 45.151229 
Q 201.795081 41.407782 204.184204 38.116718 
" style="fill: none; stroke: #971a68; stroke-width: 0.5; stroke-linecap: round"/>
    <path d="M 199.422166 40.591186 
L 204.184204 38.116718 
L 203.306555 43.411029 
z
" style="fill: #971a68; stroke: #971a68; stroke-width: 0.5; stroke-linecap: round"/>
   </g>
   <g id="patch_37">
    <path d="M 204.512609 37.664335 
Q 211.356506 35.111082 217.676648 32.753227 
" style="fill: none; stroke: #971a68; stroke-width: 0.5; stroke-linecap: round"/>
    <path d="M 212.34053 32.182394 
L 217.676648 32.753227 
L 214.018311 36.679621 
z
" style="fill: #971a68; stroke: #971a68; stroke-width: 0.5; stroke-linecap: round"/>
   </g>
   <g id="patch_38">
    <path d="M 218.200403 32.557829 
Q 221.910519 29.226558 225.204685 26.268764 
" style="fill: none; stroke: #971a68; stroke-width: 0.5; stroke-linecap: round"/>
    <path d="M 220.029695 27.689847 
L 225.204685 26.268764 
L 223.236557 31.261406 
z
" style="fill: #971a68; stroke: #971a68; stroke-width: 0.5; stroke-linecap: round"/>
   </g>
   <g id="patch_39">
    <path d="M 41.687469 25.895287 
Q 39.504058 30.210303 37.573041 34.026522 
" style="fill: none; stroke: #ff1a00; stroke-width: 0.5; stroke-linecap: round"/>
    <path d="M 41.881668 30.827189 
L 37.573041 34.026522 
L 37.59875 28.66002 
z
" style="fill: #ff1a00; stroke: #ff1a00; stroke-width: 0.5; stroke-linecap: round"/>
   </g>
   <g id="patch_40">
    <path d="M 37.320648 34.525318 
Q 41.5596 39.559036 45.438468 44.165157 
" style="fill: none; stroke: #ff1a00; stroke-width: 0.5; stroke-linecap: round"/>
    <path d="M 44.182384 38.947662 
L 45.438468 44.165157 
L 40.510822 42.039527 
z
" style="fill: #ff1a00; stroke: #ff1a00; stroke-width: 0.5; stroke-linecap: round"/>
   </g>
   <g id="patch_41">
    <path d="M 45.798553 44.592754 
Q 55.417823 50.871357 64.568969 56.84441 
" style="fill: none; stroke: #ff1a00; stroke-width: 0.5; stroke-linecap: round"/>
    <path d="M 61.861226 52.211039 
L 64.568969 56.84441 
L 59.237627 56.230582 
z
" style="fill: #ff1a00; stroke: #ff1a00; stroke-width: 0.5; stroke-linecap: round"/>
   </g>
   <g id="patch_42">
    <path d="M 65.037093 57.149959 
Q 72.335032 60.532046 79.125772 63.67908 
" style="fill: none; stroke: #ff1a00; stroke-width: 0.5; stroke-linecap: round"/>
    <path d="M 75.779841 59.483279 
L 79.125772 63.67908 
L 73.761572 63.838344 
z
" style="fill: #ff1a00; stroke: #ff1a00; stroke-width: 0.5; stroke-linecap: round"/>
   </g>
   <g id="patch_43">
    <path d="M 79.632971 63.914132 
Q 82.435776 69.531824 84.989011 74.6493 
" style="fill: none; stroke: #ff1a00; stroke-width: 0.5; stroke-linecap: round"/>
    <path d="M 84.99363 69.282739 
L 84.989011 74.6493 
L 80.698534 71.425669 
z
" style="fill: #ff1a00; stroke: #ff1a00; stroke-width: 0.5; stroke-linecap: round"/>
   </g>
   <g id="patch_44">
    <path d="M 85.238581 75.149515 
Q 90.556725 80.908845 95.495628 86.257472 
" style="fill: none; stroke: #ff1a00; stroke-width: 0.5; stroke-linecap: round"/>
    <path d="M 94.002523 81.102801 
L 95.495628 86.257472 
L 90.476028 84.359153 
z
" style="fill: #ff1a00; stroke: #ff1a00; stroke-width: 0.5; stroke-linecap: round"/>
   </g>
   <g id="patch_45">
    <path d="M 95.874869 86.668174 
Q 102.420504 97.211107 108.671277 107.279111 
" style="fill: none; stroke: #ff1a00; stroke-width: 0.5; stroke-linecap: round"/>
    <path d="M 108.178433 101.935226 
L 108.671277 107.279111 
L 104.100463 104.467055 
z
" style="fill: #ff1a00; stroke: #ff1a00; stroke-width: 0.5; stroke-linecap: round"/>
   </g>
   <g id="patch_46">
    <path d="M 108.966138 107.754039 
Q 114.854278 111.183678 120.259368 114.331957 
" style="fill: none; stroke: #ff1a00; stroke-width: 0.5; stroke-linecap: round"/>
    <path d="M 117.319611 109.84221 
L 120.259368 114.331957 
L 114.903716 113.989914 
z
" style="fill: #ff1a00; stroke: #ff1a00; stroke-width: 0.5; stroke-linecap: round"/>
   </g>
   <g id="patch_47">
    <path d="M 120.742418 114.613316 
Q 123.154043 123.121018 125.413214 131.090893 
" style="fill: none; stroke: #ff1a00; stroke-width: 0.5; stroke-linecap: round"/>
    <path d="M 126.413189 125.818317 
L 125.413214 131.090893 
L 121.795139 127.127367 
z
" style="fill: #ff1a00; stroke: #ff1a00; stroke-width: 0.5; stroke-linecap: round"/>
   </g>
   <g id="patch_48">
    <path d="M 125.565668 131.628719 
Q 129.60986 138.91023 133.382625 145.70304 
" style="fill: none; stroke: #ff1a00; stroke-width: 0.5; stroke-linecap: round"/>
    <path d="M 133.150131 140.341515 
L 133.382625 145.70304 
L 128.953909 142.672121 
z
" style="fill: #ff1a00; stroke: #ff1a00; stroke-width: 0.5; stroke-linecap: round"/>
   </g>
   <g id="patch_49">
    <path d="M 133.654052 146.19174 
Q 142.559235 142.237284 150.953509 138.509703 
" style="fill: none; stroke: #ff1a00; stroke-width: 0.5; stroke-linecap: round"/>
    <path d="M 145.592559 138.264309 
L 150.953509 138.509703 
L 147.540624 142.651226 
z
" style="fill: #ff1a00; stroke: #ff1a00; stroke-width: 0.5; stroke-linecap: round"/>
   </g>
   <g id="patch_50">
    <path d="M 151.464418 138.282827 
Q 156.628541 127.353459 161.553846 116.929527 
" style="fill: none; stroke: #ff1a00; stroke-width: 0.5; stroke-linecap: round"/>
    <path d="M 157.333267 120.244148 
L 161.553846 116.929527 
L 161.673195 122.294762 
z
" style="fill: #ff1a00; stroke: #ff1a00; stroke-width: 0.5; stroke-linecap: round"/>
   </g>
   <g id="patch_51">
    <path d="M 161.792664 116.42409 
Q 159.653416 113.580004 157.850199 111.182666 
" style="fill: none; stroke: #ff1a00; stroke-width: 0.5; stroke-linecap: round"/>
    <path d="M 158.817538 116.461326 
L 157.850199 111.182666 
L 162.653531 113.57599 
z
" style="fill: #ff1a00; stroke: #ff1a00; stroke-width: 0.5; stroke-linecap: round"/>
   </g>
   <g id="patch_52">
    <path d="M 157.514167 110.735919 
Q 156.07475 108.126594 154.905351 106.006748 
" style="fill: none; stroke: #ff1a00; stroke-width: 0.5; stroke-linecap: round"/>
    <path d="M 155.122404 111.36892 
L 154.905351 106.006748 
L 159.325321 109.050408 
z
" style="fill: #ff1a00; stroke: #ff1a00; stroke-width: 0.5; stroke-linecap: round"/>
   </g>
   <g id="patch_53">
    <path d="M 154.635333 105.517268 
Q 158.021757 98.60901 161.162125 92.202704 
" style="fill: none; stroke: #ff1a00; stroke-width: 0.5; stroke-linecap: round"/>
    <path d="M 156.894352 95.456335 
L 161.162125 92.202704 
L 161.204366 97.569101 
z
" style="fill: #ff1a00; stroke: #ff1a00; stroke-width: 0.5; stroke-linecap: round"/>
   </g>
   <g id="patch_54">
    <path d="M 161.408182 91.700752 
Q 166.340808 87.408271 170.851735 83.482763 
" style="fill: none; stroke: #ff1a00; stroke-width: 0.5; stroke-linecap: round"/>
    <path d="M 165.6553 84.823311 
L 170.851735 83.482763 
L 168.806312 88.444239 
z
" style="fill: #ff1a00; stroke: #ff1a00; stroke-width: 0.5; stroke-linecap: round"/>
   </g>
   <g id="patch_55">
    <path d="M 171.273435 83.11579 
Q 174.013494 76.318093 176.544561 70.038876 
" style="fill: none; stroke: #ff1a00; stroke-width: 0.5; stroke-linecap: round"/>
    <path d="M 172.52408 73.593553 
L 176.544561 70.038876 
L 176.976014 75.388067 
z
" style="fill: #ff1a00; stroke: #ff1a00; stroke-width: 0.5; stroke-linecap: round"/>
   </g>
   <g id="patch_56">
    <path d="M 176.753553 69.520395 
Q 182.176617 66.43872 187.113655 63.633231 
" style="fill: none; stroke: #ff1a00; stroke-width: 0.5; stroke-linecap: round"/>
    <path d="M 181.754657 63.918071 
L 187.113655 63.633231 
L 184.126128 68.091334 
z
" style="fill: #ff1a00; stroke: #ff1a00; stroke-width: 0.5; stroke-linecap: round"/>
   </g>
   <g id="patch_57">
    <path d="M 187.599681 63.357045 
Q 198.9977 53.833957 209.966728 44.669292 
" style="fill: none; stroke: #ff1a00; stroke-width: 0.5; stroke-linecap: round"/>
    <path d="M 204.7444 45.90513 
L 209.966728 44.669292 
L 207.822001 49.588657 
z
" style="fill: #ff1a00; stroke: #ff1a00; stroke-width: 0.5; stroke-linecap: round"/>
   </g>
   <g id="patch_58">
    <path d="M 210.395718 44.310869 
Q 218.008177 35.103078 225.264441 26.326129 
" style="fill: none; stroke: #ff1a00; stroke-width: 0.5; stroke-linecap: round"/>
    <path d="M 220.356258 28.496323 
L 225.264441 26.326129 
L 224.055686 31.554792 
z
" style="fill: #ff1a00; stroke: #ff1a00; stroke-width: 0.5; stroke-linecap: round"/>
   </g>
   <g id="text_1">
    <text style="font-size: 16px; font-family: 'Helvetica', 'Arial', sans-serif; text-anchor: start" x="37.08914" y="18.6775" transform="rotate(-0 37.08914 18.6775)">Source</text>
   </g>
   <g id="text_2">
    <text style="font-size: 16px; font-family: 'Helvetica', 'Arial', sans-serif; text-anchor: start" x="198.030661" y="18.6775" transform="rotate(-0 198.030661 18.6775)">Detector</text>
   </g>
   <g id="text_3">
    <text style="font-size: 16px; font-family: 'Helvetica', 'Arial', sans-serif; text-anchor: middle" x="133.654052" y="191.830636" transform="rotate(-0 133.654052 191.830636)">a)</text>
   </g>
   <g id="PathCollection_1">
    <defs>
     <path id="m768031ec17" d="M 0 3.354102 
C 0.889518 3.354102 1.742724 3.000693 2.371708 2.371708 
C 3.000693 1.742724 3.354102 0.889518 3.354102 0 
C 3.354102 -0.889518 3.000693 -1.742724 2.371708 -2.371708 
C 1.742724 -3.000693 0.889518 -3.354102 0 -3.354102 
C -0.889518 -3.354102 -1.742724 -3.000693 -2.371708 -2.371708 
C -3.000693 -1.742724 -3.354102 -0.889518 -3.354102 0 
C -3.354102 0.889518 -3.000693 1.742724 -2.371708 2.371708 
C -1.742724 3.000693 -0.889518 3.354102 0 3.354102 
z
" style="stroke: #000000"/>
    </defs>
    <g clip-path="url(#pae16761764)">
     <use xlink:href="#m768031ec17" x="41.687469" y="25.895287" style="stroke: #000000"/>
    </g>
   </g>
   <g id="patch_59">
    <path d="M 221.022306 21.805208 
L 230.218965 21.805208 
Q 232.977962 21.805208 232.977962 24.692323 
L 232.977962 27.098252 
Q 232.977962 29.985367 230.218965 29.985367 
L 221.022306 29.985367 
Q 218.263309 29.985367 218.263309 27.098252 
L 218.263309 24.692323 
Q 218.263309 21.805208 221.022306 21.805208 
z
" clip-path="url(#pae16761764)" style="fill: #808080; stroke: #000000; stroke-width: 0.8; stroke-linejoin: miter"/>
   </g>
  </g>
  <g id="axes_2">
   <g id="patch_60">
    <path d="M 304.371896 158.221385 
L 557.28 158.221385 
L 557.28 11.459713 
L 304.371896 11.459713 
z
" style="fill: #ffffff"/>
   </g>
   <g id="patch_61">
    <path d="M 315.867719 158.221385 
L 345.856822 158.221385 
L 345.856822 116.289479 
L 315.867719 116.289479 
z
" clip-path="url(#p90bbfa6620)" style="fill: #001aff; stroke: #000000; stroke-linejoin: miter"/>
   </g>
   <g id="patch_62">
    <path d="M 394.380681 158.221385 
L 424.369784 158.221385 
L 424.369784 74.357572 
L 394.380681 74.357572 
z
" clip-path="url(#p90bbfa6620)" style="fill: #641a9b; stroke: #000000; stroke-linejoin: miter"/>
   </g>
   <g id="patch_63">
    <path d="M 434.624583 158.221385 
L 464.613686 158.221385 
L 464.613686 46.402968 
L 434.624583 46.402968 
z
" clip-path="url(#p90bbfa6620)" style="fill: #971a68; stroke: #000000; stroke-linejoin: miter"/>
   </g>
   <g id="patch_64">
    <path d="M 515.795074 158.221385 
L 545.784177 158.221385 
L 545.784177 18.448364 
L 515.795074 18.448364 
z
" clip-path="url(#p90bbfa6620)" style="fill: #ff1a00; stroke: #000000; stroke-linejoin: miter"/>
   </g>
   <g id="matplotlib.axis_1">
    <g id="xtick_1">
     <g id="line2d_5">
      <defs>
       <path id="mcb040a1bcb" d="M 0 0 
L 0 -4 
" style="stroke: #000000; stroke-width: 0.8"/>
      </defs>
      <g>
       <use xlink:href="#mcb040a1bcb" x="306.51497" y="158.221385" style="stroke: #000000; stroke-width: 0.8"/>
      </g>
     </g>
    </g>
    <g id="xtick_2">
     <g id="line2d_6">
      <g>
       <use xlink:href="#mcb040a1bcb" x="344.229763" y="158.221385" style="stroke: #000000; stroke-width: 0.8"/>
      </g>
     </g>
    </g>
    <g id="xtick_3">
     <g id="line2d_7">
      <g>
       <use xlink:href="#mcb040a1bcb" x="381.944556" y="158.221385" style="stroke: #000000; stroke-width: 0.8"/>
      </g>
     </g>
    </g>
    <g id="xtick_4">
     <g id="line2d_8">
      <g>
       <use xlink:href="#mcb040a1bcb" x="419.65935" y="158.221385" style="stroke: #000000; stroke-width: 0.8"/>
      </g>
     </g>
    </g>
    <g id="xtick_5">
     <g id="line2d_9">
      <g>
       <use xlink:href="#mcb040a1bcb" x="457.374143" y="158.221385" style="stroke: #000000; stroke-width: 0.8"/>
      </g>
     </g>
    </g>
    <g id="xtick_6">
     <g id="line2d_10">
      <g>
       <use xlink:href="#mcb040a1bcb" x="495.088936" y="158.221385" style="stroke: #000000; stroke-width: 0.8"/>
      </g>
     </g>
    </g>
    <g id="xtick_7">
     <g id="line2d_11">
      <g>
       <use xlink:href="#mcb040a1bcb" x="532.80373" y="158.221385" style="stroke: #000000; stroke-width: 0.8"/>
      </g>
     </g>
    </g>
    <g id="text_4">
     <text style="font-size: 14px; font-family: 'Helvetica', 'Arial', sans-serif; text-anchor: middle" x="430.825948" y="175.764197" transform="rotate(-0 430.825948 175.764197)">Arrival time</text>
    </g>
   </g>
   <g id="matplotlib.axis_2">
    <g id="ytick_1">
     <g id="line2d_12">
      <defs>
       <path id="m6e3382b449" d="M 0 0 
L 4 0 
" style="stroke: #000000; stroke-width: 0.8"/>
      </defs>
      <g>
       <use xlink:href="#m6e3382b449" x="304.371896" y="158.221385" style="stroke: #000000; stroke-width: 0.8"/>
      </g>
     </g>
    </g>
    <g id="ytick_2">
     <g id="line2d_13">
      <g>
       <use xlink:href="#m6e3382b449" x="304.371896" y="130.266781" style="stroke: #000000; stroke-width: 0.8"/>
      </g>
     </g>
    </g>
    <g id="ytick_3">
     <g id="line2d_14">
      <g>
       <use xlink:href="#m6e3382b449" x="304.371896" y="102.312177" style="stroke: #000000; stroke-width: 0.8"/>
      </g>
     </g>
    </g>
    <g id="ytick_4">
     <g id="line2d_15">
      <g>
       <use xlink:href="#m6e3382b449" x="304.371896" y="74.357572" style="stroke: #000000; stroke-width: 0.8"/>
      </g>
     </g>
    </g>
    <g id="ytick_5">
     <g id="line2d_16">
      <g>
       <use xlink:href="#m6e3382b449" x="304.371896" y="46.402968" style="stroke: #000000; stroke-width: 0.8"/>
      </g>
     </g>
    </g>
    <g id="ytick_6">
     <g id="line2d_17">
      <g>
       <use xlink:href="#m6e3382b449" x="304.371896" y="18.448364" style="stroke: #000000; stroke-width: 0.8"/>
      </g>
     </g>
    </g>
    <g id="text_5">
     <text style="font-size: 14px; font-family: 'Helvetica', 'Arial', sans-serif; text-anchor: middle" x="293.953771" y="84.840549" transform="rotate(-90 293.953771 84.840549)">Max Penetration Depth</text>
    </g>
   </g>
   <g id="patch_65">
    <path d="M 304.371896 158.221385 
L 304.371896 11.459713 
" style="fill: none; stroke: #000000; stroke-width: 0.8; stroke-linejoin: miter; stroke-linecap: square"/>
   </g>
   <g id="patch_66">
    <path d="M 557.28 158.221385 
L 557.28 11.459713 
" style="fill: none; stroke: #000000; stroke-width: 0.8; stroke-linejoin: miter; stroke-linecap: square"/>
   </g>
   <g id="patch_67">
    <path d="M 304.371896 158.221385 
L 557.28 158.221385 
" style="fill: none; stroke: #000000; stroke-width: 0.8; stroke-linejoin: miter; stroke-linecap: square"/>
   </g>
   <g id="patch_68">
    <path d="M 304.371896 11.459713 
L 557.28 11.459713 
" style="fill: none; stroke: #000000; stroke-width: 0.8; stroke-linejoin: miter; stroke-linecap: square"/>
   </g>
   <g id="text_6">
    <text style="font-size: 16px; font-family: 'Helvetica', 'Arial', sans-serif; text-anchor: middle" x="430.825948" y="191.830636" transform="rotate(-0 430.825948 191.830636)">b)</text>
   </g>
  </g>
 </g>
 <defs>
  <clipPath id="pae16761764">
   <rect x="7.2" y="11.459713" width="252.908104" height="146.761672"/>
  </clipPath>
  <clipPath id="p90bbfa6620">
   <rect x="304.371896" y="11.459713" width="252.908104" height="146.761672"/>
  </clipPath>
 </defs>
</svg>
