<?xml version="1.0" encoding="utf-8" standalone="no"?>
<!DOCTYPE svg PUBLIC "-//W3C//DTD SVG 1.1//EN"
  "http://www.w3.org/Graphics/SVG/1.1/DTD/svg11.dtd">
<svg xmlns:xlink="http://www.w3.org/1999/xlink" width="564.48pt" height="276.400625pt" viewBox="0 0 564.48 276.400625" xmlns="http://www.w3.org/2000/svg" version="1.1">
 <metadata>
  <rdf:RDF xmlns:dc="http://purl.org/dc/elements/1.1/" xmlns:cc="http://creativecommons.org/ns#" xmlns:rdf="http://www.w3.org/1999/02/22-rdf-syntax-ns#">
   <cc:Work>
    <dc:type rdf:resource="http://purl.org/dc/dcmitype/StillImage"/>
    <dc:date>2026-02-11T20:58:01.396215</dc:date>
    <dc:format>image/svg+xml</dc:format>
    <dc:creator>
     <cc:Agent>
      <dc:title>Matplotlib v3.5.3, https://matplotlib.org/</dc:title>
     </cc:Agent>
    </dc:creator>
   </cc:Work>
  </rdf:RDF>
 </metadata>
 <defs>
  <style type="text/css">*{stroke-linejoin: round; stroke-linecap: butt}</style>
 </defs>
 <g id="figure_1">
  <g id="patch_1">
   <path d="M 0 276.400625 
L 564.48 276.400625 
L 564.48 0 
L 0 0 
z
" style="fill: #ffffff"/>
  </g>
  <g id="axes_1">
   <g id="patch_2">
    <path d="M 18.553681 89.696524 
L 245.627309 89.696524 
L 245.627309 180.525976 
L 18.553681 180.525976 
z
" clip-path="url(#p6aa5091bb8)" style="fill: #eef3ff; stroke: #b3c0dd; stroke-width: 1.5; stroke-linejoin: miter"/>
   </g>
   <g id="line2d_1">
    <path d="M 41.261044 89.696524 
L 95.560141 93.369737 
L 132.090495 96.508733 
L 152.004781 93.144098 
L 222.919946 89.696524 
" clip-path="url(#p6aa5091bb8)" style="fill: none; stroke: #001aff; stroke-width: 2.2; stroke-linecap: square"/>
   </g>
   <g id="line2d_2">
    <path d="M 41.261044 89.696524 
L 61.471662 99.897441 
L 98.908112 107.646008 
L 132.090495 116.94536 
L 163.976496 113.18349 
L 185.92187 100.265436 
L 222.919946 89.696524 
" clip-path="url(#p6aa5091bb8)" style="fill: none; stroke: #1d1ae2; stroke-width: 2.2; stroke-linecap: square"/>
   </g>
   <g id="line2d_3">
    <path d="M 41.261044 89.696524 
L 64.287726 109.442051 
L 78.096274 117.979357 
L 105.979388 131.740793 
L 132.090495 137.381986 
L 142.435685 125.723872 
L 166.311073 113.162095 
L 191.765614 98.594026 
L 222.919946 89.696524 
" clip-path="url(#p6aa5091bb8)" style="fill: none; stroke: #551aaa; stroke-width: 2.2; stroke-linecap: square"/>
   </g>
   <g id="line2d_4">
    <path d="M 41.261044 89.696524 
L 52.080308 105.281709 
L 72.746665 118.960803 
L 86.327914 127.056087 
L 112.522037 142.635249 
L 132.090495 157.818613 
L 151.731793 153.63937 
L 168.318178 136.801011 
L 197.049226 121.944974 
L 209.057859 106.434279 
L 222.919946 89.696524 
" clip-path="url(#p6aa5091bb8)" style="fill: none; stroke: #a11a5e; stroke-width: 2.2; stroke-linecap: square"/>
   </g>
   <g id="line2d_5">
    <path d="M 41.261044 89.696524 
L 57.680962 104.864929 
L 76.644657 123.750149 
L 85.673141 140.21135 
L 94.116392 155.162868 
L 115.388454 170.219097 
L 132.090495 180.525976 
L 139.025403 173.75564 
L 155.984162 162.086438 
L 167.457265 150.149106 
L 183.719891 130.123398 
L 210.968868 112.400953 
L 222.919946 89.696524 
" clip-path="url(#p6aa5091bb8)" style="fill: none; stroke: #ff1a00; stroke-width: 2.2; stroke-linecap: square"/>
   </g>
   <g id="patch_3">
    <path d="M 41.261044 89.696524 
Q 68.410593 91.533131 93.998463 93.264093 
" style="fill: none; stroke: #001aff; stroke-width: 1.4; stroke-linecap: round"/>
    <path d="M 89.371392 90.545597 
L 93.998463 93.264093 
L 89.047424 95.334652 
" style="fill: none; stroke: #001aff; stroke-width: 1.4; stroke-linecap: round"/>
   </g>
   <g id="patch_4">
    <path d="M 95.560141 93.369737 
Q 113.825318 94.939235 130.530994 96.374728 
" style="fill: none; stroke: #001aff; stroke-width: 1.4; stroke-linecap: round"/>
    <path d="M 125.954089 93.572597 
L 130.530994 96.374728 
L 125.543147 98.354974 
" style="fill: none; stroke: #001aff; stroke-width: 1.4; stroke-linecap: round"/>
   </g>
   <g id="patch_5">
    <path d="M 132.090495 96.508733 
Q 142.047638 94.826416 150.461407 93.40486 
" style="fill: none; stroke: #001aff; stroke-width: 1.4; stroke-linecap: round"/>
    <path d="M 145.328657 91.838054 
L 150.461407 93.40486 
L 146.128312 96.570976 
" style="fill: none; stroke: #001aff; stroke-width: 1.4; stroke-linecap: round"/>
   </g>
   <g id="patch_6">
    <path d="M 152.004781 93.144098 
Q 187.462364 91.420311 221.356545 89.77253 
" style="fill: none; stroke: #001aff; stroke-width: 1.4; stroke-linecap: round"/>
    <path d="M 216.445668 87.60844 
L 221.356545 89.77253 
L 216.678747 92.402778 
" style="fill: none; stroke: #001aff; stroke-width: 1.4; stroke-linecap: round"/>
   </g>
   <g id="patch_7">
    <path d="M 41.261044 89.696524 
Q 51.366353 94.796983 60.074316 99.192157 
" style="fill: none; stroke: #1d1ae2; stroke-width: 1.4; stroke-linecap: round"/>
    <path d="M 56.870618 94.886775 
L 60.074316 99.192157 
L 54.707791 99.171886 
" style="fill: none; stroke: #1d1ae2; stroke-width: 1.4; stroke-linecap: round"/>
   </g>
   <g id="patch_8">
    <path d="M 61.471662 99.897441 
Q 80.189887 103.771724 97.375352 107.328759 
" style="fill: none; stroke: #1d1ae2; stroke-width: 1.4; stroke-linecap: round"/>
    <path d="M 93.161419 104.005693 
L 97.375352 107.328759 
L 92.18854 108.706066 
" style="fill: none; stroke: #1d1ae2; stroke-width: 1.4; stroke-linecap: round"/>
   </g>
   <g id="patch_9">
    <path d="M 98.908112 107.646008 
Q 115.499304 112.295684 130.583316 116.522973 
" style="fill: none; stroke: #1d1ae2; stroke-width: 1.4; stroke-linecap: round"/>
    <path d="M 126.609035 112.916716 
L 130.583316 116.522973 
L 125.313741 117.538643 
" style="fill: none; stroke: #1d1ae2; stroke-width: 1.4; stroke-linecap: round"/>
   </g>
   <g id="patch_10">
    <path d="M 132.090495 116.94536 
Q 148.033496 115.064425 162.422029 113.366884 
" style="fill: none; stroke: #1d1ae2; stroke-width: 1.4; stroke-linecap: round"/>
    <path d="M 157.373891 111.545812 
L 162.422029 113.366884 
L 157.936289 116.312751 
" style="fill: none; stroke: #1d1ae2; stroke-width: 1.4; stroke-linecap: round"/>
   </g>
   <g id="patch_11">
    <path d="M 163.976496 113.18349 
Q 174.949183 106.724463 184.572972 101.059459 
" style="fill: none; stroke: #1d1ae2; stroke-width: 1.4; stroke-linecap: round"/>
    <path d="M 179.218951 101.426147 
L 184.572972 101.059459 
L 181.653909 105.562688 
" style="fill: none; stroke: #1d1ae2; stroke-width: 1.4; stroke-linecap: round"/>
   </g>
   <g id="patch_12">
    <path d="M 185.92187 100.265436 
Q 204.420908 94.98098 221.414902 90.126457 
" style="fill: none; stroke: #1d1ae2; stroke-width: 1.4; stroke-linecap: round"/>
    <path d="M 216.140305 89.137202 
L 221.414902 90.126457 
L 217.45874 93.752581 
" style="fill: none; stroke: #1d1ae2; stroke-width: 1.4; stroke-linecap: round"/>
   </g>
   <g id="patch_13">
    <path d="M 41.261044 89.696524 
Q 52.774385 99.569288 63.099515 108.423152 
" style="fill: none; stroke: #551aaa; stroke-width: 1.4; stroke-linecap: round"/>
    <path d="M 61.018019 103.476702 
L 63.099515 108.423152 
L 57.893457 107.120479 
" style="fill: none; stroke: #551aaa; stroke-width: 1.4; stroke-linecap: round"/>
   </g>
   <g id="patch_14">
    <path d="M 64.287726 109.442051 
Q 71.192 113.710704 76.764931 117.156238 
" style="fill: none; stroke: #551aaa; stroke-width: 1.4; stroke-linecap: round"/>
    <path d="M 73.944316 112.5907 
L 76.764931 117.156238 
L 71.420132 116.673407 
" style="fill: none; stroke: #551aaa; stroke-width: 1.4; stroke-linecap: round"/>
   </g>
   <g id="patch_15">
    <path d="M 78.096274 117.979357 
Q 92.037831 124.860075 104.57578 131.048056 
" style="fill: none; stroke: #551aaa; stroke-width: 1.4; stroke-linecap: round"/>
    <path d="M 101.333641 126.771547 
L 104.57578 131.048056 
L 99.209289 131.075862 
" style="fill: none; stroke: #551aaa; stroke-width: 1.4; stroke-linecap: round"/>
   </g>
   <g id="patch_16">
    <path d="M 105.979388 131.740793 
Q 119.034942 134.56139 130.560546 137.051447 
" style="fill: none; stroke: #551aaa; stroke-width: 1.4; stroke-linecap: round"/>
    <path d="M 126.37561 133.691938 
L 130.560546 137.051447 
L 125.361976 138.383691 
" style="fill: none; stroke: #551aaa; stroke-width: 1.4; stroke-linecap: round"/>
   </g>
   <g id="patch_17">
    <path d="M 132.090495 137.381986 
Q 137.26309 131.552929 141.396778 126.894629 
" style="fill: none; stroke: #551aaa; stroke-width: 1.4; stroke-linecap: round"/>
    <path d="M 136.415731 128.89192 
L 141.396778 126.894629 
L 140.005982 132.077841 
" style="fill: none; stroke: #551aaa; stroke-width: 1.4; stroke-linecap: round"/>
   </g>
   <g id="patch_18">
    <path d="M 142.435685 125.723872 
Q 154.373379 119.442984 164.925856 113.890912 
" style="fill: none; stroke: #551aaa; stroke-width: 1.4; stroke-linecap: round"/>
    <path d="M 159.560442 114.001949 
L 164.925856 113.890912 
L 161.795437 118.249866 
" style="fill: none; stroke: #551aaa; stroke-width: 1.4; stroke-linecap: round"/>
   </g>
   <g id="patch_19">
    <path d="M 166.311073 113.162095 
Q 179.038343 105.878061 190.407119 99.371516 
" style="fill: none; stroke: #551aaa; stroke-width: 1.4; stroke-linecap: round"/>
    <path d="M 185.049019 99.672787 
L 190.407119 99.371516 
L 187.433275 103.838759 
" style="fill: none; stroke: #551aaa; stroke-width: 1.4; stroke-linecap: round"/>
   </g>
   <g id="patch_20">
    <path d="M 191.765614 98.594026 
Q 207.34278 94.145275 221.414876 90.126364 
" style="fill: none; stroke: #551aaa; stroke-width: 1.4; stroke-linecap: round"/>
    <path d="M 216.14034 89.136783 
L 221.414876 90.126364 
L 217.458489 93.752244 
" style="fill: none; stroke: #551aaa; stroke-width: 1.4; stroke-linecap: round"/>
   </g>
   <g id="patch_21">
    <path d="M 41.261044 89.696524 
Q 46.670676 97.489117 51.187708 103.995915 
" style="fill: none; stroke: #a11a5e; stroke-width: 1.4; stroke-linecap: round"/>
    <path d="M 50.421966 98.684264 
L 51.187708 103.995915 
L 46.478942 101.421519 
" style="fill: none; stroke: #a11a5e; stroke-width: 1.4; stroke-linecap: round"/>
   </g>
   <g id="patch_22">
    <path d="M 52.080308 105.281709 
Q 62.413487 112.121256 71.441437 118.09687 
" style="fill: none; stroke: #a11a5e; stroke-width: 1.4; stroke-linecap: round"/>
    <path d="M 68.763486 113.446217 
L 71.441437 118.09687 
L 66.114144 117.44884 
" style="fill: none; stroke: #a11a5e; stroke-width: 1.4; stroke-linecap: round"/>
   </g>
   <g id="patch_23">
    <path d="M 72.746665 118.960803 
Q 79.537289 123.008445 84.983395 126.254669 
" style="fill: none; stroke: #a11a5e; stroke-width: 1.4; stroke-linecap: round"/>
    <path d="M 82.089103 121.73548 
L 84.983395 126.254669 
L 79.631469 125.85859 
" style="fill: none; stroke: #a11a5e; stroke-width: 1.4; stroke-linecap: round"/>
   </g>
   <g id="patch_24">
    <path d="M 86.327914 127.056087 
Q 99.424975 134.845668 111.176747 141.835127 
" style="fill: none; stroke: #a11a5e; stroke-width: 1.4; stroke-linecap: round"/>
    <path d="M 108.2781 137.318729 
L 111.176747 141.835127 
L 105.824441 141.444206 
" style="fill: none; stroke: #a11a5e; stroke-width: 1.4; stroke-linecap: round"/>
   </g>
   <g id="patch_25">
    <path d="M 112.522037 142.635249 
Q 122.306266 150.226931 130.853845 156.859083 
" style="fill: none; stroke: #a11a5e; stroke-width: 1.4; stroke-linecap: round"/>
    <path d="M 128.532774 152.020423 
L 130.853845 156.859083 
L 125.590275 155.812744 
" style="fill: none; stroke: #a11a5e; stroke-width: 1.4; stroke-linecap: round"/>
   </g>
   <g id="patch_26">
    <path d="M 132.090495 157.818613 
Q 141.911144 155.728992 150.200818 153.965128 
" style="fill: none; stroke: #a11a5e; stroke-width: 1.4; stroke-linecap: round"/>
    <path d="M 145.006436 152.616652 
L 150.200818 153.965128 
L 146.005408 157.311549 
" style="fill: none; stroke: #a11a5e; stroke-width: 1.4; stroke-linecap: round"/>
   </g>
   <g id="patch_27">
    <path d="M 151.731793 153.63937 
Q 160.024985 145.220191 167.219756 137.91612 
" style="fill: none; stroke: #a11a5e; stroke-width: 1.4; stroke-linecap: round"/>
    <path d="M 162.141525 139.651507 
L 167.219756 137.91612 
L 165.561127 143.019937 
" style="fill: none; stroke: #a11a5e; stroke-width: 1.4; stroke-linecap: round"/>
   </g>
   <g id="patch_28">
    <path d="M 168.318178 136.801011 
Q 182.683702 129.372993 195.658849 122.663899 
" style="fill: none; stroke: #a11a5e; stroke-width: 1.4; stroke-linecap: round"/>
    <path d="M 190.29278 122.736692 
L 195.658849 122.663899 
L 192.497442 127.000431 
" style="fill: none; stroke: #a11a5e; stroke-width: 1.4; stroke-linecap: round"/>
   </g>
   <g id="patch_29">
    <path d="M 197.049226 121.944974 
Q 203.053542 114.189626 208.099639 107.671944 
" style="fill: none; stroke: #a11a5e; stroke-width: 1.4; stroke-linecap: round"/>
    <path d="M 203.263438 109.998133 
L 208.099639 107.671944 
L 207.05887 112.936618 
" style="fill: none; stroke: #a11a5e; stroke-width: 1.4; stroke-linecap: round"/>
   </g>
   <g id="patch_30">
    <path d="M 209.057859 106.434279 
Q 215.988903 98.065402 221.921561 90.902023 
" style="fill: none; stroke: #a11a5e; stroke-width: 1.4; stroke-linecap: round"/>
    <path d="M 217.01151 93.067986 
L 221.921561 90.902023 
L 220.708301 96.129642 
" style="fill: none; stroke: #a11a5e; stroke-width: 1.4; stroke-linecap: round"/>
   </g>
   <g id="patch_31">
    <path d="M 41.261044 89.696524 
Q 49.471003 97.280727 56.531216 103.802816 
" style="fill: none; stroke: #ff1a00; stroke-width: 1.4; stroke-linecap: round"/>
    <path d="M 54.633939 98.782822 
L 56.531216 103.802816 
L 51.376854 102.308641 
" style="fill: none; stroke: #ff1a00; stroke-width: 1.4; stroke-linecap: round"/>
   </g>
   <g id="patch_32">
    <path d="M 57.680962 104.864929 
Q 67.162809 114.307539 75.535567 122.645649 
" style="fill: none; stroke: #ff1a00; stroke-width: 1.4; stroke-linecap: round"/>
    <path d="M 73.827959 117.55801 
L 75.535567 122.645649 
L 70.440891 120.959152 
" style="fill: none; stroke: #ff1a00; stroke-width: 1.4; stroke-linecap: round"/>
   </g>
   <g id="patch_33">
    <path d="M 76.644657 123.750149 
Q 81.158899 131.98075 84.920431 138.83897 
" style="fill: none; stroke: #ff1a00; stroke-width: 1.4; stroke-linecap: round"/>
    <path d="M 84.71644 133.476285 
L 84.920431 138.83897 
L 80.507888 135.784552 
" style="fill: none; stroke: #ff1a00; stroke-width: 1.4; stroke-linecap: round"/>
   </g>
   <g id="patch_34">
    <path d="M 85.673141 140.21135 
Q 89.894766 147.687109 93.346726 153.799925 
" style="fill: none; stroke: #ff1a00; stroke-width: 1.4; stroke-linecap: round"/>
    <path d="M 93.076269 148.440181 
L 93.346726 153.799925 
L 88.896657 150.800444 
" style="fill: none; stroke: #ff1a00; stroke-width: 1.4; stroke-linecap: round"/>
   </g>
   <g id="patch_35">
    <path d="M 94.116392 155.162868 
Q 104.752423 162.690983 114.110849 169.314816 
" style="fill: none; stroke: #ff1a00; stroke-width: 1.4; stroke-linecap: round"/>
    <path d="M 111.579472 164.582784 
L 114.110849 169.314816 
L 108.806397 168.500699 
" style="fill: none; stroke: #ff1a00; stroke-width: 1.4; stroke-linecap: round"/>
   </g>
   <g id="patch_36">
    <path d="M 115.388454 170.219097 
Q 123.739475 175.372536 130.758462 179.703974 
" style="fill: none; stroke: #ff1a00; stroke-width: 1.4; stroke-linecap: round"/>
    <path d="M 127.934016 175.140805 
L 130.758462 179.703974 
L 125.41326 179.225629 
" style="fill: none; stroke: #ff1a00; stroke-width: 1.4; stroke-linecap: round"/>
   </g>
   <g id="patch_37">
    <path d="M 132.090495 180.525976 
Q 135.557949 177.140808 137.905396 174.849068 
" style="fill: none; stroke: #ff1a00; stroke-width: 1.4; stroke-linecap: round"/>
    <path d="M 132.794218 176.484872 
L 137.905396 174.849068 
L 136.147332 179.919493 
" style="fill: none; stroke: #ff1a00; stroke-width: 1.4; stroke-linecap: round"/>
   </g>
   <g id="patch_38">
    <path d="M 139.025403 173.75564 
Q 147.504783 167.921039 154.694689 162.973715 
" style="fill: none; stroke: #ff1a00; stroke-width: 1.4; stroke-linecap: round"/>
    <path d="M 149.379918 163.717492 
L 154.694689 162.973715 
L 152.100848 167.671798 
" style="fill: none; stroke: #ff1a00; stroke-width: 1.4; stroke-linecap: round"/>
   </g>
   <g id="patch_39">
    <path d="M 155.984162 162.086438 
Q 161.720713 156.117772 166.372629 151.277629 
" style="fill: none; stroke: #ff1a00; stroke-width: 1.4; stroke-linecap: round"/>
    <path d="M 161.316107 153.07529 
L 166.372629 151.277629 
L 164.776844 156.401443 
" style="fill: none; stroke: #ff1a00; stroke-width: 1.4; stroke-linecap: round"/>
   </g>
   <g id="patch_40">
    <path d="M 167.457265 150.149106 
Q 175.588578 140.136252 182.73316 131.338454 
" style="fill: none; stroke: #ff1a00; stroke-width: 1.4; stroke-linecap: round"/>
    <path d="M 177.844191 133.551594 
L 182.73316 131.338454 
L 181.570291 136.577513 
" style="fill: none; stroke: #ff1a00; stroke-width: 1.4; stroke-linecap: round"/>
   </g>
   <g id="patch_41">
    <path d="M 183.719891 130.123398 
Q 197.34438 121.262176 209.65673 113.254354 
" style="fill: none; stroke: #ff1a00; stroke-width: 1.4; stroke-linecap: round"/>
    <path d="M 204.324394 113.859493 
L 209.65673 113.254354 
L 206.94144 117.883306 
" style="fill: none; stroke: #ff1a00; stroke-width: 1.4; stroke-linecap: round"/>
   </g>
   <g id="patch_42">
    <path d="M 210.968868 112.400953 
Q 216.944407 101.048739 222.190872 91.081606 
" style="fill: none; stroke: #ff1a00; stroke-width: 1.4; stroke-linecap: round"/>
    <path d="M 217.831337 94.211215 
L 222.190872 91.081606 
L 222.078838 96.446999 
" style="fill: none; stroke: #ff1a00; stroke-width: 1.4; stroke-linecap: round"/>
   </g>
   <g id="text_1">
    <text style="font: 12px 'serif'; text-anchor: start" x="36.719572" y="85.155052" transform="rotate(-0, 36.719572, 85.155052)">Source</text>
   </g>
   <g id="text_2">
    <text style="font: 12px 'serif'; text-anchor: start" x="225.190683" y="85.155052" transform="rotate(-0, 225.190683, 85.155052)">Detector</text>
   </g>
   <g id="PathCollection_1">
    <defs>
     <path id="mbe225b39e0" d="M 0 3.354102 
C 0.889518 3.354102 1.742724 3.000693 2.371708 2.371708 
C 3.000693 1.742724 3.354102 0.889518 3.354102 0 
C 3.354102 -0.889518 3.000693 -1.742724 2.371708 -2.371708 
C 1.742724 -3.000693 0.889518 -3.354102 0 -3.354102 
C -0.889518 -3.354102 -1.742724 -3.000693 -2.371708 -2.371708 
C -3.000693 -1.742724 -3.354102 -0.889518 -3.354102 0 
C -3.354102 0.889518 -3.000693 1.742724 -2.371708 2.371708 
C -1.742724 3.000693 -0.889518 3.354102 0 3.354102 
z
" style="stroke: #000000"/>
    </defs>
    <g clip-path="url(#p6aa5091bb8)">
     <use xlink:href="#mbe225b39e0" x="41.261044" y="89.696524" style="stroke: #000000"/>
     <use xlink:href="#mbe225b39e0" x="222.919946" y="89.696524" style="stroke: #000000"/>
    </g>
   </g>
  </g>
  <g id="axes_2">
   <g id="patch_43">
    <path d="M 307.49901 247.30125 
L 557.28 247.30125 
L 557.28 22.92125 
L 307.49901 22.92125 
z
" style="fill: #ffffff"/>
   </g>
   <g id="patch_44">
    <path d="M 318.852691 134123.283332 
L 343.182008 134123.283332 
L 343.182008 33.120341 
L 318.852691 33.120341 
z
" clip-path="url(#pbddef513d1)" style="fill: #001aff"/>
   </g>
   <g id="patch_45">
    <path d="M 342.121137 134123.283332 
L 366.450455 134123.283332 
L 366.450455 56.530813 
L 342.121137 56.530813 
z
" clip-path="url(#pbddef513d1)" style="fill: #1d1ae2"/>
   </g>
   <g id="patch_46">
    <path d="M 386.344257 134123.283332 
L 410.673574 134123.283332 
L 410.673574 101.023861 
L 386.344257 101.023861 
z
" clip-path="url(#pbddef513d1)" style="fill: #551aaa"/>
   </g>
   <g id="patch_47">
    <path d="M 446.590628 134123.283332 
L 470.919945 134123.283332 
L 470.919945 161.637963 
L 446.590628 161.637963 
z
" clip-path="url(#pbddef513d1)" style="fill: #a11a5e"/>
   </g>
   <g id="patch_48">
    <path d="M 521.597001 134123.283332 
L 545.926319 134123.283332 
L 545.926319 237.102159 
L 521.597001 237.102159 
z
" clip-path="url(#pbddef513d1)" style="fill: #ff1a00"/>
   </g>
   <g id="matplotlib.axis_1">
    <g id="xtick_1">
     <g id="line2d_6">
      <defs>
       <path id="m548a3f18ff" d="M 0 0 
L 0 3.5 
" style="stroke: #000000; stroke-width: 0.8"/>
      </defs>
      <g>
       <use xlink:href="#m548a3f18ff" x="329.419392" y="247.30125" style="stroke: #000000; stroke-width: 0.8"/>
      </g>
     </g>
    </g>
    <g id="xtick_2">
     <g id="line2d_7">
      <g>
       <use xlink:href="#m548a3f18ff" x="387.503212" y="247.30125" style="stroke: #000000; stroke-width: 0.8"/>
      </g>
     </g>
    </g>
    <g id="xtick_3">
     <g id="line2d_8">
      <g>
       <use xlink:href="#m548a3f18ff" x="445.587033" y="247.30125" style="stroke: #000000; stroke-width: 0.8"/>
      </g>
     </g>
    </g>
    <g id="xtick_4">
     <g id="line2d_9">
      <g>
       <use xlink:href="#m548a3f18ff" x="503.670853" y="247.30125" style="stroke: #000000; stroke-width: 0.8"/>
      </g>
     </g>
    </g>
    <g id="text_3">
     <text style="font: 12px 'serif'; text-anchor: middle" x="432.389505" y="266.63375" transform="rotate(-0, 432.389505, 266.63375)">Arrival time</text>
    </g>
   </g>
   <g id="matplotlib.axis_2">
    <g id="ytick_1">
     <g id="line2d_10">
      <defs>
       <path id="mddd2ba74e2" d="M 0 0 
L -3.5 0 
" style="stroke: #000000; stroke-width: 0.8"/>
      </defs>
      <g>
       <use xlink:href="#mddd2ba74e2" x="307.49901" y="236.802203" style="stroke: #000000; stroke-width: 0.8"/>
      </g>
     </g>
    </g>
    <g id="ytick_2">
     <g id="line2d_11">
      <g>
       <use xlink:href="#mddd2ba74e2" x="307.49901" y="102.242926" style="stroke: #000000; stroke-width: 0.8"/>
      </g>
     </g>
    </g>
    <g id="ytick_3">
     <g id="line2d_12">
      <defs>
       <path id="m1a91ced41d" d="M 0 0 
L -2 0 
" style="stroke: #000000; stroke-width: 0.6"/>
      </defs>
      <g>
       <use xlink:href="#m1a91ced41d" x="307.49901" y="242.959298" style="stroke: #000000; stroke-width: 0.6"/>
      </g>
     </g>
    </g>
    <g id="ytick_4">
     <g id="line2d_13">
      <g>
       <use xlink:href="#m1a91ced41d" x="307.49901" y="196.295825" style="stroke: #000000; stroke-width: 0.6"/>
      </g>
     </g>
    </g>
    <g id="ytick_5">
     <g id="line2d_14">
      <g>
       <use xlink:href="#m1a91ced41d" x="307.49901" y="172.601112" style="stroke: #000000; stroke-width: 0.6"/>
      </g>
     </g>
    </g>
    <g id="ytick_6">
     <g id="line2d_15">
      <g>
       <use xlink:href="#m1a91ced41d" x="307.49901" y="155.789446" style="stroke: #000000; stroke-width: 0.6"/>
      </g>
     </g>
    </g>
    <g id="ytick_7">
     <g id="line2d_16">
      <g>
       <use xlink:href="#m1a91ced41d" x="307.49901" y="142.749305" style="stroke: #000000; stroke-width: 0.6"/>
      </g>
     </g>
    </g>
    <g id="ytick_8">
     <g id="line2d_17">
      <g>
       <use xlink:href="#m1a91ced41d" x="307.49901" y="132.094733" style="stroke: #000000; stroke-width: 0.6"/>
      </g>
     </g>
    </g>
    <g id="ytick_9">
     <g id="line2d_18">
      <g>
       <use xlink:href="#m1a91ced41d" x="307.49901" y="123.086422" style="stroke: #000000; stroke-width: 0.6"/>
      </g>
     </g>
    </g>
    <g id="ytick_10">
     <g id="line2d_19">
      <g>
       <use xlink:href="#m1a91ced41d" x="307.49901" y="115.283067" style="stroke: #000000; stroke-width: 0.6"/>
      </g>
     </g>
    </g>
    <g id="ytick_11">
     <g id="line2d_20">
      <g>
       <use xlink:href="#m1a91ced41d" x="307.49901" y="108.400021" style="stroke: #000000; stroke-width: 0.6"/>
      </g>
     </g>
    </g>
    <g id="ytick_12">
     <g id="line2d_21">
      <g>
       <use xlink:href="#m1a91ced41d" x="307.49901" y="61.736547" style="stroke: #000000; stroke-width: 0.6"/>
      </g>
     </g>
    </g>
    <g id="ytick_13">
     <g id="line2d_22">
      <g>
       <use xlink:href="#m1a91ced41d" x="307.49901" y="38.041835" style="stroke: #000000; stroke-width: 0.6"/>
      </g>
     </g>
    </g>
    <g id="text_4">
     <text style="font: 12px 'serif'; text-anchor: middle" x="293.909635" y="135.11125" transform="rotate(-90, 293.909635, 135.11125)">Log(Packet Intensity)</text>
    </g>
   </g>
   <g id="patch_49">
    <path d="M 307.49901 247.30125 
L 307.49901 22.92125 
" style="fill: none; stroke: #000000; stroke-width: 0.8; stroke-linejoin: miter; stroke-linecap: square"/>
   </g>
   <g id="patch_50">
    <path d="M 557.28 247.30125 
L 557.28 22.92125 
" style="fill: none; stroke: #000000; stroke-width: 0.8; stroke-linejoin: miter; stroke-linecap: square"/>
   </g>
   <g id="patch_51">
    <path d="M 307.49901 247.30125 
L 557.28 247.30125 
" style="fill: none; stroke: #000000; stroke-width: 0.8; stroke-linejoin: miter; stroke-linecap: square"/>
   </g>
   <g id="patch_52">
    <path d="M 307.49901 22.92125 
L 557.28 22.92125 
" style="fill: none; stroke: #000000; stroke-width: 0.8; stroke-linejoin: miter; stroke-linecap: square"/>
   </g>
   <g id="text_5">
    <text style="font: 14px 'serif'; text-anchor: middle" x="432.389505" y="16.92125" transform="rotate(-0, 432.389505, 16.92125)">Time-of-flight distribution</text>
   </g>
  </g>
 </g>
 <defs>
  <clipPath id="p6aa5091bb8">
   <rect x="7.2" y="76.072107" width="249.78099" height="118.078286"/>
  </clipPath>
  <clipPath id="pbddef513d1">
   <rect x="307.49901" y="22.92125" width="249.78099" height="224.38"/>
  </clipPath>
 </defs>
</svg>
